<svg width="92" height="28" fill="none"
    xmlns="http://www.w3.org/2000/svg">
    <rect width="92" height="28" rx="14" fill="#7CC6BB"/>
    <path d="M27.52 14.635c0 .965-.179 1.771-.538 2.42-.36.644-.881 1.13-1.565 1.459-.683.324-1.508.486-2.472.486h-2.38v-8.566h2.637c.887 0 1.653.16 2.297.48a3.39 3.39 0 0 1 1.494 1.412c.352.621.528 1.39.528 2.309Zm-1.464.04c0-.702-.111-1.28-.334-1.734a2.137 2.137 0 0 0-.973-1.007c-.425-.223-.95-.334-1.576-.334h-1.201v6.222h.996c1.035 0 1.809-.263 2.32-.79.512-.528.768-1.313.768-2.356ZM29.366 19v-8.566h1.407V19h-1.407Zm8.614-2.332c0 .508-.125.945-.375 1.313-.246.367-.602.648-1.067.843-.46.195-1.011.293-1.652.293a7.34 7.34 0 0 1-.897-.053 6.197 6.197 0 0 1-.808-.152 4.398 4.398 0 0 1-.686-.252v-1.324c.348.152.737.291 1.166.416.43.121.868.182 1.313.182.363 0 .664-.047.902-.141.242-.098.422-.234.54-.41.117-.18.175-.389.175-.627 0-.254-.068-.469-.205-.645-.137-.176-.344-.336-.621-.48a10.38 10.38 0 0 0-1.031-.475 6.969 6.969 0 0 1-.809-.386 3.289 3.289 0 0 1-.68-.51 2.203 2.203 0 0 1-.474-.692 2.438 2.438 0 0 1-.17-.949c0-.484.115-.898.346-1.242.234-.344.562-.607.984-.791.426-.184.922-.276 1.488-.276.45 0 .871.047 1.266.141.398.094.789.227 1.172.399l-.446 1.13a7.911 7.911 0 0 0-1.025-.345 3.959 3.959 0 0 0-1.008-.13c-.297 0-.549.046-.756.136-.207.09-.365.216-.474.38a1.02 1.02 0 0 0-.159.575c0 .25.061.46.182.633.125.168.317.322.574.462.262.141.598.297 1.008.47.473.194.873.4 1.201.614.332.215.586.473.762.774.176.297.264.67.264 1.119Zm5.303-5.162c-.41 0-.778.074-1.102.223-.32.148-.592.363-.814.644a2.911 2.911 0 0 0-.51 1.014 4.69 4.69 0 0 0-.176 1.336c0 .664.094 1.236.281 1.716.188.477.473.844.856 1.102.383.254.867.38 1.453.38.363 0 .717-.034 1.06-.105.344-.07.7-.166 1.067-.287v1.196a5.46 5.46 0 0 1-1.055.298 7.17 7.17 0 0 1-1.23.094c-.875 0-1.602-.181-2.18-.545a3.326 3.326 0 0 1-1.29-1.535c-.28-.66-.421-1.433-.421-2.32 0-.649.09-1.242.27-1.782.18-.539.44-1.003.785-1.394a3.403 3.403 0 0 1 1.271-.908c.508-.215 1.088-.322 1.74-.322.43 0 .852.048 1.266.146a5.15 5.15 0 0 1 1.16.404l-.492 1.16a7.208 7.208 0 0 0-.932-.363 3.35 3.35 0 0 0-1.008-.152Zm11.56 3.2c0 .66-.084 1.26-.252 1.804a3.857 3.857 0 0 1-.744 1.394 3.314 3.314 0 0 1-1.248.897c-.5.21-1.086.316-1.758.316-.684 0-1.277-.105-1.781-.316a3.284 3.284 0 0 1-1.248-.903 3.903 3.903 0 0 1-.738-1.4 6.221 6.221 0 0 1-.247-1.805c0-.883.145-1.652.434-2.308a3.34 3.34 0 0 1 1.33-1.535c.598-.368 1.352-.551 2.262-.551.89 0 1.63.181 2.22.545a3.35 3.35 0 0 1 1.325 1.535c.297.656.445 1.431.445 2.326Zm-6.539 0c0 .66.09 1.232.27 1.716.18.48.455.851.826 1.113.375.258.855.387 1.441.387.59 0 1.07-.129 1.441-.387.372-.262.645-.633.82-1.113.177-.485.265-1.057.265-1.717 0-1.004-.202-1.789-.604-2.355-.398-.57-1.035-.856-1.91-.856-.586 0-1.069.129-1.447.387-.375.258-.653.627-.832 1.107-.18.477-.27 1.05-.27 1.717Zm10.787-4.272c.738 0 1.348.09 1.828.27.485.179.844.452 1.078.82.239.367.358.833.358 1.4 0 .422-.078.781-.235 1.078a2.225 2.225 0 0 1-.615.738 3.469 3.469 0 0 1-.814.469L63.122 19h-1.588l-2.068-3.434H58.09V19h-1.406v-8.566h2.408Zm-.094 1.171h-.908v2.801h.973c.652 0 1.125-.12 1.418-.363.297-.242.445-.6.445-1.072 0-.496-.158-.848-.474-1.055-.313-.207-.797-.31-1.454-.31Zm12.305 3.03c0 .965-.18 1.771-.539 2.42-.36.644-.88 1.13-1.565 1.459-.683.324-1.507.486-2.472.486h-2.38v-8.566h2.638c.886 0 1.652.16 2.297.48a3.39 3.39 0 0 1 1.494 1.412c.351.621.527 1.39.527 2.309Zm-1.465.04c0-.702-.111-1.28-.334-1.734a2.138 2.138 0 0 0-.972-1.007c-.426-.223-.952-.334-1.577-.334h-1.2v6.222h.995c1.035 0 1.809-.263 2.32-.79.512-.528.768-1.313.768-2.356Z" fill="#292929"/>
</svg>
