<svg width="110" height="34" fill="none"
    xmlns="http://www.w3.org/2000/svg">
    <g clip-path="url(#a)">
        <path d="M93.26 0H16.74C7.493 0 0 7.494 0 16.74c0 9.244 7.494 16.738 16.74 16.738h76.52c9.246 0 16.74-7.494 16.74-16.739C110 7.494 102.506 0 93.26 0Z" fill="#7CC6BB"/>
        <path d="M32.904 17.499c0 1.154-.214 2.117-.644 2.893a4.143 4.143 0 0 1-1.87 1.745c-.817.387-1.804.58-2.957.58h-2.845V12.477h3.153c1.06 0 1.976.191 2.746.574.756.364 1.38.954 1.787 1.688.42.742.63 1.662.63 2.76Zm-1.75.048c0-.84-.134-1.53-.4-2.074a2.556 2.556 0 0 0-1.164-1.204c-.508-.266-1.135-.399-1.884-.399H26.27v7.44h1.191c1.238 0 2.163-.315 2.774-.945.612-.631.918-1.571.918-2.818Zm3.957 5.17V12.477h1.682v10.242h-1.682Zm10.3-2.787c0 .607-.15 1.13-.45 1.57-.293.438-.719.774-1.275 1.007-.55.233-1.209.35-1.975.35-.359.002-.717-.02-1.073-.063-.325-.039-.648-.1-.966-.181a5.26 5.26 0 0 1-.82-.302v-1.583c.416.182.881.348 1.394.498a5.771 5.771 0 0 0 1.57.217c.434 0 .794-.056 1.078-.168.29-.117.505-.28.646-.49.14-.216.21-.466.21-.75 0-.304-.082-.561-.246-.771-.163-.21-.411-.402-.742-.574-.4-.212-.812-.402-1.233-.568a8.32 8.32 0 0 1-.967-.462 3.931 3.931 0 0 1-.813-.61 2.633 2.633 0 0 1-.567-.827 2.914 2.914 0 0 1-.203-1.135c0-.578.137-1.073.413-1.485.28-.41.672-.725 1.177-.945.51-.22 1.102-.33 1.78-.33.537 0 1.04.056 1.513.168.476.113.943.272 1.401.477l-.533 1.351a9.456 9.456 0 0 0-1.226-.412 4.737 4.737 0 0 0-1.205-.156c-.355 0-.656.055-.904.163a1.261 1.261 0 0 0-.567.454 1.22 1.22 0 0 0-.19.688c0 .299.073.55.218.757.15.2.379.385.686.552.313.169.715.355 1.206.562a8.623 8.623 0 0 1 1.435.734c.397.257.701.566.911.926.211.355.316.8.316 1.338Zm6.34-6.172c-.49 0-.93.088-1.318.266a2.64 2.64 0 0 0-.973.77 3.48 3.48 0 0 0-.61 1.213 5.608 5.608 0 0 0-.21 1.597c0 .794.112 1.478.336 2.052.224.57.565 1.009 1.023 1.317.458.304 1.037.455 1.737.455.434 0 .858-.04 1.268-.126.411-.084.837-.198 1.276-.343v1.43c-.408.16-.83.28-1.262.356-.486.08-.978.118-1.47.113-1.047 0-1.916-.217-2.607-.652a3.977 3.977 0 0 1-1.543-1.835c-.334-.79-.503-1.714-.503-2.774a6.7 6.7 0 0 1 .323-2.13 4.76 4.76 0 0 1 .939-1.668 4.068 4.068 0 0 1 1.52-1.085c.607-.257 1.3-.385 2.08-.385.514 0 1.018.057 1.513.174.48.105.946.268 1.387.483l-.588 1.387a8.62 8.62 0 0 0-1.114-.434 3.996 3.996 0 0 0-1.204-.181Zm13.822 3.826c0 .789-.101 1.506-.302 2.157a4.613 4.613 0 0 1-.89 1.666c-.406.47-.917.837-1.492 1.073-.597.251-1.298.378-2.102.378-.817 0-1.526-.126-2.129-.378a3.927 3.927 0 0 1-1.492-1.08 4.668 4.668 0 0 1-.883-1.674 7.439 7.439 0 0 1-.295-2.158c0-1.056.173-1.975.519-2.76a3.993 3.993 0 0 1 1.59-1.835c.715-.44 1.617-.659 2.705-.659 1.064 0 1.949.217 2.654.652a4.005 4.005 0 0 1 1.584 1.835c.355.785.532 1.711.532 2.781v.002Zm-7.819 0c0 .789.108 1.473.323 2.051.215.574.544 1.018.988 1.331.448.309 1.022.463 1.723.463.705 0 1.279-.154 1.722-.463.445-.313.772-.757.98-1.33.212-.58.318-1.264.318-2.053 0-1.2-.242-2.14-.722-2.816-.476-.682-1.238-1.024-2.284-1.024-.7 0-1.278.155-1.73.463-.449.309-.781.75-.995 1.324-.215.57-.323 1.255-.323 2.053Zm12.898-5.108c.882 0 1.611.107 2.185.323.58.214 1.01.54 1.29.98.285.439.427.996.427 1.674 0 .505-.093.934-.28 1.289a2.66 2.66 0 0 1-.736.882c-.298.23-.625.42-.973.561l2.906 4.533h-1.898L71.1 18.612h-1.645v4.106h-1.681V12.476h2.878Zm-.113 1.4h-1.085v3.349h1.163c.78 0 1.345-.144 1.695-.434.356-.29.532-.717.532-1.282 0-.593-.188-1.014-.566-1.261-.375-.248-.953-.37-1.739-.37v-.002Zm14.713 3.623c0 1.154-.215 2.117-.645 2.893a4.136 4.136 0 0 1-1.871 1.745c-.817.387-1.802.58-2.956.58h-2.845V12.477h3.154c1.06 0 1.975.191 2.746.574.756.364 1.38.954 1.787 1.688.42.742.63 1.662.63 2.76Zm-1.752.048c0-.84-.133-1.53-.4-2.074a2.556 2.556 0 0 0-1.161-1.204c-.51-.266-1.139-.399-1.886-.399h-1.435v7.44h1.19c1.237 0 2.163-.315 2.774-.945.612-.631.918-1.571.918-2.818Z" fill="#292929"/>
    </g>
    <defs>
        <clipPath id="a">
            <path fill="#fff" d="M0 0h110v33.478H0z"/>
        </clipPath>
    </defs>
</svg>
