<svg width="92" height="28" fill="none"
    xmlns="http://www.w3.org/2000/svg">
    <rect width="92" height="28" rx="14" fill="#7CC6BB"/>
    <path d="M18.943 19v-8.566h1.406v7.37h3.639V19h-5.045Zm6.527 0v-8.566h1.406V19H25.47Zm10.816 0h-1.728l-4.195-6.838h-.053c.016.23.03.475.04.732.016.258.028.524.036.797.012.274.021.551.03.832V19h-1.278v-8.566h1.717l4.19 6.79h.04c-.008-.199-.017-.427-.03-.685-.01-.258-.023-.523-.034-.797a61.915 61.915 0 0 1-.018-.803v-4.505h1.283V19Zm8.784 0h-1.618l-2.666-3.89-.843.685V19h-1.407v-8.566h1.407v4.095c.172-.21.345-.422.521-.633l.528-.632 2.414-2.83h1.587l-3.199 3.75L45.07 19Zm5.982 0H46.2v-8.566h4.852v1.183h-3.445v2.326h3.228v1.178h-3.228v2.69h3.445V19Zm8.807-4.365c0 .965-.18 1.771-.54 2.42-.359.644-.88 1.13-1.564 1.459-.684.324-1.508.486-2.473.486h-2.378v-8.566h2.636c.887 0 1.653.16 2.297.48a3.39 3.39 0 0 1 1.494 1.412c.352.621.528 1.39.528 2.309Zm-1.465.04c0-.702-.111-1.28-.334-1.734a2.137 2.137 0 0 0-.973-1.007c-.426-.223-.951-.334-1.576-.334H54.31v6.222h.996c1.035 0 1.809-.263 2.32-.79.512-.528.768-1.313.768-2.356ZM61.704 19v-8.566h1.407V19h-1.407Zm10.817 0h-1.729l-4.195-6.838h-.053c.016.23.03.475.041.732.016.258.028.524.035.797.012.274.022.551.03.832V19h-1.278v-8.566h1.717l4.19 6.79h.04c-.007-.199-.017-.427-.029-.685a363.05 363.05 0 0 1-.035-.797 61.87 61.87 0 0 1-.017-.803v-4.505h1.283V19Z" fill="#292929"/>
</svg>
