<svg width="92" height="28" fill="none"
    xmlns="http://www.w3.org/2000/svg">
    <rect width="92" height="28" rx="14" fill="#7CC6BB"/>
    <path d="m21.392 14.342 2.033-3.908h1.518l-2.848 5.238V19h-1.4v-3.275l-2.854-5.291h1.53l2.02 3.908Zm12.281.363a6.09 6.09 0 0 1-.252 1.805 3.857 3.857 0 0 1-.744 1.394 3.314 3.314 0 0 1-1.248.897c-.5.21-1.086.316-1.758.316-.683 0-1.277-.105-1.781-.316a3.284 3.284 0 0 1-1.248-.903 3.9 3.9 0 0 1-.738-1.4 6.221 6.221 0 0 1-.247-1.805c0-.883.145-1.652.434-2.308a3.34 3.34 0 0 1 1.33-1.535c.598-.368 1.352-.551 2.262-.551.89 0 1.63.181 2.22.545a3.35 3.35 0 0 1 1.325 1.535c.297.656.445 1.431.445 2.326Zm-6.539 0c0 .66.09 1.232.27 1.717.18.48.455.851.826 1.113.375.258.855.387 1.441.387.59 0 1.07-.129 1.442-.387.37-.262.644-.633.82-1.113.176-.485.264-1.057.264-1.717 0-1.004-.202-1.789-.604-2.355-.398-.57-1.035-.856-1.91-.856-.586 0-1.069.129-1.447.387-.375.258-.653.627-.832 1.107-.18.477-.27 1.05-.27 1.717Zm15.105-4.271v5.543c0 .597-.126 1.132-.38 1.605a2.72 2.72 0 0 1-1.137 1.125c-.508.273-1.147.41-1.916.41-1.098 0-1.934-.287-2.508-.861-.57-.578-.855-1.346-.855-2.303v-5.52h1.406v5.397c0 .715.168 1.242.504 1.582.336.34.838.51 1.506.51.46 0 .836-.08 1.125-.24.293-.164.508-.403.644-.715.14-.317.211-.697.211-1.143v-5.39h1.4ZM47.403 19h-1.413v-7.371h-2.507v-1.195h6.422v1.195h-2.502V19Zm10.54-8.566v5.543c0 .597-.126 1.132-.38 1.605-.25.473-.63.848-1.137 1.125-.508.273-1.146.41-1.916.41-1.098 0-1.934-.287-2.508-.861-.57-.578-.855-1.346-.855-2.303v-5.52h1.406v5.397c0 .715.168 1.242.504 1.582.336.34.838.51 1.506.51.46 0 .836-.08 1.125-.24.293-.164.508-.403.644-.715.14-.317.211-.697.211-1.143v-5.39h1.4Zm2.192 0h2.549c1.105 0 1.94.16 2.502.48.562.32.844.873.844 1.658 0 .328-.059.625-.176.89-.113.263-.28.48-.498.651a1.853 1.853 0 0 1-.809.34v.059c.332.058.627.162.885.31.262.149.467.362.615.639.152.277.229.637.229 1.078 0 .523-.125.969-.375 1.336-.246.367-.6.646-1.06.838-.458.191-1 .287-1.63.287h-3.076v-8.566Zm1.406 3.533h1.348c.637 0 1.078-.104 1.324-.31.246-.208.37-.51.37-.909 0-.406-.147-.7-.44-.879-.29-.18-.75-.27-1.383-.27H61.54v2.368Zm0 1.136v2.72h1.483c.656 0 1.117-.128 1.383-.382.265-.253.398-.597.398-1.03 0-.267-.06-.497-.182-.692-.117-.196-.31-.346-.58-.451-.27-.11-.633-.165-1.09-.165H61.54ZM72.896 19h-4.852v-8.566h4.852v1.183H69.45v2.326h3.228v1.178h-3.228v2.69h3.445V19Z" fill="#292929"/>
</svg>
