<svg width="110" height="28" viewBox="0 0 110 28" fill="none" xmlns="http://www.w3.org/2000/svg">
<rect width="110" height="28" fill="#38B2AC"/>
<path d="M25.4706 7.07209L20.7043 8.89379C20.4964 8.97527 20.318 9.11758 20.1924 9.30211C20.0667 9.48663 19.9997 9.70478 20 9.92803V14.5142L22.1905 13.2553V10.6767L25.8616 9.26811V7C25.728 7.00029 25.5956 7.02471 25.4706 7.07209Z" fill="white"/>
<path d="M22.2293 17.3419L25.8616 15.2485V12.7197L20.2495 15.9555C20.174 15.9998 20.1113 16.0629 20.0675 16.1388C20.0238 16.2146 20.0005 16.3005 20 16.3881V18.0822C20.0019 18.3036 20.07 18.5193 20.1955 18.7016C20.321 18.884 20.4982 19.0246 20.7043 19.1054L25.4706 20.9271C25.5956 20.9744 25.728 20.9989 25.8616 20.9992V18.7311L22.2293 17.3419Z" fill="white"/>
<path d="M31.4905 11.9993C31.5621 11.9582 31.6215 11.8988 31.6624 11.8272C31.7034 11.7555 31.7244 11.6742 31.7234 11.5917V9.92802C31.7237 9.70478 31.6567 9.48663 31.531 9.30211C31.4054 9.11758 31.227 8.97527 31.0191 8.89379L26.25 7.07209C26.126 7.02504 25.9945 7.00062 25.8618 7V9.26811L29.4664 10.6545L25.8618 12.7313V15.26L31.4905 11.9993Z" fill="white"/>
<path d="M26.25 20.9278L31.0191 19.1061C31.2252 19.0253 31.4024 18.8847 31.5279 18.7024C31.6534 18.52 31.7215 18.3043 31.7234 18.083V13.4497L29.5329 14.7141V17.3288L25.8618 18.7318V20.9999C25.9945 20.9993 26.126 20.9749 26.25 20.9278Z" fill="white"/>
<path d="M48.9336 18H42.2144V16.5015L46.1997 11.5493H42.4077V10.0024H48.7188V11.5278L44.7388 16.4531H48.9336V18ZM56.1523 18H50.3677V10.0024H56.1523V11.5493H52.4194V12.9297H55.8838V14.4766H52.4194V16.4531H56.1523V18ZM62.3721 12.4517C62.3721 12.2511 62.3309 12.0793 62.2485 11.936C62.1662 11.7928 62.0247 11.68 61.8242 11.5977C61.6846 11.5404 61.5216 11.5063 61.3354 11.4956C61.1493 11.4813 60.9326 11.4741 60.6855 11.4741H59.939V13.6279H60.5728C60.9022 13.6279 61.1779 13.6118 61.3999 13.5796C61.6219 13.5474 61.8081 13.474 61.9585 13.3594C62.1017 13.2484 62.2056 13.1266 62.27 12.9941C62.3381 12.8581 62.3721 12.6772 62.3721 12.4517ZM65.5894 18H63.0703L60.8896 15.0674H59.939V18H57.8872V10.0024H61.3462C61.8188 10.0024 62.2253 10.0293 62.5654 10.083C62.9056 10.1367 63.2243 10.2531 63.5215 10.4321C63.8223 10.6112 64.0604 10.8439 64.2358 11.1304C64.4149 11.4132 64.5044 11.7695 64.5044 12.1992C64.5044 12.79 64.3665 13.2716 64.0908 13.644C63.8187 14.0164 63.4284 14.3262 62.9199 14.5732L65.5894 18ZM74.269 14.0039C74.269 15.2786 73.9038 16.292 73.1733 17.0439C72.4429 17.7923 71.4331 18.1665 70.144 18.1665C68.8586 18.1665 67.8506 17.7923 67.1201 17.0439C66.3896 16.292 66.0244 15.2786 66.0244 14.0039C66.0244 12.7184 66.3896 11.7033 67.1201 10.9585C67.8506 10.2101 68.8586 9.83594 70.144 9.83594C71.4259 9.83594 72.4339 10.2101 73.168 10.9585C73.902 11.7033 74.269 12.7184 74.269 14.0039ZM71.5352 16.0288C71.7357 15.7853 71.8843 15.4989 71.981 15.1694C72.0776 14.8364 72.126 14.4461 72.126 13.9985C72.126 13.5187 72.0705 13.1105 71.9595 12.7739C71.8485 12.4373 71.7035 12.1652 71.5244 11.9575C71.3418 11.7427 71.1305 11.5869 70.8906 11.4902C70.6543 11.3936 70.4072 11.3452 70.1494 11.3452C69.888 11.3452 69.641 11.3918 69.4082 11.4849C69.179 11.578 68.9678 11.7319 68.7744 11.9468C68.5954 12.1473 68.4486 12.4248 68.334 12.7793C68.223 13.1302 68.1675 13.5384 68.1675 14.0039C68.1675 14.4801 68.2212 14.8866 68.3286 15.2231C68.4396 15.5562 68.5846 15.8283 68.7637 16.0396C68.9427 16.2508 69.1522 16.4066 69.3921 16.5068C69.632 16.6071 69.8844 16.6572 70.1494 16.6572C70.4144 16.6572 70.6668 16.6071 70.9067 16.5068C71.1466 16.403 71.3561 16.2437 71.5352 16.0288ZM82.4492 12.5269C82.4492 12.8849 82.3866 13.2358 82.2612 13.5796C82.1359 13.9198 81.9569 14.2062 81.7241 14.439C81.4054 14.7541 81.0492 14.9922 80.6553 15.1533C80.265 15.3145 79.778 15.395 79.1943 15.395H77.9106V18H75.8481V10.0024H79.2427C79.7511 10.0024 80.179 10.0472 80.5264 10.1367C80.8773 10.2227 81.187 10.3534 81.4556 10.5288C81.7778 10.7401 82.0231 11.0104 82.1914 11.3398C82.3633 11.6693 82.4492 12.0649 82.4492 12.5269ZM80.3169 12.5752C80.3169 12.3496 80.256 12.1562 80.1343 11.9951C80.0125 11.8304 79.8711 11.7158 79.71 11.6514C79.4951 11.5654 79.2856 11.5189 79.0815 11.5117C78.8774 11.501 78.6053 11.4956 78.2651 11.4956H77.9106V13.8911H78.5015C78.8524 13.8911 79.1406 13.8696 79.3662 13.8267C79.5954 13.7837 79.7869 13.6978 79.9409 13.5688C80.0734 13.4543 80.1683 13.3182 80.2256 13.1606C80.2865 12.9995 80.3169 12.8044 80.3169 12.5752ZM90.3179 15.4863C90.3179 16.2741 89.9831 16.915 89.3135 17.4092C88.6475 17.8997 87.7415 18.145 86.5957 18.145C85.9333 18.145 85.355 18.0877 84.8608 17.9731C84.3703 17.855 83.9102 17.7064 83.4805 17.5273V15.6099H83.7061C84.1322 15.95 84.6084 16.2114 85.1348 16.394C85.6647 16.5767 86.1732 16.668 86.6602 16.668C86.7855 16.668 86.9502 16.6572 87.1543 16.6357C87.3584 16.6143 87.5249 16.5785 87.6538 16.5283C87.8114 16.4639 87.9403 16.3833 88.0405 16.2866C88.1444 16.1899 88.1963 16.0467 88.1963 15.8569C88.1963 15.6815 88.1211 15.5311 87.9707 15.4058C87.8239 15.2769 87.6073 15.1784 87.3208 15.1104C87.02 15.0387 86.7013 14.9725 86.3647 14.9116C86.0317 14.8472 85.7184 14.7666 85.4248 14.6699C84.7516 14.4515 84.2664 14.1561 83.9692 13.7837C83.6756 13.4077 83.5288 12.9422 83.5288 12.3872C83.5288 11.6424 83.8618 11.0355 84.5278 10.5664C85.1974 10.0938 86.0568 9.85742 87.106 9.85742C87.6323 9.85742 88.1515 9.90934 88.6636 10.0132C89.1792 10.1134 89.625 10.2406 90.001 10.3945V12.2368H89.7808C89.4585 11.979 89.0628 11.7642 88.5938 11.5923C88.1283 11.4168 87.652 11.3291 87.165 11.3291C86.9932 11.3291 86.8213 11.3416 86.6494 11.3667C86.4811 11.3882 86.3182 11.4312 86.1606 11.4956C86.021 11.5493 85.901 11.6317 85.8008 11.7427C85.7005 11.8501 85.6504 11.9736 85.6504 12.1133C85.6504 12.3245 85.731 12.4875 85.8921 12.6021C86.0532 12.7131 86.3576 12.8151 86.8052 12.9082C87.0988 12.9691 87.3799 13.0282 87.6484 13.0854C87.9206 13.1427 88.2124 13.2215 88.5239 13.3218C89.1362 13.5223 89.5874 13.7962 89.8774 14.1436C90.1711 14.4873 90.3179 14.9349 90.3179 15.4863Z" fill="white"/>
</svg>
