<svg width="366" height="66" fill="none"
    xmlns="http://www.w3.org/2000/svg">
    <rect width="366" height="66" rx="33" fill="#EDEFF3"/>
    <path d="M82.814 33.997c0 1.769-.33 3.248-.989 4.437-.659 1.181-1.615 2.073-2.868 2.674-1.253.595-2.764.892-4.533.892h-4.362V26.295h4.835c1.625 0 3.029.293 4.21.88a6.217 6.217 0 0 1 2.74 2.59c.644 1.138.967 2.55.967 4.232Zm-2.686.075c0-1.289-.204-2.349-.612-3.18-.401-.83-.996-1.446-1.784-1.847-.78-.408-1.743-.612-2.89-.612h-2.201V39.84h1.826c1.898 0 3.316-.484 4.254-1.45.938-.967 1.407-2.407 1.407-4.319Zm10.549-4.19c1.06 0 1.97.22 2.728.656a4.39 4.39 0 0 1 1.751 1.859c.408.802.613 1.761.613 2.878v1.354H87.83c.029 1.153.337 2.04.924 2.664.594.623 1.425.934 2.492.934.76 0 1.44-.071 2.041-.214a11.33 11.33 0 0 0 1.88-.656v2.052a8.22 8.22 0 0 1-1.815.613c-.616.128-1.354.193-2.213.193-1.168 0-2.195-.226-3.083-.677-.881-.458-1.572-1.139-2.074-2.04-.494-.903-.74-2.024-.74-3.363 0-1.332.225-2.464.676-3.395.451-.93 1.085-1.64 1.901-2.127.817-.487 1.77-.73 2.858-.73Zm0 1.902c-.795 0-1.44.258-1.934.774-.487.515-.773 1.27-.86 2.266h5.415c-.007-.594-.108-1.12-.3-1.579a2.29 2.29 0 0 0-.86-1.074c-.38-.258-.867-.387-1.461-.387Zm14.04-1.901c1.411 0 2.542.515 3.394 1.547.86 1.03 1.289 2.563 1.289 4.597 0 1.347-.2 2.482-.601 3.406-.394.916-.949 1.61-1.665 2.084-.709.465-1.536.698-2.482.698-.601 0-1.124-.079-1.568-.237a3.914 3.914 0 0 1-1.139-.612 4.37 4.37 0 0 1-.795-.838H101c.036.287.068.605.097.956.035.344.053.66.053.946v4.844h-2.535V30.108h2.063l.354 1.644h.118c.222-.337.491-.648.806-.935a3.561 3.561 0 0 1 1.16-.676c.459-.172.992-.258 1.601-.258Zm-.677 2.062c-.695 0-1.253.14-1.676.42-.415.271-.719.683-.913 1.235-.186.551-.286 1.242-.301 2.073v.354c0 .881.09 1.63.269 2.245.186.61.491 1.075.913 1.397.43.315 1.01.473 1.74.473.616 0 1.125-.169 1.526-.505.408-.337.712-.817.913-1.44.2-.623.301-1.357.301-2.202 0-1.282-.23-2.277-.688-2.986-.451-.71-1.146-1.064-2.084-1.064ZM114.857 42h-2.535V25.285h2.535V42Zm14.137-5.973c0 .989-.129 1.866-.387 2.632-.257.767-.633 1.415-1.128 1.944a4.966 4.966 0 0 1-1.783 1.204c-.694.272-1.479.408-2.352.408-.817 0-1.565-.136-2.245-.408a5.115 5.115 0 0 1-1.773-1.204c-.494-.53-.877-1.178-1.149-1.944s-.408-1.643-.408-2.632c0-1.31.225-2.42.676-3.33.459-.916 1.11-1.615 1.955-2.095.845-.48 1.852-.72 3.019-.72 1.096 0 2.062.24 2.9.72.838.48 1.493 1.179 1.966 2.095.473.917.709 2.027.709 3.33Zm-8.626 0c0 .867.104 1.608.312 2.224.215.616.544 1.089.988 1.418.444.322 1.017.483 1.719.483.702 0 1.274-.16 1.718-.483.444-.33.77-.802.978-1.418.208-.616.312-1.357.312-2.224 0-.866-.104-1.6-.312-2.202-.208-.608-.534-1.07-.978-1.386-.444-.322-1.02-.483-1.729-.483-1.046 0-1.808.351-2.288 1.053-.48.702-.72 1.708-.72 3.018Zm9.733-5.919h2.75l2.438 6.79c.107.307.204.612.29.912.093.294.172.584.236.87.072.287.129.574.172.86h.065c.071-.372.172-.788.301-1.246.136-.465.286-.931.451-1.396l2.342-6.79h2.717l-5.102 13.525c-.294.773-.656 1.432-1.085 1.976a4.162 4.162 0 0 1-1.504 1.246c-.58.287-1.243.43-1.987.43-.359 0-.67-.021-.935-.064a7.564 7.564 0 0 1-.677-.118v-2.02c.151.036.34.068.57.097.229.028.465.043.709.043.451 0 .841-.09 1.17-.269.33-.179.609-.433.838-.763.23-.322.419-.69.57-1.106l.419-1.117-4.748-11.86Zm29.809 5.92c0 .988-.129 1.865-.387 2.631-.257.767-.633 1.415-1.127 1.944a4.978 4.978 0 0 1-1.784 1.204c-.694.272-1.479.408-2.352.408-.817 0-1.565-.136-2.245-.408a5.115 5.115 0 0 1-1.773-1.204c-.494-.53-.877-1.178-1.149-1.944s-.408-1.643-.408-2.632c0-1.31.225-2.42.676-3.33.459-.916 1.11-1.615 1.955-2.095.845-.48 1.852-.72 3.019-.72 1.096 0 2.062.24 2.9.72.838.48 1.494 1.179 1.966 2.095.473.917.709 2.027.709 3.33Zm-8.626 0c0 .866.104 1.607.312 2.223.215.616.544 1.089.988 1.418.444.322 1.017.483 1.719.483.702 0 1.274-.16 1.718-.483.444-.33.77-.802.978-1.418.208-.616.312-1.357.312-2.224 0-.866-.104-1.6-.312-2.202-.208-.608-.534-1.07-.978-1.386-.444-.322-1.02-.483-1.729-.483-1.046 0-1.808.351-2.288 1.053-.48.702-.72 1.708-.72 3.018Zm17.725-6.145c1.339 0 2.381.347 3.126 1.042.752.687 1.128 1.794 1.128 3.32V42h-2.525v-7.283c0-.924-.189-1.615-.569-2.073-.38-.466-.967-.699-1.762-.699-1.153 0-1.955.355-2.406 1.064-.444.709-.666 1.736-.666 3.083V42h-2.524V30.108h1.965l.355 1.612h.14c.257-.416.576-.756.956-1.02a4.268 4.268 0 0 1 1.289-.613 5.438 5.438 0 0 1 1.493-.204ZM192.685 42h-11.29v-1.773l7.992-11.74h-7.745v-2.192h10.828v1.762l-7.992 11.752h8.207V42Zm7.24-12.117c1.06 0 1.969.218 2.728.655a4.39 4.39 0 0 1 1.751 1.859c.408.802.613 1.761.613 2.878v1.354h-7.939c.029 1.153.337 2.04.924 2.664.594.623 1.425.934 2.492.934.759 0 1.44-.071 2.041-.214.609-.15 1.236-.37 1.88-.656v2.052c-.594.28-1.2.484-1.815.613-.616.128-1.354.193-2.213.193-1.168 0-2.195-.226-3.083-.677-.881-.458-1.572-1.139-2.074-2.04-.494-.903-.741-2.024-.741-3.363 0-1.332.226-2.464.677-3.395.451-.93 1.085-1.64 1.901-2.127.817-.487 1.769-.73 2.858-.73Zm0 1.901c-.795 0-1.44.258-1.934.774-.487.515-.773 1.27-.859 2.266h5.414c-.007-.594-.108-1.12-.301-1.579a2.293 2.293 0 0 0-.859-1.074c-.38-.258-.867-.387-1.461-.387Zm13.965-1.901a7.302 7.302 0 0 1 1.267.118l-.236 2.363a3.187 3.187 0 0 0-.559-.096 5.879 5.879 0 0 0-.58-.033c-.451 0-.881.075-1.289.226-.408.143-.77.365-1.085.666a3.04 3.04 0 0 0-.741 1.106c-.179.444-.269.96-.269 1.547V42h-2.535V30.108h1.977l.344 2.095h.118c.236-.422.53-.81.881-1.16.351-.35.752-.63 1.203-.838a3.495 3.495 0 0 1 1.504-.322Zm13.997 6.144c0 .989-.129 1.866-.387 2.632-.258.767-.634 1.415-1.128 1.944a4.966 4.966 0 0 1-1.783 1.204c-.695.272-1.479.408-2.353.408a5.995 5.995 0 0 1-2.245-.408 5.12 5.12 0 0 1-1.772-1.204c-.494-.53-.878-1.178-1.15-1.944-.272-.766-.408-1.643-.408-2.632 0-1.31.226-2.42.677-3.33.458-.916 1.11-1.615 1.955-2.095.845-.48 1.851-.72 3.019-.72 1.095 0 2.062.24 2.9.72.838.48 1.493 1.179 1.966 2.095.472.917.709 2.027.709 3.33Zm-8.626 0c0 .867.104 1.608.311 2.224.215.616.545 1.089.989 1.418.444.322 1.016.483 1.718.483s1.275-.16 1.719-.483c.444-.33.77-.802.978-1.418.207-.616.311-1.357.311-2.224 0-.866-.104-1.6-.311-2.202-.208-.608-.534-1.07-.978-1.386-.444-.322-1.02-.483-1.729-.483-1.046 0-1.809.351-2.289 1.053-.479.702-.719 1.708-.719 3.018Zm17.628-6.144c1.41 0 2.542.515 3.394 1.547.86 1.03 1.289 2.563 1.289 4.597 0 1.347-.2 2.482-.601 3.406-.394.916-.949 1.61-1.665 2.084-.709.465-1.536.698-2.482.698-.601 0-1.124-.079-1.568-.237a3.914 3.914 0 0 1-1.139-.612 4.37 4.37 0 0 1-.795-.838h-.15c.036.287.068.605.097.956.035.344.053.66.053.946v4.844h-2.535V30.108h2.063l.354 1.644h.118c.222-.337.491-.648.806-.935a3.561 3.561 0 0 1 1.16-.676c.458-.172.992-.258 1.601-.258Zm-.677 2.062c-.695 0-1.253.14-1.676.42-.415.271-.72.683-.913 1.235-.186.551-.286 1.242-.301 2.073v.354c0 .881.09 1.63.269 2.245.186.61.49 1.075.913 1.397.43.315 1.01.473 1.74.473.616 0 1.124-.169 1.526-.505.408-.337.712-.817.913-1.44.2-.623.3-1.357.3-2.202 0-1.282-.229-2.277-.687-2.986-.451-.71-1.146-1.064-2.084-1.064Zm16.274 6.66c0 .781-.189 1.44-.569 1.977-.38.537-.935.945-1.665 1.225-.723.272-1.611.408-2.664.408-.831 0-1.547-.061-2.149-.183a7.363 7.363 0 0 1-1.686-.537v-2.18c.566.264 1.199.494 1.901.687a7.65 7.65 0 0 0 2.009.29c.831 0 1.429-.129 1.794-.387.365-.265.548-.616.548-1.053 0-.257-.075-.486-.226-.687-.143-.208-.415-.419-.816-.634-.394-.222-.974-.487-1.74-.795a14.54 14.54 0 0 1-1.902-.902c-.515-.3-.906-.663-1.171-1.085-.265-.43-.397-.977-.397-1.644 0-1.052.415-1.85 1.246-2.395.838-.552 1.944-.827 3.319-.827.731 0 1.418.075 2.063.225a9.804 9.804 0 0 1 1.912.634l-.795 1.902a11.884 11.884 0 0 0-1.622-.58 5.809 5.809 0 0 0-1.644-.237c-.651 0-1.149.1-1.493.3-.336.201-.505.488-.505.86 0 .28.083.516.247.71.165.193.448.386.849.58.408.193.974.433 1.697.72.709.271 1.322.558 1.837.858.523.294.924.656 1.203 1.085.28.43.419.985.419 1.666Z" fill="#292929"/>
    <g clip-path="url(#a)">
        <path d="M280 36c-.83 0-1.58.34-2.12.88C276.7 38.06 276 43 276 43s4.94-.7 6.12-1.88A2.996 2.996 0 0 0 280 36Zm.71 3.71c-.28.28-2.17.76-2.17.76s.47-1.88.76-2.17c.17-.19.42-.3.7-.3a1.003 1.003 0 0 1 .71 1.71Zm10.71-5.06c6.36-6.36 4.24-11.31 4.24-11.31s-4.95-2.12-11.31 4.24l-2.49-.5a2.03 2.03 0 0 0-1.81.55L276 31.69l5 2.14 4.17 4.17 2.14 5 4.05-4.05c.47-.47.68-1.15.55-1.81l-.49-2.49Zm-10.01-2.82-1.91-.82 1.97-1.97 1.44.29c-.57.83-1.08 1.7-1.5 2.5Zm6.58 7.67-.82-1.91c.8-.42 1.67-.93 2.49-1.5l.29 1.44-1.96 1.97Zm2.01-6.26c-1.32 1.32-3.38 2.4-4.04 2.73l-2.93-2.93c.32-.65 1.4-2.71 2.73-4.04 4.68-4.68 8.23-3.99 8.23-3.99s.69 3.55-3.99 8.23ZM289 32c1.1 0 2-.9 2-2s-.9-2-2-2-2 .9-2 2 .9 2 2 2Z" fill="#292929"/>
    </g>
    <defs>
        <clipPath id="a">
            <path fill="#fff" transform="translate(274 21)" d="M0 0h24v24H0z"/>
        </clipPath>
    </defs>
</svg>