<svg width="40" height="32" viewBox="0 0 40 32" fill="none"
    xmlns="http://www.w3.org/2000/svg">
    <path d="M32.7812 4.36245C32.7687 4.3437 32.7562 4.32495 32.7312 4.3187C30.35 3.22495 27.8312 2.4437 25.25 1.99995C25.2 1.9937 25.1562 2.01245 25.1312 2.0562C24.7875 2.67495 24.475 3.3187 24.2 3.9687C21.4125 3.5437 18.5812 3.5437 15.8 3.9687C15.5187 3.31245 15.2062 2.67495 14.8562 2.0562C14.8312 2.01245 14.7812 1.9937 14.7375 1.99995C12.1562 2.4437 9.63748 3.22495 7.25623 4.3187C7.23748 4.32495 7.21873 4.3437 7.20623 4.36245C2.44373 11.4812 1.13748 18.4187 1.77498 25.275C1.78123 25.3062 1.79373 25.3375 1.82498 25.3624C4.59998 27.4187 7.69998 28.9874 11 30C11.05 30.0125 11.1 30 11.1312 29.9562C11.8375 28.9937 12.4687 27.9687 13.0062 26.9062C13.0375 26.85 13.0125 26.7812 12.9562 26.75C12.95 26.75 12.95 26.7437 12.9437 26.7437C11.9562 26.3624 10.9937 25.9062 10.075 25.375C10.0187 25.3437 9.99998 25.2687 10.0312 25.2125C10.0375 25.1999 10.05 25.1875 10.0625 25.1812C10.2562 25.0375 10.45 24.8874 10.6312 24.7374C10.6625 24.7125 10.7125 24.7062 10.75 24.7187C16.7625 27.4625 23.275 27.4625 29.2187 24.7187C29.2562 24.7 29.3062 24.7062 29.3375 24.7312C29.5187 24.8812 29.7125 25.0375 29.9062 25.1812C29.9562 25.2187 29.9687 25.2937 29.9312 25.3437C29.925 25.3562 29.9125 25.3687 29.9 25.375C28.9812 25.9125 28.025 26.3687 27.0312 26.7374C26.9687 26.7624 26.9375 26.8312 26.9625 26.8875C26.9625 26.8937 26.9687 26.8937 26.9687 26.9C27.5187 27.9625 28.1437 28.9812 28.8437 29.95C28.875 29.9937 28.925 30.0062 28.975 29.9937C32.2812 28.9812 35.3875 27.4125 38.1687 25.3562C38.1937 25.3375 38.2125 25.3062 38.2187 25.2687C38.9812 17.3499 36.9312 10.4687 32.7812 4.36245ZM13.9062 21.1C12.0937 21.1 10.6062 19.4375 10.6062 17.4C10.6062 15.3625 12.0687 13.7 13.9062 13.7C15.7625 13.7 17.2375 15.375 17.2062 17.4C17.2062 19.4375 15.7437 21.1 13.9062 21.1ZM26.1187 21.1C24.3062 21.1 22.8187 19.4375 22.8187 17.4C22.8187 15.3625 24.2812 13.7 26.1187 13.7C27.975 13.7 29.45 15.375 29.4187 17.4C29.4187 19.4375 27.9687 21.1 26.1187 21.1Z" fill="#7CC6BB"/>
</svg>
