<svg width="36" height="33" fill="none"
    xmlns="http://www.w3.org/2000/svg">
    <path fill-rule="evenodd" clip-rule="evenodd" d="M25.906.936c-2.33 0-4.657.855-6.488 2.315-.621.496-.933.744-1.14.801-.235.066-.32.066-.557 0-.207-.057-.518-.305-1.14-.802C14.75 1.79 12.42.936 10.092.936 4.645.936.428 5.153.428 10.6c0 6.681 5.97 12.124 15.115 20.207l1.325 1.228c.402.372.603.559.83.629.202.062.417.062.618 0 .229-.07.43-.257.831-.63l1.325-1.227C29.42 22.553 35.57 17.101 35.57 10.604c0-5.451-4.218-9.668-9.665-9.668Z" fill="#7CC6BB"/>
</svg>
