<svg width="26" height="22" fill="none"
    xmlns="http://www.w3.org/2000/svg">
    <path d="M10.5 7.25h8.75m-8.75 5h8.75m-12.5-5h.013m-.013 5h.013M24.25 21l-4.155-2.078c-.315-.157-.473-.236-.638-.291a2.514 2.514 0 0 0-.45-.107c-.173-.024-.35-.024-.701-.024H5.75c-1.4 0-2.1 0-2.635-.273a2.5 2.5 0 0 1-1.093-1.092C1.75 16.6 1.75 15.9 1.75 14.5V5c0-1.4 0-2.1.272-2.635a2.5 2.5 0 0 1 1.093-1.093C3.65 1 4.35 1 5.75 1h14.5c1.4 0 2.1 0 2.635.272a2.5 2.5 0 0 1 1.092 1.093C24.25 2.9 24.25 3.6 24.25 5v16Z" stroke="#7CC6BB" stroke-width="2" stroke-linecap="round" stroke-linejoin="round"/>
</svg>
