<svg width="24" height="22" viewBox="0 0 24 22" fill="none"
    xmlns="http://www.w3.org/2000/svg">
    <path d="M14.4444 7.25H5.88889M14.4444 12.25H5.88889M18.1111 7.25H18.0989M18.1111 12.25H18.0989M1 21L5.06303 18.9222C5.37103 18.7647 5.52503 18.686 5.68649 18.6305C5.82973 18.5813 5.97726 18.5456 6.12698 18.5241C6.29564 18.5 6.46786 18.5 6.81216 18.5H19.0889C20.4579 18.5 21.1424 18.5 21.6653 18.2275C22.1253 17.9879 22.4992 17.6054 22.7336 17.135C23 16.6003 23 15.9001 23 14.5V5C23 3.59986 23 2.8998 22.7336 2.36503C22.4992 1.89461 22.1253 1.51216 21.6653 1.27249C21.1424 1 20.4579 1 19.0889 1H4.91111C3.5421 1 2.85753 1 2.33467 1.27249C1.87474 1.51216 1.50075 1.89461 1.26645 2.36503C1 2.8998 1 3.59987 1 5V21Z" stroke="#7CC6BB" stroke-width="2" stroke-linecap="round" stroke-linejoin="round"/>
</svg>
