<svg width="40" height="40" fill="none"
    xmlns="http://www.w3.org/2000/svg">
    <g clip-path="url(#a)" fill="#7CC6BB">
        <path d="M24.54 15.732c-.36 0-.573.2-.573.644v1.707c0 .444.212.644.573.644.36 0 .58-.2.58-.644v-1.707c0-.444-.22-.644-.58-.644Z"/>
        <path d="M36.443 6.766h-1.07c0-2.907-2.033-4.528-4.193-4.528-2.13 0-4.192 1.588-4.192 4.528H13.011c0-2.907-2.033-4.528-4.192-4.528-2.13 0-4.192 1.588-4.192 4.528h-1.07A3.561 3.561 0 0 0 0 10.323V24.78a3.561 3.561 0 0 0 3.557 3.557h1.07v7.899c0 .842.683 1.524 1.525 1.524h5.336c.842 0 1.524-.682 1.524-1.524v-7.898h13.976v7.898c0 .842.682 1.524 1.524 1.524h5.336c.842 0 1.524-.682 1.524-1.524v-7.898h1.07A3.561 3.561 0 0 0 40 24.78V10.323a3.561 3.561 0 0 0-3.557-3.557Zm-26.48 0H7.677c0-1.978 2.286-2.005 2.286 0Zm0 27.945H7.677v-6.373h2.286v6.373Zm.423-19.372-1.282 3.928c-.159.463-1.215.429-1.314 0l-.334-1.526-.335 1.526c-.1.435-1.17.457-1.314 0l-1.281-3.928c-.133-.397.846-.69.96-.296l.978 3.303.509-2.176c.078-.351.888-.351.966 0l.508 2.176.979-3.303c.112-.394 1.09-.102.96.296Zm2.865 1.48c.398 0 .41.774 0 .774h-.965v1.094h1.725c.398 0 .41.876 0 .876H11.72c-.219 0-.438-.103-.438-.309v-4.089c0-.206.219-.309.438-.309h2.292c.411 0 .398.876 0 .876h-1.725v1.088h.965Zm4.489 2.744h-2.035c-.22 0-.438-.103-.438-.31V15.16c0-.213.251-.303.502-.303s.502.09.502.303v3.528h1.468c.387 0 .387.876 0 .876Zm2.679-.837c.515 0 .547-.393.566-.644.02-.238.239-.303.496-.303.348 0 .509.09.509.477 0 1.701-3.162 1.992-3.162-.174v-1.706c0-2.17 3.162-1.848 3.162-.239 0 .387-.161.477-.502.477-.27 0-.49-.07-.503-.303-.006-.167-.025-.58-.573-.58-.367 0-.58.207-.58.645v1.706c0 .438.213.644.587.644Zm5.705-.644c0 1.107-.696 1.52-1.584 1.52-.889 0-1.578-.413-1.578-1.52v-1.706c0-1.108.69-1.52 1.578-1.52.888 0 1.584.412 1.584 1.52v1.706Zm2.775-.187-.611-1.12v2.479c0 .412-1.005.412-1.005 0v-3.896c0-.367.251-.502.502-.502.36 0 .515.039.78.502l.663 1.16.663-1.16c.264-.463.418-.502.78-.502.257 0 .501.135.501.502v3.896c0 .412-1.004.412-1.004 0v-2.415l-.618 1.056c-.144.244-.515.26-.65 0Zm3.424 16.816h-2.286v-6.373h2.286v6.373ZM30.036 6.766c0-1.978 2.287-2.005 2.287 0h-2.287Zm4.318 10.054c.397 0 .409.773 0 .773h-.966v1.094h1.726c.398 0 .41.876 0 .876H32.82c-.219 0-.438-.103-.438-.309v-4.089c0-.206.22-.309.438-.309h2.293c.41 0 .398.876 0 .876h-1.726v1.088h.966Z"/>
    </g>
    <defs>
        <clipPath id="a">
            <path fill="#fff" d="M0 0h40v40H0z"/>
        </clipPath>
    </defs>
</svg>
