<svg width="40" height="48" fill="none"
    xmlns="http://www.w3.org/2000/svg">
    <path d="M18.666.246 2.403 6.462A3.784 3.784 0 0 0 0 9.99v15.648l7.474-4.296v-8.798L20 7.739V0a3.784 3.784 0 0 0-1.334.246ZM7.606 35.289 20 28.146v-8.628L.85 30.558A1.722 1.722 0 0 0 0 32.034v5.78a3.784 3.784 0 0 0 2.403 3.492l16.263 6.215c.426.162.878.245 1.334.246v-7.739l-12.394-4.74Z" fill="#3DB1A2"/>
    <path d="M39.205 17.058A1.579 1.579 0 0 0 40 15.667V9.99a3.784 3.784 0 0 0-2.403-3.528L21.324.246A3.784 3.784 0 0 0 20 0v7.739l12.299 4.73L20 19.555v8.628l19.205-11.125ZM21.325 47.521l16.272-6.215A3.784 3.784 0 0 0 40 37.815v-15.81l-7.474 4.315v8.921L20 40.03v7.738a3.787 3.787 0 0 0 1.325-.246Z" fill="#24A492"/>
</svg>
