<svg width="140" height="140" viewBox="0 0 140 140" fill="none" xmlns="http://www.w3.org/2000/svg">
<rect width="140" height="140" rx="20" fill="#EDEFF3"/>
<path d="M67.3986 23.4797L35.6859 35.6002C34.303 36.1423 33.1159 37.0892 32.2799 38.3169C31.4439 39.5446 30.9978 40.9961 31 42.4814V72.9949L45.5742 64.6194V47.4625L69.9998 38.0907V23C69.1109 23.0019 68.2297 23.1644 67.3986 23.4797Z" fill="#1A1A1A"/>
<path d="M45.8325 91.8129L69.9998 77.8844V61.0596L32.6603 82.5888C32.1577 82.8832 31.7403 83.3034 31.4492 83.8079C31.1581 84.3125 31.0033 84.8842 31 85.4667V96.7386C31.0126 98.2113 31.4655 99.6466 32.3006 100.86C33.1357 102.073 34.3147 103.009 35.6859 103.546L67.3985 115.667C68.2297 115.982 69.1109 116.144 69.9998 116.146V101.056L45.8325 91.8129Z" fill="#1A1A1A"/>
<path d="M107.45 56.2623C107.927 55.9894 108.322 55.5941 108.594 55.1173C108.867 54.6405 109.007 54.0995 109 53.5504V42.4814C109.002 40.9961 108.556 39.5446 107.72 38.3169C106.884 37.0892 105.697 36.1423 104.314 35.6002L72.5828 23.4797C71.7575 23.1666 70.8827 23.0041 70 23V38.0907L93.9828 47.3149L70 61.1326V77.9575L107.45 56.2623Z" fill="#1A1A1A"/>
<path d="M72.5828 115.666L104.314 103.546C105.685 103.008 106.864 102.073 107.699 100.859C108.534 99.6463 108.987 98.211 109 96.7383V65.9111L94.4256 74.3236V91.7203L70 101.055V116.146C70.8827 116.142 71.7575 115.979 72.5828 115.666Z" fill="#1A1A1A"/>
</svg>
