<svg width="1280" height="640" fill="none" xmlns="http://www.w3.org/2000/svg"><path fill="#EDEFF3" d="M0 0h1280v640H0z"/><path d="M1139.65 596h-9.85v-1.699l6.55-9.153h-6.15v-2.121h9.26v1.875l-6.42 8.977h6.61V596Zm7.97-13.219c1.16 0 2.15.239 2.98.715.83.477 1.46 1.152 1.91 2.027.44.875.67 1.922.67 3.141v1.477h-8.66c.03 1.257.36 2.226 1 2.906.65.68 1.56 1.019 2.72 1.019.83 0 1.57-.078 2.23-.234.66-.164 1.35-.402 2.05-.715v2.238c-.65.305-1.31.528-1.98.668-.67.141-1.48.211-2.42.211-1.27 0-2.39-.246-3.36-.738-.96-.5-1.71-1.242-2.26-2.226-.54-.985-.81-2.208-.81-3.668 0-1.454.25-2.688.74-3.704.49-1.015 1.18-1.789 2.07-2.32.89-.531 1.93-.797 3.12-.797Zm0 2.074c-.87 0-1.57.282-2.11.844-.53.563-.84 1.387-.94 2.473h5.91c-.01-.649-.12-1.223-.33-1.723-.2-.5-.51-.89-.94-1.172-.41-.281-.94-.422-1.59-.422Zm15.24-2.074c.21 0 .45.012.71.035.26.024.48.055.67.094l-.26 2.578a3.41 3.41 0 0 0-.61-.105 6.093 6.093 0 0 0-.63-.035c-.49 0-.96.082-1.41.246-.44.156-.84.398-1.18.726-.35.321-.61.723-.81 1.207-.2.485-.29 1.047-.29 1.688V596h-2.77v-12.973h2.16l.37 2.285h.13c.26-.46.58-.882.96-1.265.39-.383.82-.688 1.31-.914a3.83 3.83 0 0 1 1.65-.352Zm15.26 6.703c0 1.078-.14 2.036-.42 2.871-.28.836-.69 1.543-1.23 2.122a5.398 5.398 0 0 1-1.94 1.312c-.76.297-1.62.445-2.57.445-.89 0-1.71-.148-2.45-.445a5.537 5.537 0 0 1-1.93-1.312c-.54-.579-.96-1.286-1.26-2.122-.29-.835-.44-1.793-.44-2.871 0-1.429.24-2.64.74-3.632.5-1 1.21-1.762 2.13-2.286.92-.523 2.02-.785 3.29-.785 1.2 0 2.25.262 3.17.785.91.524 1.63 1.286 2.14 2.286.52 1 .77 2.21.77 3.632Zm-9.41 0c0 .946.12 1.754.34 2.426.24.672.6 1.188 1.08 1.547.49.352 1.11.527 1.88.527.76 0 1.39-.175 1.87-.527.49-.359.84-.875 1.07-1.547.23-.672.34-1.48.34-2.426 0-.945-.11-1.746-.34-2.402-.23-.664-.58-1.168-1.07-1.512-.48-.351-1.11-.527-1.88-.527-1.14 0-1.98.383-2.5 1.148-.52.766-.79 1.864-.79 3.293Zm19.24-6.703c1.53 0 2.77.563 3.7 1.688.94 1.125 1.4 2.797 1.4 5.015 0 1.469-.21 2.707-.65 3.715-.43 1-1.04 1.758-1.82 2.274-.77.507-1.67.761-2.7.761-.66 0-1.23-.086-1.72-.257a4.414 4.414 0 0 1-1.24-.668 5.114 5.114 0 0 1-.87-.914h-.16c.04.312.07.66.11 1.043.04.374.05.718.05 1.031v5.285h-2.76v-18.727h2.25l.39 1.793h.12c.25-.367.54-.707.88-1.019.36-.313.78-.559 1.27-.739.5-.187 1.08-.281 1.75-.281Zm-.74 2.25c-.76 0-1.37.153-1.83.457-.45.297-.79.746-1 1.348-.2.602-.31 1.355-.33 2.262v.386c0 .961.1 1.778.3 2.45.2.664.53 1.171.99 1.523.47.344 1.11.516 1.9.516.67 0 1.23-.184 1.67-.551.44-.367.77-.891.99-1.57.22-.68.33-1.481.33-2.403 0-1.398-.25-2.484-.75-3.258-.49-.773-1.25-1.16-2.27-1.16Zm17.75 7.266c0 .851-.21 1.57-.62 2.156-.41.586-1.02 1.031-1.82 1.336-.79.297-1.75.445-2.9.445-.91 0-1.69-.066-2.35-.199a8.017 8.017 0 0 1-1.84-.586v-2.379c.62.289 1.31.539 2.08.75.77.211 1.5.317 2.19.317.91 0 1.56-.141 1.96-.422.39-.289.59-.672.59-1.149 0-.281-.08-.531-.24-.75-.16-.226-.46-.457-.89-.691-.43-.242-1.07-.531-1.9-.867-.82-.328-1.51-.656-2.08-.985-.56-.328-.98-.722-1.27-1.183-.29-.469-.44-1.067-.44-1.793 0-1.149.46-2.02 1.36-2.613.92-.602 2.12-.903 3.62-.903.8 0 1.55.082 2.25.246.72.157 1.41.387 2.09.692l-.87 2.074c-.58-.258-1.17-.469-1.77-.633a6.28 6.28 0 0 0-1.79-.258c-.71 0-1.25.11-1.63.328-.37.219-.55.532-.55.938 0 .305.09.562.27.773.18.211.49.422.93.633.44.211 1.06.473 1.85.785.77.297 1.44.61 2 .938.57.32 1.01.715 1.31 1.183.31.469.46 1.075.46 1.817Zm2.58 2.25c0-.641.16-1.09.49-1.348.34-.265.74-.398 1.22-.398s.88.133 1.22.398c.34.258.51.707.51 1.348 0 .625-.17 1.078-.51 1.359-.34.274-.74.41-1.22.41s-.88-.136-1.22-.41c-.33-.281-.49-.734-.49-1.359Zm9.74-11.52V596h-2.76v-12.973h2.76Zm-1.36-4.968c.42 0 .78.113 1.09.339.31.227.47.618.47 1.172 0 .547-.16.938-.47 1.172-.31.227-.67.34-1.09.34-.44 0-.81-.113-1.12-.34-.29-.234-.44-.625-.44-1.172 0-.554.15-.945.44-1.172.31-.226.68-.339 1.12-.339Zm16.79 11.425c0 1.078-.14 2.036-.42 2.871-.28.836-.69 1.543-1.23 2.122a5.437 5.437 0 0 1-1.95 1.312c-.75.297-1.61.445-2.56.445-.89 0-1.71-.148-2.45-.445a5.67 5.67 0 0 1-1.94-1.312c-.54-.579-.95-1.286-1.25-2.122-.3-.835-.45-1.793-.45-2.871 0-1.429.25-2.64.74-3.632.5-1 1.21-1.762 2.14-2.286.92-.523 2.02-.785 3.29-.785 1.19 0 2.25.262 3.16.785.92.524 1.63 1.286 2.15 2.286.51 1 .77 2.21.77 3.632Zm-9.41 0c0 .946.11 1.754.34 2.426.24.672.59 1.188 1.08 1.547.48.352 1.11.527 1.87.527.77 0 1.39-.175 1.88-.527.48-.359.84-.875 1.07-1.547.22-.672.34-1.48.34-2.426 0-.945-.12-1.746-.34-2.402-.23-.664-.59-1.168-1.07-1.512-.49-.351-1.11-.527-1.89-.527-1.14 0-1.97.383-2.49 1.148-.53.766-.79 1.864-.79 3.293Z" fill="#1A1A1A"/><path d="m328.596 179.457-96.358 36.828A22.427 22.427 0 0 0 218 237.194v92.714l44.283-25.449v-52.131l74.217-28.475V178c-2.701.006-5.379.5-7.904 1.457ZM263.068 387.084l73.432-42.321v-51.122l-113.455 65.416a10.205 10.205 0 0 0-5.045 8.745v34.249a22.421 22.421 0 0 0 14.238 20.684l96.358 36.828a22.4 22.4 0 0 0 7.904 1.457v-45.852l-73.432-28.084Z" fill="#323232"/><path d="M450.291 279.066a9.36 9.36 0 0 0 4.709-8.24v-33.632a22.428 22.428 0 0 0-14.238-20.909l-96.414-36.828A22.44 22.44 0 0 0 336.5 178v45.853l72.871 28.027-72.871 41.985v51.122l113.791-65.921ZM344.348 459.563l96.414-36.828A22.426 22.426 0 0 0 455 402.051v-93.667l-44.284 25.561v52.859L336.5 415.168v45.852a22.418 22.418 0 0 0 7.848-1.457Z" fill="#1A1A1A"/><path d="m661 295.553-6.043-6.043L631 313.467l-23.957-23.957-6.043 6.043 23.957 23.957L601 343.467l6.043 6.043L631 325.553l23.957 23.957 6.043-6.043-23.957-23.957L661 295.553Z" fill="#939393"/><g clip-path="url(#a)"><path d="M957.736 192.01c-1.851 0-3.57.397-5.157.926 3.372 2.248 5.223 5.223 6.148 8.594.067.463.199.794.265 1.257.066.396.132.793.132 1.19.265 5.817-1.52 6.545-2.777 9.983-1.917 4.429-1.388 9.189.926 13.024.198.462.463.991.793 1.454-2.512-16.726 11.438-19.239 14.016-24.461.198-4.562-3.57-7.603-6.545-9.719-2.843-1.719-5.421-2.248-7.801-2.248Zm21.023 3.769c-.264 1.52-.066 1.124-.132 1.917-.066.529-.066 1.19-.132 1.719-.132.529-.264 1.058-.463 1.587-.132.528-.33 1.057-.528 1.586-.265.529-.463.992-.728 1.521-.198.264-.33.529-.529.793l-.396.595c-.331.463-.661.926-.992 1.322-.397.397-.727.86-1.19 1.19v.067c-.397.33-.793.727-1.256 1.057-1.388 1.058-2.975 1.852-4.43 2.843-.462.331-.925.595-1.322.992a9.684 9.684 0 0 0-1.256 1.058c-.463.396-.793.793-1.19 1.256-.331.397-.727.859-.992 1.322-.33.463-.661.926-.925 1.389-.265.528-.463.991-.728 1.52-.198.529-.396.992-.528 1.521-.199.595-.331 1.124-.463 1.653-.066.264-.066.594-.132.859-.067.265-.067.529-.132.793 0 .529-.067 1.124-.067 1.653 0 .397 0 .793.067 1.19 0 .529.066 1.058.198 1.653.066.529.198 1.058.33 1.587.199.529.331 1.057.529 1.586.132.331.331.661.463.926l-15.206-5.884a163.363 163.363 0 0 0-7.669-1.983l-4.165-.992a122.942 122.942 0 0 0-12.032-1.785c-.132 0-.199-.066-.331-.066a118.105 118.105 0 0 0-11.834-.595c-2.909 0-5.818.132-8.661.33-4.033.265-8.065.794-12.098 1.455-.992.132-1.984.33-2.975.529-2.05.396-4.033.859-5.95 1.322l-2.976.793c-.991.397-1.917.86-2.842 1.256l-2.182.992c-.132.066-.265.066-.331.132-.661.331-1.256.595-1.851.926-.198.066-.33.132-.463.198-.727.331-1.454.727-2.049 1.058-.463.198-.926.463-1.322.661-.199.132-.463.264-.595.33-.595.331-1.19.662-1.719.992-.595.331-1.124.661-1.587.992-.463.33-.925.595-1.322.925-.066.067-.132.067-.199.133-.396.264-.859.595-1.256.925l-.132.132-.991.794c-.133.066-.265.198-.397.264-.331.265-.661.595-.992.86-.066.132-.198.198-.264.264-.397.397-.794.727-1.19 1.124-.067 0-.067.066-.132.132-.397.331-.794.727-1.191 1.124-.066.066-.066.132-.132.132-.33.331-.661.661-.991 1.058-.132.132-.331.265-.463.397-.331.396-.727.793-1.124 1.19-.066.132-.198.198-.265.33-.528.529-.991 1.058-1.52 1.587l-.198.198c-1.058 1.124-2.182 2.248-3.372 3.24a37.535 37.535 0 0 1-3.703 2.909 50.061 50.061 0 0 1-3.966 2.512 40.447 40.447 0 0 1-4.165 1.983 47.727 47.727 0 0 1-4.298 1.587c-2.776.595-5.619 1.719-8.065 1.917-.529 0-1.124.133-1.653.199-.595.132-1.124.264-1.653.396l-1.587.595c-.529.199-1.057.463-1.586.728-.463.33-.992.595-1.455.925-.463.331-.925.727-1.322 1.124-.463.331-.926.793-1.322 1.19-.397.463-.794.86-1.124 1.322-.331.529-.727.992-.992 1.521a11.67 11.67 0 0 0-.926 1.521c-.264.595-.528 1.123-.727 1.718-.198.529-.396 1.124-.595 1.719-.132.529-.264 1.058-.33 1.587 0 .066-.067.132-.067.198-.132.595-.132 1.389-.198 1.786-.066.462-.132.859-.132 1.322 0 .264 0 .595.066.859.066.463.132.86.265 1.256.132.397.264.794.463 1.19v.067c.198.396.462.793.727 1.19.264.396.529.793.859 1.19.331.33.727.727 1.124 1.057.397.397.794.728 1.256 1.058 1.587 1.389 1.984 1.851 4.033 2.909.331.198.661.331 1.058.529.066 0 .132.066.198.066 0 .132 0 .199.067.331.066.529.198 1.058.33 1.587.132.595.331 1.123.529 1.586.198.397.331.794.529 1.19.066.132.132.265.198.331.265.529.529.992.794 1.454l.991 1.389c.331.396.727.859 1.124 1.256.397.396.794.727 1.256 1.124 0 0 .067.066.132.066.397.331.794.661 1.19.926.463.33.926.595 1.455.859.463.265.992.529 1.521.727.396.199.859.331 1.322.463.066.066.132.066.264.132.265.066.595.132.86.199-.199 3.57-.265 6.941.264 8.131.595 1.323 3.504-2.71 6.413-7.338-.396 4.562-.661 9.917 0 11.503.727 1.653 4.694-3.504 8.132-9.189 46.874-10.843 89.648 21.552 94.144 67.302-.859-7.14-9.652-11.107-13.685-10.115-1.984 4.892-5.355 11.173-10.776 15.074.462-4.364.264-8.859-.662-13.223-1.454 6.082-4.297 11.768-8.198 16.66-6.28.463-12.561-2.578-15.867-7.14-.264-.198-.33-.595-.528-.859-.199-.463-.397-.926-.529-1.389a5.443 5.443 0 0 1-.397-1.388c-.066-.463-.066-.925-.066-1.454v-.992c.066-.463.198-.926.33-1.388.132-.463.265-.926.463-1.389.265-.463.463-.925.793-1.388 1.124-3.174 1.124-5.752-.925-7.272a7.551 7.551 0 0 0-1.256-.662c-.265-.066-.595-.198-.86-.264-.198-.066-.33-.132-.529-.198-.462-.133-.925-.265-1.388-.331a5.044 5.044 0 0 0-1.388-.198c-.463-.067-.992-.133-1.455-.133-.33 0-.661.067-.992.067-.528 0-.991.066-1.454.198-.463.066-.926.132-1.388.265-.463.132-.926.264-1.389.462-.462.199-.859.397-1.322.595-.397.199-.793.463-1.256.662-15.404 10.049-6.215 33.585 4.297 40.394-3.967.727-7.999 1.587-9.123 2.446l-.132.132c2.842 1.719 5.817 3.174 8.925 4.43 4.231 1.388 8.727 2.644 10.71 3.173v.067a64.022 64.022 0 0 0 16.66 1.19c29.288-2.05 53.287-24.33 57.65-53.684.132.595.265 1.124.397 1.719.198 1.19.463 2.446.595 3.703v.066c.132.595.198 1.19.265 1.719v.264c.066.595.132 1.19.132 1.719.066.727.132 1.455.132 2.182v1.058c0 .33.066.727.066 1.058 0 .396-.066.793-.066 1.19v.925c0 .463-.066.86-.066 1.322 0 .265 0 .529-.067.86 0 .463-.066.925-.066 1.454-.066.199-.066.397-.066.595-.066.529-.132.992-.199 1.521 0 .198 0 .397-.066.595-.066.661-.198 1.256-.264 1.917v.133c-.132.595-.265 1.256-.397 1.851v.198l-.397 1.785c0 .066-.066.199-.066.265-.132.595-.264 1.19-.463 1.785v.198c-.198.661-.396 1.256-.528 1.851-.067.066-.067.132-.067.132l-.595 1.984c-.264.661-.462 1.256-.727 1.917-.264.661-.463 1.322-.727 1.917-.265.661-.529 1.256-.793 1.918h-.067c-.264.595-.529 1.256-.859 1.851a3.21 3.21 0 0 1-.199.462c-.066.067-.066.133-.132.199-4.297 8.661-10.644 16.263-18.577 22.214-.529.33-1.058.727-1.587 1.123-.132.133-.331.199-.463.331-.463.331-.925.661-1.454.992l.198.396h.066l2.777-.396h.066c1.719-.265 3.438-.595 5.157-.926.463-.066.992-.198 1.454-.33.331-.067.595-.133.926-.199.463-.066.926-.198 1.388-.264.397-.132.794-.199 1.19-.331 6.612-1.587 13.025-3.768 19.173-6.347-10.512 14.347-24.594 25.916-41.056 33.519 7.603-.529 15.206-1.785 22.545-3.9 26.643-7.868 49.055-25.784 62.48-49.915a105.554 105.554 0 0 1-17.789 42.51 103.976 103.976 0 0 0 17.649-14.677c14.81-15.47 24.53-35.106 27.84-56.195 2.24 10.445 2.91 21.222 1.91 31.866 47.74-66.575 3.97-135.597-14.34-153.778-.07-.132-.13-.198-.13-.33-.07.066-.07.066-.07.132 0-.066 0-.066-.07-.132 0 .793-.06 1.586-.13 2.38-.2 1.52-.4 2.975-.66 4.429-.33 1.455-.73 2.909-1.12 4.364-.47 1.388-1 2.843-1.59 4.231-.6 1.322-1.26 2.711-1.98 4.033-.73 1.256-1.52 2.578-2.38 3.768-.86 1.256-1.79 2.446-2.71 3.57-1 1.19-2.05 2.248-3.11 3.306a42.78 42.78 0 0 1-1.92 1.653c-.53.463-.99.859-1.52 1.322-1.19.926-2.38 1.785-3.7 2.578-1.26.794-2.58 1.587-3.9 2.248-1.39.661-2.78 1.256-4.168 1.851a46.619 46.619 0 0 1-4.297 1.389 53.347 53.347 0 0 1-4.43.991c-1.52.265-3.041.397-4.495.529-1.058.066-2.116.132-3.174.132-1.52 0-3.041-.132-4.495-.264-1.521-.132-3.042-.331-4.496-.661-1.521-.265-2.975-.661-4.43-1.124h-.066c1.455-.132 2.909-.265 4.364-.529a47.966 47.966 0 0 0 4.429-.992 46.216 46.216 0 0 0 4.297-1.388c1.455-.529 2.843-1.19 4.166-1.851 1.388-.661 2.644-1.389 3.966-2.182 1.256-.859 2.513-1.719 3.703-2.644a36.21 36.21 0 0 0 3.371-2.976c1.124-.991 2.116-2.115 3.108-3.239a68.03 68.03 0 0 0 2.777-3.57c.13-.198.26-.463.4-.661.66-1.058 1.32-2.116 1.91-3.174a46.253 46.253 0 0 0 1.99-4.032 46.979 46.979 0 0 0 1.58-4.232c.47-1.388.8-2.843 1.13-4.297.26-1.521.53-2.975.66-4.43.13-1.52.26-3.041.26-4.495 0-1.058-.06-2.116-.13-3.174-.13-1.52-.33-2.975-.53-4.429a45.505 45.505 0 0 0-.99-4.43c-.46-1.388-.93-2.842-1.45-4.231-.53-1.388-1.19-2.777-1.86-4.099-.72-1.322-1.45-2.644-2.24-3.9a70.309 70.309 0 0 0-2.65-3.637 135.757 135.757 0 0 0-3.039-3.371c-.529-.529-1.124-1.124-1.719-1.653a121.644 121.644 0 0 0-9.189-6.479c-.463-.265-.86-.463-1.323-.661-2.181-1.389-4.231-2.116-6.281-2.777Z" fill="#1A1A1A"/></g><defs><clipPath id="a"><path fill="#fff" transform="translate(807 192.01)" d="M0 0h256v255H0z"/></clipPath></defs></svg>