<svg xmlns="http://www.w3.org/2000/svg" xml:space="preserve" style="fill-rule:evenodd;clip-rule:evenodd;stroke-linejoin:round;stroke-miterlimit:2" viewBox="0 0 1280 640"><path d="M0 0h1280v640H0z" style="fill:#edeff3;fill-rule:nonzero"/><path d="M1139.65 596h-9.85v-1.699l6.55-9.153h-6.15v-2.121h9.26v1.875l-6.42 8.977h6.61zm7.97-13.219c1.16 0 2.15.239 2.98.715.83.477 1.46 1.152 1.91 2.027.44.875.67 1.922.67 3.141v1.477h-8.66c.03 1.257.36 2.226 1 2.906.65.68 1.56 1.019 2.72 1.019.83 0 1.57-.078 2.23-.234.66-.164 1.35-.402 2.05-.715v2.238q-.975.458-1.98.668c-.67.141-1.48.211-2.42.211q-1.905 0-3.36-.738c-.96-.5-1.71-1.242-2.26-2.226q-.81-1.478-.81-3.668c0-1.454.25-2.688.74-3.704q.735-1.523 2.07-2.32t3.12-.797m0 2.074c-.87 0-1.57.282-2.11.844-.53.563-.84 1.387-.94 2.473h5.91q-.015-.973-.33-1.723c-.2-.5-.51-.89-.94-1.172q-.615-.422-1.59-.422m15.24-2.074c.21 0 .45.012.71.035s.48.055.67.094l-.26 2.578c-.2-.053-.4-.089-.61-.105a6 6 0 0 0-.63-.035q-.735 0-1.41.246c-.44.156-.84.398-1.18.726-.35.321-.61.723-.81 1.207s-.29 1.047-.29 1.688V596h-2.77v-12.973h2.16l.37 2.285h.13q.39-.69.96-1.265c.39-.383.82-.688 1.31-.914.52-.239 1.08-.36 1.65-.352m15.26 6.703q0 1.618-.42 2.871-.42 1.254-1.23 2.122a5.26 5.26 0 0 1-1.94 1.312c-.76.297-1.62.445-2.57.445-.89 0-1.71-.148-2.45-.445a5.5 5.5 0 0 1-1.93-1.312q-.81-.868-1.26-2.122c-.29-.835-.44-1.793-.44-2.871 0-1.429.24-2.64.74-3.632q.75-1.5 2.13-2.286c.92-.523 2.02-.785 3.29-.785 1.2 0 2.25.262 3.17.785.91.524 1.63 1.286 2.14 2.286.52 1 .77 2.21.77 3.632m-9.41 0c0 .946.12 1.754.34 2.426q.36 1.008 1.08 1.547c.49.352 1.11.527 1.88.527.76 0 1.39-.175 1.87-.527.49-.359.84-.875 1.07-1.547s.34-1.48.34-2.426c0-.945-.11-1.746-.34-2.402-.23-.664-.58-1.168-1.07-1.512-.48-.351-1.11-.527-1.88-.527-1.14 0-1.98.383-2.5 1.148-.52.766-.79 1.864-.79 3.293m19.24-6.703c1.53 0 2.77.563 3.7 1.688.94 1.125 1.4 2.797 1.4 5.015 0 1.469-.21 2.707-.65 3.715-.43 1-1.04 1.758-1.82 2.274q-1.155.76-2.7.761c-.66 0-1.23-.086-1.72-.257-.45-.155-.86-.38-1.24-.668a5 5 0 0 1-.87-.914h-.16c.04.312.07.66.11 1.043.04.374.05.718.05 1.031v5.285h-2.76v-18.727h2.25l.39 1.793h.12c.25-.367.54-.707.88-1.019.36-.313.78-.559 1.27-.739.5-.187 1.08-.281 1.75-.281m-.74 2.25q-1.14 0-1.83.457c-.45.297-.79.746-1 1.348q-.3.902-.33 2.262v.386q0 1.442.3 2.45.3.995.99 1.523c.47.344 1.11.516 1.9.516.67 0 1.23-.184 1.67-.551q.66-.551.99-1.57t.33-2.403q0-2.097-.75-3.258c-.49-.773-1.25-1.16-2.27-1.16m17.75 7.266c0 .851-.21 1.57-.62 2.156s-1.02 1.031-1.82 1.336c-.79.297-1.75.445-2.9.445-.91 0-1.69-.066-2.35-.199a8 8 0 0 1-1.84-.586v-2.379c.62.289 1.31.539 2.08.75q1.155.317 2.19.317c.91 0 1.56-.141 1.96-.422.39-.289.59-.672.59-1.149q0-.421-.24-.75c-.16-.226-.46-.457-.89-.691-.43-.242-1.07-.531-1.9-.867-.82-.328-1.51-.656-2.08-.985-.56-.328-.98-.722-1.27-1.183-.29-.469-.44-1.067-.44-1.793 0-1.149.46-2.02 1.36-2.613.92-.602 2.12-.903 3.62-.903q1.2 0 2.25.246c.72.157 1.41.387 2.09.692l-.87 2.074q-.87-.387-1.77-.633a6.3 6.3 0 0 0-1.79-.258c-.71 0-1.25.11-1.63.328-.37.219-.55.532-.55.938q0 .457.27.773.27.317.93.633c.44.211 1.06.473 1.85.785.77.297 1.44.61 2 .938.57.32 1.01.715 1.31 1.183.31.469.46 1.075.46 1.817m2.58 2.25c0-.641.16-1.09.49-1.348.34-.265.74-.398 1.22-.398s.88.133 1.22.398q.51.387.51 1.348 0 .938-.51 1.359c-.34.274-.74.41-1.22.41s-.88-.136-1.22-.41c-.33-.281-.49-.734-.49-1.359m9.74-11.52V596h-2.76v-12.973zm-1.36-4.968c.42 0 .78.113 1.09.339s.47.618.47 1.172c0 .547-.16.938-.47 1.172-.31.227-.67.34-1.09.34-.44 0-.81-.113-1.12-.34-.29-.234-.44-.625-.44-1.172 0-.554.15-.945.44-1.172.31-.226.68-.339 1.12-.339m16.79 11.425q0 1.618-.42 2.871-.42 1.254-1.23 2.122a5.4 5.4 0 0 1-1.95 1.312c-.75.297-1.61.445-2.56.445-.89 0-1.71-.148-2.45-.445a5.7 5.7 0 0 1-1.94-1.312c-.54-.579-.95-1.286-1.25-2.122q-.45-1.253-.45-2.871c0-1.429.25-2.64.74-3.632.5-1 1.21-1.762 2.14-2.286.92-.523 2.02-.785 3.29-.785 1.19 0 2.25.262 3.16.785.92.524 1.63 1.286 2.15 2.286.51 1 .77 2.21.77 3.632m-9.41 0c0 .946.11 1.754.34 2.426.24.672.59 1.188 1.08 1.547.48.352 1.11.527 1.87.527.77 0 1.39-.175 1.88-.527.48-.359.84-.875 1.07-1.547.22-.672.34-1.48.34-2.426 0-.945-.12-1.746-.34-2.402-.23-.664-.59-1.168-1.07-1.512-.49-.351-1.11-.527-1.89-.527q-1.71 0-2.49 1.148c-.53.766-.79 1.864-.79 3.293" style="fill:#1a1a1a;fill-rule:nonzero"/><path d="m337.596 179.457-96.358 36.828c-8.58 3.366-14.25 11.693-14.238 20.909v92.714l44.283-25.449v-52.131l74.217-28.475V178c-2.701.006-5.379.5-7.904 1.457m-65.528 207.628 73.432-42.322v-51.121l-113.455 65.415a10.23 10.23 0 0 0-5.045 8.745v34.249a22.4 22.4 0 0 0 3.952 12.522 22.4 22.4 0 0 0 10.286 8.162l96.358 36.828a22.4 22.4 0 0 0 7.904 1.458v-45.853z" style="fill:#323232;fill-rule:nonzero"/><path d="M459.291 279.066a9.38 9.38 0 0 0 4.708-8.24v-33.632c.013-9.217-5.658-17.544-14.238-20.909l-96.414-36.828A22.4 22.4 0 0 0 345.5 178v45.853l72.871 28.027-72.871 41.985v51.122zM353.347 459.563l96.414-36.828c8.506-3.334 14.161-11.548 14.238-20.684v-93.667l-44.283 25.561v52.859L345.5 415.168v45.853a22.4 22.4 0 0 0 7.847-1.458" style="fill:#1a1a1a;fill-rule:nonzero"/><path d="m670 295.553-6.043-6.043L640 313.467l-23.957-23.957-6.043 6.043 23.957 23.957L610 343.467l6.043 6.043L640 325.553l23.957 23.957 6.043-6.043-23.957-23.957z" style="fill:#939393;fill-rule:nonzero"/><path d="M374.039 67.817h-23.194c-16.387 0-29.623 13.362-29.623 29.749v203.96l82.568 17.396V97.566c0-16.387-13.364-29.749-29.751-29.749" style="fill-rule:nonzero" transform="translate(809.908 158.827)scale(.52985)"/><path d="M489.382-.003h-23.195c-16.387 0-29.624 13.362-29.624 29.749v296.108l82.568 17.396V29.746c0-16.387-13.361-29.749-29.749-29.749" style="fill:#200;fill-rule:nonzero" transform="translate(809.908 158.827)scale(.52985)"/><path d="M258.697 151.896h-23.069c-16.514 0-29.748 13.363-29.748 29.75v95.552l82.566 17.396V181.646c0-16.387-13.361-29.75-29.749-29.75M116.047 367.626c-.03.088-.03.148-.059.236-3.635 17.405-18.972 29.314-36.112 29.314-2.511 0-5.023-.296-7.623-.738-19.918-4.286-32.654-23.819-28.458-43.735 3.605-17.405 18.972-29.315 36.081-29.315 2.513 0 5.024.178 7.625.739 12.588 2.66 22.34 11.496 26.714 22.665a36.53 36.53 0 0 1 1.832 20.834m442.485 11.944c-32.524-6.866-74.999-15.823-121.712-25.686-.029 0-.119 0-.177-.029-.828-.177-3.606-.768-8.098-1.715-.945-.206-1.89-.384-2.866-.59-.946-.207-1.891-.414-2.866-.62-8.364-1.744-20.065-4.226-34.132-7.182-1.181-.265-2.364-.502-3.545-.768-11.555-2.422-24.557-5.17-38.476-8.097-1.655-.355-3.28-.708-4.935-1.033-2.836-.622-5.704-1.212-8.598-1.834-2.218-.472-4.434-.945-6.679-1.388a16343 16343 0 0 0-51.005-10.757c-2.511-.531-4.994-1.063-7.476-1.595a3395 3395 0 0 0-16.696-3.517c-7.24-1.536-14.45-3.073-21.572-4.551-1.684-.354-3.339-.709-4.995-1.064a598 598 0 0 1-7.683-1.625c-5.318-1.123-10.549-2.216-15.661-3.309-5.911-1.212-11.732-2.452-17.465-3.664-21.128-4.463-40.011-8.452-54.787-11.555-1.596-.355-3.191-.68-4.757-1.004-5.556-1.183-10.432-2.217-14.48-3.073-.355-.06-.71-.148-1.035-.207a2841 2841 0 0 1-12.5-2.631c-5.555-1.122-11.051-1.684-16.548-1.684-36.939 0-70.153 25.798-78.044 63.387-9.131 43.143 18.499 85.579 61.673 94.62a78.7 78.7 0 0 0 16.459 1.744c10.343 0 20.391-2.039 29.699-5.763l13.889-3.397c9.22 39.065 28.516 74.911 55.615 104.077 31.205 33.451 72.576 58.096 120.744 68.291a230 230 0 0 0 47.784 5.024c106.382 0 202.097-74.32 224.85-182.741l3.93-18.607c2.644-12.524-5.331-24.813-17.855-27.457" style="fill-rule:nonzero" transform="translate(809.908 158.827)scale(.52985)"/></svg>