<svg xmlns="http://www.w3.org/2000/svg" width="1280" height="640" fill="none"><path fill="#EDEFF3" d="M0 0h1280v640H0z"/><path fill="#1A1A1A" d="M1139.65 596h-9.85v-1.699l6.55-9.153h-6.15v-2.121h9.26v1.875l-6.42 8.977h6.61zm7.97-13.219c1.16 0 2.15.239 2.98.715.83.477 1.46 1.152 1.91 2.027.44.875.67 1.922.67 3.141v1.477h-8.66c.03 1.257.36 2.226 1 2.906.65.68 1.56 1.019 2.72 1.019.83 0 1.57-.078 2.23-.234.66-.164 1.35-.402 2.05-.715v2.238q-.975.458-1.98.668c-.67.141-1.48.211-2.42.211q-1.905 0-3.36-.738c-.96-.5-1.71-1.242-2.26-2.226q-.81-1.478-.81-3.668c0-1.454.25-2.688.74-3.704q.735-1.523 2.07-2.32t3.12-.797m0 2.074c-.87 0-1.57.282-2.11.844-.53.563-.84 1.387-.94 2.473h5.91q-.015-.973-.33-1.723c-.2-.5-.51-.89-.94-1.172q-.615-.422-1.59-.422m15.24-2.074c.21 0 .45.012.71.035s.48.055.67.094l-.26 2.578a3.4 3.4 0 0 0-.61-.105 6 6 0 0 0-.63-.035q-.735 0-1.41.246c-.44.156-.84.398-1.18.726-.35.321-.61.723-.81 1.207s-.29 1.047-.29 1.688V596h-2.77v-12.973h2.16l.37 2.285h.13q.39-.69.96-1.265c.39-.383.82-.688 1.31-.914a3.8 3.8 0 0 1 1.65-.352m15.26 6.703q0 1.618-.42 2.871-.42 1.254-1.23 2.122a5.4 5.4 0 0 1-1.94 1.312c-.76.297-1.62.445-2.57.445-.89 0-1.71-.148-2.45-.445a5.5 5.5 0 0 1-1.93-1.312q-.81-.868-1.26-2.122c-.29-.835-.44-1.793-.44-2.871 0-1.429.24-2.64.74-3.632q.75-1.5 2.13-2.286c.92-.523 2.02-.785 3.29-.785 1.2 0 2.25.262 3.17.785.91.524 1.63 1.286 2.14 2.286.52 1 .77 2.21.77 3.632m-9.41 0c0 .946.12 1.754.34 2.426q.36 1.008 1.08 1.547c.49.352 1.11.527 1.88.527.76 0 1.39-.175 1.87-.527.49-.359.84-.875 1.07-1.547s.34-1.48.34-2.426c0-.945-.11-1.746-.34-2.402-.23-.664-.58-1.168-1.07-1.512-.48-.351-1.11-.527-1.88-.527-1.14 0-1.98.383-2.5 1.148-.52.766-.79 1.864-.79 3.293m19.24-6.703c1.53 0 2.77.563 3.7 1.688.94 1.125 1.4 2.797 1.4 5.015 0 1.469-.21 2.707-.65 3.715-.43 1-1.04 1.758-1.82 2.274q-1.155.76-2.7.761c-.66 0-1.23-.086-1.72-.257a4.4 4.4 0 0 1-1.24-.668 5 5 0 0 1-.87-.914h-.16c.04.312.07.66.11 1.043.04.374.05.718.05 1.031v5.285h-2.76v-18.727h2.25l.39 1.793h.12c.25-.367.54-.707.88-1.019.36-.313.78-.559 1.27-.739.5-.187 1.08-.281 1.75-.281m-.74 2.25q-1.14 0-1.83.457c-.45.297-.79.746-1 1.348q-.3.902-.33 2.262v.386q0 1.442.3 2.45.3.995.99 1.523c.47.344 1.11.516 1.9.516.67 0 1.23-.184 1.67-.551q.66-.551.99-1.57t.33-2.403q0-2.097-.75-3.258c-.49-.773-1.25-1.16-2.27-1.16m17.75 7.266c0 .851-.21 1.57-.62 2.156s-1.02 1.031-1.82 1.336c-.79.297-1.75.445-2.9.445-.91 0-1.69-.066-2.35-.199a8 8 0 0 1-1.84-.586v-2.379c.62.289 1.31.539 2.08.75q1.155.317 2.19.317c.91 0 1.56-.141 1.96-.422.39-.289.59-.672.59-1.149q0-.421-.24-.75c-.16-.226-.46-.457-.89-.691-.43-.242-1.07-.531-1.9-.867-.82-.328-1.51-.656-2.08-.985-.56-.328-.98-.722-1.27-1.183-.29-.469-.44-1.067-.44-1.793 0-1.149.46-2.02 1.36-2.613.92-.602 2.12-.903 3.62-.903q1.2 0 2.25.246c.72.157 1.41.387 2.09.692l-.87 2.074q-.87-.387-1.77-.633a6.3 6.3 0 0 0-1.79-.258c-.71 0-1.25.11-1.63.328-.37.219-.55.532-.55.938q0 .457.27.773.27.317.93.633c.44.211 1.06.473 1.85.785.77.297 1.44.61 2 .938.57.32 1.01.715 1.31 1.183.31.469.46 1.075.46 1.817m2.58 2.25c0-.641.16-1.09.49-1.348.34-.265.74-.398 1.22-.398s.88.133 1.22.398q.51.387.51 1.348 0 .938-.51 1.359c-.34.274-.74.41-1.22.41s-.88-.136-1.22-.41c-.33-.281-.49-.734-.49-1.359m9.74-11.52V596h-2.76v-12.973zm-1.36-4.968c.42 0 .78.113 1.09.339s.47.618.47 1.172c0 .547-.16.938-.47 1.172-.31.227-.67.34-1.09.34-.44 0-.81-.113-1.12-.34-.29-.234-.44-.625-.44-1.172 0-.554.15-.945.44-1.172.31-.226.68-.339 1.12-.339m16.79 11.425q0 1.618-.42 2.871-.42 1.254-1.23 2.122a5.4 5.4 0 0 1-1.95 1.312c-.75.297-1.61.445-2.56.445-.89 0-1.71-.148-2.45-.445a5.7 5.7 0 0 1-1.94-1.312c-.54-.579-.95-1.286-1.25-2.122q-.45-1.253-.45-2.871c0-1.429.25-2.64.74-3.632.5-1 1.21-1.762 2.14-2.286.92-.523 2.02-.785 3.29-.785 1.19 0 2.25.262 3.16.785.92.524 1.63 1.286 2.15 2.286.51 1 .77 2.21.77 3.632m-9.41 0c0 .946.11 1.754.34 2.426.24.672.59 1.188 1.08 1.547.48.352 1.11.527 1.87.527.77 0 1.39-.175 1.88-.527.48-.359.84-.875 1.07-1.547.22-.672.34-1.48.34-2.426 0-.945-.12-1.746-.34-2.402-.23-.664-.59-1.168-1.07-1.512-.49-.351-1.11-.527-1.89-.527q-1.71 0-2.49 1.148c-.53.766-.79 1.864-.79 3.293"/><path fill="#323232" d="m291.096 179.457-96.358 36.828a22.43 22.43 0 0 0-14.238 20.909v92.714l44.283-25.449v-52.131L299 223.853V178c-2.701.006-5.379.5-7.904 1.457m-65.528 207.628L299 344.763v-51.121l-113.455 65.415a10.21 10.21 0 0 0-5.045 8.745v34.249a22.4 22.4 0 0 0 3.952 12.522 22.4 22.4 0 0 0 10.286 8.162l96.358 36.828a22.4 22.4 0 0 0 7.904 1.458v-45.853z"/><path fill="#1A1A1A" d="M412.791 279.066a9.36 9.36 0 0 0 4.709-8.24v-33.632a22.43 22.43 0 0 0-14.238-20.909l-96.414-36.828A22.4 22.4 0 0 0 299 178v45.853l72.871 28.027L299 293.865v51.122zM306.848 459.563l96.414-36.828a22.43 22.43 0 0 0 14.238-20.684v-93.667l-44.284 25.561v52.859L299 415.168v45.853a22.4 22.4 0 0 0 7.848-1.458"/><path fill="#939393" d="m623.5 295.553-6.043-6.043-23.957 23.957-23.957-23.957-6.043 6.043 23.957 23.957-23.957 23.957 6.043 6.043 23.957-23.957 23.957 23.957 6.043-6.043-23.957-23.957z"/><path fill="#000" d="M922.057 286.617h-16.404v69.063h16.404zm-22.971 6.574c0 5.453-4.405 9.872-9.844 9.872-5.438-.007-9.843-4.426-9.843-9.865 0-5.453 4.405-9.865 9.843-9.865 5.439.007 9.844 4.426 9.844 9.865zm47.569-6.574h-16.404v69.063h16.404zm-92.454 47.264-11.703-25.892h-12.302l-10.835 25.155-11.311-25.155h-15.587v-13.156H776.06v13.156h-6.56v14.689h6.56v33.002h16.403v-33.002h4.919l16.41 33.002h11.478l10.914-26.051 12.05 26.051h11.478l16.403-33.002h4.919v33.002h16.403v-47.691h-31.165l-12.086 25.892z"/><path fill="#6621D9" d="M989.456 286.588h75.494c19.08 0 34.55 15.47 34.55 34.55s-15.47 34.55-34.55 34.55h-75.494c-19.079 0-34.55-15.471-34.55-34.55 0-19.08 15.471-34.55 34.55-34.55"/><path fill="#fff" d="M1006.9 315.894h-5.88a7.2 7.2 0 0 0-.92-2.553 6.9 6.9 0 0 0-1.683-1.909 7.1 7.1 0 0 0-2.292-1.172 8.8 8.8 0 0 0-2.749-.412q-2.624.002-4.65 1.316-2.028 1.3-3.175 3.826c-.767 1.671-1.15 3.718-1.15 6.126s.383 4.528 1.15 6.206q1.16 2.505 3.175 3.797c1.352.846 2.893 1.265 4.636 1.265.962 0 1.866-.123 2.698-.376a7.5 7.5 0 0 0 2.278-1.142 6.94 6.94 0 0 0 2.682-4.354l5.88.028a12.88 12.88 0 0 1-4.27 7.841c-1.17 1.012-2.55 1.808-4.118 2.379-1.57.564-3.32.846-5.237.846q-4.242 0-7.572-1.952-3.331-1.966-5.251-5.656-1.918-3.7-1.917-8.875c0-3.45.644-6.415 1.931-8.867q1.933-3.701 5.266-5.656c2.22-1.302 4.737-1.96 7.543-1.96 1.794 0 3.457.253 4.998.752a12.9 12.9 0 0 1 4.117 2.206c1.21.962 2.19 2.141 2.97 3.544.79 1.389 1.3 2.98 1.54 4.767zm5.34-10.827h7.13l9.55 23.253h.38l9.55-23.253h7.14v32.098h-5.6v-22.052h-.3l-8.89 21.958h-4.18l-8.9-22.001h-.3v22.095h-5.6v-32.098zm57.58 8.824c-.14-1.367-.76-2.438-1.85-3.197-1.07-.767-2.48-1.143-4.21-1.143q-1.815-.002-3.12.55c-.87.361-1.53.861-2 1.49-.46.629-.69 1.338-.71 2.148 0 .665.16 1.251.46 1.736.31.491.74.911 1.27 1.251q.81.5 1.77.846c.65.232 1.31.42 1.96.579l3.02.752c1.22.282 2.38.665 3.51 1.143 1.13.477 2.14 1.085 3.04 1.815a8.1 8.1 0 0 1 2.13 2.647q.78 1.553.78 3.638c0 1.881-.48 3.537-1.45 4.969-.96 1.417-2.35 2.531-4.18 3.334-1.8.796-4 1.193-6.58 1.193-2.57 0-4.68-.383-6.52-1.157-1.83-.774-3.27-1.902-4.3-3.385s-1.59-3.29-1.67-5.424h5.74c.08 1.114.42 2.047 1.03 2.785.61.744 1.4 1.294 2.37 1.663.99.362 2.09.542 3.31.542s2.38-.188 3.33-.564c.97-.383 1.72-.918 2.27-1.598.54-.687.82-1.497.83-2.409-.01-.838-.25-1.526-.74-2.068-.48-.557-1.16-1.013-2.02-1.381-.98-.413-1.99-.753-3.02-1.006l-3.66-.94c-2.65-.68-4.74-1.707-6.28-3.088-1.53-1.389-2.3-3.233-2.3-5.533 0-1.888.52-3.551 1.54-4.969q1.56-2.135 4.23-3.305c1.78-.796 3.8-1.194 6.05-1.194s4.28.398 6 1.194q2.595 1.171 4.08 3.276c.98 1.389 1.49 2.987 1.52 4.795h-5.61z"/></svg>