<svg width="1280" height="640" fill="none" xmlns="http://www.w3.org/2000/svg"><path fill="#EDEFF3" d="M0 0h1280v640H0z"/><path d="M1139.65 596h-9.85v-1.699l6.55-9.153h-6.15v-2.121h9.26v1.875l-6.42 8.977h6.61V596Zm7.97-13.219c1.16 0 2.15.239 2.98.715.83.477 1.46 1.152 1.91 2.027.44.875.67 1.922.67 3.141v1.477h-8.66c.03 1.257.36 2.226 1 2.906.65.68 1.56 1.019 2.72 1.019.83 0 1.57-.078 2.23-.234.66-.164 1.35-.402 2.05-.715v2.238c-.65.305-1.31.528-1.98.668-.67.141-1.48.211-2.42.211-1.27 0-2.39-.246-3.36-.738-.96-.5-1.71-1.242-2.26-2.226-.54-.985-.81-2.208-.81-3.668 0-1.454.25-2.688.74-3.704.49-1.015 1.18-1.789 2.07-2.32.89-.531 1.93-.797 3.12-.797Zm0 2.074c-.87 0-1.57.282-2.11.844-.53.563-.84 1.387-.94 2.473h5.91c-.01-.649-.12-1.223-.33-1.723-.2-.5-.51-.89-.94-1.172-.41-.281-.94-.422-1.59-.422Zm15.24-2.074c.21 0 .45.012.71.035.26.024.48.055.67.094l-.26 2.578a3.41 3.41 0 0 0-.61-.105 6.093 6.093 0 0 0-.63-.035c-.49 0-.96.082-1.41.246-.44.156-.84.398-1.18.726-.35.321-.61.723-.81 1.207-.2.485-.29 1.047-.29 1.688V596h-2.77v-12.973h2.16l.37 2.285h.13c.26-.46.58-.882.96-1.265.39-.383.82-.688 1.31-.914a3.83 3.83 0 0 1 1.65-.352Zm15.26 6.703c0 1.078-.14 2.036-.42 2.871-.28.836-.69 1.543-1.23 2.122a5.398 5.398 0 0 1-1.94 1.312c-.76.297-1.62.445-2.57.445-.89 0-1.71-.148-2.45-.445a5.537 5.537 0 0 1-1.93-1.312c-.54-.579-.96-1.286-1.26-2.122-.29-.835-.44-1.793-.44-2.871 0-1.429.24-2.64.74-3.632.5-1 1.21-1.762 2.13-2.286.92-.523 2.02-.785 3.29-.785 1.2 0 2.25.262 3.17.785.91.524 1.63 1.286 2.14 2.286.52 1 .77 2.21.77 3.632Zm-9.41 0c0 .946.12 1.754.34 2.426.24.672.6 1.188 1.08 1.547.49.352 1.11.527 1.88.527.76 0 1.39-.175 1.87-.527.49-.359.84-.875 1.07-1.547.23-.672.34-1.48.34-2.426 0-.945-.11-1.746-.34-2.402-.23-.664-.58-1.168-1.07-1.512-.48-.351-1.11-.527-1.88-.527-1.14 0-1.98.383-2.5 1.148-.52.766-.79 1.864-.79 3.293Zm19.24-6.703c1.53 0 2.77.563 3.7 1.688.94 1.125 1.4 2.797 1.4 5.015 0 1.469-.21 2.707-.65 3.715-.43 1-1.04 1.758-1.82 2.274-.77.507-1.67.761-2.7.761-.66 0-1.23-.086-1.72-.257a4.414 4.414 0 0 1-1.24-.668 5.114 5.114 0 0 1-.87-.914h-.16c.04.312.07.66.11 1.043.04.374.05.718.05 1.031v5.285h-2.76v-18.727h2.25l.39 1.793h.12c.25-.367.54-.707.88-1.019.36-.313.78-.559 1.27-.739.5-.187 1.08-.281 1.75-.281Zm-.74 2.25c-.76 0-1.37.153-1.83.457-.45.297-.79.746-1 1.348-.2.602-.31 1.355-.33 2.262v.386c0 .961.1 1.778.3 2.45.2.664.53 1.171.99 1.523.47.344 1.11.516 1.9.516.67 0 1.23-.184 1.67-.551.44-.367.77-.891.99-1.57.22-.68.33-1.481.33-2.403 0-1.398-.25-2.484-.75-3.258-.49-.773-1.25-1.16-2.27-1.16Zm17.75 7.266c0 .851-.21 1.57-.62 2.156-.41.586-1.02 1.031-1.82 1.336-.79.297-1.75.445-2.9.445-.91 0-1.69-.066-2.35-.199a8.017 8.017 0 0 1-1.84-.586v-2.379c.62.289 1.31.539 2.08.75.77.211 1.5.317 2.19.317.91 0 1.56-.141 1.96-.422.39-.289.59-.672.59-1.149 0-.281-.08-.531-.24-.75-.16-.226-.46-.457-.89-.691-.43-.242-1.07-.531-1.9-.867-.82-.328-1.51-.656-2.08-.985-.56-.328-.98-.722-1.27-1.183-.29-.469-.44-1.067-.44-1.793 0-1.149.46-2.02 1.36-2.613.92-.602 2.12-.903 3.62-.903.8 0 1.55.082 2.25.246.72.157 1.41.387 2.09.692l-.87 2.074c-.58-.258-1.17-.469-1.77-.633a6.28 6.28 0 0 0-1.79-.258c-.71 0-1.25.11-1.63.328-.37.219-.55.532-.55.938 0 .305.09.562.27.773.18.211.49.422.93.633.44.211 1.06.473 1.85.785.77.297 1.44.61 2 .938.57.32 1.01.715 1.31 1.183.31.469.46 1.075.46 1.817Zm2.58 2.25c0-.641.16-1.09.49-1.348.34-.265.74-.398 1.22-.398s.88.133 1.22.398c.34.258.51.707.51 1.348 0 .625-.17 1.078-.51 1.359-.34.274-.74.41-1.22.41s-.88-.136-1.22-.41c-.33-.281-.49-.734-.49-1.359Zm9.74-11.52V596h-2.76v-12.973h2.76Zm-1.36-4.968c.42 0 .78.113 1.09.339.31.227.47.618.47 1.172 0 .547-.16.938-.47 1.172-.31.227-.67.34-1.09.34-.44 0-.81-.113-1.12-.34-.29-.234-.44-.625-.44-1.172 0-.554.15-.945.44-1.172.31-.226.68-.339 1.12-.339Zm16.79 11.425c0 1.078-.14 2.036-.42 2.871-.28.836-.69 1.543-1.23 2.122a5.437 5.437 0 0 1-1.95 1.312c-.75.297-1.61.445-2.56.445-.89 0-1.71-.148-2.45-.445a5.67 5.67 0 0 1-1.94-1.312c-.54-.579-.95-1.286-1.25-2.122-.3-.835-.45-1.793-.45-2.871 0-1.429.25-2.64.74-3.632.5-1 1.21-1.762 2.14-2.286.92-.523 2.02-.785 3.29-.785 1.19 0 2.25.262 3.16.785.92.524 1.63 1.286 2.15 2.286.51 1 .77 2.21.77 3.632Zm-9.41 0c0 .946.11 1.754.34 2.426.24.672.59 1.188 1.08 1.547.48.352 1.11.527 1.87.527.77 0 1.39-.175 1.88-.527.48-.359.84-.875 1.07-1.547.22-.672.34-1.48.34-2.426 0-.945-.12-1.746-.34-2.402-.23-.664-.59-1.168-1.07-1.512-.49-.351-1.11-.527-1.89-.527-1.14 0-1.97.383-2.49 1.148-.53.766-.79 1.864-.79 3.293Z" fill="#1A1A1A"/><path d="m337.596 179.457-96.358 36.828A22.427 22.427 0 0 0 227 237.194v92.714l44.283-25.449v-52.131l74.217-28.475V178c-2.701.006-5.379.5-7.904 1.457ZM272.068 387.084l73.432-42.321v-51.122l-113.455 65.416a10.205 10.205 0 0 0-5.045 8.745v34.249a22.421 22.421 0 0 0 14.238 20.684l96.358 36.828a22.4 22.4 0 0 0 7.904 1.457v-45.852l-73.432-28.084Z" fill="#323232"/><path d="M459.291 279.066a9.36 9.36 0 0 0 4.708-8.24v-33.632a22.427 22.427 0 0 0-14.238-20.909l-96.414-36.828A22.431 22.431 0 0 0 345.5 178v45.853l72.871 28.027-72.871 41.985v51.122l113.791-65.921ZM353.347 459.563l96.414-36.828a22.416 22.416 0 0 0 14.238-20.684v-93.667l-44.283 25.561v52.859L345.5 415.168v45.853a22.432 22.432 0 0 0 7.847-1.458Z" fill="#1A1A1A"/><path d="m670 295.553-6.043-6.043L640 313.467l-23.957-23.957-6.043 6.043 23.957 23.957L610 343.467l6.043 6.043L640 325.553l23.957 23.957 6.043-6.043-23.957-23.957L670 295.553Z" fill="#939393"/><path d="M932.918 230.44c-14.766 9.198-31.502 19.623-40.468 36.871-15.575 30.089 31.87 62.912 33.898 64.295a2.835 2.835 0 0 0 1.598.481 2.83 2.83 0 0 0 1.681-.541c.942-.698 1.209-1.883.644-2.848-.172-.293-17.202-29.59-16.57-50.608.225-7.32 11.792-15.624 24.038-24.416 11.216-8.053 23.93-17.18 31.369-27.857 16.33-23.502-1.82-46.611-2.006-46.841-.72-.896-2.051-1.222-3.189-.78-1.137.444-1.766 1.533-1.507 2.609.037.152 3.567 15.434-6.255 31.179-4.047 6.505-12.937 12.044-23.233 18.456Z" fill="#1A1A1A"/><path d="M995.129 240.804c1.041-.695 1.347-1.962.717-2.974-.631-1.011-2.005-1.458-3.224-1.047-2.509.844-61.427 20.957-61.427 45.261 0 16.752 8.08 25.602 13.98 32.065 2.314 2.534 4.313 4.723 4.971 6.592 1.853 5.386-2.538 15.12-4.384 18.416-.533.949-.272 2.096.634 2.789.489.374 1.1.563 1.712.563a2.85 2.85 0 0 0 1.495-.416c1.013-.624 24.758-15.493 20.499-33.406-1.586-6.809-5.364-11.784-8.698-16.174-5.165-6.801-8.895-11.715-3.236-20.789 6.632-10.582 36.658-30.678 36.961-30.88Z" fill="#1A1A1A"/><path d="M841.764 342.856c-1.011 2.677-.534 5.335 1.377 7.686 6.387 7.852 29.011 12.177 63.706 12.177h.004c4.702 0 9.665-.081 14.749-.243 55.471-1.759 76.046-17.064 76.894-17.714.926-.709 1.173-1.89.598-2.846-.576-.955-1.816-1.435-3.001-1.146-19.536 4.724-56.016 6.401-81.32 6.401-28.313 0-42.733-1.806-46.262-3.139 1.811-2.203 12.983-6.137 26.827-8.549 1.324-.23 2.233-1.312 2.102-2.5-.131-1.189-1.258-2.096-2.607-2.096-8.116.001-48.814.578-53.067 11.969ZM1027.38 327.094c-11.44 0-22.29 5.078-22.75 5.294-1.05.502-1.59 1.577-1.3 2.608.29 1.031 1.34 1.756 2.54 1.757.24.001 24.4.175 26.59 12.402 1.94 10.548-22.86 27.638-32.579 33.334-1.05.615-1.458 1.805-.97 2.832.413.875 1.379 1.423 2.409 1.423.19 0 .37-.017.55-.052 2.31-.436 56.43-10.998 50.71-38.906-3.49-17.103-15.63-20.692-25.2-20.692ZM990.268 379.074c.188-.895-.232-1.804-1.072-2.326l-12.977-8.05a2.911 2.911 0 0 0-2.175-.341c-.135.032-13.705 3.19-33.407 5.128-7.82.776-16.578 1.187-25.33 1.187-19.697 0-32.576-2.05-34.451-3.553-.249-.423-.17-.615-.126-.722.34-.839 2.167-1.837 3.344-2.231 1.301-.426 2.002-1.677 1.597-2.852-.403-1.174-1.771-1.867-3.12-1.579-13.017 2.782-19.383 6.673-18.919 11.563.822 8.67 23.499 13.12 42.67 14.298 2.756.167 5.738.252 8.859.252h.006c31.878 0 72.744-8.858 73.153-8.948.997-.218 1.758-.932 1.948-1.826ZM892.434 397.684c.983-.567 1.419-1.642 1.07-2.634-.348-.991-1.395-1.641-2.57-1.628-1.745.041-17.07.653-18.143 9.295-.325 2.583.51 4.941 2.483 7.012 5.503 5.775 20.356 9.207 45.401 10.495 2.964.156 5.973.235 8.947.235 31.842 0 53.286-8.829 54.184-9.205.871-.365 1.445-1.122 1.496-1.974.052-.851-.428-1.659-1.25-2.103l-16.399-8.867a2.93 2.93 0 0 0-1.9-.291c-.104.019-10.516 1.932-26.23 3.822-2.974.357-6.698.539-11.067.539-15.697 0-33.157-2.271-36.506-3.758-.048-.279.014-.632.484-.938Z" fill="#1A1A1A"/><path d="M914.783 447.118c72.934-.055 112.077-11.542 119.617-18.77 2.67-2.559 2.96-4.98 2.73-6.561-.56-3.892-4.56-6.274-5.01-6.533-1.1-.623-2.57-.46-3.42.412-.85.874-.87 2.148-.02 3.019.46.524.73 1.401-.62 2.594-3.01 2.493-33.417 10.062-84.043 12.336-6.935.32-14.208.481-21.618.482-45.328 0-78.501-5.498-82.856-8.703 1.68-2.135 13.413-5.548 25.891-7.477 1.407-.217 2.357-1.391 2.139-2.64-.218-1.249-1.518-2.11-2.939-1.945-.352.041-1.545.106-2.93.181-20.589 1.113-44.383 3.595-45.624 12.99-.377 2.863.583 5.462 2.856 7.724 5.56 5.533 21.544 12.89 95.844 12.89l.003.001Z" fill="#1A1A1A"/><path d="M1048.73 430.384c-1.03-.422-2.25-.208-3.02.527-.11.102-11.07 10.257-44.04 16.22-12.624 2.24-36.317 3.376-70.423 3.376-34.169 0-66.682-1.191-67.007-1.203-1.358-.058-2.52.816-2.704 2-.186 1.184.675 2.298 1.987 2.575.339.071 34.413 7.141 81.002 7.141 22.346 0 44.09-1.608 64.635-4.78 38.29-5.946 40.98-22.765 41.07-23.477.13-.997-.47-1.956-1.5-2.379Z" fill="#1A1A1A"/></svg>