<svg width="1280" height="640" fill="none" xmlns="http://www.w3.org/2000/svg"><path fill="#EDEFF3" d="M0 0h1280v640H0z"/><path d="M1139.65 596h-9.85v-1.699l6.55-9.153h-6.15v-2.121h9.26v1.875l-6.42 8.977h6.61V596Zm7.97-13.219c1.16 0 2.15.239 2.98.715.83.477 1.46 1.152 1.91 2.027.44.875.67 1.922.67 3.141v1.477h-8.66c.03 1.257.36 2.226 1 2.906.65.68 1.56 1.019 2.72 1.019.83 0 1.57-.078 2.23-.234.66-.164 1.35-.402 2.05-.715v2.238c-.65.305-1.31.528-1.98.668-.67.141-1.48.211-2.42.211-1.27 0-2.39-.246-3.36-.738-.96-.5-1.71-1.242-2.26-2.226-.54-.985-.81-2.208-.81-3.668 0-1.454.25-2.688.74-3.704.49-1.015 1.18-1.789 2.07-2.32.89-.531 1.93-.797 3.12-.797Zm0 2.074c-.87 0-1.57.282-2.11.844-.53.563-.84 1.387-.94 2.473h5.91c-.01-.649-.12-1.223-.33-1.723-.2-.5-.51-.89-.94-1.172-.41-.281-.94-.422-1.59-.422Zm15.24-2.074c.21 0 .45.012.71.035.26.024.48.055.67.094l-.26 2.578a3.41 3.41 0 0 0-.61-.105 6.093 6.093 0 0 0-.63-.035c-.49 0-.96.082-1.41.246-.44.156-.84.398-1.18.726-.35.321-.61.723-.81 1.207-.2.485-.29 1.047-.29 1.688V596h-2.77v-12.973h2.16l.37 2.285h.13c.26-.46.58-.882.96-1.265.39-.383.82-.688 1.31-.914a3.83 3.83 0 0 1 1.65-.352Zm15.26 6.703c0 1.078-.14 2.036-.42 2.871-.28.836-.69 1.543-1.23 2.122a5.398 5.398 0 0 1-1.94 1.312c-.76.297-1.62.445-2.57.445-.89 0-1.71-.148-2.45-.445a5.537 5.537 0 0 1-1.93-1.312c-.54-.579-.96-1.286-1.26-2.122-.29-.835-.44-1.793-.44-2.871 0-1.429.24-2.64.74-3.632.5-1 1.21-1.762 2.13-2.286.92-.523 2.02-.785 3.29-.785 1.2 0 2.25.262 3.17.785.91.524 1.63 1.286 2.14 2.286.52 1 .77 2.21.77 3.632Zm-9.41 0c0 .946.12 1.754.34 2.426.24.672.6 1.188 1.08 1.547.49.352 1.11.527 1.88.527.76 0 1.39-.175 1.87-.527.49-.359.84-.875 1.07-1.547.23-.672.34-1.48.34-2.426 0-.945-.11-1.746-.34-2.402-.23-.664-.58-1.168-1.07-1.512-.48-.351-1.11-.527-1.88-.527-1.14 0-1.98.383-2.5 1.148-.52.766-.79 1.864-.79 3.293Zm19.24-6.703c1.53 0 2.77.563 3.7 1.688.94 1.125 1.4 2.797 1.4 5.015 0 1.469-.21 2.707-.65 3.715-.43 1-1.04 1.758-1.82 2.274-.77.507-1.67.761-2.7.761-.66 0-1.23-.086-1.72-.257a4.414 4.414 0 0 1-1.24-.668 5.114 5.114 0 0 1-.87-.914h-.16c.04.312.07.66.11 1.043.04.374.05.718.05 1.031v5.285h-2.76v-18.727h2.25l.39 1.793h.12c.25-.367.54-.707.88-1.019.36-.313.78-.559 1.27-.739.5-.187 1.08-.281 1.75-.281Zm-.74 2.25c-.76 0-1.37.153-1.83.457-.45.297-.79.746-1 1.348-.2.602-.31 1.355-.33 2.262v.386c0 .961.1 1.778.3 2.45.2.664.53 1.171.99 1.523.47.344 1.11.516 1.9.516.67 0 1.23-.184 1.67-.551.44-.367.77-.891.99-1.57.22-.68.33-1.481.33-2.403 0-1.398-.25-2.484-.75-3.258-.49-.773-1.25-1.16-2.27-1.16Zm17.75 7.266c0 .851-.21 1.57-.62 2.156-.41.586-1.02 1.031-1.82 1.336-.79.297-1.75.445-2.9.445-.91 0-1.69-.066-2.35-.199a8.017 8.017 0 0 1-1.84-.586v-2.379c.62.289 1.31.539 2.08.75.77.211 1.5.317 2.19.317.91 0 1.56-.141 1.96-.422.39-.289.59-.672.59-1.149 0-.281-.08-.531-.24-.75-.16-.226-.46-.457-.89-.691-.43-.242-1.07-.531-1.9-.867-.82-.328-1.51-.656-2.08-.985-.56-.328-.98-.722-1.27-1.183-.29-.469-.44-1.067-.44-1.793 0-1.149.46-2.02 1.36-2.613.92-.602 2.12-.903 3.62-.903.8 0 1.55.082 2.25.246.72.157 1.41.387 2.09.692l-.87 2.074c-.58-.258-1.17-.469-1.77-.633a6.28 6.28 0 0 0-1.79-.258c-.71 0-1.25.11-1.63.328-.37.219-.55.532-.55.938 0 .305.09.562.27.773.18.211.49.422.93.633.44.211 1.06.473 1.85.785.77.297 1.44.61 2 .938.57.32 1.01.715 1.31 1.183.31.469.46 1.075.46 1.817Zm2.58 2.25c0-.641.16-1.09.49-1.348.34-.265.74-.398 1.22-.398s.88.133 1.22.398c.34.258.51.707.51 1.348 0 .625-.17 1.078-.51 1.359-.34.274-.74.41-1.22.41s-.88-.136-1.22-.41c-.33-.281-.49-.734-.49-1.359Zm9.74-11.52V596h-2.76v-12.973h2.76Zm-1.36-4.968c.42 0 .78.113 1.09.339.31.227.47.618.47 1.172 0 .547-.16.938-.47 1.172-.31.227-.67.34-1.09.34-.44 0-.81-.113-1.12-.34-.29-.234-.44-.625-.44-1.172 0-.554.15-.945.44-1.172.31-.226.68-.339 1.12-.339Zm16.79 11.425c0 1.078-.14 2.036-.42 2.871-.28.836-.69 1.543-1.23 2.122a5.437 5.437 0 0 1-1.95 1.312c-.75.297-1.61.445-2.56.445-.89 0-1.71-.148-2.45-.445a5.67 5.67 0 0 1-1.94-1.312c-.54-.579-.95-1.286-1.25-2.122-.3-.835-.45-1.793-.45-2.871 0-1.429.25-2.64.74-3.632.5-1 1.21-1.762 2.14-2.286.92-.523 2.02-.785 3.29-.785 1.19 0 2.25.262 3.16.785.92.524 1.63 1.286 2.15 2.286.51 1 .77 2.21.77 3.632Zm-9.41 0c0 .946.11 1.754.34 2.426.24.672.59 1.188 1.08 1.547.48.352 1.11.527 1.87.527.77 0 1.39-.175 1.88-.527.48-.359.84-.875 1.07-1.547.22-.672.34-1.48.34-2.426 0-.945-.12-1.746-.34-2.402-.23-.664-.59-1.168-1.07-1.512-.49-.351-1.11-.527-1.89-.527-1.14 0-1.97.383-2.49 1.148-.53.766-.79 1.864-.79 3.293Z" fill="#1A1A1A"/><path d="m337.596 179.457-96.358 36.828A22.427 22.427 0 0 0 227 237.194v92.714l44.283-25.449v-52.131l74.217-28.475V178c-2.701.006-5.379.5-7.904 1.457ZM272.068 387.084l73.432-42.321v-51.122l-113.455 65.416a10.205 10.205 0 0 0-5.045 8.745v34.249a22.421 22.421 0 0 0 14.238 20.684l96.358 36.828a22.4 22.4 0 0 0 7.904 1.457v-45.852l-73.432-28.084Z" fill="#323232"/><path d="M459.291 279.066a9.36 9.36 0 0 0 4.709-8.24v-33.632a22.428 22.428 0 0 0-14.238-20.909l-96.414-36.828A22.44 22.44 0 0 0 345.5 178v45.853l72.871 28.027-72.871 41.985v51.122l113.791-65.921ZM353.348 459.563l96.414-36.828A22.426 22.426 0 0 0 464 402.051v-93.667l-44.284 25.561v52.859L345.5 415.168v45.853a22.442 22.442 0 0 0 7.848-1.458Z" fill="#1A1A1A"/><path d="m670 295.553-6.043-6.043L640 313.467l-23.957-23.957-6.043 6.043 23.957 23.957L610 343.467l6.043 6.043L640 325.553l23.957 23.957 6.043-6.043-23.957-23.957L670 295.553Z" fill="#939393"/><path d="M929.813 459.404c-17.276-8.28-45.834-32.069-60.622-50.503-24.872-31.001-39.976-64.886-47.945-107.561-1.809-9.685-2.799-21.248-4.097-47.845-1.473-30.151-1.518-38.94-.204-39.439.631-.239 7.36-1.442 14.953-2.673 40.111-6.505 60.825-13.144 96.038-30.786 7.093-3.553 6.009-3.694 18.506 2.401 33.652 16.414 51.171 21.865 91.118 28.353 4.19.681 9.33 1.604 11.42 2.052l3.81.815.15 3.332c.55 12.277-2.72 67.836-4.73 80.456-8.88 55.711-34.38 102.441-74.922 137.297-15.355 13.202-21.817 17.747-32.933 23.163-6.289 3.065-6.129 3.051-10.546.934l.004.004Zm8.785-9.742c18.232-8.544 46.075-32.276 60.633-51.68 23.079-30.768 35.989-60.586 42.409-98.005 2.22-12.946 5.17-61.146 4.65-75.985l-.16-4.511-4.52-.846c-2.49-.465-7.95-1.386-12.14-2.046-33.849-5.333-51.484-10.875-84.018-26.404-11.784-5.624-10.495-5.484-17.61-1.917-32.169 16.125-52.8 22.679-90.708 28.817-7.332 1.188-13.707 2.276-14.168 2.419-.949.294-.942.897.398 31.136 1.31 29.556 2.373 42.023 4.464 52.358 11.966 59.126 36.458 98.963 82.858 134.769 6.003 4.633 21.543 13.773 23.416 13.773.267 0 2.291-.845 4.496-1.878Z" fill="#1A1A1A"/><path d="M970.249 306.625h31.131M867.578 306.685h46.707" stroke="#1A1A1A" stroke-width="4" stroke-linecap="round"/><path d="M970.514 324.587c10.062-.026 20.121-.052 25.148 7.431 5.028 7.484 5.028 22.474 5.028 37.46" stroke="#1A1A1A" stroke-width="5" stroke-linecap="round" stroke-linejoin="round"/><path d="M925.901 372.348c-13.82-1.873-24.902-11.918-28.16-25.526-.964-4.027-.964-59.992 0-64.022 3.05-12.74 12.833-22.291 25.748-25.137 3.503-.772 18.472-.772 21.975 0 12.914 2.846 22.698 12.397 25.748 25.137.965 4.027.965 59.992 0 64.022-3.039 12.691-12.409 22.704-25.212 25.533-2.426.537-17.001.414-20.099-.007Zm18.73-4.829c11.655-2.66 20.137-11.29 22.364-22.758.398-2.048.429-3.425.429-19.012v-16.805h-65.896v16.805c0 15.587.031 16.964.429 19.012 2.338 12.036 11.598 20.968 23.831 22.987 2.782.459 16.563.291 18.843-.229Zm-12.411-67.342c0-4.251 0-4.251-.564-4.508-.891-.406-2.587-2.078-3.123-3.078-.67-1.253-.878-12.713-.264-14.563.439-1.32 1.877-3.016 3.075-3.628l.876-.446v-12.467l-2.99.123c-13.704.561-24.684 9.921-27.272 23.25-.376 1.934-.429 3.284-.429 10.888v8.681h30.691v-4.252Zm35.204-4.429c0-7.604-.053-8.954-.429-10.888-2.589-13.33-13.568-22.689-27.272-23.25l-2.99-.123v12.467l.875.446c1.176.6 2.622 2.286 3.057 3.565.595 1.744.516 12.477-.103 14.132-.473 1.265-2.089 3.036-3.256 3.568-.573.261-.573.261-.573 4.512v4.252h30.691v-8.681Z" fill="#1A1A1A"/><path d="M898.455 324.705c-10.062-.026-20.12-.052-25.148 7.431-5.027 7.484-5.027 22.474-5.026 37.46M970.544 292.704c10.062.027 20.121.053 25.148-7.431 5.028-7.483 5.028-22.473 5.028-37.46M898.499 292.586c-10.061.027-20.12.053-25.148-7.431-5.027-7.483-5.026-22.473-5.025-37.46" stroke="#1A1A1A" stroke-width="5" stroke-linecap="round" stroke-linejoin="round"/></svg>