<svg xmlns="http://www.w3.org/2000/svg" id="Layer_1" data-name="Layer 1" viewBox="0 0 1280 640"><defs><style>.cls-1{fill:#1a1a1a;stroke-width:0}</style></defs><path d="M0 0h1280v640H0z" style="stroke-width:0;fill:#edeff3"/><path d="M1139.65 596h-9.85v-1.7l6.55-9.15h-6.15v-2.12h9.26v1.88l-6.42 8.98h6.61v2.12Zm7.97-13.22c1.16 0 2.15.24 2.98.72s1.46 1.15 1.91 2.03c.44.88.67 1.92.67 3.14v1.48h-8.66c.03 1.26.36 2.23 1 2.91.65.68 1.56 1.02 2.72 1.02.83 0 1.57-.08 2.23-.23.66-.16 1.35-.4 2.05-.72v2.24c-.65.3-1.31.53-1.98.67s-1.48.21-2.42.21c-1.27 0-2.39-.25-3.36-.74-.96-.5-1.71-1.24-2.26-2.23-.54-.98-.81-2.21-.81-3.67s.25-2.69.74-3.7c.49-1.02 1.18-1.79 2.07-2.32s1.93-.8 3.12-.8Zm0 2.07c-.87 0-1.57.28-2.11.84-.53.56-.84 1.39-.94 2.47h5.91c-.01-.65-.12-1.22-.33-1.72-.2-.5-.51-.89-.94-1.17q-.615-.42-1.59-.42m15.24-2.07c.21 0 .45.01.71.03s.48.05.67.09l-.26 2.58c-.2-.05-.4-.09-.61-.1q-.315-.03-.63-.03c-.49 0-.96.08-1.41.25-.44.16-.84.4-1.18.73-.35.32-.61.72-.81 1.21-.2.48-.29 1.05-.29 1.69v6.79h-2.77v-12.97h2.16l.37 2.28h.13c.26-.46.58-.88.96-1.27.39-.38.82-.69 1.31-.91.52-.24 1.08-.36 1.65-.35Zm15.26 6.7c0 1.08-.14 2.04-.42 2.87-.28.84-.69 1.54-1.23 2.12-.54.57-1.21 1.02-1.94 1.31-.76.3-1.62.45-2.57.45-.89 0-1.71-.15-2.45-.45-.73-.3-1.39-.74-1.93-1.31-.54-.58-.96-1.29-1.26-2.12-.29-.84-.44-1.79-.44-2.87 0-1.43.24-2.64.74-3.63.5-1 1.21-1.76 2.13-2.29.92-.52 2.02-.78 3.29-.78 1.2 0 2.25.26 3.17.78.91.52 1.63 1.29 2.14 2.29.52 1 .77 2.21.77 3.63m-9.41 0c0 .95.12 1.75.34 2.43.24.67.6 1.19 1.08 1.55.49.35 1.11.53 1.88.53s1.39-.17 1.87-.53c.49-.36.84-.88 1.07-1.55s.34-1.48.34-2.43-.11-1.75-.34-2.4c-.23-.66-.58-1.17-1.07-1.51-.48-.35-1.11-.53-1.88-.53-1.14 0-1.98.38-2.5 1.15s-.79 1.86-.79 3.29m19.24-6.7c1.53 0 2.77.56 3.7 1.69.94 1.12 1.4 2.8 1.4 5.02 0 1.47-.21 2.71-.65 3.72-.43 1-1.04 1.76-1.82 2.27-.77.51-1.67.76-2.7.76-.66 0-1.23-.09-1.72-.26-.45-.15-.87-.38-1.24-.67-.33-.27-.62-.57-.87-.91h-.16c.04.31.07.66.11 1.04.04.37.05.72.05 1.03v5.28h-2.76v-18.73h2.25l.39 1.79h.12c.25-.37.54-.71.88-1.02.36-.31.78-.56 1.27-.74.5-.19 1.08-.28 1.75-.28Zm-.74 2.25c-.76 0-1.37.15-1.83.46-.45.3-.79.75-1 1.35-.2.6-.31 1.35-.33 2.26v.39c0 .96.1 1.78.3 2.45.2.66.53 1.17.99 1.52.47.34 1.11.52 1.9.52.67 0 1.23-.18 1.67-.55s.77-.89.99-1.57q.33-1.02.33-2.4c0-1.4-.25-2.48-.75-3.26-.49-.77-1.25-1.16-2.27-1.16Zm17.75 7.27c0 .85-.21 1.57-.62 2.16s-1.02 1.03-1.82 1.34c-.79.3-1.75.45-2.9.45-.91 0-1.69-.07-2.35-.2-.63-.12-1.25-.32-1.84-.59v-2.38c.62.29 1.31.54 2.08.75s1.5.32 2.19.32c.91 0 1.56-.14 1.96-.42.39-.29.59-.67.59-1.15q0-.42-.24-.75c-.16-.23-.46-.46-.89-.69-.43-.24-1.07-.53-1.9-.87-.82-.33-1.51-.66-2.08-.98-.56-.33-.98-.72-1.27-1.18-.29-.47-.44-1.07-.44-1.79 0-1.15.46-2.02 1.36-2.61.92-.6 2.12-.9 3.62-.9.8 0 1.55.08 2.25.25.72.16 1.41.39 2.09.69l-.87 2.07q-.87-.39-1.77-.63c-.58-.17-1.18-.26-1.79-.26-.71 0-1.25.11-1.63.33-.37.22-.55.53-.55.94 0 .3.09.56.27.77s.49.42.93.63 1.06.47 1.85.78c.77.3 1.44.61 2 .94.57.32 1.01.72 1.31 1.18.31.47.46 1.08.46 1.82Zm2.58 2.25c0-.64.16-1.09.49-1.35.34-.27.74-.4 1.22-.4s.88.13 1.22.4q.51.39.51 1.35c0 .96-.17 1.08-.51 1.36-.34.27-.74.41-1.22.41s-.88-.14-1.22-.41c-.33-.28-.49-.73-.49-1.36m9.74-11.52V596h-2.76v-12.97zm-1.36-4.97c.42 0 .78.11 1.09.34s.47.62.47 1.17-.16.94-.47 1.17-.67.34-1.09.34-.81-.11-1.12-.34c-.29-.23-.44-.62-.44-1.17s.15-.95.44-1.17c.31-.23.68-.34 1.12-.34m16.79 11.42c0 1.08-.14 2.04-.42 2.87-.28.84-.69 1.54-1.23 2.12a5.5 5.5 0 0 1-1.95 1.31c-.75.3-1.61.45-2.56.45-.89 0-1.71-.15-2.45-.45a5.7 5.7 0 0 1-1.94-1.31c-.54-.58-.95-1.29-1.25-2.12-.3-.84-.45-1.79-.45-2.87 0-1.43.25-2.64.74-3.63.5-1 1.21-1.76 2.14-2.29.92-.52 2.02-.78 3.29-.78 1.19 0 2.25.26 3.16.78.92.52 1.63 1.29 2.15 2.29.51 1 .77 2.21.77 3.63m-9.41 0c0 .95.11 1.75.34 2.43.24.67.59 1.19 1.08 1.55.48.35 1.11.53 1.87.53s1.39-.17 1.88-.53c.48-.36.84-.88 1.07-1.55.22-.67.34-1.48.34-2.43s-.12-1.75-.34-2.4c-.23-.66-.59-1.17-1.07-1.51-.49-.35-1.11-.53-1.89-.53-1.14 0-1.97.38-2.49 1.15-.53.77-.79 1.86-.79 3.29" class="cls-1"/><path d="m338.1 179.46-96.36 36.83a22.43 22.43 0 0 0-14.24 20.91v92.71l44.28-25.45v-52.13L346 223.86v-45.85c-2.7 0-5.38.5-7.9 1.46Zm-65.53 207.62L346 344.76v-51.12l-113.46 65.42a10.18 10.18 0 0 0-5.04 8.74v34.25a22.43 22.43 0 0 0 14.24 20.68l96.36 36.83c2.53.96 5.2 1.45 7.9 1.46v-45.85l-73.43-28.08Z" style="stroke-width:0;fill:#323232"/><path d="M459.79 279.07a9.36 9.36 0 0 0 4.71-8.24V237.2c.01-9.24-5.64-17.54-14.24-20.91l-96.41-36.83c-2.51-.95-5.17-1.44-7.85-1.46v45.85l72.87 28.03L346 293.86v51.12l113.79-65.92ZM353.85 459.56l96.41-36.83a22.43 22.43 0 0 0 14.24-20.68v-93.67l-44.28 25.56v52.86L346 415.16v45.85c2.68-.01 5.34-.51 7.85-1.46Z" class="cls-1"/><path d="m670.5 295.55-6.04-6.04-23.96 23.96-23.96-23.96-6.04 6.04 23.96 23.96-23.96 23.96 6.04 6.04 23.96-23.96 23.96 23.96 6.04-6.04-23.96-23.96z" style="stroke-width:0;fill:#939393"/><path d="M1053.49 313.69c0 9.39-2.19 15.67-3.55 22.12-1.21 5.71-3.45 11.02-5.68 16.32-1.96 4.64-4.69 8.92-7.58 13.06-5.61 8.04-11.85 15.6-18.15 23.08-3.5 4.16-7.18 8.26-11.27 11.93-2.1 1.88-4.03 3.98-5.95 6.03-7.92 8.45-16.69 15.89-26.46 22.01-8.17 5.13-17.03 9.14-26.64 10.64-11.8 1.84-23.29.14-34.68-3.59-8.61-2.82-16.75-6.45-24.17-11.49-5.59-3.8-11.01-7.91-16.04-12.48-1.96-1.78-4.16-3.26-6.18-4.98-9.54-8.14-18.46-16.93-27.02-26.05-8.03-8.57-14.94-18.05-19.86-28.79-7.29-15.89-7.86-32.14-2.49-48.76 1.98-6.11 3.97-12.2 6.92-17.89 2.02-3.89 4.4-7.64 7-11.18 4-5.45 8.34-10.65 12.51-15.98 3.95-5.04 8.29-9.73 12.75-14.31 4.26-4.38 8.25-9.04 12.73-13.17 5.03-4.64 10.19-9.16 15.73-13.24 11.65-8.59 24.43-14.27 38.85-16.26 7.49-1.04 14.57.62 21.72 2.36 6.69 1.63 13.28 3.58 19.53 6.45 4.73 2.17 9.21 4.88 13.44 7.95 12.76 9.26 24.87 19.27 36.06 30.41 5.85 5.82 11.72 11.59 17.02 17.93 6.55 7.84 12.32 16.24 16.04 25.74 3.1 7.92 5.61 16.13 5.42 22.15Zm-85.63 67.39h14.59c6.52 0 13.04.05 19.55-.06 4.19-.07 6.94-1.8 7.63-4.64 1.15-4.75.85-9.65-.42-14.16-3.48-12.32-12-20.46-23.24-26.04-1.45-.72-3.58-1.02-4.03-2.61-.78-2.73-.44-5.66-.18-8.48.16-1.76 2.03-2.24 3.26-3.12 2.19-1.58 4.44-3.14 4.81-6.06 1.29-10.31 1.76-20.62.29-30.98-1.04-7.28-7.96-16.01-16.26-16.73-4.81-.42-9.46-.51-14.19.47-6.02 1.25-10.19 4.97-12.37 10.3-4.24 10.36-3.88 21.17-1.47 31.92.94 4.2 2.37 8.17 5.77 11.31 4.77 4.41 3.97 10.73-1.35 14.49-2.9 2.05-5.72 4.24-8.41 6.57-2.71 2.35-2.61 2.39-4.67-.44-4.97-6.83-10.93-12.56-18.6-16.34-3.74-1.85-5.2-9.61-2.3-12.8 2.06-2.27 4.1-4.63 5.04-7.49 3.97-12.16 4.93-24.48.19-36.65-2.02-5.19-6.18-8.89-11.5-10.35-4.92-1.35-10.08-1.01-15.26-.62-7.35.56-14.96 9.51-15.99 16.15-1.16 7.41-1.1 14.77-.41 22.21.52 5.69 2.43 10.92 6.18 15 2.77 3.01 3.39 6.05 3.2 9.73-.09 1.82-.7 3.11-2.47 3.88-2.18.95-4.5 1.8-6.34 3.23-4.33 3.35-8.35 7.01-11.85 11.33-5.08 6.27-8.24 13.05-8.55 21.19-.24 6.12 1.36 8.94 6.5 10.1 1.32.3 2.74.26 4.11.26 17.35.02 34.7.05 52.05-.03 2.55-.01 4.08.41 4.47 3.36.47 3.57 2.75 5.68 6.46 5.97 1.19.09 2.38.13 3.57.13h32.22Z" style="stroke-width:0;fill:#000"/></svg>