<svg xmlns="http://www.w3.org/2000/svg" width="1280" height="640" fill="none"><path fill="#EDEFF3" d="M0 0h1280v640H0z"/><path fill="#1A1A1A" d="M1139.65 596h-9.85v-1.699l6.55-9.153h-6.15v-2.121h9.26v1.875l-6.42 8.977h6.61zm7.97-13.219c1.16 0 2.15.239 2.98.715.83.477 1.46 1.152 1.91 2.027.44.875.67 1.922.67 3.141v1.477h-8.66c.03 1.257.36 2.226 1 2.906.65.68 1.56 1.019 2.72 1.019.83 0 1.57-.078 2.23-.234.66-.164 1.35-.402 2.05-.715v2.238q-.975.458-1.98.668c-.67.141-1.48.211-2.42.211q-1.905 0-3.36-.738c-.96-.5-1.71-1.242-2.26-2.226q-.81-1.478-.81-3.668c0-1.454.25-2.688.74-3.704q.735-1.523 2.07-2.32t3.12-.797m0 2.074c-.87 0-1.57.282-2.11.844-.53.563-.84 1.387-.94 2.473h5.91q-.015-.973-.33-1.723c-.2-.5-.51-.89-.94-1.172q-.615-.422-1.59-.422m15.24-2.074c.21 0 .45.012.71.035s.48.055.67.094l-.26 2.578a3.4 3.4 0 0 0-.61-.105 6 6 0 0 0-.63-.035q-.735 0-1.41.246c-.44.156-.84.398-1.18.726-.35.321-.61.723-.81 1.207s-.29 1.047-.29 1.688V596h-2.77v-12.973h2.16l.37 2.285h.13q.39-.69.96-1.265c.39-.383.82-.688 1.31-.914a3.8 3.8 0 0 1 1.65-.352m15.26 6.703q0 1.618-.42 2.871-.42 1.254-1.23 2.122a5.4 5.4 0 0 1-1.94 1.312c-.76.297-1.62.445-2.57.445-.89 0-1.71-.148-2.45-.445a5.5 5.5 0 0 1-1.93-1.312q-.81-.868-1.26-2.122c-.29-.835-.44-1.793-.44-2.871 0-1.429.24-2.64.74-3.632q.75-1.5 2.13-2.286c.92-.523 2.02-.785 3.29-.785 1.2 0 2.25.262 3.17.785.91.524 1.63 1.286 2.14 2.286.52 1 .77 2.21.77 3.632m-9.41 0c0 .946.12 1.754.34 2.426q.36 1.008 1.08 1.547c.49.352 1.11.527 1.88.527.76 0 1.39-.175 1.87-.527.49-.359.84-.875 1.07-1.547s.34-1.48.34-2.426c0-.945-.11-1.746-.34-2.402-.23-.664-.58-1.168-1.07-1.512-.48-.351-1.11-.527-1.88-.527-1.14 0-1.98.383-2.5 1.148-.52.766-.79 1.864-.79 3.293m19.24-6.703c1.53 0 2.77.563 3.7 1.688.94 1.125 1.4 2.797 1.4 5.015 0 1.469-.21 2.707-.65 3.715-.43 1-1.04 1.758-1.82 2.274q-1.155.76-2.7.761c-.66 0-1.23-.086-1.72-.257a4.4 4.4 0 0 1-1.24-.668 5 5 0 0 1-.87-.914h-.16c.04.312.07.66.11 1.043.04.374.05.718.05 1.031v5.285h-2.76v-18.727h2.25l.39 1.793h.12c.25-.367.54-.707.88-1.019.36-.313.78-.559 1.27-.739.5-.187 1.08-.281 1.75-.281m-.74 2.25q-1.14 0-1.83.457c-.45.297-.79.746-1 1.348q-.3.902-.33 2.262v.386q0 1.442.3 2.45.3.995.99 1.523c.47.344 1.11.516 1.9.516.67 0 1.23-.184 1.67-.551q.66-.551.99-1.57t.33-2.403q0-2.097-.75-3.258c-.49-.773-1.25-1.16-2.27-1.16m17.75 7.266c0 .851-.21 1.57-.62 2.156s-1.02 1.031-1.82 1.336c-.79.297-1.75.445-2.9.445-.91 0-1.69-.066-2.35-.199a8 8 0 0 1-1.84-.586v-2.379c.62.289 1.31.539 2.08.75q1.155.317 2.19.317c.91 0 1.56-.141 1.96-.422.39-.289.59-.672.59-1.149q0-.421-.24-.75c-.16-.226-.46-.457-.89-.691-.43-.242-1.07-.531-1.9-.867-.82-.328-1.51-.656-2.08-.985-.56-.328-.98-.722-1.27-1.183-.29-.469-.44-1.067-.44-1.793 0-1.149.46-2.02 1.36-2.613.92-.602 2.12-.903 3.62-.903q1.2 0 2.25.246c.72.157 1.41.387 2.09.692l-.87 2.074q-.87-.387-1.77-.633a6.3 6.3 0 0 0-1.79-.258c-.71 0-1.25.11-1.63.328-.37.219-.55.532-.55.938q0 .457.27.773.27.317.93.633c.44.211 1.06.473 1.85.785.77.297 1.44.61 2 .938.57.32 1.01.715 1.31 1.183.31.469.46 1.075.46 1.817m2.58 2.25c0-.641.16-1.09.49-1.348.34-.265.74-.398 1.22-.398s.88.133 1.22.398q.51.387.51 1.348 0 .938-.51 1.359c-.34.274-.74.41-1.22.41s-.88-.136-1.22-.41c-.33-.281-.49-.734-.49-1.359m9.74-11.52V596h-2.76v-12.973zm-1.36-4.968c.42 0 .78.113 1.09.339s.47.618.47 1.172c0 .547-.16.938-.47 1.172-.31.227-.67.34-1.09.34-.44 0-.81-.113-1.12-.34-.29-.234-.44-.625-.44-1.172 0-.554.15-.945.44-1.172.31-.226.68-.339 1.12-.339m16.79 11.425q0 1.618-.42 2.871-.42 1.254-1.23 2.122a5.4 5.4 0 0 1-1.95 1.312c-.75.297-1.61.445-2.56.445-.89 0-1.71-.148-2.45-.445a5.7 5.7 0 0 1-1.94-1.312c-.54-.579-.95-1.286-1.25-2.122q-.45-1.253-.45-2.871c0-1.429.25-2.64.74-3.632.5-1 1.21-1.762 2.14-2.286.92-.523 2.02-.785 3.29-.785 1.19 0 2.25.262 3.16.785.92.524 1.63 1.286 2.15 2.286.51 1 .77 2.21.77 3.632m-9.41 0c0 .946.11 1.754.34 2.426.24.672.59 1.188 1.08 1.547.48.352 1.11.527 1.87.527.77 0 1.39-.175 1.88-.527.48-.359.84-.875 1.07-1.547.22-.672.34-1.48.34-2.426 0-.945-.12-1.746-.34-2.402-.23-.664-.59-1.168-1.07-1.512-.49-.351-1.11-.527-1.89-.527q-1.71 0-2.49 1.148c-.53.766-.79 1.864-.79 3.293"/><path fill="#323232" d="m337.596 179.457-96.358 36.828A22.43 22.43 0 0 0 227 237.194v92.714l44.283-25.449v-52.131l74.217-28.475V178c-2.701.006-5.379.5-7.904 1.457m-65.528 207.628 73.432-42.322v-51.121l-113.455 65.415a10.21 10.21 0 0 0-5.045 8.745v34.249a22.4 22.4 0 0 0 3.952 12.522 22.4 22.4 0 0 0 10.286 8.162l96.358 36.828a22.4 22.4 0 0 0 7.904 1.458v-45.853z"/><path fill="#1A1A1A" d="M459.291 279.066a9.36 9.36 0 0 0 4.708-8.24v-33.632a22.43 22.43 0 0 0-14.238-20.909l-96.414-36.828A22.4 22.4 0 0 0 345.5 178v45.853l72.871 28.027-72.871 41.985v51.122zM353.347 459.563l96.414-36.828a22.42 22.42 0 0 0 14.238-20.684v-93.667l-44.283 25.561v52.859L345.5 415.168v45.853a22.4 22.4 0 0 0 7.847-1.458"/><path fill="#939393" d="m670 295.553-6.043-6.043L640 313.467l-23.957-23.957-6.043 6.043 23.957 23.957L610 343.467l6.043 6.043L640 325.553l23.957 23.957 6.043-6.043-23.957-23.957z"/><path fill="#DC5F36" d="M865.558 245.448c-14.14.102-30.174 4.181-41.385 12.353a27 27 0 0 0-.767.622c.037.067.043.107.073.174.281 0 .543-.043.824-.073 2.185-.348 4.347-.276 6.495.102 8.265 1.496 16.554 8.02 19.398 26.558 1.837 11.909-.244 17.642 2.777 29.9 6.599 26.766 31.605 37.359 44.351 36.944 1.318-.037 7.912-.492 8.882-.766-.837-.904-15.135-.343-23.608-17.214-1.496-2.985-2.612-6.117-2.227-9.591 1.007-8.85 11.424-10.414 18.052-6.422 12.502 7.495 21.975 31.701 39.476 33.849 12.843 1.562 29.376-5.91 37.567-15.768-.208-.037-.281-.058-.347-.029-.141.037-.287.065-.391.102-11.561 4.199-32.739 3.374-46.766-5.136-13.058-7.917-18.433-20.389-17.981-25.907.622-7.391 7.952-8.043 12.469-6.799 5 1.356 8.468 6.105 13.497 9.504 5.414 3.607 11.429 4.751 17.821 3.573 5.169-.941 11.938-4.271 12.671-5.034-.385-.037-.623-.028-.867-.058-2.156-.207-4.305-.274-6.423-.593-38.601-5.725-44.748-56.808-87.66-60.103a71 71 0 0 0-5.931-.188m-3.746 7.218c-.385 5.103-7.719 7.394-12.267 2.358-.318-.348-.315-.413-.448-.695 4.199-.903 8.404-1.419 12.715-1.663m54.115 12.802c.34.385.53.602.737.81 5.207 5.451 11.133 9.958 17.836 13.395 8.021 4.066 16.43 6.255 25.488 5.352 3.088-.282 6.067-1.081 8.882-2.474.207-.104.414-.279.622-.419q-.31-.157-.521-.102c-1.496.178-2.945.453-4.441.594-4.51.414-8.777-.274-12.628-2.807-6.251-4.132-10.595-8.65-17.431-11.427-8.228-3.333-15.908-2.922-18.544-2.922m12.946 17.025c-.385.504.218.767.463 1.071 16.146 19.323 43.978 22.299 61.405 16.071 13.089-4.651 21.749 2.655 23.479 10.024.03.134.09.301.16.434a.43.43 0 0 1 .21-.043c0-3.015-.56-6.458-1.77-9.605-2.06-5.318-5.55-9.41-11.14-11.587-8.75-3.385-17.394-.641-23.09 1.099-8.783 2.711-17.154 3.787-27.73 1.751-7.643-1.444-14.651-4.293-20.931-8.781-.319-.237-1.019-.5-1.056-.434m62.808 32.894c-2.191-.091-4.521.034-7.015.391-10.51 1.526-16.51 6.281-24.027 10.762-6.436 3.785-10.298 3.344-18.689 2.025 0 .067-.044.093-.044.16.134.066.229.15.333.217 7.08 3.606 13.145 3.954 22.277 2.777 10.309-1.355 15.155-5.04 20.888-8.477 6.91-4.133 13.347-2.914 23.086-1.389.03-.066.04-.15.07-.216-4.95-3.75-10.304-5.975-16.879-6.25m13.989 11.038c-10.932.813-17.473 7.417-23.377 13.554-2.592 2.703-5.15 5.423-7.883 7.955-5.192 4.859-9.315 5.239-10.285 5.758v.144c2.148.141 9.24-.179 15.536-1.461 24.159-4.969 24.649-22.296 35.859-22.363 2.6 0 5.11.202 7.54 1.143.06.037.14 0 .32 0-.11-.141-.15-.237-.25-.304-2.36-1.563-4.51-3.79-12.5-4.412-1.75-.139-3.4-.131-4.96-.014m16.91 9.489c-4.23-.391-8.27.788-12.12 3.182-.11.074-.21.218-.42.492 2.49.178 6.29.285 9.76 2.922 4.2 3.199 6.69 7.006 10.97 8.361 6.94 2.192 13.61-.763 14.82-1.837-.06-.141-.1-.167-.14-.145-.73-.207-4.27-.038-8.01-3.645-3.89-3.711-6.22-6.945-10.56-8.404a18.7 18.7 0 0 0-4.3-.926m-154.592 13.221-.144.13c.629 1.074 4.902 6.174 6.509 7.855 11.028 11.635 28.247 20.999 43.223 20.599 10.916-.304 18.486-2.75 27.122-2.069 8.332.6 12.379 2.621 14.06 3.125.037-.067.108-.107.145-.174-.696-.978-2.693-2.928-3.53-3.602-11.968-9.465-24.853-4.358-34.022-8.52-4.059-1.844-4.23-4.298-2.445-5.772 1.363-1.177 1.917-1.373 8.39-2.647-.74-1.14-7.14-4.087-15.087-.969-8.221 3.214-16.581 3.447-25.054 1.099-10.184-2.814-16.856-7.677-19.167-9.055m71.604 30.001c-.096 0-.206.064-.376.13 2.333.623 9.063 1.738 16.432 10.314 4.363 5.073 9.567 7.221 15.825 7.71.037-.178.249-.279-.491-.694-1.696-.97-3.092-2.181-4.181-3.848-2.229-3.436-5.506-10.045-14.06-12.267-4.325-1.11-8.72-1.308-13.149-1.345"/></svg>