<svg xmlns="http://www.w3.org/2000/svg" id="Layer_1" data-name="Layer 1" viewBox="0 0 1280 640"><defs><style>.cls-2{stroke-width:0;fill:#1a1a1a}</style></defs><path d="M0 0h1280v640H0z" style="stroke-width:0;fill:#edeff3"/><path d="M1139.65 596h-9.85v-1.7l6.55-9.15h-6.15v-2.12h9.26v1.88l-6.42 8.98h6.61v2.12Zm7.97-13.22c1.16 0 2.15.24 2.98.72s1.46 1.15 1.91 2.03c.44.88.67 1.92.67 3.14v1.48h-8.66c.03 1.26.36 2.23 1 2.91.65.68 1.56 1.02 2.72 1.02.83 0 1.57-.08 2.23-.23.66-.16 1.35-.4 2.05-.72v2.24c-.65.3-1.31.53-1.98.67s-1.48.21-2.42.21c-1.27 0-2.39-.25-3.36-.74-.96-.5-1.71-1.24-2.26-2.23-.54-.98-.81-2.21-.81-3.67s.25-2.69.74-3.7c.49-1.02 1.18-1.79 2.07-2.32s1.93-.8 3.12-.8Zm0 2.07c-.87 0-1.57.28-2.11.84-.53.56-.84 1.39-.94 2.47h5.91c-.01-.65-.12-1.22-.33-1.72-.2-.5-.51-.89-.94-1.17q-.615-.42-1.59-.42m15.24-2.07c.21 0 .45.01.71.03s.48.05.67.09l-.26 2.58c-.2-.05-.4-.09-.61-.1q-.315-.03-.63-.03c-.49 0-.96.08-1.41.25-.44.16-.84.4-1.18.73-.35.32-.61.72-.81 1.21-.2.48-.29 1.05-.29 1.69v6.79h-2.77v-12.97h2.16l.37 2.28h.13c.26-.46.58-.88.96-1.27.39-.38.82-.69 1.31-.91.52-.24 1.08-.36 1.65-.35Zm15.26 6.7c0 1.08-.14 2.04-.42 2.87-.28.84-.69 1.54-1.23 2.12-.54.57-1.21 1.02-1.94 1.31-.76.3-1.62.45-2.57.45-.89 0-1.71-.15-2.45-.45-.73-.3-1.39-.74-1.93-1.31-.54-.58-.96-1.29-1.26-2.12-.29-.84-.44-1.79-.44-2.87 0-1.43.24-2.64.74-3.63.5-1 1.21-1.76 2.13-2.29.92-.52 2.02-.78 3.29-.78 1.2 0 2.25.26 3.17.78.91.52 1.63 1.29 2.14 2.29.52 1 .77 2.21.77 3.63m-9.41 0c0 .95.12 1.75.34 2.43.24.67.6 1.19 1.08 1.55.49.35 1.11.53 1.88.53s1.39-.17 1.87-.53c.49-.36.84-.88 1.07-1.55s.34-1.48.34-2.43-.11-1.75-.34-2.4c-.23-.66-.58-1.17-1.07-1.51-.48-.35-1.11-.53-1.88-.53-1.14 0-1.98.38-2.5 1.15s-.79 1.86-.79 3.29m19.24-6.7c1.53 0 2.77.56 3.7 1.69.94 1.12 1.4 2.8 1.4 5.02 0 1.47-.21 2.71-.65 3.72-.43 1-1.04 1.76-1.82 2.27-.77.51-1.67.76-2.7.76-.66 0-1.23-.09-1.72-.26-.45-.15-.87-.38-1.24-.67-.33-.27-.62-.57-.87-.91h-.16c.04.31.07.66.11 1.04.04.37.05.72.05 1.03v5.28h-2.76v-18.73h2.25l.39 1.79h.12c.25-.37.54-.71.88-1.02.36-.31.78-.56 1.27-.74.5-.19 1.08-.28 1.75-.28Zm-.74 2.25c-.76 0-1.37.15-1.83.46-.45.3-.79.75-1 1.35-.2.6-.31 1.35-.33 2.26v.39c0 .96.1 1.78.3 2.45.2.66.53 1.17.99 1.52.47.34 1.11.52 1.9.52.67 0 1.23-.18 1.67-.55s.77-.89.99-1.57q.33-1.02.33-2.4c0-1.4-.25-2.48-.75-3.26-.49-.77-1.25-1.16-2.27-1.16Zm17.75 7.27c0 .85-.21 1.57-.62 2.16s-1.02 1.03-1.82 1.34c-.79.3-1.75.45-2.9.45-.91 0-1.69-.07-2.35-.2-.63-.12-1.25-.32-1.84-.59v-2.38c.62.29 1.31.54 2.08.75s1.5.32 2.19.32c.91 0 1.56-.14 1.96-.42.39-.29.59-.67.59-1.15q0-.42-.24-.75c-.16-.23-.46-.46-.89-.69-.43-.24-1.07-.53-1.9-.87-.82-.33-1.51-.66-2.08-.98-.56-.33-.98-.72-1.27-1.18-.29-.47-.44-1.07-.44-1.79 0-1.15.46-2.02 1.36-2.61.92-.6 2.12-.9 3.62-.9.8 0 1.55.08 2.25.25.72.16 1.41.39 2.09.69l-.87 2.07q-.87-.39-1.77-.63c-.58-.17-1.18-.26-1.79-.26-.71 0-1.25.11-1.63.33-.37.22-.55.53-.55.94 0 .3.09.56.27.77s.49.42.93.63 1.06.47 1.85.78c.77.3 1.44.61 2 .94.57.32 1.01.72 1.31 1.18.31.47.46 1.08.46 1.82Zm2.58 2.25c0-.64.16-1.09.49-1.35.34-.27.74-.4 1.22-.4s.88.13 1.22.4q.51.39.51 1.35c0 .96-.17 1.08-.51 1.36-.34.27-.74.41-1.22.41s-.88-.14-1.22-.41c-.33-.28-.49-.73-.49-1.36m9.74-11.52V596h-2.76v-12.97zm-1.36-4.97c.42 0 .78.11 1.09.34s.47.62.47 1.17-.16.94-.47 1.17-.67.34-1.09.34-.81-.11-1.12-.34c-.29-.23-.44-.62-.44-1.17s.15-.95.44-1.17c.31-.23.68-.34 1.12-.34m16.79 11.42c0 1.08-.14 2.04-.42 2.87-.28.84-.69 1.54-1.23 2.12a5.5 5.5 0 0 1-1.95 1.31c-.75.3-1.61.45-2.56.45-.89 0-1.71-.15-2.45-.45a5.7 5.7 0 0 1-1.94-1.31c-.54-.58-.95-1.29-1.25-2.12-.3-.84-.45-1.79-.45-2.87 0-1.43.25-2.64.74-3.63.5-1 1.21-1.76 2.14-2.29.92-.52 2.02-.78 3.29-.78 1.19 0 2.25.26 3.16.78.92.52 1.63 1.29 2.15 2.29.51 1 .77 2.21.77 3.63m-9.41 0c0 .95.11 1.75.34 2.43.24.67.59 1.19 1.08 1.55.48.35 1.11.53 1.87.53s1.39-.17 1.88-.53c.48-.36.84-.88 1.07-1.55.22-.67.34-1.48.34-2.43s-.12-1.75-.34-2.4c-.23-.66-.59-1.17-1.07-1.51-.49-.35-1.11-.53-1.89-.53-1.14 0-1.97.38-2.49 1.15-.53.77-.79 1.86-.79 3.29" class="cls-2"/><path d="m338.1 179.46-96.36 36.83a22.43 22.43 0 0 0-14.24 20.91v92.71l44.28-25.45v-52.13L346 223.86v-45.85c-2.7 0-5.38.5-7.9 1.46Zm-65.53 207.62L346 344.76v-51.12l-113.46 65.42a10.18 10.18 0 0 0-5.04 8.74v34.25a22.43 22.43 0 0 0 14.24 20.68l96.36 36.83c2.53.96 5.2 1.45 7.9 1.46v-45.85l-73.43-28.08Z" style="stroke-width:0;fill:#323232"/><path d="M459.79 279.07a9.36 9.36 0 0 0 4.71-8.24V237.2c.01-9.24-5.64-17.54-14.24-20.91l-96.41-36.83c-2.51-.95-5.17-1.44-7.85-1.46v45.85l72.87 28.03L346 293.86v51.12l113.79-65.92ZM353.85 459.56l96.41-36.83a22.43 22.43 0 0 0 14.24-20.68v-93.67l-44.28 25.56v52.86L346 415.16v45.85c2.68-.01 5.34-.51 7.85-1.46Z" class="cls-2"/><path d="m670.5 295.55-6.04-6.04-23.96 23.96-23.96-23.96-6.04 6.04 23.96 23.96-23.96 23.96 6.04 6.04 23.96-23.96 23.96 23.96 6.04-6.04-23.96-23.96z" style="stroke-width:0;fill:#939393"/><path id="Layer_1-2" d="M886.25 341.98c-5.69 4.05-9.29 6.51-10.82 7.38-8.15 4.86-15.6 7.29-22.33 7.29-3.76 0-7.45-.86-11.05-2.59-3.61-1.72-6.31-3.96-8.11-6.7s-2.7-5.84-2.7-9.29c0-4.86 1.65-11.05 4.94-18.57 4.7-10.97 7.21-16.85 7.52-17.63-.16-.63-.24-1.33-.24-2.12-2.19.94-3.68 1.65-4.47 2.12-4.39 2.82-8.7 6.03-12.93 9.64-3.29 2.98-7.13 6.74-11.52 11.29-.94 5.64-1.41 11.21-1.41 16.69 0 4.23.23 8.46.71 12.7l-28.45 4.47c-2.19-8.78-3.29-17.16-3.29-25.16 0-4.86.47-9.8 1.41-14.81.94-5.02 2.66-10.66 5.17-16.93 1.72-4.39 4.15-9.87 7.29-16.46l32.68-5.41c-2.04 5.02-3.53 8.78-4.47 11.29q-2.58 6.345-4.23 11.52c7.84-7.21 15.67-12.77 23.51-16.69 6.27-3.13 11.91-4.7 16.93-4.7q4.23 0 8.7 1.65c2.98 1.1 5.13 2.82 6.47 5.17 1.33 2.35 2 5.17 2 8.46 0 4.7-1.33 10.5-4 17.4-3.13 7.84-6.19 15.67-9.17 23.51 0 1.1.39 1.76 1.18 2 .78.24 1.57.35 2.35.35 3.14 0 7.82-1.64 14.03-4.93a28.3 28.3 0 0 1-.87-7.06c0-3.76.55-7.37 1.65-10.81 1.1-3.45 2.74-7.05 4.94-10.81 3.92-6.43 9.4-11.91 16.46-16.46 7.05-4.55 14.5-7.44 22.33-8.7 2.82-.31 5.02-.47 6.58-.47 5.17 0 9.8.86 13.87 2.59 4.08 1.72 7.45 4.55 10.11 8.46 1.57 2.51 2.35 5.01 2.35 7.52q0 5.88-5.88 11.52c-2.82 2.66-6.62 5.17-11.4 7.52q-7.17 3.525-14.22 5.88c-3.45 1.1-8.31 2.43-14.58 4q3.06 6.345 8.7 10.23c3.76 2.59 7.76 3.88 11.99 3.88 6.43 0 12.85-1.65 19.28-4.94.3-.15 5.21-3.25 14.72-9.31.05-.75.12-1.53.2-2.33.24-2.27.7-5.05 1.41-8.35q.42-1.95.78-3.57l33.95-2.03c-.81 2.84-1.65 5.76-2.52 8.77-1.02 3.53-1.53 6.46-1.53 8.82 0 3.76.74 6.39 2.23 7.88s3.64 2.23 6.47 2.23c4.07 0 9.4-1.73 15.99-5.17 3.13-1.9 5.66-3.42 7.57-4.57.06-1.26.16-2.6.3-4.01.24-2.27.71-5.05 1.41-8.35.28-1.29.54-2.48.78-3.55l33.95-2.03q-1.215 4.245-2.52 8.76c-1.02 3.53-1.53 6.46-1.53 8.82 0 3.76.74 6.39 2.23 7.88s3.64 2.23 6.47 2.23c4.07 0 9.41-1.73 15.99-5.17l4.89-2.96c-.13-1.11-.19-2.24-.19-3.39 0-3.76.55-7.37 1.65-10.81 1.1-3.45 2.74-7.05 4.94-10.81 3.92-6.43 9.4-11.91 16.46-16.46 7.05-4.55 14.5-7.44 22.33-8.7 2.82-.31 5.02-.47 6.58-.47 5.17 0 9.8.86 13.87 2.59 4.08 1.72 7.45 4.55 10.11 8.46 1.57 2.51 2.35 5.01 2.35 7.52q0 5.88-5.88 11.52c-2.82 2.66-6.62 5.17-11.4 7.52q-7.17 3.525-14.22 5.88c-3.45 1.1-8.31 2.43-14.58 4q3.06 6.345 8.7 10.23c3.76 2.59 7.76 3.88 11.99 3.88 6.43 0 12.85-1.65 19.28-4.94q.465-.24 15.99-10.11v10.58c-.94.63-4.7 3.29-11.29 7.99-4.86 3.45-8.86 5.88-11.99 7.29-7.84 3.45-16.46 5.17-25.86 5.17-6.27 0-11.83-.74-16.69-2.23s-9.33-4.12-13.4-7.88c-2.52-2.25-4.51-4.79-5.96-7.6-6.91 5-12.21 8.55-15.91 10.66-8.31 4.7-15.83 7.05-22.57 7.05-3.78 0-6.84-.24-10.35-1.88-5.96-2.51-10.11-5.76-12.46-9.76-1.17-1.98-2.04-4.19-2.63-6.61-7.27 5.28-12.82 9.01-16.65 11.2-8.31 4.7-15.83 7.05-22.57 7.05-3.78 0-6.84-.24-10.35-1.88-5.96-2.51-10.11-5.76-12.46-9.76-1.42-2.41-2.41-5.16-2.97-8.23-1.64 1.14-5.11 3.61-10.43 7.4-4.86 3.45-8.86 5.88-11.99 7.29-7.84 3.45-16.46 5.17-25.86 5.17-6.27 0-11.83-.74-16.69-2.23s-9.33-4.12-13.4-7.88a27.7 27.7 0 0 1-3.76-4.09Zm47.26-42.94c.16-.63.23-1.57.23-2.82 0-4.08-1.72-6.11-5.17-6.11-.47 0-1.33.16-2.59.47-4.7 1.1-8.39 4.08-11.05 8.93-2.66 4.86-4 9.95-4 15.28 6.58-1.72 11.36-3.45 14.34-5.17 4.86-2.66 7.6-6.19 8.23-10.58Zm32.44.71 4.7-18.57 9.64-.47 9.17-25.16 34.8-6.11-9.87 29.62 15.75-.7-4.23 17.63c-19.98 1.35-39.96 2.59-59.95 3.76Zm64.66 0 4.7-18.57 9.64-.47 9.17-25.16 34.79-6.11-9.87 29.62 15.75-.7-4.23 17.63c-20.04 1.35-40.17 2.6-59.95 3.76m116.14-.71q.24-.945.24-2.82c0-4.08-1.72-6.11-5.17-6.11-.47 0-1.33.16-2.59.47-4.7 1.1-8.39 4.08-11.05 8.93-2.66 4.86-4 9.95-4 15.28 6.58-1.72 11.36-3.45 14.34-5.17 4.86-2.66 7.6-6.19 8.23-10.58" data-name="Layer_1" style="fill:#1f1a17;stroke-width:0"/></svg>