<svg xmlns="http://www.w3.org/2000/svg" id="Layer_2" viewBox="0 0 1280 640"><defs><clipPath id="clippath"><path d="M768.79 269.21h450.81v91.57H768.79z" style="fill:none"/></clipPath><style>.cls-5{fill:#1a1a1a}</style></defs><g id="Layer_1-2" data-name="Layer_1"><path d="M0 0h1280v640H0z" style="fill:#edeff3"/><path d="M1139.7 596h-9.8v-1.7l6.6-9.2h-6.2V583h9.3v1.9l-6.4 9h6.6v2.1zm7.9-13.2c1.2 0 2.2.2 3 .7s1.5 1.2 1.9 2c.4.9.7 1.9.7 3.1v1.5h-8.7c0 1.3.4 2.2 1 2.9.7.7 1.6 1 2.7 1s1.6 0 2.2-.2c.7-.2 1.3-.4 2.1-.7v2.2c-.7.3-1.3.5-2 .7-.7 0-1.5.2-2.4.2s-2.4-.2-3.4-.7-1.7-1.2-2.3-2.2c-.5-1-.8-2.2-.8-3.7s.2-2.7.7-3.7 1.2-1.8 2.1-2.3 1.9-.8 3.1-.8zm0 2.1c-.9 0-1.6.3-2.1.8-.5.6-.8 1.4-.9 2.5h5.9c0-.6 0-1.2-.3-1.7q-.3-.75-.9-1.2c-.6-.45-.9-.4-1.6-.4zm15.3-2.1h1.4l-.3 2.6h-1.2c-.5 0-1 0-1.4.2s-.8.4-1.2.7c-.3.3-.6.7-.8 1.2s-.3 1-.3 1.7v6.8h-2.8v-13h2.2l.4 2.3c.3-.5.6-.9 1-1.3s.8-.7 1.3-.9 1.1-.4 1.7-.4v.2zm15.2 6.7c0 1.1 0 2-.4 2.9q-.45 1.2-1.2 2.1c-.75.9-1.2 1-1.9 1.3-.8.3-1.6.4-2.6.4s-1.7 0-2.4-.4c-.7-.3-1.4-.7-1.9-1.3s-1-1.3-1.3-2.1-.4-1.8-.4-2.9.2-2.6.7-3.6 1.2-1.8 2.1-2.3 2-.8 3.3-.8 2.2.3 3.2.8c.9.5 1.6 1.3 2.1 2.3s.8 2.2.8 3.6zm-9.4 0c0 .9 0 1.8.3 2.4.2.7.6 1.2 1.1 1.5.5.4 1.1.5 1.9.5s1.4-.2 1.9-.5c.5-.4.8-.9 1.1-1.5s.3-1.5.3-2.4 0-1.7-.3-2.4c-.2-.7-.6-1.2-1.1-1.5-.5-.4-1.1-.5-1.9-.5s-2 .4-2.5 1.1c-.5.8-.8 1.9-.8 3.3m19.2-6.7c1.5 0 2.8.6 3.7 1.7s1.4 2.8 1.4 5-.2 2.7-.7 3.7c-.4 1-1 1.8-1.8 2.3s-1.7.8-2.7.8-1.2 0-1.7-.3c-.4-.2-.9-.4-1.2-.7l-.9-.9h-.2v7.3h-2.8V583h2.2l.4 1.8c.2-.4.5-.7.9-1s.8-.6 1.3-.7q.75-.3 1.8-.3zm-.7 2.2c-.8 0-1.4.2-1.8.5s-.8.7-1 1.3-.3 1.4-.3 2.3v.4c0 1 0 1.8.3 2.5.2.7.5 1.2 1 1.5s1.1.5 1.9.5 1.2-.2 1.7-.6c.4-.4.8-.9 1-1.6q.3-1.05.3-2.4c0-1.4-.2-2.5-.8-3.3-.5-.8-1.2-1.2-2.3-1.2zm17.8 7.3c0 .9-.2 1.6-.6 2.2s-1 1-1.8 1.3-1.8.4-2.9.4-1.7 0-2.3-.2c-.6 0-1.3-.3-1.8-.6V593c.6.3 1.3.5 2.1.8.8.2 1.5.3 2.2.3s1.6 0 2-.4c.4-.3.6-.7.6-1.1s0-.5-.2-.8c-.2-.2-.5-.5-.9-.7s-1.1-.5-1.9-.9c-.8-.3-1.5-.7-2.1-1s-1-.7-1.3-1.2-.4-1.1-.4-1.8c0-1.1.5-2 1.4-2.6s2.1-.9 3.6-.9 1.6 0 2.2.2c.7.2 1.4.4 2.1.7l-.9 2.1q-.9-.45-1.8-.6-.9-.3-1.8-.3c-.9 0-1.2 0-1.6.3s-.6.5-.6.9 0 .6.3.8.5.4.9.6 1.1.5 1.8.8c.8.3 1.4.6 2 .9s1 .7 1.3 1.2.5 1.1.5 1.8v.2zm2.5 2.2c0-.6.2-1.1.5-1.3.3-.3.7-.4 1.2-.4s.9 0 1.2.4c.3.3.5.7.5 1.3s-.2 1.1-.5 1.4-.7.4-1.2.4-.9 0-1.2-.4c-.3-.3-.5-.7-.5-1.4m9.8-11.5v13h-2.8v-13zm-1.4-4.9c.4 0 .8 0 1.1.3.3.2.5.6.5 1.2s-.2.9-.5 1.2c-.3.2-.7.3-1.1.3s-.8 0-1.1-.3c-.3-.2-.4-.6-.4-1.2s.2-.9.4-1.2c.3-.2.7-.3 1.1-.3m16.8 11.4c0 1.1 0 2-.4 2.9q-.45 1.2-1.2 2.1c-.75.9-1.2 1-1.9 1.3-.8.3-1.6.4-2.6.4s-1.7 0-2.4-.4c-.7-.3-1.4-.7-1.9-1.3s-.9-1.3-1.2-2.1-.4-1.8-.4-2.9.2-2.6.7-3.6 1.2-1.8 2.1-2.3 2-.8 3.3-.8 2.2.3 3.2.8c.9.5 1.6 1.3 2.2 2.3.5 1 .8 2.2.8 3.6zm-9.4 0c0 .9 0 1.8.3 2.4.2.7.6 1.2 1.1 1.5.5.4 1.1.5 1.9.5s1.4-.2 1.9-.5c.5-.4.8-.9 1.1-1.5q.3-1.05.3-2.4c0-1.35 0-1.7-.3-2.4-.2-.7-.6-1.2-1.1-1.5-.5-.4-1.1-.5-1.9-.5s-2 .4-2.5 1.1c-.5.8-.8 1.9-.8 3.3" class="cls-5"/><path d="m338.1 179.5-96.4 36.8c-8.6 3.4-14.3 11.7-14.2 20.9v92.7l44.3-25.4v-52.1l74.2-28.5V178c-2.7 0-5.4.5-7.9 1.5m-65.5 207.6 73.4-42.3v-51.1l-113.5 65.4c-3.1 1.8-5 5.1-5 8.7V402c0 9.2 5.7 17.3 14.2 20.7l96.4 36.8c2.5 1 5.2 1.5 7.9 1.5v-45.9L272.6 387z" style="fill:#323232"/><path d="M459.8 279.1c2.9-1.7 4.8-4.8 4.7-8.2v-33.6c0-9.2-5.6-17.5-14.2-20.9l-96.4-36.8c-2.5-1-5.2-1.4-7.8-1.5V224l72.9 28-72.9 42v51.1l113.8-65.9h-.1zm-106 180.5 96.4-36.8c8.5-3.3 14.2-11.5 14.2-20.7v-93.7L420.1 334v52.9l-74.2 28.4v45.9q4.05 0 7.8-1.5z" class="cls-5"/><path d="m670.5 295.6-6-6-24 24-24-24-6 6 24 24-24 24 6 6 24-24 24 24 6-6-24-24z" style="fill:#939393"/><path d="M786.32 357.55c.89-4.22 1.75-8.29 2.56-12.24q1.02-4.92 2.28-10.92l.51-2.44 4.16-20.1h15.93l2.79-13.3H797.9l.52-2.63.58-2.93c.62-3.04 1.75-5.31 3.38-6.83 1.63-1.51 3.88-2.28 6.75-2.28 1.63 0 3.24.2 4.83.59s3.11.95 4.54 1.66l4.19-14.19c-1.4-.61-2.85-1.09-4.34-1.45-1.72-.43-3.46-.74-5.21-.95-1.81-.22-3.64-.32-5.47-.32-2.87 0-5.63.35-8.27 1.04-2.61.68-5.07 1.86-7.22 3.49-2.17 1.64-4.06 3.85-5.68 6.65-1.61 2.8-2.84 6.29-3.7 10.46l-1.78 8.6.19-.92h-9.65l-2.79 13.3h9.66l-.14.68c-.26 1.23-.51 2.44-.76 3.65l-.38 1.8-1.69 8.13-1.22 5.91c-.91 4.43-1.83 8.85-2.76 13.27-.86 4.09-1.71 8.17-2.54 12.27h17.35Zm49.56-59.12-1.66 4.28 7.78 5.48c.42.29.64.84.58 1.39l-.03.16-.52 2.4c-.13.6-.59 1.04-1.13 1.08l-6.87.46 5.87 4.1c.42.29.64.84.58 1.39l-.02.17-.52 2.39c-.13.61-.59 1.04-1.13 1.08l-6.87.46 5.87 4.1c.42.29.64.84.58 1.39l-.03.17-.52 2.39c-.13.61-.59 1.04-1.13 1.08l-6.87.46 5.87 4.1c.42.29.64.84.58 1.39l-.03.17-.52 2.39c-.13.61-.59 1.04-1.13 1.08l-6.87.46 5.88 4.1c.42.29.64.84.58 1.39l-.03.17-.52 2.39c-.13.61-.59 1.04-1.13 1.08l-9.64.85-1.2 5.14h-7.7l2.38-9.45c.13-.6.59-1.04 1.13-1.07l6.87-.46-5.87-4.1c-.43-.33-.65-.86-.58-1.39l.03-.16.52-2.4c.13-.6.59-1.04 1.13-1.08l6.87-.46-5.87-4.1c-.43-.33-.65-.86-.58-1.39l.02-.17.52-2.39c.13-.61.59-1.04 1.13-1.08l6.87-.46-5.87-4.09c-.43-.33-.65-.86-.58-1.39l.03-.17.52-2.39c.13-.61.59-1.04 1.13-1.08l6.87-.46-5.87-4.1c-.43-.33-.65-.86-.58-1.39l.03-.17.52-2.39c.13-.61.59-1.04 1.13-1.08l6.87-.46-5.88-4.1c-.43-.32-.65-.86-.58-1.39l.03-.17 1.07-3.81 8.48-.33Zm5.91-28.68c3.16 0 5.49 1.07 7.01 3.22s1.98 4.72 1.37 7.71c-.69 3.43-2.1 5.75-4.25 6.95q-3.225 1.8-8.01 1.8c-4.785 0-5.46-.94-7.04-2.81s-2.03-4.54-1.34-8.01c.64-3.15 2.06-5.42 4.25-6.8q3.27-2.07 8.01-2.07Zm68.45 27.2c5.59 0 10.19.94 13.8 2.84 3.61 1.89 6.11 4.58 7.51 8.07s1.57 7.64.53 12.45c-.4 2-.8 4-1.23 6l-1.34 6.36-1.05 4.97-1.95 9.34c-.68 3.28-1.43 6.8-2.24 10.58h-15.01l.75-7.86h-1.34c-1.31 1.95-2.91 3.7-4.74 5.17a18.5 18.5 0 0 1-5.62 3.07c-2.1.7-4.31 1.05-6.52 1.04-3.68 0-6.77-.92-9.26-2.75a14.25 14.25 0 0 1-5.18-7.3c-.97-3.03-1.07-6.35-.3-9.93.58-2.76 1.52-5.06 2.82-6.92 1.3-1.85 2.87-3.37 4.72-4.55 1.9-1.21 3.96-2.15 6.11-2.81 2.28-.7 4.6-1.22 6.96-1.57l18.22-2.9c.39-1.77.24-3.32-.44-4.64s-1.89-2.35-3.64-3.07c-1.75-.73-3.98-1.09-6.7-1.09-1.4 0-2.88.11-4.46.32-1.57.22-3.21.53-4.92.95-1.71.41-3.47.93-5.27 1.54a69 69 0 0 0-5.56 2.16l2.74-15.49c1.4-.47 2.99-.93 4.77-1.39 1.87-.47 3.76-.9 5.65-1.27 2.01-.4 4.04-.72 6.08-.95a53 53 0 0 1 6.08-.35Zm3.49 31.27c-.62.44-1.29.83-1.98 1.16-.77.37-1.84.75-3.2 1.12s-3.2.82-5.53 1.33c-1.4.32-2.79.74-4.13 1.24a8.1 8.1 0 0 0-3.09 2.01c-.81.87-1.36 1.99-1.63 3.37-.39 2.17-.02 3.85 1.11 5.05s2.66 1.8 4.6 1.8c1.4 0 2.8-.31 4.22-.92a15.4 15.4 0 0 0 4.07-2.63c1.3-1.14 2.49-2.5 3.58-4.08l1.98-9.46Zm84.63-20.74c-.61-2.97-1.85-5.34-3.73-7.1-2.43-2.29-5.81-3.43-10.16-3.43-2.68 0-5.25.47-7.71 1.42-2.47.94-4.73 2.24-6.81 3.87-2.01 1.56-3.78 3.4-5.27 5.47h-1.45l1.22-10.05-14.67.89q-1.515 7.395-2.97 14.28c-.97 4.59-1.88 9.02-2.73 13.28l-1.23 5.91c-.95 4.42-1.88 8.85-2.79 13.27-.84 4.09-1.7 8.18-2.56 12.27h17.41c.85-4.22 1.69-8.28 2.5-12.18.82-3.9 1.69-8.06 2.62-12.47l2.5-12.24a42 42 0 0 1 3.76-3.9c1.18-1.09 2.52-2.01 3.96-2.72 1.37-.67 2.84-1 4.4-1 2.72 0 4.45 1.07 5.21 3.22.75 2.15.76 4.99.02 8.54l-1.69 8.16c-.87 4.14-1.73 8.27-2.56 12.42-.77 3.86-1.61 7.92-2.5 12.18h17.35l2.59-12.27c.83-3.96 1.76-8.39 2.76-13.28.47-2.28.92-4.49 1.37-6.62l1.19-5.67-.08.39.12-.14c.83-.92 1.67-1.77 2.53-2.56l.64-.58c1.2-1.09 2.54-2.01 3.99-2.75a9.7 9.7 0 0 1 4.4-1.04c2.72 0 4.46 1.07 5.21 3.22.76 2.15.76 4.99.03 8.54l-1.69 8.16c-.83 4.15-1.68 8.3-2.53 12.45-.84 4.05-1.68 8.1-2.53 12.15h17.41c.85-4.22 1.69-8.29 2.5-12.24.82-3.94 1.75-8.38 2.8-13.3.46-2.29.92-4.49 1.37-6.62l1.19-5.68c1.48-6.9 1.01-12.41-1.39-16.55-2.41-4.14-6.58-6.21-12.52-6.21q-4.02 0-7.74 1.44c-2.48.96-4.8 2.29-6.9 3.93-2.07 1.61-3.9 3.5-5.44 5.62h-1.27l-.09-.47Zm75.25-10.53c6.09 0 11.06 1.12 14.9 3.37 3.84 2.24 6.45 5.4 7.8 9.46q2.04 6.09.06 14.19-.465 1.95-.96 3.66c-.25.86-.51 1.69-.79 2.51l-.29.81h-35.64v.23c-.09 2.25.24 4.22.98 5.89 1.11 2.5 2.94 4.38 5.5 5.62s5.71 1.86 9.43 1.86c1.63 0 3.44-.15 5.44-.44 2.02-.3 4.01-.76 5.97-1.36 1.9-.58 3.74-1.36 5.47-2.34l-2.33 15.02c-1.05.63-2.49 1.22-4.31 1.78-1.82.55-3.93 1-6.32 1.36-2.39.35-4.96.53-7.71.53q-10.485 0-17.49-4.11a22.4 22.4 0 0 1-9.9-11.68c-1.92-5.04-2.18-11.03-.79-17.97 1.17-5.72 3.15-10.7 5.94-14.96 2.79-4.25 6.3-7.56 10.53-9.9s9.06-3.51 14.5-3.51Zm.36 12.47c-1.98 0-3.91.53-5.79 1.6-1.88 1.06-3.56 2.72-5.04 4.97-.95 1.48-1.72 3.08-2.28 4.75l-.18.52 21.04-.44.07-.51c.29-2.6-.09-4.92-1.13-6.97q-1.98-3.9-6.69-3.9Zm43.86 48.12c.85-4.22 1.69-8.27 2.5-12.15l2.62-12.5 2.5-12.24q1.77-2.085 3.81-3.9c1.22-1.09 2.6-2.01 4.07-2.72 1.42-.67 2.96-1 4.63-1 3.07 0 5.01 1.07 5.82 3.22.82 2.15.83 4.99.06 8.54l-1.69 8.16c-1.66 8.21-3.34 16.4-5.06 24.6h17.41l2.59-12.27c.83-3.96 1.74-8.39 2.71-13.28.5-2.28.98-4.49 1.43-6.62l1.19-5.67c1.44-6.9.93-12.41-1.51-16.55s-6.81-6.21-13.1-6.21c-2.71 0-5.4.47-7.95 1.42-2.51.93-4.85 2.23-6.96 3.87-2.02 1.56-3.8 3.4-5.3 5.47h-1.45l1.22-10.05-14.67.89q-1.47 7.155-2.97 14.31c-.97 4.61-1.88 9.03-2.73 13.24l-1.23 5.91c-1.77 8.52-3.56 17.03-5.35 25.54h17.41Zm77 1.6c1.4 0 2.91-.13 4.54-.39 1.54-.24 3.07-.57 4.57-1 1.42-.41 2.53-.9 3.35-1.45l1.86-14.49c-1.51 1.06-3.02 1.81-4.51 2.25-1.33.41-2.71.63-4.1.65-2.84 0-4.77-.99-5.79-2.95-1.03-1.97-1.13-4.85-.32-8.63l4.4-21.29h17.32l2.79-13.3h-17.34l.12-.56c.25-1.19.49-2.35.73-3.46l.23-1.1c.6-2.9 1.19-5.72 1.78-8.46.58-2.74 1.18-5.65 1.81-8.72l-17.81 3.13c-.82 3.9-1.6 7.68-2.36 11.35-.45 2.2-.95 4.55-1.48 7.04l-.16.76h-9.39l-2.8 13.3h9.42l-.07.36-.21 1.03c-.62 3.05-1.21 5.91-1.78 8.57-.54 2.56-1.07 5.12-1.6 7.68-.51 2.47-1.03 4.98-1.57 7.54-1.05 5.01-.93 9.15.35 12.42 1.28 3.28 3.48 5.71 6.61 7.3 3.12 1.6 6.94 2.39 11.44 2.39Zm-330.51-13.83c-.84 4.08-1.68 8.16-2.5 12.24h-17.41c.89-4.22 1.75-8.3 2.56-12.27.82-3.96 1.75-8.39 2.8-13.28l6.75-32.75q1.575-7.215 3.03-14.25l2.91-14.13 17.7-1.54-3 14.33c-1.03 4.91-2.11 10.08-3.23 15.52l-6.81 32.75c-1.05 4.97-1.98 9.42-2.8 13.36Z" style="clip-path:url(#clippath)"/></g></svg>