<svg width="1280" height="640" fill="none" xmlns="http://www.w3.org/2000/svg"><path fill="#EDEFF3" d="M0 0h1280v640H0z"/><path d="M1139.65 596h-9.85v-1.699l6.55-9.153h-6.15v-2.121h9.26v1.875l-6.42 8.977h6.61V596Zm7.97-13.219c1.16 0 2.15.239 2.98.715.83.477 1.46 1.152 1.91 2.027.44.875.67 1.922.67 3.141v1.477h-8.66c.03 1.257.36 2.226 1 2.906.65.68 1.56 1.019 2.72 1.019.83 0 1.57-.078 2.23-.234.66-.164 1.35-.402 2.05-.715v2.238c-.65.305-1.31.528-1.98.668-.67.141-1.48.211-2.42.211-1.27 0-2.39-.246-3.36-.738-.96-.5-1.71-1.242-2.26-2.226-.54-.985-.81-2.208-.81-3.668 0-1.454.25-2.688.74-3.704.49-1.015 1.18-1.789 2.07-2.32.89-.531 1.93-.797 3.12-.797Zm0 2.074c-.87 0-1.57.282-2.11.844-.53.563-.84 1.387-.94 2.473h5.91c-.01-.649-.12-1.223-.33-1.723-.2-.5-.51-.89-.94-1.172-.41-.281-.94-.422-1.59-.422Zm15.24-2.074c.21 0 .45.012.71.035.26.024.48.055.67.094l-.26 2.578a3.41 3.41 0 0 0-.61-.105 6.093 6.093 0 0 0-.63-.035c-.49 0-.96.082-1.41.246-.44.156-.84.398-1.18.726-.35.321-.61.723-.81 1.207-.2.485-.29 1.047-.29 1.688V596h-2.77v-12.973h2.16l.37 2.285h.13c.26-.46.58-.882.96-1.265.39-.383.82-.688 1.31-.914a3.83 3.83 0 0 1 1.65-.352Zm15.26 6.703c0 1.078-.14 2.036-.42 2.871-.28.836-.69 1.543-1.23 2.122a5.398 5.398 0 0 1-1.94 1.312c-.76.297-1.62.445-2.57.445-.89 0-1.71-.148-2.45-.445a5.537 5.537 0 0 1-1.93-1.312c-.54-.579-.96-1.286-1.26-2.122-.29-.835-.44-1.793-.44-2.871 0-1.429.24-2.64.74-3.632.5-1 1.21-1.762 2.13-2.286.92-.523 2.02-.785 3.29-.785 1.2 0 2.25.262 3.17.785.91.524 1.63 1.286 2.14 2.286.52 1 .77 2.21.77 3.632Zm-9.41 0c0 .946.12 1.754.34 2.426.24.672.6 1.188 1.08 1.547.49.352 1.11.527 1.88.527.76 0 1.39-.175 1.87-.527.49-.359.84-.875 1.07-1.547.23-.672.34-1.48.34-2.426 0-.945-.11-1.746-.34-2.402-.23-.664-.58-1.168-1.07-1.512-.48-.351-1.11-.527-1.88-.527-1.14 0-1.98.383-2.5 1.148-.52.766-.79 1.864-.79 3.293Zm19.24-6.703c1.53 0 2.77.563 3.7 1.688.94 1.125 1.4 2.797 1.4 5.015 0 1.469-.21 2.707-.65 3.715-.43 1-1.04 1.758-1.82 2.274-.77.507-1.67.761-2.7.761-.66 0-1.23-.086-1.72-.257a4.414 4.414 0 0 1-1.24-.668 5.114 5.114 0 0 1-.87-.914h-.16c.04.312.07.66.11 1.043.04.374.05.718.05 1.031v5.285h-2.76v-18.727h2.25l.39 1.793h.12c.25-.367.54-.707.88-1.019.36-.313.78-.559 1.27-.739.5-.187 1.08-.281 1.75-.281Zm-.74 2.25c-.76 0-1.37.153-1.83.457-.45.297-.79.746-1 1.348-.2.602-.31 1.355-.33 2.262v.386c0 .961.1 1.778.3 2.45.2.664.53 1.171.99 1.523.47.344 1.11.516 1.9.516.67 0 1.23-.184 1.67-.551.44-.367.77-.891.99-1.57.22-.68.33-1.481.33-2.403 0-1.398-.25-2.484-.75-3.258-.49-.773-1.25-1.16-2.27-1.16Zm17.75 7.266c0 .851-.21 1.57-.62 2.156-.41.586-1.02 1.031-1.82 1.336-.79.297-1.75.445-2.9.445-.91 0-1.69-.066-2.35-.199a8.017 8.017 0 0 1-1.84-.586v-2.379c.62.289 1.31.539 2.08.75.77.211 1.5.317 2.19.317.91 0 1.56-.141 1.96-.422.39-.289.59-.672.59-1.149 0-.281-.08-.531-.24-.75-.16-.226-.46-.457-.89-.691-.43-.242-1.07-.531-1.9-.867-.82-.328-1.51-.656-2.08-.985-.56-.328-.98-.722-1.27-1.183-.29-.469-.44-1.067-.44-1.793 0-1.149.46-2.02 1.36-2.613.92-.602 2.12-.903 3.62-.903.8 0 1.55.082 2.25.246.72.157 1.41.387 2.09.692l-.87 2.074c-.58-.258-1.17-.469-1.77-.633a6.28 6.28 0 0 0-1.79-.258c-.71 0-1.25.11-1.63.328-.37.219-.55.532-.55.938 0 .305.09.562.27.773.18.211.49.422.93.633.44.211 1.06.473 1.85.785.77.297 1.44.61 2 .938.57.32 1.01.715 1.31 1.183.31.469.46 1.075.46 1.817Zm2.58 2.25c0-.641.16-1.09.49-1.348.34-.265.74-.398 1.22-.398s.88.133 1.22.398c.34.258.51.707.51 1.348 0 .625-.17 1.078-.51 1.359-.34.274-.74.41-1.22.41s-.88-.136-1.22-.41c-.33-.281-.49-.734-.49-1.359Zm9.74-11.52V596h-2.76v-12.973h2.76Zm-1.36-4.968c.42 0 .78.113 1.09.339.31.227.47.618.47 1.172 0 .547-.16.938-.47 1.172-.31.227-.67.34-1.09.34-.44 0-.81-.113-1.12-.34-.29-.234-.44-.625-.44-1.172 0-.554.15-.945.44-1.172.31-.226.68-.339 1.12-.339Zm16.79 11.425c0 1.078-.14 2.036-.42 2.871-.28.836-.69 1.543-1.23 2.122a5.437 5.437 0 0 1-1.95 1.312c-.75.297-1.61.445-2.56.445-.89 0-1.71-.148-2.45-.445a5.67 5.67 0 0 1-1.94-1.312c-.54-.579-.95-1.286-1.25-2.122-.3-.835-.45-1.793-.45-2.871 0-1.429.25-2.64.74-3.632.5-1 1.21-1.762 2.14-2.286.92-.523 2.02-.785 3.29-.785 1.19 0 2.25.262 3.16.785.92.524 1.63 1.286 2.15 2.286.51 1 .77 2.21.77 3.632Zm-9.41 0c0 .946.11 1.754.34 2.426.24.672.59 1.188 1.08 1.547.48.352 1.11.527 1.87.527.77 0 1.39-.175 1.88-.527.48-.359.84-.875 1.07-1.547.22-.672.34-1.48.34-2.426 0-.945-.12-1.746-.34-2.402-.23-.664-.59-1.168-1.07-1.512-.49-.351-1.11-.527-1.89-.527-1.14 0-1.97.383-2.49 1.148-.53.766-.79 1.864-.79 3.293Z" fill="#1A1A1A"/><path d="m330.596 179.457-96.358 36.828A22.427 22.427 0 0 0 220 237.194v92.714l44.283-25.449v-52.131l74.217-28.475V178c-2.701.006-5.379.5-7.904 1.457ZM265.068 387.084l73.432-42.321v-51.122l-113.455 65.416a10.205 10.205 0 0 0-5.045 8.745v34.249a22.421 22.421 0 0 0 14.238 20.684l96.358 36.828a22.4 22.4 0 0 0 7.904 1.457v-45.852l-73.432-28.084Z" fill="#323232"/><path d="M452.291 279.066a9.36 9.36 0 0 0 4.708-8.24v-33.632a22.427 22.427 0 0 0-14.238-20.909l-96.414-36.828A22.431 22.431 0 0 0 338.5 178v45.853l72.871 28.027-72.871 41.985v51.122l113.791-65.921ZM346.347 459.563l96.414-36.828a22.416 22.416 0 0 0 14.238-20.684v-93.667l-44.283 25.561v52.859L338.5 415.168v45.852a22.408 22.408 0 0 0 7.847-1.457Z" fill="#1A1A1A"/><path d="m663 295.553-6.043-6.043L633 313.467l-23.957-23.957-6.043 6.043 23.957 23.957L603 343.467l6.043 6.043L633 325.553l23.957 23.957 6.043-6.043-23.957-23.957L663 295.553Z" fill="#939393"/><path d="M934.514 178c-3.814 0-7.524.788-10.808 2.646L819.81 240.645C813.087 244.52 809 251.836 809 259.62V379.4c0 7.778 4.087 15.084 10.81 18.969l27.133 15.663c13.183 6.497 18.043 6.396 24.043 6.396 19.517 0 30.661-11.844 30.661-32.425V269.765c0-1.671-1.447-2.867-3.087-2.867h-13.014c-1.668 0-3.088 1.196-3.088 2.867v118.238c0 9.121-9.504 18.297-24.925 10.587l-28.237-16.544c-.999-.542-1.766-1.502-1.766-2.646V259.617c0-1.135.757-2.29 1.766-2.867l103.676-59.775a3.055 3.055 0 0 1 3.087 0l103.681 59.778c.98.595 1.76 1.696 1.76 2.87v119.78c0 1.144-.57 2.315-1.54 2.867l-103.901 59.778c-.889.531-2.116.531-3.087 0l-26.692-15.881a2.778 2.778 0 0 0-2.646 0c-7.367 4.176-8.753 4.66-15.663 7.058-1.702.594-4.286 1.517.883 4.415l34.852 20.51a21.454 21.454 0 0 0 10.811 2.87 21.298 21.298 0 0 0 10.807-2.867l103.896-59.781c6.73-3.909 10.81-11.191 10.81-18.969V259.62c0-7.781-4.08-15.084-10.81-18.969l-103.896-59.999c-3.256-1.861-6.99-2.649-10.807-2.649l-.003-.003Z" fill="#1A1A1A"/><path d="M962.309 263.59c-29.586 0-47.206 12.592-47.206 33.532 0 22.711 17.488 28.954 45.884 31.762 33.97 3.326 36.616 8.315 36.616 15.001 0 11.598-9.247 16.544-31.1 16.544-27.461 0-33.495-6.856-35.515-20.514-.239-1.466-1.371-2.649-2.87-2.649h-13.456c-1.656 0-3.087 1.429-3.087 3.09 0 17.485 9.51 38.161 54.928 38.161 32.875 0 51.837-12.904 51.837-35.515 0-22.411-15.32-28.43-47.208-32.645-32.222-4.265-35.294-6.353-35.294-13.898 0-6.23 2.606-14.563 26.471-14.563 21.32 0 29.199 4.599 32.427 18.975.282 1.349 1.472 2.425 2.867 2.425h13.457c.83 0 1.63-.509 2.21-1.104.56-.634.96-1.349.88-2.204-2.09-24.754-18.592-36.398-51.841-36.398Z" fill="#1A1A1A"/></svg>