<svg xmlns="http://www.w3.org/2000/svg" width="1280" height="640" fill="none"><path fill="#EDEFF3" d="M0 0h1280v640H0z"/><path fill="#1A1A1A" d="M1139.65 596h-9.85v-1.699l6.55-9.153h-6.15v-2.121h9.26v1.875l-6.42 8.977h6.61zm7.97-13.219c1.16 0 2.15.239 2.98.715.83.477 1.46 1.152 1.91 2.027.44.875.67 1.922.67 3.141v1.477h-8.66c.03 1.257.36 2.226 1 2.906.65.68 1.56 1.019 2.72 1.019.83 0 1.57-.078 2.23-.234.66-.164 1.35-.402 2.05-.715v2.238q-.975.458-1.98.668c-.67.141-1.48.211-2.42.211q-1.905 0-3.36-.738c-.96-.5-1.71-1.242-2.26-2.226q-.81-1.478-.81-3.668c0-1.454.25-2.688.74-3.704q.735-1.523 2.07-2.32t3.12-.797m0 2.074c-.87 0-1.57.282-2.11.844-.53.563-.84 1.387-.94 2.473h5.91q-.015-.973-.33-1.723c-.2-.5-.51-.89-.94-1.172q-.615-.422-1.59-.422m15.24-2.074c.21 0 .45.012.71.035s.48.055.67.094l-.26 2.578a3.4 3.4 0 0 0-.61-.105 6 6 0 0 0-.63-.035q-.735 0-1.41.246c-.44.156-.84.398-1.18.726-.35.321-.61.723-.81 1.207s-.29 1.047-.29 1.688V596h-2.77v-12.973h2.16l.37 2.285h.13q.39-.69.96-1.265c.39-.383.82-.688 1.31-.914a3.8 3.8 0 0 1 1.65-.352m15.26 6.703q0 1.618-.42 2.871-.42 1.254-1.23 2.122a5.4 5.4 0 0 1-1.94 1.312c-.76.297-1.62.445-2.57.445-.89 0-1.71-.148-2.45-.445a5.5 5.5 0 0 1-1.93-1.312q-.81-.868-1.26-2.122c-.29-.835-.44-1.793-.44-2.871 0-1.429.24-2.64.74-3.632q.75-1.5 2.13-2.286c.92-.523 2.02-.785 3.29-.785 1.2 0 2.25.262 3.17.785.91.524 1.63 1.286 2.14 2.286.52 1 .77 2.21.77 3.632m-9.41 0c0 .946.12 1.754.34 2.426q.36 1.008 1.08 1.547c.49.352 1.11.527 1.88.527.76 0 1.39-.175 1.87-.527.49-.359.84-.875 1.07-1.547s.34-1.48.34-2.426c0-.945-.11-1.746-.34-2.402-.23-.664-.58-1.168-1.07-1.512-.48-.351-1.11-.527-1.88-.527-1.14 0-1.98.383-2.5 1.148-.52.766-.79 1.864-.79 3.293m19.24-6.703c1.53 0 2.77.563 3.7 1.688.94 1.125 1.4 2.797 1.4 5.015 0 1.469-.21 2.707-.65 3.715-.43 1-1.04 1.758-1.82 2.274q-1.155.76-2.7.761c-.66 0-1.23-.086-1.72-.257a4.4 4.4 0 0 1-1.24-.668 5 5 0 0 1-.87-.914h-.16c.04.312.07.66.11 1.043.04.374.05.718.05 1.031v5.285h-2.76v-18.727h2.25l.39 1.793h.12c.25-.367.54-.707.88-1.019.36-.313.78-.559 1.27-.739.5-.187 1.08-.281 1.75-.281m-.74 2.25q-1.14 0-1.83.457c-.45.297-.79.746-1 1.348q-.3.902-.33 2.262v.386q0 1.442.3 2.45.3.995.99 1.523c.47.344 1.11.516 1.9.516.67 0 1.23-.184 1.67-.551q.66-.551.99-1.57t.33-2.403q0-2.097-.75-3.258c-.49-.773-1.25-1.16-2.27-1.16m17.75 7.266c0 .851-.21 1.57-.62 2.156s-1.02 1.031-1.82 1.336c-.79.297-1.75.445-2.9.445-.91 0-1.69-.066-2.35-.199a8 8 0 0 1-1.84-.586v-2.379c.62.289 1.31.539 2.08.75q1.155.317 2.19.317c.91 0 1.56-.141 1.96-.422.39-.289.59-.672.59-1.149q0-.421-.24-.75c-.16-.226-.46-.457-.89-.691-.43-.242-1.07-.531-1.9-.867-.82-.328-1.51-.656-2.08-.985-.56-.328-.98-.722-1.27-1.183-.29-.469-.44-1.067-.44-1.793 0-1.149.46-2.02 1.36-2.613.92-.602 2.12-.903 3.62-.903q1.2 0 2.25.246c.72.157 1.41.387 2.09.692l-.87 2.074q-.87-.387-1.77-.633a6.3 6.3 0 0 0-1.79-.258c-.71 0-1.25.11-1.63.328-.37.219-.55.532-.55.938q0 .457.27.773.27.317.93.633c.44.211 1.06.473 1.85.785.77.297 1.44.61 2 .938.57.32 1.01.715 1.31 1.183.31.469.46 1.075.46 1.817m2.58 2.25c0-.641.16-1.09.49-1.348.34-.265.74-.398 1.22-.398s.88.133 1.22.398q.51.387.51 1.348 0 .937-.51 1.359c-.34.274-.74.41-1.22.41s-.88-.136-1.22-.41c-.33-.281-.49-.734-.49-1.359m9.74-11.52V596h-2.76v-12.973zm-1.36-4.968c.42 0 .78.113 1.09.339s.47.618.47 1.172c0 .547-.16.938-.47 1.172-.31.227-.67.34-1.09.34-.44 0-.81-.113-1.12-.34-.29-.234-.44-.625-.44-1.172 0-.554.15-.945.44-1.172.31-.226.68-.339 1.12-.339m16.79 11.425q0 1.618-.42 2.871-.42 1.254-1.23 2.122a5.4 5.4 0 0 1-1.95 1.312c-.75.297-1.61.445-2.56.445-.89 0-1.71-.148-2.45-.445a5.7 5.7 0 0 1-1.94-1.312c-.54-.579-.95-1.286-1.25-2.122q-.45-1.253-.45-2.871c0-1.429.25-2.64.74-3.632.5-1 1.21-1.762 2.14-2.286.92-.523 2.02-.785 3.29-.785 1.19 0 2.25.262 3.16.785.92.524 1.63 1.286 2.15 2.286.51 1 .77 2.21.77 3.632m-9.41 0c0 .946.11 1.754.34 2.426.24.672.59 1.188 1.08 1.547.48.352 1.11.527 1.87.527.77 0 1.39-.175 1.88-.527.48-.359.84-.875 1.07-1.547.22-.672.34-1.48.34-2.426 0-.945-.12-1.746-.34-2.402-.23-.664-.59-1.168-1.07-1.512-.49-.351-1.11-.527-1.89-.527q-1.71 0-2.49 1.148c-.53.766-.79 1.864-.79 3.293"/><path fill="#323232" d="m337.596 179.457-96.358 36.828A22.43 22.43 0 0 0 227 237.194v92.714l44.283-25.449v-52.131l74.217-28.475V178c-2.701.006-5.379.5-7.904 1.457m-65.528 207.627 73.432-42.321v-51.122l-113.455 65.416a10.2 10.2 0 0 0-5.045 8.745v34.249a22.42 22.42 0 0 0 14.238 20.684l96.358 36.828a22.4 22.4 0 0 0 7.904 1.457v-45.852z"/><path fill="#1A1A1A" d="M459.291 279.066a9.36 9.36 0 0 0 4.708-8.24v-33.632a22.43 22.43 0 0 0-14.238-20.909l-96.414-36.828A22.4 22.4 0 0 0 345.5 178v45.853l72.871 28.027-72.871 41.985v51.122zM353.347 459.563l96.414-36.828a22.42 22.42 0 0 0 14.238-20.684v-93.667l-44.283 25.561v52.859L345.5 415.168v45.853a22.4 22.4 0 0 0 7.847-1.458"/><path fill="#939393" d="m670 295.553-6.043-6.043L640 313.467l-23.957-23.957-6.043 6.043 23.957 23.957L610 343.467l6.043 6.043L640 325.553l23.957 23.957 6.043-6.043-23.957-23.957z"/><g clip-path="url(#a)"><path fill="#323232" d="M880.694 358.599c-1.752.746-4.203 1.755-6.179 2.377-4.185 1.318-7.541 1.852-10.982 2.374 4.137 13.262 20.342 26.286 39.239 25.057 17.814 0 30.147-8.782 36.709-21.519-18.609-.263-45.715 7.484-58.787-8.289m170.036 2.186c-6.5.776-11.15-.533-21.81 2.889-25.81 10.63-51.355 1.614-59.487-.148-2.67-.278-3.893-4.185-9.372 2.279l-2.672 3.149c12.613 12.411 29.903 19.534 47.811 19.534 24.1 0 40.4-11.642 45.82-27.456z"/><path fill="#323232" d="M1052.1 340.074c-14.18-9.845-17.01-2.728-24.12 4.956.66 1.682 1.01 3.592 1.01 5.814 0 10.376-8.33 17.092-23.18 17.092-12.416 0-25.23-6.103-34.79-15.055l-10.961 12.924c14.842.666 29.866 4.499 44.891 3.907 16.45-.652 38.17-5.859 45.78-8.925l.29.245a37 37 0 0 0 1.98-12.017c0-3.235-.31-6.203-.9-8.941m-107.068.215c-8.032-6.127-15.731-4.041-23.113 4.615v1.482c0 11.729-9.479 21.237-21.169 21.237a21.15 21.15 0 0 1-17.936-9.943s-.924.408-2.12.917c5.532 6.973 12.331 10.578 25.823 11.115 10.989.435 21.978-1.491 32.967-2.824 3.672-7.121 5.548-15.475 5.548-24.235z"/><path fill="#323232" d="M945.032 315.137c-7.503-6.601-15.141-7.932-23.113 2.14v27.627c7.73-1.799 15.442-3.629 23.113-4.615zm89.448 2.007c-11.54-5.051-46.087.002-52.195 2.316a62 62 0 0 0 7.856 3.915l18.109 7.935c9.74 4.059 17.13 7.086 19.73 13.72 7.48-1.085 13.92-2.573 18.21-3.56l5.91-1.396c-2.27-10.575-8.68-17.673-17.62-22.93"/><path fill="#323232" d="M963.32 289.663c.607 14.672 9.102 23.948 19.01 29.816 7.561 1.492 15.123 2.786 22.68 2.786 10.56 0 21.11-2.514 29.48-5.117a71 71 0 0 0-8.34-4.148l-17.9-7.528c-8.845-3.603-17.157-6.814-20.064-13.341-17.838-9.058-5.873-14.773-24.863-2.466zm-18.288 1.778c-6.784-4.681-14.439-3.28-23.115 4.238l.002 21.613c7.702-.772 15.408-1.798 23.113-2.155z"/><path fill="#323232" d="M971.287 265.958c-5.092 6.119-7.999 13.686-7.999 22.015q.001.855.035 1.688c8.247-.081 16.544.833 24.863 2.472a13 13 0 0 1-1.094-5.381c0-9.767 8.136-15.668 20.748-15.668 11.39 0 20.55 4.274 28.89 11.393l8.85-10.919c-25.88-7.998-49.008-13.029-74.289-5.602zm-26.255 5.228c-9.547-8.384-16.875-2.199-23.115 9.499v14.994c7.706-1.194 15.408-2.939 23.115-4.24z"/><path fill="#323232" d="M921.917 250.536v30.151c7.706-2.602 15.408-6.449 23.115-9.503v-20.648zm85.923 0c-15.664 0-28.703 5.99-36.551 15.416 11.17.042 22.415 2.3 33.661 3.642 16.09 1.922 32.12 1.963 40.63 1.963l3.35-4.135c-10.37-10.378-25.43-16.886-41.09-16.886"/><path fill="#1A1A1A" d="M816 250.536v101.84h38.555c10.106 0 17.845-1.602 25.033-5.227-.013-.25-.013-.506-.013-.76 0-11.729 9.48-21.233 21.175-21.233q.518-.001 1.031.026c3.668-7.468 5.147-14.872 5.147-24.6 0-10.038-1.888-18.773-5.673-26.335-3.927-7.419-9.602-13.239-17.164-17.46-7.569-4.216-16.732-6.251-27.645-6.251zm24.441 21.821h14.695c8.586 0 15.131 2.475 19.497 7.567 4.365 5.09 6.546 12.072 6.546 21.093 0 9.165-2.331 16.297-6.84 21.534-4.509 5.382-11.202 8-20.078 8h-13.819zm60.37 60.657a13.38 13.38 0 0 0-12.607 8.193 13.37 13.37 0 0 0 0 10.366 13.38 13.38 0 0 0 12.607 8.194 13.38 13.38 0 0 0 0-26.753"/></g><defs><clipPath id="a"><path fill="#fff" d="M816 201.01h237v237H816z"/></clipPath></defs></svg>