<svg width="1280" height="640" viewBox="0 0 1280 640" fill="none" xmlns="http://www.w3.org/2000/svg">
<g clip-path="url(#clip0_1_2)">
<path d="M0 0H1280V640H0V0Z" fill="#EDEFF3"/>
<path d="M1139.65 596H1129.8V594.301L1136.35 585.148H1130.2V583.027H1139.46V584.902L1133.04 593.879H1139.65V596ZM1147.62 582.781C1148.78 582.781 1149.77 583.02 1150.6 583.496C1151.43 583.973 1152.06 584.648 1152.51 585.523C1152.95 586.398 1153.18 587.445 1153.18 588.664V590.141H1144.52C1144.55 591.398 1144.88 592.367 1145.52 593.047C1146.17 593.727 1147.08 594.066 1148.24 594.066C1149.07 594.066 1149.81 593.988 1150.47 593.832C1151.13 593.668 1151.82 593.43 1152.52 593.117V595.355C1151.87 595.66 1151.21 595.883 1150.54 596.023C1149.87 596.164 1149.06 596.234 1148.12 596.234C1146.85 596.234 1145.73 595.988 1144.76 595.496C1143.8 594.996 1143.05 594.254 1142.5 593.27C1141.96 592.285 1141.69 591.062 1141.69 589.602C1141.69 588.148 1141.94 586.914 1142.43 585.898C1142.92 584.883 1143.61 584.109 1144.5 583.578C1145.39 583.047 1146.43 582.781 1147.62 582.781ZM1147.62 584.855C1146.75 584.855 1146.05 585.137 1145.51 585.699C1144.98 586.262 1144.67 587.086 1144.57 588.172H1150.48C1150.47 587.523 1150.36 586.949 1150.15 586.449C1149.95 585.949 1149.64 585.559 1149.21 585.277C1148.8 584.996 1148.27 584.855 1147.62 584.855ZM1162.86 582.781C1163.07 582.781 1163.31 582.793 1163.57 582.816C1163.83 582.84 1164.05 582.871 1164.24 582.91L1163.98 585.488C1163.78 585.435 1163.58 585.399 1163.37 585.383C1163.16 585.36 1162.95 585.349 1162.74 585.348C1162.25 585.348 1161.78 585.43 1161.33 585.594C1160.89 585.75 1160.49 585.992 1160.15 586.32C1159.8 586.641 1159.54 587.043 1159.34 587.527C1159.14 588.012 1159.05 588.574 1159.05 589.215V596H1156.28V583.027H1158.44L1158.81 585.312H1158.94C1159.2 584.852 1159.52 584.43 1159.9 584.047C1160.29 583.664 1160.72 583.359 1161.21 583.133C1161.73 582.894 1162.29 582.774 1162.86 582.781ZM1178.12 589.484C1178.12 590.562 1177.98 591.52 1177.7 592.355C1177.42 593.191 1177.01 593.898 1176.47 594.477C1175.93 595.051 1175.26 595.499 1174.53 595.789C1173.77 596.086 1172.91 596.234 1171.96 596.234C1171.07 596.234 1170.25 596.086 1169.51 595.789C1168.78 595.494 1168.12 595.046 1167.58 594.477C1167.04 593.898 1166.62 593.191 1166.32 592.355C1166.03 591.52 1165.88 590.562 1165.88 589.484C1165.88 588.055 1166.12 586.844 1166.62 585.852C1167.12 584.852 1167.83 584.09 1168.75 583.566C1169.67 583.043 1170.77 582.781 1172.04 582.781C1173.24 582.781 1174.29 583.043 1175.21 583.566C1176.12 584.09 1176.84 584.852 1177.35 585.852C1177.87 586.852 1178.12 588.062 1178.12 589.484ZM1168.71 589.484C1168.71 590.43 1168.83 591.238 1169.05 591.91C1169.29 592.582 1169.65 593.098 1170.13 593.457C1170.62 593.809 1171.24 593.984 1172.01 593.984C1172.77 593.984 1173.4 593.809 1173.88 593.457C1174.37 593.098 1174.72 592.582 1174.95 591.91C1175.18 591.238 1175.29 590.43 1175.29 589.484C1175.29 588.539 1175.18 587.738 1174.95 587.082C1174.72 586.418 1174.37 585.914 1173.88 585.57C1173.4 585.219 1172.77 585.043 1172 585.043C1170.86 585.043 1170.02 585.426 1169.5 586.191C1168.98 586.957 1168.71 588.055 1168.71 589.484ZM1187.95 582.781C1189.48 582.781 1190.72 583.344 1191.65 584.469C1192.59 585.594 1193.05 587.266 1193.05 589.484C1193.05 590.953 1192.84 592.191 1192.4 593.199C1191.97 594.199 1191.36 594.957 1190.58 595.473C1189.81 595.98 1188.91 596.234 1187.88 596.234C1187.22 596.234 1186.65 596.148 1186.16 595.977C1185.71 595.822 1185.29 595.597 1184.92 595.309C1184.59 595.041 1184.3 594.734 1184.05 594.395H1183.89C1183.93 594.707 1183.96 595.055 1184 595.438C1184.04 595.812 1184.05 596.156 1184.05 596.469V601.754H1181.29V583.027H1183.54L1183.93 584.82H1184.05C1184.3 584.453 1184.59 584.113 1184.93 583.801C1185.29 583.488 1185.71 583.242 1186.2 583.062C1186.7 582.875 1187.28 582.781 1187.95 582.781ZM1187.21 585.031C1186.45 585.031 1185.84 585.184 1185.38 585.488C1184.93 585.785 1184.59 586.234 1184.38 586.836C1184.18 587.438 1184.07 588.191 1184.05 589.098V589.484C1184.05 590.445 1184.15 591.262 1184.35 591.934C1184.55 592.598 1184.88 593.105 1185.34 593.457C1185.81 593.801 1186.45 593.973 1187.24 593.973C1187.91 593.973 1188.47 593.789 1188.91 593.422C1189.35 593.055 1189.68 592.531 1189.9 591.852C1190.12 591.172 1190.23 590.371 1190.23 589.449C1190.23 588.051 1189.98 586.965 1189.48 586.191C1188.99 585.418 1188.23 585.031 1187.21 585.031ZM1204.96 592.297C1204.96 593.148 1204.75 593.867 1204.34 594.453C1203.93 595.039 1203.32 595.484 1202.52 595.789C1201.73 596.086 1200.77 596.234 1199.62 596.234C1198.71 596.234 1197.93 596.168 1197.27 596.035C1196.64 595.914 1196.02 595.718 1195.43 595.449V593.07C1196.05 593.359 1196.74 593.609 1197.51 593.82C1198.28 594.031 1199.01 594.137 1199.7 594.137C1200.61 594.137 1201.26 593.996 1201.66 593.715C1202.05 593.426 1202.25 593.043 1202.25 592.566C1202.25 592.285 1202.17 592.035 1202.01 591.816C1201.85 591.59 1201.55 591.359 1201.12 591.125C1200.69 590.883 1200.05 590.594 1199.22 590.258C1198.4 589.93 1197.71 589.602 1197.14 589.273C1196.58 588.945 1196.16 588.551 1195.87 588.09C1195.58 587.621 1195.43 587.023 1195.43 586.297C1195.43 585.148 1195.89 584.277 1196.79 583.684C1197.71 583.082 1198.91 582.781 1200.41 582.781C1201.21 582.781 1201.96 582.863 1202.66 583.027C1203.38 583.184 1204.07 583.414 1204.75 583.719L1203.88 585.793C1203.3 585.535 1202.71 585.324 1202.11 585.16C1201.53 584.988 1200.93 584.901 1200.32 584.902C1199.61 584.902 1199.07 585.012 1198.69 585.23C1198.32 585.449 1198.14 585.762 1198.14 586.168C1198.14 586.473 1198.23 586.73 1198.41 586.941C1198.59 587.152 1198.9 587.363 1199.34 587.574C1199.78 587.785 1200.4 588.047 1201.19 588.359C1201.96 588.656 1202.63 588.969 1203.19 589.297C1203.76 589.617 1204.2 590.012 1204.5 590.48C1204.81 590.949 1204.96 591.555 1204.96 592.297ZM1207.54 594.547C1207.54 593.906 1207.7 593.457 1208.03 593.199C1208.37 592.934 1208.77 592.801 1209.25 592.801C1209.73 592.801 1210.13 592.934 1210.47 593.199C1210.81 593.457 1210.98 593.906 1210.98 594.547C1210.98 595.172 1210.81 595.625 1210.47 595.906C1210.13 596.18 1209.73 596.316 1209.25 596.316C1208.77 596.316 1208.37 596.18 1208.03 595.906C1207.7 595.625 1207.54 595.172 1207.54 594.547ZM1217.28 583.027V596H1214.52V583.027H1217.28ZM1215.92 578.059C1216.34 578.059 1216.7 578.172 1217.01 578.398C1217.32 578.625 1217.48 579.016 1217.48 579.57C1217.48 580.117 1217.32 580.508 1217.01 580.742C1216.7 580.969 1216.34 581.082 1215.92 581.082C1215.48 581.082 1215.11 580.969 1214.8 580.742C1214.51 580.508 1214.36 580.117 1214.36 579.57C1214.36 579.016 1214.51 578.625 1214.8 578.398C1215.11 578.172 1215.48 578.059 1215.92 578.059ZM1232.71 589.484C1232.71 590.562 1232.57 591.52 1232.29 592.355C1232.01 593.191 1231.6 593.898 1231.06 594.477C1230.51 595.051 1229.85 595.499 1229.11 595.789C1228.36 596.086 1227.5 596.234 1226.55 596.234C1225.66 596.234 1224.84 596.086 1224.1 595.789C1223.37 595.491 1222.71 595.045 1222.16 594.477C1221.62 593.898 1221.21 593.191 1220.91 592.355C1220.61 591.52 1220.46 590.562 1220.46 589.484C1220.46 588.055 1220.71 586.844 1221.2 585.852C1221.7 584.852 1222.41 584.09 1223.34 583.566C1224.26 583.043 1225.36 582.781 1226.63 582.781C1227.82 582.781 1228.88 583.043 1229.79 583.566C1230.71 584.09 1231.42 584.852 1231.94 585.852C1232.45 586.852 1232.71 588.062 1232.71 589.484ZM1223.3 589.484C1223.3 590.43 1223.41 591.238 1223.64 591.91C1223.88 592.582 1224.23 593.098 1224.72 593.457C1225.2 593.809 1225.83 593.984 1226.59 593.984C1227.36 593.984 1227.98 593.809 1228.47 593.457C1228.95 593.098 1229.31 592.582 1229.54 591.91C1229.76 591.238 1229.88 590.43 1229.88 589.484C1229.88 588.539 1229.76 587.738 1229.54 587.082C1229.31 586.418 1228.95 585.914 1228.47 585.57C1227.98 585.219 1227.36 585.043 1226.58 585.043C1225.44 585.043 1224.61 585.426 1224.09 586.191C1223.56 586.957 1223.3 588.055 1223.3 589.484Z" fill="#1A1A1A"/>
<path d="M287.596 179.457L191.238 216.285C187.037 217.933 183.43 220.81 180.89 224.54C178.35 228.271 176.994 232.681 177 237.194V329.908L221.283 304.459V252.328L295.5 223.853V178C292.799 178.006 290.121 178.5 287.596 179.457ZM222.068 387.084L295.5 344.763V293.641L182.045 359.057C180.518 359.952 179.25 361.229 178.365 362.762C177.481 364.295 177.01 366.032 177 367.802V402.051C177.038 406.526 178.414 410.887 180.952 414.573C183.489 418.259 187.072 421.102 191.238 422.735L287.596 459.563C290.121 460.521 292.799 461.015 295.5 461.02V415.168L222.068 387.084Z" fill="#323232"/>
<path d="M409.291 279.066C410.739 278.237 411.939 277.036 412.767 275.587C413.594 274.138 414.02 272.494 413.999 270.826V237.194C414.005 232.681 412.65 228.271 410.109 224.54C407.569 220.81 403.963 217.933 399.761 216.285L303.347 179.457C300.839 178.506 298.182 178.013 295.5 178V223.853L368.371 251.88L295.5 293.865V344.987L409.291 279.066ZM303.347 459.563L399.761 422.735C403.928 421.102 407.511 418.26 410.048 414.574C412.586 410.888 413.962 406.526 413.999 402.051V308.384L369.716 333.945V386.804L295.5 415.168V461.02C298.182 461.008 300.84 460.514 303.347 459.563Z" fill="#1A1A1A"/>
<path d="M610 295.553L603.957 289.51L580 313.467L556.043 289.51L550 295.553L573.957 319.51L550 343.467L556.043 349.51L580 325.553L603.957 349.51L610 343.467L586.043 319.51L610 295.553Z" fill="#939393"/>
<path d="M857.055 312.345C857.055 312.345 838.435 276.467 839.123 250.251C839.625 231.516 881.866 212.997 898.45 186.107C915.006 159.202 896.386 133 896.386 133C896.386 133 900.529 152.322 889.492 172.303C878.455 192.313 837.718 204.053 821.879 238.54C806.041 273.028 857.055 312.345 857.055 312.345Z" fill="#010002"/>
<path d="M926.746 203.35C926.746 203.35 863.29 227.503 863.29 255.081C863.29 282.688 880.519 291.647 883.3 300.605C886.052 309.593 878.47 324.758 878.47 324.758C878.47 324.758 903.296 307.514 899.139 287.505C894.996 267.495 875.689 261.273 886.74 241.293C894.122 227.89 926.746 203.35 926.746 203.35Z" fill="#010002"/>
<path d="M850.174 348.796C908.814 346.703 930.2 328.198 930.2 328.198C892.273 338.533 791.549 337.859 790.847 330.277C790.173 322.694 821.88 316.473 821.88 316.473C821.88 316.473 772.228 316.473 768.085 328.886C763.942 341.299 791.577 350.846 850.174 348.796Z" fill="#010002"/>
<path d="M935.016 377.865C935.016 377.865 992.408 365.624 986.732 334.448C979.852 296.492 939.832 317.878 939.832 317.878C939.832 317.878 968.141 317.878 970.879 335.107C973.645 352.351 935.016 377.865 935.016 377.865Z" fill="#010002"/>
<path d="M906.735 361.324C906.735 361.324 892.273 365.122 870.844 367.53C842.119 370.755 807.388 368.204 804.621 363.373C801.898 358.543 809.452 355.79 809.452 355.79C774.95 364.075 793.828 378.538 834.264 381.319C868.923 383.684 920.51 370.97 920.51 370.97L906.735 361.324Z" fill="#010002"/>
<path d="M817.765 391.453C817.765 391.453 802.113 391.898 801.195 400.183C800.292 408.411 810.828 415.807 849.471 418.101C888.101 420.394 915.249 407.536 915.249 407.536L897.776 396.93C897.776 396.93 886.725 399.251 869.71 401.545C852.682 403.853 817.764 399.696 816.388 396.5C814.984 393.273 817.765 391.453 817.765 391.453Z" fill="#010002"/>
<path d="M968.113 428.707C974.09 422.256 966.264 417.197 966.264 417.197C966.264 417.197 969.016 420.422 965.375 424.092C961.691 427.761 928.107 436.949 874.298 439.716C820.503 442.482 762.093 434.655 760.243 427.761C758.452 420.866 790.158 415.362 790.158 415.362C786.488 415.821 742.34 416.738 740.936 428.707C739.559 440.647 760.243 450.308 843.05 450.308C925.814 450.294 962.164 435.114 968.113 428.707Z" fill="#010002"/>
<path d="M935.934 455.826C899.597 463.165 789.255 458.536 789.255 458.536C789.255 458.536 860.968 475.564 942.828 461.317C981.959 454.493 984.238 435.558 984.238 435.558C984.238 435.558 972.27 448.444 935.934 455.826Z" fill="#010002"/>
</g>
<defs>
<clipPath id="clip0_1_2">
<rect width="1280" height="640" fill="white"/>
</clipPath>
</defs>
</svg>
