<svg xmlns="http://www.w3.org/2000/svg" width="1280" height="640" fill="none"><path fill="#EDEFF3" d="M0 0h1280v640H0z"/><path fill="#1A1A1A" d="M1139.65 596h-9.85v-1.699l6.55-9.153h-6.15v-2.121h9.26v1.875l-6.42 8.977h6.61zm7.97-13.219c1.16 0 2.15.239 2.98.715.83.477 1.46 1.152 1.91 2.027.44.875.67 1.922.67 3.141v1.477h-8.66c.03 1.257.36 2.226 1 2.906.65.68 1.56 1.019 2.72 1.019.83 0 1.57-.078 2.23-.234.66-.164 1.35-.402 2.05-.715v2.238q-.975.458-1.98.668c-.67.141-1.48.211-2.42.211q-1.905 0-3.36-.738c-.96-.5-1.71-1.242-2.26-2.226q-.81-1.478-.81-3.668c0-1.454.25-2.688.74-3.704q.735-1.523 2.07-2.32t3.12-.797m0 2.074c-.87 0-1.57.282-2.11.844-.53.563-.84 1.387-.94 2.473h5.91q-.015-.973-.33-1.723c-.2-.5-.51-.89-.94-1.172q-.615-.422-1.59-.422m15.24-2.074c.21 0 .45.012.71.035s.48.055.67.094l-.26 2.578a3.4 3.4 0 0 0-.61-.105 6 6 0 0 0-.63-.035q-.735 0-1.41.246c-.44.156-.84.398-1.18.726-.35.321-.61.723-.81 1.207s-.29 1.047-.29 1.688V596h-2.77v-12.973h2.16l.37 2.285h.13q.39-.69.96-1.265c.39-.383.82-.688 1.31-.914a3.8 3.8 0 0 1 1.65-.352m15.26 6.703q0 1.618-.42 2.871-.42 1.254-1.23 2.122a5.4 5.4 0 0 1-1.94 1.312c-.76.297-1.62.445-2.57.445-.89 0-1.71-.148-2.45-.445a5.5 5.5 0 0 1-1.93-1.312q-.81-.868-1.26-2.122c-.29-.835-.44-1.793-.44-2.871 0-1.429.24-2.64.74-3.632q.75-1.5 2.13-2.286c.92-.523 2.02-.785 3.29-.785 1.2 0 2.25.262 3.17.785.91.524 1.63 1.286 2.14 2.286.52 1 .77 2.21.77 3.632m-9.41 0c0 .946.12 1.754.34 2.426q.36 1.008 1.08 1.547c.49.352 1.11.527 1.88.527.76 0 1.39-.175 1.87-.527.49-.359.84-.875 1.07-1.547s.34-1.48.34-2.426c0-.945-.11-1.746-.34-2.402-.23-.664-.58-1.168-1.07-1.512-.48-.351-1.11-.527-1.88-.527-1.14 0-1.98.383-2.5 1.148-.52.766-.79 1.864-.79 3.293m19.24-6.703c1.53 0 2.77.563 3.7 1.688.94 1.125 1.4 2.797 1.4 5.015 0 1.469-.21 2.707-.65 3.715-.43 1-1.04 1.758-1.82 2.274q-1.155.76-2.7.761c-.66 0-1.23-.086-1.72-.257a4.4 4.4 0 0 1-1.24-.668 5 5 0 0 1-.87-.914h-.16c.04.312.07.66.11 1.043.04.374.05.718.05 1.031v5.285h-2.76v-18.727h2.25l.39 1.793h.12c.25-.367.54-.707.88-1.019.36-.313.78-.559 1.27-.739.5-.187 1.08-.281 1.75-.281m-.74 2.25q-1.14 0-1.83.457c-.45.297-.79.746-1 1.348q-.3.902-.33 2.262v.386q0 1.442.3 2.45.3.995.99 1.523c.47.344 1.11.516 1.9.516.67 0 1.23-.184 1.67-.551q.66-.551.99-1.57t.33-2.403q0-2.097-.75-3.258c-.49-.773-1.25-1.16-2.27-1.16m17.75 7.266c0 .851-.21 1.57-.62 2.156s-1.02 1.031-1.82 1.336c-.79.297-1.75.445-2.9.445-.91 0-1.69-.066-2.35-.199a8 8 0 0 1-1.84-.586v-2.379c.62.289 1.31.539 2.08.75q1.155.317 2.19.317c.91 0 1.56-.141 1.96-.422.39-.289.59-.672.59-1.149q0-.421-.24-.75c-.16-.226-.46-.457-.89-.691-.43-.242-1.07-.531-1.9-.867-.82-.328-1.51-.656-2.08-.985-.56-.328-.98-.722-1.27-1.183-.29-.469-.44-1.067-.44-1.793 0-1.149.46-2.02 1.36-2.613.92-.602 2.12-.903 3.62-.903q1.2 0 2.25.246c.72.157 1.41.387 2.09.692l-.87 2.074q-.87-.387-1.77-.633a6.3 6.3 0 0 0-1.79-.258c-.71 0-1.25.11-1.63.328-.37.219-.55.532-.55.938q0 .457.27.773.27.317.93.633c.44.211 1.06.473 1.85.785.77.297 1.44.61 2 .938.57.32 1.01.715 1.31 1.183.31.469.46 1.075.46 1.817m2.58 2.25c0-.641.16-1.09.49-1.348.34-.265.74-.398 1.22-.398s.88.133 1.22.398q.51.387.51 1.348 0 .938-.51 1.359c-.34.274-.74.41-1.22.41s-.88-.136-1.22-.41c-.33-.281-.49-.734-.49-1.359m9.74-11.52V596h-2.76v-12.973zm-1.36-4.968c.42 0 .78.113 1.09.339s.47.618.47 1.172c0 .547-.16.938-.47 1.172-.31.227-.67.34-1.09.34-.44 0-.81-.113-1.12-.34-.29-.234-.44-.625-.44-1.172 0-.554.15-.945.44-1.172.31-.226.68-.339 1.12-.339m16.79 11.425q0 1.618-.42 2.871-.42 1.254-1.23 2.122a5.4 5.4 0 0 1-1.95 1.312c-.75.297-1.61.445-2.56.445-.89 0-1.71-.148-2.45-.445a5.7 5.7 0 0 1-1.94-1.312c-.54-.579-.95-1.286-1.25-2.122q-.45-1.253-.45-2.871c0-1.429.25-2.64.74-3.632.5-1 1.21-1.762 2.14-2.286.92-.523 2.02-.785 3.29-.785 1.19 0 2.25.262 3.16.785.92.524 1.63 1.286 2.15 2.286.51 1 .77 2.21.77 3.632m-9.41 0c0 .946.11 1.754.34 2.426.24.672.59 1.188 1.08 1.547.48.352 1.11.527 1.87.527.77 0 1.39-.175 1.88-.527.48-.359.84-.875 1.07-1.547.22-.672.34-1.48.34-2.426 0-.945-.12-1.746-.34-2.402-.23-.664-.59-1.168-1.07-1.512-.49-.351-1.11-.527-1.89-.527q-1.71 0-2.49 1.148c-.53.766-.79 1.864-.79 3.293"/><path fill="#323232" d="m326.311 179.457-96.358 36.828a22.43 22.43 0 0 0-14.238 20.909v92.714l44.283-25.449v-52.131l74.217-28.475V178c-2.701.006-5.379.5-7.904 1.457M260.783 387.085l73.432-42.322v-51.121L220.76 359.057a10.21 10.21 0 0 0-5.045 8.745v34.249a22.42 22.42 0 0 0 14.238 20.684l96.358 36.828a22.4 22.4 0 0 0 7.904 1.458v-45.853z"/><path fill="#1A1A1A" d="M448.006 279.066a9.36 9.36 0 0 0 4.708-8.24v-33.632a22.427 22.427 0 0 0-14.238-20.909l-96.414-36.828a22.4 22.4 0 0 0-7.847-1.457v45.853l72.871 28.027-72.871 41.985v51.122zM342.062 459.563l96.414-36.828a22.42 22.42 0 0 0 14.238-20.684v-93.667l-44.283 25.561v52.859l-74.216 28.364v45.853a22.4 22.4 0 0 0 7.847-1.458"/><path fill="#939393" d="m658.715 295.553-6.043-6.043-23.957 23.957-23.957-23.957-6.043 6.043 23.957 23.957-23.957 23.957 6.043 6.043 23.957-23.957 23.957 23.957 6.043-6.043-23.957-23.957z"/><path fill="#E30613" d="M932.468 192.966h1.757c1.397 14.53 2.487 29.07 3.467 43.633l.466 6.857q.483 7.128.961 14.257.55 8.183 1.111 16.365.545 7.963 1.079 15.926.225 3.35.456 6.7c1.323 19.29 1.075 37.803-.32 57.08q-.332 4.619-.657 9.237-.548 7.736-1.106 15.471-.642 8.93-1.273 17.861-.61 8.63-1.227 17.26-.261 3.658-.52 7.317a6885 6885 0 0 1-.732 10.196l-.215 3.052-.205 2.806-.174 2.43c-.233 2.256-.629 4.426-1.111 6.641h-1.757q-1.53-20.467-3.048-40.934-.706-9.507-1.416-19.013-.62-8.301-1.235-16.602-.323-4.381-.653-8.763c-.477-6.36-.937-12.721-1.366-19.085a874 874 0 0 0-.38-5.367c-.998-13.7-.26-27.103.789-40.785.23-3.029.446-6.059.664-9.088a6130 6130 0 0 1 1.267-17.162c.532-7.103 1.05-14.206 1.567-21.31l.551-7.544.135-1.852q.455-6.216.918-12.432c.821-11.047 1.616-22.091 2.207-33.152M843.711 265.026v1.757l-1.513.468c-16.898 4.35-16.898 4.35-30.123 14.472-.513 2.159-.513 2.159 0 4.394 23.019 20.868 75.392 18.32 104.575 21.09.884 2.652.938 4.175.823 6.929l-.104 2.683-.13 2.943-.125 3.101a4934 4934 0 0 1-.43 10.196q-.148 3.55-.293 7.099-.308 7.459-.625 14.918-.404 9.512-.795 19.025-.341 8.23-.685 16.461l-.218 5.232c-.492 11.782-.989 23.557-1.812 35.322h-1.758a84922 84922 0 0 1-3.093-38.913l-1.437-18.069q-.694-8.717-1.384-17.435l-.53-6.654q-.372-4.657-.739-9.316l-.224-2.781c-.321-4.107-.594-8.163-.502-12.286l-1.556-.278c-77.736-14.129-77.736-14.129-94.341-34.379-1.423-2.286-1.672-3.356-1.977-6.152 2.618-6.783 8.467-10.098 14.884-12.962 17.286-6.865 17.286-6.865 24.112-6.865M1025.62 265.026c5.2.5 9.83 1.559 14.77 3.24 1.04.35 1.04.35 2.09.707 8.8 3.072 16.52 6.584 21.81 14.507-.08 4.063-.81 7.014-3.64 10.027-19.43 16.551-48.56 21.895-72.709 27.761l-2.145.521q-3.042.735-6.087 1.456l-1.814.435c-3.702.865-7.39 1.463-11.155 1.982l-.135 3.115c-.535 11.76-1.401 23.477-2.367 35.208l-.469 5.776q-.61 7.507-1.227 15.013-.629 7.697-1.255 15.395-1.223 15.035-2.456 30.068h-1.757l-1.33-30.188-.617-14.024q-.641-14.51-1.273-29.019-.297-6.797-.603-13.594c-.393-8.852-.7-17.675-.626-26.538l.029-5.173.026-4.494 3.412-.333c53.808-1.507 53.808-1.507 101.158-20.757.27-2.752.29-3.742-.87-6.152-7.56-7.799-20.76-10.108-30.76-13.182z"/></svg>