<svg width="2110" height="684" viewBox="0 0 2110 684" fill="none" xmlns="http://www.w3.org/2000/svg">
<g clip-path="url(#clip0_233_967)">
<rect width="2110" height="684" fill="#EDEFF3"/>
<path d="M79.2659 573.321L58.1239 581.401C57.202 581.763 56.4106 582.394 55.8533 583.212C55.2959 584.031 54.9985 584.998 55 585.989V606.331L64.7162 600.747V589.309L81.0001 583.062V573.001C80.4075 573.002 79.82 573.111 79.2659 573.321Z" fill="#9DCFCC"/>
<path d="M64.8922 618.875L81.0037 609.59V598.373L56.1108 612.726C55.7757 612.922 55.4975 613.202 55.3034 613.539C55.1093 613.875 55.0061 614.256 55.0039 614.644V622.159C55.0123 623.141 55.3142 624.098 55.871 624.907C56.4277 625.715 57.2137 626.339 58.1278 626.697L79.2696 634.778C79.8237 634.988 80.4112 635.096 81.0037 635.097V625.037L64.8922 618.875Z" fill="#9DCFCC"/>
<path d="M105.967 595.175C106.284 594.993 106.548 594.729 106.729 594.412C106.911 594.094 107.004 593.733 107 593.367V585.988C107.001 584.997 106.704 584.03 106.147 583.211C105.589 582.393 104.798 581.762 103.876 581.4L82.7218 573.32C82.1716 573.111 81.5885 573.003 81 573V583.06L96.9885 589.21L81 598.422V609.638L105.967 595.175Z" fill="#91C8C3"/>
<path d="M82.7199 634.779L103.874 626.698C104.788 626.34 105.574 625.716 106.131 624.908C106.688 624.099 106.99 623.142 106.998 622.16V601.608L97.2819 607.217V618.815L80.998 625.038V635.099C81.5865 635.096 82.1697 634.987 82.7199 634.779Z" fill="#91C8C3"/>
<path d="M941.865 313H888.74V303.186L922.969 254.113H889.668V241.613H940.938V251.379L906.758 300.5H941.865V313ZM974.58 257.385C979.626 257.385 983.971 258.361 987.617 260.314C991.263 262.235 994.079 265.035 996.064 268.713C998.05 272.391 999.043 276.883 999.043 282.189V289.416H963.838C964.001 293.615 965.254 296.919 967.598 299.328C969.974 301.704 973.262 302.893 977.461 302.893C980.944 302.893 984.134 302.535 987.031 301.818C989.928 301.102 992.907 300.028 995.967 298.596V310.119C993.265 311.454 990.433 312.43 987.471 313.049C984.541 313.667 980.977 313.977 976.777 313.977C971.309 313.977 966.458 312.967 962.227 310.949C958.027 308.931 954.723 305.855 952.314 301.721C949.938 297.587 948.75 292.378 948.75 286.096C948.75 279.715 949.824 274.41 951.973 270.178C954.154 265.913 957.181 262.723 961.055 260.607C964.928 258.459 969.437 257.385 974.58 257.385ZM974.678 267.98C971.781 267.98 969.372 268.908 967.451 270.764C965.563 272.619 964.473 275.533 964.18 279.504H985.078C985.046 277.29 984.639 275.321 983.857 273.596C983.109 271.87 981.969 270.503 980.439 269.494C978.942 268.485 977.021 267.98 974.678 267.98ZM1041.62 257.385C1042.37 257.385 1043.23 257.434 1044.21 257.531C1045.22 257.596 1046.03 257.694 1046.65 257.824L1045.53 271.789C1045.04 271.626 1044.34 271.512 1043.43 271.447C1042.55 271.35 1041.78 271.301 1041.13 271.301C1039.21 271.301 1037.34 271.545 1035.52 272.033C1033.73 272.521 1032.12 273.319 1030.68 274.426C1029.25 275.5 1028.11 276.932 1027.27 278.723C1026.45 280.48 1026.04 282.645 1026.04 285.217V313H1011.15V258.41H1022.43L1024.63 267.59H1025.36C1026.44 265.734 1027.77 264.042 1029.37 262.512C1030.99 260.949 1032.83 259.712 1034.88 258.801C1036.97 257.857 1039.21 257.385 1041.62 257.385ZM1106.17 285.607C1106.17 290.165 1105.55 294.201 1104.32 297.717C1103.11 301.232 1101.34 304.211 1098.99 306.652C1096.68 309.061 1093.88 310.884 1090.6 312.121C1087.34 313.358 1083.66 313.977 1079.56 313.977C1075.72 313.977 1072.19 313.358 1068.96 312.121C1065.77 310.884 1062.99 309.061 1060.62 306.652C1058.27 304.211 1056.45 301.232 1055.15 297.717C1053.88 294.201 1053.24 290.165 1053.24 285.607C1053.24 279.553 1054.32 274.426 1056.46 270.227C1058.61 266.027 1061.67 262.837 1065.64 260.656C1069.62 258.475 1074.35 257.385 1079.85 257.385C1084.96 257.385 1089.49 258.475 1093.43 260.656C1097.4 262.837 1100.51 266.027 1102.75 270.227C1105.03 274.426 1106.17 279.553 1106.17 285.607ZM1068.43 285.607C1068.43 289.188 1068.82 292.199 1069.6 294.641C1070.38 297.082 1071.6 298.921 1073.26 300.158C1074.92 301.395 1077.09 302.014 1079.76 302.014C1082.39 302.014 1084.52 301.395 1086.15 300.158C1087.81 298.921 1089.02 297.082 1089.77 294.641C1090.55 292.199 1090.94 289.188 1090.94 285.607C1090.94 281.994 1090.55 278.999 1089.77 276.623C1089.02 274.214 1087.81 272.408 1086.15 271.203C1084.49 269.999 1082.33 269.396 1079.66 269.396C1075.72 269.396 1072.85 270.747 1071.06 273.449C1069.31 276.151 1068.43 280.204 1068.43 285.607ZM1148.85 257.385C1155 257.385 1159.96 259.777 1163.74 264.562C1167.55 269.348 1169.45 276.363 1169.45 285.607C1169.45 291.792 1168.56 297.001 1166.77 301.232C1164.98 305.432 1162.5 308.605 1159.35 310.754C1156.19 312.902 1152.56 313.977 1148.46 313.977C1145.82 313.977 1143.56 313.651 1141.67 313C1139.78 312.316 1138.17 311.454 1136.84 310.412C1135.5 309.338 1134.35 308.199 1133.37 306.994H1132.59C1132.85 308.296 1133.04 309.631 1133.17 310.998C1133.3 312.365 1133.37 313.7 1133.37 315.002V337.023H1118.48V258.41H1130.59L1132.69 265.49H1133.37C1134.35 264.025 1135.53 262.674 1136.93 261.438C1138.33 260.201 1140.01 259.224 1141.96 258.508C1143.95 257.759 1146.24 257.385 1148.85 257.385ZM1144.06 269.299C1141.46 269.299 1139.39 269.836 1137.86 270.91C1136.33 271.984 1135.21 273.596 1134.49 275.744C1133.81 277.893 1133.43 280.611 1133.37 283.898V285.51C1133.37 289.025 1133.69 292.004 1134.35 294.445C1135.03 296.887 1136.15 298.742 1137.71 300.012C1139.31 301.281 1141.49 301.916 1144.26 301.916C1146.54 301.916 1148.41 301.281 1149.87 300.012C1151.34 298.742 1152.43 296.887 1153.14 294.445C1153.89 291.971 1154.27 288.96 1154.27 285.412C1154.27 280.074 1153.44 276.053 1151.78 273.352C1150.12 270.65 1147.55 269.299 1144.06 269.299ZM1219.84 296.789C1219.84 300.5 1218.96 303.641 1217.21 306.213C1215.48 308.752 1212.89 310.689 1209.44 312.023C1205.99 313.326 1201.7 313.977 1196.55 313.977C1192.74 313.977 1189.47 313.732 1186.74 313.244C1184.04 312.756 1181.3 311.942 1178.54 310.803V298.498C1181.5 299.833 1184.67 300.939 1188.06 301.818C1191.47 302.665 1194.47 303.088 1197.04 303.088C1199.94 303.088 1202.01 302.665 1203.24 301.818C1204.51 300.939 1205.15 299.8 1205.15 298.4C1205.15 297.489 1204.89 296.675 1204.37 295.959C1203.88 295.21 1202.8 294.38 1201.14 293.469C1199.48 292.525 1196.88 291.304 1193.33 289.807C1189.91 288.374 1187.1 286.926 1184.88 285.461C1182.7 283.996 1181.07 282.271 1180 280.285C1178.96 278.267 1178.44 275.712 1178.44 272.619C1178.44 267.574 1180.39 263.781 1184.3 261.242C1188.24 258.671 1193.49 257.385 1200.07 257.385C1203.45 257.385 1206.68 257.727 1209.74 258.41C1212.83 259.094 1216 260.184 1219.26 261.682L1214.77 272.424C1212.06 271.252 1209.51 270.292 1207.1 269.543C1204.72 268.794 1202.3 268.42 1199.82 268.42C1197.64 268.42 1196 268.713 1194.89 269.299C1193.79 269.885 1193.23 270.78 1193.23 271.984C1193.23 272.863 1193.51 273.645 1194.06 274.328C1194.65 275.012 1195.76 275.777 1197.38 276.623C1199.04 277.437 1201.47 278.495 1204.66 279.797C1207.75 281.066 1210.44 282.401 1212.71 283.801C1214.99 285.168 1216.75 286.877 1217.99 288.928C1219.23 290.946 1219.84 293.566 1219.84 296.789Z" fill="#4D575F"/>
<path d="M732.344 412.623C732.344 420.663 730.798 427.385 727.705 432.789C724.645 438.16 720.202 442.213 714.375 444.947C708.548 447.649 701.533 449 693.33 449H673.115V377.613H695.527C703.014 377.613 709.508 378.948 715.01 381.617C720.511 384.254 724.775 388.176 727.803 393.385C730.83 398.561 732.344 404.973 732.344 412.623ZM716.621 413.014C716.621 407.74 715.84 403.411 714.277 400.025C712.747 396.607 710.469 394.085 707.441 392.457C704.447 390.829 700.736 390.016 696.309 390.016H688.252V436.5H694.746C702.135 436.5 707.62 434.531 711.201 430.592C714.814 426.653 716.621 420.794 716.621 413.014ZM795.576 421.607C795.576 426.165 794.958 430.201 793.721 433.717C792.516 437.232 790.742 440.211 788.398 442.652C786.087 445.061 783.288 446.884 780 448.121C776.745 449.358 773.066 449.977 768.965 449.977C765.124 449.977 761.592 449.358 758.369 448.121C755.179 446.884 752.396 445.061 750.02 442.652C747.676 440.211 745.853 437.232 744.551 433.717C743.281 430.201 742.646 426.165 742.646 421.607C742.646 415.553 743.721 410.426 745.869 406.227C748.018 402.027 751.077 398.837 755.049 396.656C759.02 394.475 763.757 393.385 769.258 393.385C774.368 393.385 778.893 394.475 782.832 396.656C786.803 398.837 789.912 402.027 792.158 406.227C794.437 410.426 795.576 415.553 795.576 421.607ZM757.832 421.607C757.832 425.188 758.223 428.199 759.004 430.641C759.785 433.082 761.006 434.921 762.666 436.158C764.326 437.395 766.491 438.014 769.16 438.014C771.797 438.014 773.929 437.395 775.557 436.158C777.217 434.921 778.421 433.082 779.17 430.641C779.951 428.199 780.342 425.188 780.342 421.607C780.342 417.994 779.951 414.999 779.17 412.623C778.421 410.214 777.217 408.408 775.557 407.203C773.896 405.999 771.732 405.396 769.062 405.396C765.124 405.396 762.259 406.747 760.469 409.449C758.711 412.151 757.832 416.204 757.832 421.607ZM830.049 449.977C824.645 449.977 820.039 449 816.23 447.047C812.422 445.061 809.525 442.001 807.539 437.867C805.553 433.733 804.561 428.443 804.561 421.998C804.561 415.325 805.684 409.889 807.93 405.689C810.208 401.458 813.35 398.349 817.354 396.363C821.39 394.378 826.061 393.385 831.367 393.385C835.143 393.385 838.398 393.759 841.133 394.508C843.9 395.224 846.309 396.087 848.359 397.096L843.965 408.619C841.621 407.675 839.44 406.91 837.422 406.324C835.404 405.706 833.385 405.396 831.367 405.396C828.763 405.396 826.598 406.015 824.873 407.252C823.148 408.456 821.862 410.279 821.016 412.721C820.169 415.162 819.746 418.222 819.746 421.9C819.746 425.514 820.202 428.508 821.113 430.885C822.025 433.261 823.343 435.035 825.068 436.207C826.794 437.346 828.893 437.916 831.367 437.916C834.46 437.916 837.21 437.509 839.619 436.695C842.028 435.849 844.372 434.677 846.65 433.18V445.924C844.372 447.356 841.979 448.382 839.473 449C836.999 449.651 833.857 449.977 830.049 449.977ZM909.443 394.41V449H898.018L896.016 442.018H895.234C894.062 443.873 892.598 445.387 890.84 446.559C889.082 447.73 887.145 448.593 885.029 449.146C882.913 449.7 880.716 449.977 878.438 449.977C874.531 449.977 871.13 449.293 868.232 447.926C865.335 446.526 863.073 444.361 861.445 441.432C859.85 438.502 859.053 434.693 859.053 430.006V394.41H873.945V426.295C873.945 430.201 874.645 433.147 876.045 435.133C877.445 437.118 879.674 438.111 882.734 438.111C885.762 438.111 888.138 437.428 889.863 436.061C891.589 434.661 892.793 432.626 893.477 429.957C894.193 427.255 894.551 423.967 894.551 420.094V394.41H909.443ZM989.18 393.385C995.365 393.385 1000.04 394.98 1003.19 398.17C1006.38 401.327 1007.98 406.406 1007.98 413.404V449H993.037V417.115C993.037 413.209 992.37 410.263 991.035 408.277C989.701 406.292 987.633 405.299 984.834 405.299C980.895 405.299 978.096 406.715 976.436 409.547C974.775 412.346 973.945 416.367 973.945 421.607V449H959.053V417.115C959.053 414.511 958.76 412.33 958.174 410.572C957.588 408.814 956.693 407.496 955.488 406.617C954.284 405.738 952.738 405.299 950.85 405.299C948.083 405.299 945.902 405.999 944.307 407.398C942.744 408.766 941.621 410.8 940.938 413.502C940.286 416.171 939.961 419.443 939.961 423.316V449H925.068V394.41H936.445L938.447 401.393H939.277C940.384 399.505 941.768 397.975 943.428 396.803C945.12 395.631 946.976 394.768 948.994 394.215C951.012 393.661 953.063 393.385 955.146 393.385C959.15 393.385 962.536 394.036 965.303 395.338C968.102 396.64 970.251 398.658 971.748 401.393H973.066C974.694 398.593 976.989 396.559 979.951 395.289C982.946 394.02 986.022 393.385 989.18 393.385ZM1045.82 393.385C1050.87 393.385 1055.21 394.361 1058.86 396.314C1062.5 398.235 1065.32 401.035 1067.3 404.713C1069.29 408.391 1070.28 412.883 1070.28 418.189V425.416H1035.08C1035.24 429.615 1036.49 432.919 1038.84 435.328C1041.21 437.704 1044.5 438.893 1048.7 438.893C1052.18 438.893 1055.37 438.535 1058.27 437.818C1061.17 437.102 1064.15 436.028 1067.21 434.596V446.119C1064.51 447.454 1061.67 448.43 1058.71 449.049C1055.78 449.667 1052.22 449.977 1048.02 449.977C1042.55 449.977 1037.7 448.967 1033.47 446.949C1029.27 444.931 1025.96 441.855 1023.55 437.721C1021.18 433.587 1019.99 428.378 1019.99 422.096C1019.99 415.715 1021.06 410.41 1023.21 406.178C1025.39 401.913 1028.42 398.723 1032.29 396.607C1036.17 394.459 1040.68 393.385 1045.82 393.385ZM1045.92 403.98C1043.02 403.98 1040.61 404.908 1038.69 406.764C1036.8 408.619 1035.71 411.533 1035.42 415.504H1056.32C1056.29 413.29 1055.88 411.321 1055.1 409.596C1054.35 407.87 1053.21 406.503 1051.68 405.494C1050.18 404.485 1048.26 403.98 1045.92 403.98ZM1113.4 393.385C1119.23 393.385 1123.91 394.98 1127.46 398.17C1131.01 401.327 1132.78 406.406 1132.78 413.404V449H1117.89V417.115C1117.89 413.209 1117.17 410.263 1115.74 408.277C1114.34 406.292 1112.13 405.299 1109.1 405.299C1104.54 405.299 1101.44 406.845 1099.78 409.938C1098.12 413.03 1097.29 417.49 1097.29 423.316V449H1082.39V394.41H1093.77L1095.77 401.393H1096.6C1097.77 399.505 1099.22 397.975 1100.95 396.803C1102.71 395.631 1104.64 394.768 1106.76 394.215C1108.91 393.661 1111.12 393.385 1113.4 393.385ZM1171.11 438.111C1172.74 438.111 1174.32 437.949 1175.85 437.623C1177.41 437.298 1178.96 436.891 1180.49 436.402V447.486C1178.89 448.202 1176.91 448.788 1174.53 449.244C1172.19 449.732 1169.62 449.977 1166.82 449.977C1163.56 449.977 1160.63 449.456 1158.03 448.414C1155.46 447.34 1153.42 445.501 1151.92 442.896C1150.46 440.26 1149.73 436.598 1149.73 431.91V405.592H1142.6V399.293L1150.8 394.312L1155.1 382.789H1164.62V394.41H1179.9V405.592H1164.62V431.91C1164.62 433.993 1165.21 435.556 1166.38 436.598C1167.58 437.607 1169.16 438.111 1171.11 438.111ZM1213.94 393.287C1221.26 393.287 1226.88 394.882 1230.78 398.072C1234.69 401.262 1236.64 406.113 1236.64 412.623V449H1226.24L1223.36 441.578H1222.97C1221.41 443.531 1219.81 445.126 1218.18 446.363C1216.56 447.6 1214.68 448.512 1212.57 449.098C1210.45 449.684 1207.88 449.977 1204.85 449.977C1201.63 449.977 1198.73 449.358 1196.16 448.121C1193.62 446.884 1191.62 444.996 1190.16 442.457C1188.69 439.885 1187.96 436.63 1187.96 432.691C1187.96 426.897 1189.99 422.633 1194.06 419.898C1198.13 417.132 1204.24 415.602 1212.37 415.309L1221.85 415.016V412.623C1221.85 409.758 1221.1 407.659 1219.6 406.324C1218.1 404.99 1216.02 404.322 1213.35 404.322C1210.71 404.322 1208.12 404.697 1205.59 405.445C1203.05 406.194 1200.51 407.138 1197.97 408.277L1193.04 398.219C1195.93 396.689 1199.17 395.484 1202.75 394.605C1206.37 393.727 1210.09 393.287 1213.94 393.287ZM1221.85 423.707L1216.08 423.902C1211.27 424.033 1207.91 424.895 1206.03 426.49C1204.17 428.085 1203.24 430.185 1203.24 432.789C1203.24 435.068 1203.91 436.695 1205.24 437.672C1206.58 438.616 1208.32 439.088 1210.47 439.088C1213.66 439.088 1216.34 438.144 1218.53 436.256C1220.74 434.368 1221.85 431.682 1221.85 428.199V423.707ZM1275.02 438.111C1276.65 438.111 1278.23 437.949 1279.76 437.623C1281.32 437.298 1282.86 436.891 1284.39 436.402V447.486C1282.8 448.202 1280.81 448.788 1278.44 449.244C1276.09 449.732 1273.52 449.977 1270.72 449.977C1267.47 449.977 1264.54 449.456 1261.93 448.414C1259.36 447.34 1257.33 445.501 1255.83 442.896C1254.37 440.26 1253.63 436.598 1253.63 431.91V405.592H1246.5V399.293L1254.71 394.312L1259 382.789H1268.53V394.41H1283.81V405.592H1268.53V431.91C1268.53 433.993 1269.11 435.556 1270.28 436.598C1271.49 437.607 1273.07 438.111 1275.02 438.111ZM1310.37 394.41V449H1295.48V394.41H1310.37ZM1302.95 373.023C1305.16 373.023 1307.07 373.544 1308.66 374.586C1310.26 375.595 1311.05 377.499 1311.05 380.299C1311.05 383.066 1310.26 384.986 1308.66 386.061C1307.07 387.102 1305.16 387.623 1302.95 387.623C1300.7 387.623 1298.78 387.102 1297.19 386.061C1295.62 384.986 1294.84 383.066 1294.84 380.299C1294.84 377.499 1295.62 375.595 1297.19 374.586C1298.78 373.544 1300.7 373.023 1302.95 373.023ZM1375.65 421.607C1375.65 426.165 1375.04 430.201 1373.8 433.717C1372.59 437.232 1370.82 440.211 1368.48 442.652C1366.17 445.061 1363.37 446.884 1360.08 448.121C1356.82 449.358 1353.14 449.977 1349.04 449.977C1345.2 449.977 1341.67 449.358 1338.45 448.121C1335.26 446.884 1332.47 445.061 1330.1 442.652C1327.75 440.211 1325.93 437.232 1324.63 433.717C1323.36 430.201 1322.72 426.165 1322.72 421.607C1322.72 415.553 1323.8 410.426 1325.95 406.227C1328.1 402.027 1331.16 398.837 1335.13 396.656C1339.1 394.475 1343.83 393.385 1349.34 393.385C1354.45 393.385 1358.97 394.475 1362.91 396.656C1366.88 398.837 1369.99 402.027 1372.24 406.227C1374.51 410.426 1375.65 415.553 1375.65 421.607ZM1337.91 421.607C1337.91 425.188 1338.3 428.199 1339.08 430.641C1339.86 433.082 1341.08 434.921 1342.74 436.158C1344.4 437.395 1346.57 438.014 1349.24 438.014C1351.88 438.014 1354.01 437.395 1355.63 436.158C1357.29 434.921 1358.5 433.082 1359.25 430.641C1360.03 428.199 1360.42 425.188 1360.42 421.607C1360.42 417.994 1360.03 414.999 1359.25 412.623C1358.5 410.214 1357.29 408.408 1355.63 407.203C1353.97 405.999 1351.81 405.396 1349.14 405.396C1345.2 405.396 1342.34 406.747 1340.55 409.449C1338.79 412.151 1337.91 416.204 1337.91 421.607ZM1418.96 393.385C1424.79 393.385 1429.48 394.98 1433.03 398.17C1436.58 401.327 1438.35 406.406 1438.35 413.404V449H1423.46V417.115C1423.46 413.209 1422.74 410.263 1421.31 408.277C1419.91 406.292 1417.7 405.299 1414.67 405.299C1410.11 405.299 1407 406.845 1405.34 409.938C1403.68 413.03 1402.85 417.49 1402.85 423.316V449H1387.96V394.41H1399.34L1401.34 401.393H1402.17C1403.34 399.505 1404.79 397.975 1406.51 396.803C1408.27 395.631 1410.21 394.768 1412.32 394.215C1414.47 393.661 1416.69 393.385 1418.96 393.385Z" fill="#8F9DA8"/>
<path d="M3250.46 1431.65C3250.46 1797.91 3172.35 2129.46 3046.1 2369.42C2919.83 2609.42 2745.49 2757.66 2553.08 2757.66C2360.66 2757.66 2186.33 2609.42 2060.06 2369.42C1933.8 2129.46 1855.7 1797.91 1855.7 1431.65C1855.7 1065.4 1933.8 733.851 2060.06 493.884C2186.33 253.891 2360.66 105.645 2553.08 105.645C2745.49 105.645 2919.83 253.891 3046.1 493.884C3172.35 733.851 3250.46 1065.4 3250.46 1431.65Z" stroke="#8F9DA8" stroke-width="1.15556"/>
<path d="M3046.72 939.765C3305.69 1198.74 3484.91 1488.42 3565.31 1747.37C3645.73 2006.36 3627.28 2234.46 3491.22 2370.52C3355.16 2506.58 3127.06 2525.03 2868.08 2444.61C2609.12 2364.2 2319.45 2184.99 2060.47 1926.01C1801.49 1667.03 1622.28 1377.36 1541.87 1118.4C1461.45 859.418 1479.9 631.317 1615.96 495.259C1752.02 359.201 1980.12 340.752 2239.11 421.168C2498.06 501.574 2787.74 680.786 3046.72 939.765Z" stroke="#8F9DA8" stroke-width="1.15556"/>
<path d="M3047.03 1923.86C2788.05 2182.84 2498.38 2362.05 2239.43 2442.46C1980.44 2522.87 1752.34 2504.42 1616.28 2368.37C1480.22 2232.31 1461.77 2004.21 1542.19 1745.22C1622.6 1486.26 1801.81 1196.59 2060.79 937.613C2319.77 678.634 2609.44 499.423 2868.39 419.016C3127.38 338.6 3355.48 357.05 3491.54 493.108C3627.6 629.166 3646.05 857.267 3565.63 1116.25C3485.22 1375.21 3306.01 1664.88 3047.03 1923.86Z" stroke="#8F9DA8" stroke-width="1.15556"/>
<path d="M2821.1 789.283C3159.47 929.441 3435.89 1128.48 3609.28 1336.96C3782.68 1545.45 3852.93 1763.25 3779.29 1941.02C3705.66 2118.79 3501.98 2223.12 3231.94 2247.94C2961.92 2272.75 2625.72 2218.04 2287.35 2077.88C1948.97 1937.72 1672.55 1738.68 1499.17 1530.2C1325.76 1321.71 1255.52 1103.91 1329.15 926.138C1402.78 748.37 1606.46 644.034 1876.51 619.219C2146.52 594.407 2482.73 649.124 2821.1 789.283Z" stroke="#8F9DA8" stroke-width="1.15556"/>
<path d="M3197.99 1698.35C3057.83 2036.72 2858.79 2313.14 2650.31 2486.53C2441.82 2659.93 2224.02 2730.18 2046.25 2656.54C1868.48 2582.91 1764.15 2379.23 1739.33 2109.18C1714.52 1839.17 1769.24 1502.97 1909.39 1164.59C2049.55 826.221 2248.59 549.799 2457.07 376.414C2665.57 203.01 2883.36 132.765 3061.13 206.399C3238.9 280.033 3343.24 483.711 3368.05 753.756C3392.86 1023.77 3338.15 1359.97 3197.99 1698.35Z" stroke="#8F9DA8" stroke-width="1.15556"/>
<path d="M2288 788.788C2626.38 648.629 2962.58 593.912 3232.6 618.725C3502.64 643.54 3706.32 747.875 3779.95 925.644C3853.59 1103.41 3783.34 1321.21 3609.94 1529.71C3436.55 1738.18 3160.13 1937.22 2821.76 2077.38C2483.38 2217.54 2147.18 2272.26 1877.17 2247.45C1607.12 2222.63 1403.44 2118.29 1329.81 1940.53C1256.18 1762.76 1326.42 1544.96 1499.82 1336.46C1673.21 1127.99 1949.63 928.947 2288 788.788Z" stroke="#8F9DA8" stroke-width="1.15556"/>
<path d="M3197.31 1165.09C3337.47 1503.46 3392.19 1839.67 3367.37 2109.68C3342.56 2379.73 3238.22 2583.4 3060.46 2657.04C2882.69 2730.67 2664.89 2660.43 2456.39 2487.02C2247.92 2313.64 2048.88 2037.22 1908.72 1698.84C1768.56 1360.47 1713.84 1024.27 1738.65 754.252C1763.47 484.207 1867.81 280.529 2045.57 206.895C2223.34 133.261 2441.14 203.507 2649.64 376.911C2858.11 550.295 3057.15 826.717 3197.31 1165.09Z" stroke="#8F9DA8" stroke-width="1.15556"/>
<path d="M3249.8 1401.3C3265.77 1767.2 3202.2 2101.84 3086.54 2347.09C2970.86 2592.36 2803.15 2748.07 2610.92 2756.46C2418.69 2764.86 2238.05 2624.36 2101.43 2390.1C1964.83 2155.87 1872.34 1828.04 1856.36 1462.14C1840.39 1096.23 1903.96 761.592 2019.62 516.347C2135.3 271.074 2303.01 115.365 2495.24 106.972C2687.47 98.5785 2868.11 239.079 3004.73 473.336C3141.33 707.567 3233.82 1035.39 3249.8 1401.3Z" stroke="#8F9DA8" stroke-width="1.15556"/>
<path d="M2585.19 2127.07C2219.28 2143.04 1884.64 2079.47 1639.4 1963.8C1394.12 1848.12 1238.41 1680.42 1230.02 1488.19C1221.63 1295.95 1362.13 1115.32 1596.39 978.7C1830.62 842.099 2158.44 749.604 2524.35 733.629C2890.25 717.653 3224.89 781.224 3470.14 896.89C3715.41 1012.57 3871.12 1180.28 3879.51 1372.51C3887.91 1564.74 3747.41 1745.38 3513.15 1881.99C3278.92 2018.59 2951.09 2111.09 2585.19 2127.07Z" stroke="#8F9DA8" stroke-width="1.15556"/>
<path d="M3024.78 918.763C3294.81 1166.2 3486.49 1447.78 3578.11 1702.98C3669.75 1958.21 3661.27 2186.9 3531.27 2328.76C3401.28 2470.63 3174.2 2499.01 2911.95 2429.97C2649.74 2360.93 2352.52 2194.53 2082.49 1947.09C1812.46 1699.65 1620.79 1418.08 1529.16 1162.87C1437.53 907.641 1446.01 678.952 1576 537.088C1706 395.225 1933.07 366.844 2195.32 435.886C2457.54 504.921 2754.75 671.326 3024.78 918.763Z" stroke="#8F9DA8" stroke-width="1.15556"/>
<path d="M3068.03 1901.91C2820.6 2171.94 2539.02 2363.62 2283.81 2455.24C2028.58 2546.88 1799.89 2538.4 1658.03 2408.4C1516.17 2278.41 1487.79 2051.33 1556.83 1789.08C1625.86 1526.87 1792.27 1229.65 2039.71 959.623C2287.14 689.594 2568.72 497.917 2823.92 406.292C3079.16 314.656 3307.84 323.138 3449.71 453.132C3591.57 583.125 3619.95 810.205 3550.91 1072.45C3481.88 1334.67 3315.47 1631.88 3068.03 1901.91Z" stroke="#8F9DA8" stroke-width="1.15556"/>
<path d="M2792.82 778.267C3136.98 903.532 3421.83 1090.33 3604.14 1291.04C3786.47 1491.78 3866.15 1706.3 3800.34 1887.11C3734.53 2067.92 3535.6 2181.04 3266.89 2217.62C2998.22 2254.18 2659.95 2214.18 2315.78 2088.92C1971.62 1963.65 1686.78 1776.86 1504.46 1576.14C1322.13 1375.41 1242.45 1160.88 1308.26 980.07C1374.07 799.259 1573 686.139 1841.71 649.568C2110.39 613.001 2448.66 653.001 2792.82 778.267Z" stroke="#8F9DA8" stroke-width="1.15556"/>
<path d="M3209 1670.03C3083.74 2014.19 2896.94 2299.03 2696.23 2481.35C2495.49 2663.68 2280.97 2743.36 2100.16 2677.55C1919.35 2611.74 1806.22 2412.81 1769.65 2144.1C1733.09 1875.42 1773.09 1537.15 1898.35 1192.99C2023.62 848.825 2210.41 563.984 2411.13 381.671C2611.86 199.337 2826.39 119.658 3007.2 185.468C3188.01 251.278 3301.13 450.211 3337.7 718.917C3374.27 987.593 3334.27 1325.86 3209 1670.03Z" stroke="#8F9DA8" stroke-width="1.15556"/>
<path d="M2260.21 801.029C2592.15 646.244 2925.64 576.914 3196.48 589.925C3467.35 602.937 3675.39 698.289 3756.71 872.676C3838.03 1047.06 3777.35 1267.72 3613.2 1483.58C3449.08 1699.42 3181.6 1910.33 2849.66 2065.11C2517.73 2219.9 2184.23 2289.23 1913.39 2276.22C1642.52 2263.21 1434.48 2167.85 1353.16 1993.47C1271.85 1819.08 1332.52 1598.42 1496.67 1382.56C1660.8 1166.72 1928.27 955.814 2260.21 801.029Z" stroke="#8F9DA8" stroke-width="1.15556"/>
<path d="M3185.07 1137.31C3339.86 1469.25 3409.19 1802.74 3396.18 2073.58C3383.16 2344.45 3287.81 2552.49 3113.42 2633.81C2939.04 2715.12 2718.38 2654.45 2502.52 2490.3C2286.68 2326.18 2075.77 2058.7 1920.99 1726.76C1766.2 1394.82 1696.87 1061.33 1709.88 790.488C1722.9 519.617 1818.25 311.582 1992.63 230.264C2167.02 148.946 2387.68 209.624 2603.54 373.769C2819.38 537.895 3030.29 805.372 3185.07 1137.31Z" stroke="#8F9DA8" stroke-width="1.15556"/>
<path d="M3247.81 1371C3279.73 1735.86 3230.82 2072.96 3125.96 2323.01C3021.09 2573.1 2860.33 2735.97 2668.65 2752.74C2476.97 2769.51 2290.37 2637.03 2143.67 2408.95C1996.98 2180.9 1890.27 1857.42 1858.35 1492.56C1826.43 1127.7 1875.34 790.608 1980.2 540.551C2085.07 290.466 2245.83 127.59 2437.51 110.82C2629.19 94.0495 2815.79 226.537 2962.49 454.612C3109.18 682.661 3215.89 1006.14 3247.81 1371Z" stroke="#8F9DA8" stroke-width="1.15556"/>
<path d="M2615.48 2125.07C2250.63 2156.99 1913.53 2108.08 1663.47 2003.22C1413.39 1898.35 1250.51 1737.59 1233.74 1545.91C1216.97 1354.23 1349.46 1167.63 1577.53 1020.93C1805.58 874.239 2129.06 767.532 2493.92 735.611C2858.78 703.69 3195.88 752.604 3445.93 857.463C3696.02 962.334 3858.9 1123.09 3875.67 1314.77C3892.44 1506.45 3759.95 1693.05 3531.87 1839.75C3303.82 1986.44 2980.34 2093.15 2615.48 2125.07Z" stroke="#8F9DA8" stroke-width="1.15556"/>
<path d="M3001.96 898.74C3282.53 1134.16 3486.3 1407.11 3588.97 1658.08C3691.65 1909.07 3693.15 2137.91 3569.47 2285.31C3445.79 2432.71 3220.17 2470.97 2955.16 2413.43C2690.18 2355.9 2385.99 2202.61 2105.42 1967.19C1824.86 1731.77 1621.08 1458.82 1518.41 1207.86C1415.73 956.864 1414.23 728.022 1537.91 580.624C1661.59 433.226 1887.22 394.966 2152.23 452.504C2417.21 510.035 2721.4 663.318 3001.96 898.74Z" stroke="#8F9DA8" stroke-width="1.15556"/>
<path d="M3088.05 1879.06C2852.63 2159.63 2579.68 2363.41 2328.71 2466.08C2077.72 2568.76 1848.88 2570.26 1701.48 2446.58C1554.08 2322.9 1515.82 2097.27 1573.36 1832.26C1630.89 1567.28 1784.18 1263.09 2019.6 982.528C2255.02 701.962 2527.97 498.186 2778.93 395.516C3029.93 292.834 3258.77 291.333 3406.17 415.015C3553.56 538.697 3591.82 764.322 3534.29 1029.33C3476.76 1294.31 3323.47 1598.5 3088.05 1879.06Z" stroke="#8F9DA8" stroke-width="1.15556"/>
<path d="M2764.09 768.502C3113.39 878.636 3406.11 1052.83 3597 1245.4C3787.92 1437.99 3876.88 1648.84 3819.02 1832.35C3761.16 2015.86 3567.35 2137.55 3300.49 2185.8C3033.67 2234.05 2693.97 2208.85 2344.67 2098.71C1995.37 1988.58 1702.65 1814.39 1511.76 1621.82C1320.84 1429.23 1231.88 1218.38 1289.74 1034.87C1347.6 851.36 1541.41 729.669 1808.27 681.413C2075.09 633.161 2414.79 658.368 2764.09 768.502Z" stroke="#8F9DA8" stroke-width="1.15556"/>
<path d="M3218.78 1641.25C3108.64 1990.55 2934.45 2283.27 2741.88 2474.17C2549.29 2665.08 2338.44 2754.04 2154.94 2696.18C1971.43 2638.32 1849.74 2444.51 1801.48 2177.66C1753.23 1910.83 1778.43 1571.14 1888.57 1221.84C1998.7 872.54 2172.89 579.822 2365.46 388.927C2558.06 198.011 2768.9 109.051 2952.41 166.911C3135.92 224.771 3257.61 418.581 3305.87 685.436C3354.12 952.261 3328.91 1291.95 3218.78 1641.25Z" stroke="#8F9DA8" stroke-width="1.15556"/>
<path d="M2232.98 814.465C2557.85 645.348 2888 561.537 3159.15 562.722C3430.33 563.907 3642.33 650.094 3731.18 820.768C3820.03 991.442 3769.03 1214.53 3614.46 1437.35C3459.9 1660.14 3201.88 1882.52 2877.01 2051.64C2552.14 2220.75 2221.99 2304.56 1950.83 2303.38C1679.65 2302.19 1467.66 2216.01 1378.81 2045.33C1289.96 1874.66 1340.96 1651.57 1495.53 1428.75C1650.09 1205.96 1908.11 983.581 2232.98 814.465Z" stroke="#8F9DA8" stroke-width="1.15556"/>
<path d="M3171.62 1110.09C3340.74 1434.95 3424.55 1765.11 3423.37 2036.26C3422.18 2307.44 3336 2519.44 3165.32 2608.28C2994.65 2697.13 2771.56 2646.14 2548.74 2491.56C2325.95 2337.01 2103.57 2078.99 1934.45 1754.12C1765.34 1429.25 1681.53 1099.09 1682.71 827.941C1683.9 556.761 1770.08 344.764 1940.76 255.917C2111.43 167.07 2334.52 218.066 2557.34 372.638C2780.13 527.193 3002.51 785.216 3171.62 1110.09Z" stroke="#8F9DA8" stroke-width="1.15556"/>
<path d="M3244.5 1340.82C3292.3 1703.94 3258.14 2042.85 3164.29 2297.24C3070.43 2551.66 2916.93 2721.4 2726.16 2746.51C2535.39 2771.63 2343.2 2647.4 2186.68 2425.94C2030.19 2204.51 1909.47 1885.99 1861.67 1522.87C1813.86 1159.75 1848.02 820.846 1941.88 566.453C2035.74 312.031 2189.23 142.298 2380 117.183C2570.77 92.0675 2762.97 216.29 2919.48 437.748C3075.98 659.182 3196.69 977.701 3244.5 1340.82Z" stroke="#8F9DA8" stroke-width="1.15556"/>
<path d="M2645.67 2121.75C2282.55 2169.56 1943.64 2135.39 1689.25 2041.54C1434.83 1947.68 1265.1 1794.18 1239.98 1603.41C1214.87 1412.64 1339.09 1220.45 1560.55 1063.93C1781.98 907.439 2100.5 786.724 2463.62 738.918C2826.74 691.113 3165.65 725.276 3420.04 819.128C3674.46 912.99 3844.19 1066.49 3869.31 1257.26C3894.42 1448.02 3770.2 1640.22 3548.74 1796.73C3327.31 1953.23 3008.79 2073.94 2645.67 2121.75Z" stroke="#8F9DA8" stroke-width="1.15556"/>
<path d="M2978.29 879.733C3268.85 1102.69 3484.34 1366.5 3597.86 1612.74C3711.39 1859.02 3722.87 2087.57 3605.74 2240.23C3488.6 2392.88 3264.86 2440.94 2997.6 2395.02C2730.36 2349.1 2419.77 2209.23 2129.21 1986.27C1838.64 1763.31 1623.15 1499.51 1509.63 1253.27C1396.1 1006.99 1384.62 778.434 1501.75 625.781C1618.89 473.128 1842.63 425.063 2109.9 470.987C2377.13 516.905 2687.72 656.773 2978.29 879.733Z" stroke="#8F9DA8" stroke-width="1.15556"/>
<path d="M3107.05 1855.37C2884.09 2145.93 2620.29 2361.42 2374.05 2474.94C2127.77 2588.47 1899.21 2599.96 1746.56 2482.82C1593.91 2365.69 1545.84 2141.94 1591.77 1874.68C1637.68 1607.44 1777.55 1296.86 2000.51 1006.29C2223.47 715.721 2487.27 500.233 2733.52 386.714C2979.79 273.181 3208.35 261.7 3361.01 378.835C3513.66 495.969 3561.72 719.711 3515.8 986.978C3469.88 1254.21 3330.01 1564.8 3107.05 1855.37Z" stroke="#8F9DA8" stroke-width="1.15556"/>
<path d="M2734.96 759.988C3088.73 854.781 3388.77 1016.04 3587.88 1200.1C3787.01 1384.18 3885.09 1590.95 3835.29 1776.8C3785.49 1962.66 3597.17 2092.69 3332.67 2152.54C3068.21 2212.39 2727.74 2202.02 2373.96 2107.23C2020.19 2012.43 1720.15 1851.18 1521.04 1667.12C1321.91 1483.04 1223.83 1276.27 1273.64 1090.41C1323.44 904.553 1511.75 774.525 1776.25 714.674C2040.72 654.83 2381.18 665.195 2734.96 759.988Z" stroke="#8F9DA8" stroke-width="1.15556"/>
<path d="M3227.28 1612.08C3132.49 1965.86 2971.23 2265.89 2787.17 2465.01C2603.09 2664.14 2396.32 2762.21 2210.47 2712.41C2024.61 2662.61 1894.58 2474.3 1834.73 2209.8C1774.88 1945.33 1785.25 1604.86 1880.04 1251.09C1974.84 897.319 2136.09 597.282 2320.15 398.169C2504.23 199.034 2711 100.961 2896.86 150.762C3082.72 200.563 3212.74 388.879 3272.6 653.375C3332.44 917.842 3322.07 1258.31 3227.28 1612.08Z" stroke="#8F9DA8" stroke-width="1.15556"/>
<path d="M2206.37 829.083C2523.55 645.957 2849.73 547.824 3120.68 537.181C3391.65 526.535 3607.21 603.393 3703.41 770.029C3799.62 936.666 3758.4 1161.77 3613.7 1391.12C3469.01 1620.44 3220.93 1853.86 2903.75 2036.98C2586.56 2220.11 2260.38 2318.24 1989.44 2328.89C1718.46 2339.53 1502.91 2262.67 1406.7 2096.04C1310.49 1929.4 1351.71 1704.3 1496.41 1474.95C1641.1 1245.63 1889.18 1012.21 2206.37 829.083Z" stroke="#8F9DA8" stroke-width="1.15556"/>
<path d="M3157.01 1083.47C3340.14 1400.66 3438.27 1726.84 3448.92 1997.79C3459.56 2268.76 3382.7 2484.31 3216.07 2580.52C3049.43 2676.73 2824.33 2635.51 2594.98 2490.81C2365.66 2346.12 2132.24 2098.04 1949.11 1780.86C1765.99 1463.67 1667.86 1137.49 1657.21 866.544C1646.57 595.57 1723.42 380.016 1890.06 283.809C2056.7 187.601 2281.8 228.817 2511.15 373.523C2740.47 518.213 2973.89 766.291 3157.01 1083.47Z" stroke="#8F9DA8" stroke-width="1.15556"/>
<path d="M3239.88 1310.81C3303.47 1671.5 3284.13 2011.58 3201.46 2269.82C3118.79 2528.1 2972.84 2704.36 2783.35 2737.78C2593.86 2771.19 2396.42 2655.47 2230.4 2441.05C2064.39 2226.65 1929.9 1913.7 1866.3 1553.01C1802.7 1192.32 1822.05 852.247 1904.72 594.002C1987.39 335.729 2133.34 159.462 2322.83 126.049C2512.32 92.6367 2709.75 208.357 2875.78 422.778C3041.78 637.175 3176.28 950.125 3239.88 1310.81Z" stroke="#8F9DA8" stroke-width="1.15556"/>
<path d="M2675.68 2117.12C2315 2180.72 1974.92 2161.37 1716.67 2078.7C1458.4 1996.03 1282.13 1850.08 1248.72 1660.59C1215.31 1471.1 1331.03 1273.67 1545.45 1107.64C1759.85 941.636 2072.8 807.142 2433.48 743.543C2794.17 679.944 3134.25 699.292 3392.49 781.958C3650.77 864.634 3827.03 1010.58 3860.45 1200.07C3893.86 1389.56 3778.14 1587 3563.72 1753.02C3349.32 1919.03 3036.37 2053.52 2675.68 2117.12Z" stroke="#8F9DA8" stroke-width="1.15556"/>
<path d="M2953.81 861.777C3253.83 1071.85 3480.62 1326 3604.77 1567.06C3728.93 1808.15 3750.37 2035.99 3640.01 2193.61C3529.65 2351.22 3308.21 2409 3039.2 2374.78C2770.21 2340.56 2453.82 2214.37 2153.81 2004.3C1853.79 1794.23 1627 1540.08 1502.85 1299.02C1378.68 1057.93 1357.24 830.089 1467.61 672.472C1577.97 514.855 1799.4 457.076 2068.42 491.298C2337.4 525.516 2653.79 651.704 2953.81 861.777Z" stroke="#8F9DA8" stroke-width="1.15556"/>
<path d="M3125 1830.87C2914.93 2130.88 2660.78 2357.67 2419.72 2481.82C2178.63 2605.99 1950.79 2627.43 1793.18 2517.07C1635.56 2406.7 1577.78 2185.27 1612 1916.25C1646.22 1647.27 1772.41 1330.88 1982.48 1030.86C2192.55 730.846 2446.71 504.056 2687.77 379.904C2928.85 255.738 3156.69 234.297 3314.31 344.662C3471.93 455.027 3529.71 676.459 3495.48 945.474C3461.27 1214.46 3335.08 1530.85 3125 1830.87Z" stroke="#8F9DA8" stroke-width="1.15556"/>
<path d="M2705.48 752.763C3063.05 832.035 3369.84 980.051 3576.79 1155.25C3783.76 1330.47 3890.76 1532.76 3849.12 1720.62C3807.47 1908.47 3625.01 2046.59 3363.37 2117.92C3101.77 2189.24 2761.17 2193.74 2403.6 2114.47C2046.03 2035.19 1739.24 1887.18 1532.29 1711.98C1325.32 1536.76 1218.32 1334.47 1259.96 1146.61C1301.61 958.76 1484.08 820.641 1745.71 749.31C2007.31 677.987 2347.91 673.492 2705.48 752.763Z" stroke="#8F9DA8" stroke-width="1.15556"/>
<path d="M3234.51 1582.57C3155.24 1940.14 3007.22 2246.92 2832.02 2453.88C2656.8 2660.85 2454.51 2767.85 2266.66 2726.2C2078.8 2684.56 1940.68 2502.09 1869.35 2240.46C1798.03 1978.85 1793.53 1638.26 1872.81 1280.69C1952.08 923.115 2100.09 616.329 2275.29 409.377C2450.51 202.402 2652.8 95.4039 2840.66 137.05C3028.51 178.696 3166.63 361.162 3237.96 622.796C3309.28 884.4 3313.78 1225 3234.51 1582.57Z" stroke="#8F9DA8" stroke-width="1.15556"/>
<path d="M2180.41 844.844C2489.31 648.057 2810.9 535.79 3081.12 513.338C3351.37 490.883 3570.07 558.265 3673.46 720.546C3776.84 882.828 3745.49 1109.52 3610.92 1344.96C3476.37 1580.37 3238.71 1824.39 2929.82 2021.18C2620.92 2217.96 2299.33 2330.23 2029.11 2352.68C1758.86 2375.14 1540.16 2307.75 1436.77 2145.47C1333.39 1983.19 1364.74 1756.5 1499.31 1521.06C1633.86 1285.65 1871.52 1041.63 2180.41 844.844Z" stroke="#8F9DA8" stroke-width="1.15556"/>
<path d="M3141.25 1057.53C3338.03 1366.42 3450.3 1688.02 3472.75 1958.24C3495.21 2228.49 3427.83 2447.19 3265.55 2550.58C3103.26 2653.96 2876.58 2622.6 2641.13 2488.04C2405.72 2353.49 2161.7 2115.83 1964.92 1806.94C1768.13 1498.04 1655.86 1176.45 1633.41 906.226C1610.95 635.974 1678.34 417.273 1840.62 313.889C2002.9 210.504 2229.59 241.862 2465.03 376.427C2700.44 510.976 2944.46 748.636 3141.25 1057.53Z" stroke="#8F9DA8" stroke-width="1.15556"/>
<path d="M3233.95 1281.04C3313.22 1638.61 3308.72 1979.2 3237.4 2240.81C3166.07 2502.44 3027.95 2684.91 2840.09 2726.55C2652.24 2768.2 2449.95 2661.2 2274.73 2454.23C2099.53 2247.27 1951.51 1940.49 1872.24 1582.92C1792.97 1225.35 1797.47 884.751 1868.79 623.146C1940.12 361.512 2078.24 179.046 2266.09 137.4C2453.95 95.7541 2656.24 202.753 2831.46 409.728C3006.66 616.679 3154.67 923.465 3233.95 1281.04Z" stroke="#8F9DA8" stroke-width="1.15556"/>
<path d="M2705.47 2111.18C2347.9 2190.45 2007.3 2185.96 1745.7 2114.64C1484.06 2043.31 1301.6 1905.19 1259.95 1717.33C1218.3 1529.48 1325.3 1327.19 1532.28 1151.97C1739.23 976.769 2046.02 828.752 2403.59 749.481C2761.16 670.209 3101.75 674.704 3363.36 746.028C3624.99 817.359 3807.46 955.478 3849.1 1143.33C3890.75 1331.19 3783.75 1533.48 3576.78 1708.7C3369.82 1883.9 3063.04 2031.91 2705.47 2111.18Z" stroke="#8F9DA8" stroke-width="1.15556"/>
<path d="M2928.57 844.905C3237.46 1041.69 3475.12 1285.71 3609.67 1521.12C3744.23 1756.57 3775.59 1983.25 3672.21 2145.53C3568.82 2307.82 3350.12 2375.2 3079.87 2352.74C2809.65 2330.29 2488.06 2218.02 2179.16 2021.24C1870.27 1824.45 1632.61 1580.43 1498.06 1345.02C1363.49 1109.58 1332.14 882.888 1435.52 720.607C1538.9 558.326 1757.61 490.944 2027.86 513.399C2298.08 535.851 2619.67 648.118 2928.57 844.905Z" stroke="#8F9DA8" stroke-width="1.15556"/>
<path d="M3141.88 1805.6C2945.09 2114.5 2701.08 2352.16 2465.66 2486.71C2230.22 2621.27 2003.53 2652.63 1841.25 2549.24C1678.97 2445.86 1611.59 2227.16 1634.04 1956.91C1656.49 1686.68 1768.76 1365.09 1965.55 1056.2C2162.33 747.302 2406.35 509.643 2641.77 375.093C2877.21 240.529 3103.9 209.171 3266.18 312.556C3428.46 415.94 3495.84 634.641 3473.39 904.893C3450.93 1175.11 3338.67 1496.71 3141.88 1805.6Z" stroke="#8F9DA8" stroke-width="1.15556"/>
<path d="M2675.73 746.825C3036.41 810.424 3349.36 944.918 3563.76 1110.92C3778.18 1276.95 3893.9 1474.38 3860.49 1663.87C3827.08 1853.36 3650.81 1999.31 3392.54 2081.98C3134.29 2164.65 2794.22 2184 2433.53 2120.4C2072.84 2056.8 1759.89 1922.31 1545.49 1756.3C1331.07 1590.28 1215.35 1392.85 1248.76 1203.35C1282.18 1013.86 1458.44 867.915 1716.72 785.24C1974.96 702.573 2315.04 683.226 2675.73 746.825Z" stroke="#8F9DA8" stroke-width="1.15556"/>
<path d="M3240.44 1552.77C3176.84 1913.45 3042.35 2226.4 2876.34 2440.8C2710.32 2655.22 2512.89 2770.94 2323.39 2737.53C2133.9 2704.12 1987.96 2527.85 1905.28 2269.58C1822.61 2011.33 1803.27 1671.26 1866.87 1310.57C1930.47 949.88 2064.96 636.929 2230.96 422.532C2396.99 208.112 2594.42 92.3911 2783.91 125.804C2973.4 159.216 3119.35 335.484 3202.03 593.757C3284.69 852.001 3304.04 1192.08 3240.44 1552.77Z" stroke="#8F9DA8" stroke-width="1.15556"/>
<path d="M2155.17 861.722C2455.18 651.648 2771.57 525.46 3040.56 491.242C3309.57 457.021 3531.01 514.799 3641.37 672.417C3751.74 830.034 3730.3 1057.87 3606.13 1298.96C3481.98 1540.02 3255.19 1794.17 2955.17 2004.25C2655.15 2214.32 2338.76 2340.51 2069.78 2374.72C1800.76 2408.95 1579.33 2351.17 1468.97 2193.55C1358.6 2035.93 1380.04 1808.09 1504.21 1567.01C1628.36 1325.95 1855.15 1071.8 2155.17 861.722Z" stroke="#8F9DA8" stroke-width="1.15556"/>
<path d="M3124.37 1032.29C3334.44 1332.31 3460.63 1648.7 3494.85 1917.69C3529.07 2186.7 3471.29 2408.13 3313.67 2518.5C3156.06 2628.86 2928.22 2607.42 2687.13 2483.26C2446.07 2359.1 2191.92 2132.31 1981.84 1832.3C1771.77 1532.28 1645.58 1215.89 1611.37 946.905C1577.14 677.89 1634.92 456.458 1792.54 346.093C1950.16 235.728 2178 257.169 2419.08 381.335C2660.14 505.488 2914.29 732.277 3124.37 1032.29Z" stroke="#8F9DA8" stroke-width="1.15556"/>
<path d="M3226.73 1251.54C3321.52 1605.32 3331.89 1945.79 3272.04 2210.25C3212.19 2474.75 3082.16 2663.06 2896.3 2712.87C2710.44 2762.67 2503.68 2664.59 2319.6 2465.46C2135.54 2266.35 1974.28 1966.31 1879.49 1612.54C1784.69 1258.76 1774.33 918.295 1834.17 653.828C1894.02 389.332 2024.05 201.015 2209.91 151.215C2395.77 101.414 2602.54 199.487 2786.62 398.622C2970.68 597.734 3131.93 897.772 3226.73 1251.54Z" stroke="#8F9DA8" stroke-width="1.15556"/>
<path d="M2734.96 2103.95C2381.18 2198.75 2040.72 2209.11 1776.25 2149.27C1511.75 2089.42 1323.44 1959.39 1273.64 1773.53C1223.83 1587.67 1321.91 1380.91 1521.04 1196.82C1720.16 1012.76 2020.19 851.507 2373.97 756.714C2727.74 661.921 3068.21 651.555 3332.67 711.4C3597.17 771.251 3785.49 901.279 3835.29 1087.14C3885.09 1273 3787.01 1479.76 3587.88 1663.84C3388.77 1847.9 3088.73 2009.16 2734.96 2103.95Z" stroke="#8F9DA8" stroke-width="1.15556"/>
<path d="M2902.61 829.147C3219.8 1012.27 3467.88 1245.69 3612.57 1475.01C3757.27 1704.36 3798.49 1929.47 3702.28 2096.1C3606.07 2262.74 3390.52 2339.6 3119.54 2328.95C2848.6 2318.31 2522.42 2220.17 2205.23 2037.05C1888.05 1853.92 1639.97 1620.5 1495.28 1391.18C1350.57 1161.83 1309.36 936.73 1405.57 770.094C1501.77 603.458 1717.33 526.6 1988.3 537.245C2259.25 547.889 2585.43 646.021 2902.61 829.147Z" stroke="#8F9DA8" stroke-width="1.15556"/>
<path d="M3157.63 1779.63C2974.5 2096.81 2741.09 2344.89 2511.76 2489.58C2282.42 2634.29 2057.31 2675.5 1890.68 2579.3C1724.04 2483.09 1647.18 2267.53 1657.83 1996.56C1668.47 1725.62 1766.6 1399.43 1949.73 1082.25C2132.85 765.064 2366.27 516.986 2595.6 372.297C2824.94 227.59 3050.05 186.374 3216.68 282.582C3383.32 378.789 3460.18 594.343 3449.53 865.317C3438.89 1136.26 3340.76 1462.45 3157.63 1779.63Z" stroke="#8F9DA8" stroke-width="1.15556"/>
<path d="M2645.73 742.193C3008.85 789.998 3327.37 910.713 3548.8 1067.21C3770.26 1223.72 3894.48 1415.92 3869.37 1606.69C3844.25 1797.46 3674.52 1950.95 3420.1 2044.82C3165.7 2138.67 2826.79 2172.83 2463.68 2125.02C2100.56 2077.22 1782.04 1956.5 1560.6 1800.01C1339.15 1643.5 1214.92 1451.3 1240.04 1260.53C1265.15 1069.76 1434.89 916.265 1689.31 822.403C1943.7 728.55 2282.61 694.387 2645.73 742.193Z" stroke="#8F9DA8" stroke-width="1.15556"/>
<path d="M3245.06 1522.73C3197.26 1885.85 3076.54 2204.37 2920.05 2425.8C2763.54 2647.26 2571.34 2771.48 2380.57 2746.37C2189.8 2721.25 2036.31 2551.52 1942.44 2297.1C1848.59 2042.7 1814.43 1703.8 1862.23 1340.68C1910.04 977.559 2030.75 659.04 2187.25 437.606C2343.76 216.147 2535.96 91.9249 2726.73 117.04C2917.5 142.155 3070.99 311.889 3164.86 566.31C3258.71 820.703 3292.87 1159.61 3245.06 1522.73Z" stroke="#8F9DA8" stroke-width="1.15556"/>
<path d="M2130.68 879.684C2421.25 656.724 2731.83 516.856 2999.07 470.938C3266.34 425.014 3490.08 473.079 3607.21 625.732C3724.35 778.385 3712.86 1006.94 3599.33 1253.22C3485.81 1499.46 3270.33 1763.26 2979.76 1986.23C2689.19 2209.19 2378.61 2349.05 2111.37 2394.97C1844.1 2440.9 1620.36 2392.83 1503.23 2240.18C1386.09 2087.52 1397.57 1858.97 1511.1 1612.69C1624.62 1366.45 1840.11 1102.64 2130.68 879.684Z" stroke="#8F9DA8" stroke-width="1.15556"/>
<path d="M3106.4 1007.82C3329.36 1298.39 3469.23 1608.97 3515.15 1876.21C3561.07 2143.47 3513.01 2367.22 3360.36 2484.35C3207.7 2601.48 2979.14 2590 2732.87 2476.47C2486.62 2362.95 2222.82 2147.46 1999.86 1856.9C1776.9 1566.33 1637.03 1255.74 1591.12 988.507C1545.19 721.241 1593.26 497.499 1745.91 380.364C1898.56 263.23 2127.12 274.711 2373.4 388.243C2619.64 501.763 2883.44 717.251 3106.4 1007.82Z" stroke="#8F9DA8" stroke-width="1.15556"/>
<path d="M3218.23 1222.4C3328.36 1571.7 3353.57 1911.39 3305.32 2178.21C3257.06 2445.07 3135.37 2638.88 2951.86 2696.74C2768.35 2754.6 2557.5 2665.64 2364.91 2474.72C2172.34 2283.83 1998.15 1991.11 1888.02 1641.81C1777.88 1292.51 1752.67 952.815 1800.93 685.99C1849.18 419.135 1970.87 225.326 2154.38 167.465C2337.89 109.605 2548.74 198.566 2741.33 389.482C2933.9 580.376 3108.09 873.094 3218.23 1222.4Z" stroke="#8F9DA8" stroke-width="1.15556"/>
<path d="M2764.11 2095.44C2414.8 2205.58 2075.11 2230.79 1808.29 2182.53C1541.43 2134.28 1347.62 2012.59 1289.76 1829.08C1231.9 1645.57 1320.86 1434.72 1511.78 1242.13C1702.67 1049.56 1995.39 875.369 2344.69 765.235C2693.99 655.1 3033.68 629.893 3300.51 678.145C3567.37 726.402 3761.17 848.092 3819.03 1031.6C3876.89 1215.11 3787.93 1425.96 3597.02 1618.55C3406.12 1811.12 3113.41 1985.31 2764.11 2095.44Z" stroke="#8F9DA8" stroke-width="1.15556"/>
<path d="M2875.99 814.543C3200.86 983.659 3458.89 1206.03 3613.44 1428.83C3768.01 1651.64 3819.01 1874.74 3730.16 2045.41C3641.31 2216.08 3429.32 2302.27 3158.14 2303.46C2886.99 2304.64 2556.83 2220.83 2231.96 2051.71C1907.09 1882.6 1649.07 1660.22 1494.52 1437.43C1339.94 1214.61 1288.95 991.52 1377.79 820.846C1466.64 650.171 1678.64 563.984 1949.82 562.8C2220.97 561.615 2551.12 645.426 2875.99 814.543Z" stroke="#8F9DA8" stroke-width="1.15556"/>
<path d="M3172.23 1752.99C3003.11 2077.86 2780.74 2335.89 2557.94 2490.44C2335.13 2645.01 2112.03 2696.01 1941.36 2607.16C1770.69 2518.31 1684.5 2306.32 1683.31 2035.14C1682.13 1763.99 1765.94 1433.83 1935.06 1108.96C2104.17 784.093 2326.55 526.07 2549.34 371.515C2772.16 216.943 2995.25 165.947 3165.92 254.794C3336.6 343.642 3422.79 555.638 3423.97 826.819C3425.16 1097.97 3341.34 1428.12 3172.23 1752.99Z" stroke="#8F9DA8" stroke-width="1.15556"/>
<path d="M2615.57 738.869C2980.42 770.79 3303.91 877.496 3531.96 1024.18C3760.03 1170.89 3892.52 1357.48 3875.75 1549.17C3858.98 1740.85 3696.1 1901.6 3446.02 2006.47C3195.96 2111.33 2858.86 2160.25 2494 2128.33C2129.15 2096.4 1805.66 1989.7 1577.62 1843.01C1349.54 1696.31 1217.05 1509.71 1233.82 1318.03C1250.59 1126.34 1413.47 965.591 1663.55 860.72C1913.61 755.861 2250.71 706.948 2615.57 738.869Z" stroke="#8F9DA8" stroke-width="1.15556"/>
<path d="M3248.37 1492.52C3216.45 1857.38 3109.74 2180.86 2963.06 2408.91C2816.35 2636.99 2629.76 2769.48 2438.07 2752.71C2246.39 2735.94 2085.64 2573.06 1980.77 2322.97C1875.91 2072.92 1826.99 1735.82 1858.92 1370.96C1890.84 1006.1 1997.54 682.623 2144.23 454.574C2290.93 226.499 2477.53 94.0117 2669.21 110.782C2860.9 127.552 3021.65 290.428 3126.52 540.513C3231.38 790.57 3280.29 1127.67 3248.37 1492.52Z" stroke="#8F9DA8" stroke-width="1.15556"/>
<path d="M2107.01 898.698C2387.58 663.276 2691.76 509.993 2956.74 452.462C3221.75 394.924 3447.38 433.184 3571.06 580.582C3694.74 727.98 3693.24 956.822 3590.56 1207.81C3487.89 1458.78 3284.11 1731.73 3003.55 1967.15C2722.98 2202.57 2418.79 2355.85 2153.81 2413.39C1888.81 2470.92 1663.18 2432.66 1539.5 2285.27C1415.82 2137.87 1417.32 1909.03 1520 1658.03C1622.67 1407.07 1826.45 1134.12 2107.01 898.698Z" stroke="#8F9DA8" stroke-width="1.15556"/>
<path d="M3087.39 984.151C3322.81 1264.72 3476.09 1568.91 3533.62 1833.88C3591.16 2098.89 3552.9 2324.52 3405.5 2448.2C3258.1 2571.88 3029.26 2570.38 2778.27 2467.7C2527.31 2365.03 2254.36 2161.25 2018.93 1880.69C1783.51 1600.12 1630.23 1295.93 1572.7 1030.95C1515.16 765.946 1553.42 540.321 1700.82 416.639C1848.22 292.957 2077.06 294.458 2328.05 397.14C2579.01 499.81 2851.96 703.586 3087.39 984.151Z" stroke="#8F9DA8" stroke-width="1.15556"/>
<path d="M3208.46 1193.64C3333.73 1537.81 3373.73 1876.08 3337.16 2144.76C3300.59 2413.46 3187.47 2612.39 3006.66 2678.2C2825.85 2744.01 2611.32 2664.33 2410.58 2482C2209.87 2299.69 2023.08 2014.85 1897.81 1670.68C1772.55 1326.52 1732.55 988.248 1769.11 719.572C1805.68 450.866 1918.8 251.933 2099.61 186.123C2280.43 120.314 2494.95 199.993 2695.69 382.326C2896.4 564.639 3083.19 849.48 3208.46 1193.64Z" stroke="#8F9DA8" stroke-width="1.15556"/>
<path d="M2792.86 2085.67C2448.7 2210.94 2110.43 2250.94 1841.75 2214.37C1573.05 2177.8 1374.12 2064.68 1308.31 1883.87C1242.5 1703.06 1322.18 1488.53 1504.51 1287.79C1686.82 1087.08 1971.66 900.287 2315.83 775.022C2659.99 649.756 2998.26 609.756 3266.94 646.323C3535.64 682.893 3734.58 796.014 3800.39 976.825C3866.2 1157.64 3786.52 1372.16 3604.18 1572.9C3421.87 1773.61 3137.03 1960.41 2792.86 2085.67Z" stroke="#8F9DA8" stroke-width="1.15556"/>
<path d="M2848.77 801.108C3180.71 955.893 3448.18 1166.8 3612.31 1382.64C3776.45 1598.5 3837.13 1819.16 3755.81 1993.55C3674.5 2167.93 3466.46 2263.29 3195.59 2276.3C2924.75 2289.31 2591.25 2219.98 2259.32 2065.19C1927.38 1910.41 1659.9 1699.5 1495.78 1483.66C1331.63 1267.8 1270.95 1047.14 1352.27 872.756C1433.59 698.369 1641.62 603.017 1912.5 590.004C2183.34 576.993 2516.83 646.323 2848.77 801.108Z" stroke="#8F9DA8" stroke-width="1.15556"/>
<path d="M3185.65 1725.74C3030.87 2057.68 2819.96 2325.16 2604.12 2489.28C2388.26 2653.43 2167.6 2714.11 1993.21 2632.79C1818.83 2551.47 1723.47 2343.44 1710.46 2072.56C1697.45 1801.72 1766.78 1468.23 1921.57 1136.29C2076.35 804.353 2287.26 536.876 2503.1 372.75C2718.96 208.605 2939.62 147.927 3114 229.245C3288.39 310.563 3383.74 518.598 3396.76 789.469C3409.77 1060.31 3340.44 1393.81 3185.65 1725.74Z" stroke="#8F9DA8" stroke-width="1.15556"/>
<path d="M2585.29 736.865C2951.19 752.84 3279.02 845.335 3513.25 981.936C3747.51 1118.55 3888.01 1299.19 3879.61 1491.42C3871.22 1683.65 3715.51 1851.36 3470.24 1967.04C3224.99 2082.71 2890.35 2146.28 2524.45 2130.3C2158.54 2114.33 1830.72 2021.83 1596.49 1885.23C1362.23 1748.61 1221.73 1567.98 1230.12 1375.74C1238.51 1183.51 1394.22 1015.81 1639.5 900.127C1884.74 784.46 2219.38 720.889 2585.29 736.865Z" stroke="#8F9DA8" stroke-width="1.15556"/>
<path d="M3250.37 1462.2C3234.39 1828.11 3141.9 2155.93 3005.3 2390.16C2868.68 2624.42 2688.04 2764.92 2495.81 2756.53C2303.58 2748.14 2135.87 2592.43 2020.19 2347.15C1904.53 2101.91 1840.96 1767.27 1856.93 1401.36C1872.91 1035.46 1965.4 707.632 2102 473.401C2238.62 239.144 2419.26 98.6434 2611.49 107.036C2803.72 115.429 2971.43 271.139 3087.11 516.411C3202.77 761.656 3266.34 1096.3 3250.37 1462.2Z" stroke="#8F9DA8" stroke-width="1.15556"/>
<path d="M2084.17 918.73C2354.2 671.294 2651.42 504.888 2913.63 435.854C3175.88 366.811 3402.96 395.193 3532.95 537.056C3662.95 678.92 3671.43 907.608 3579.79 1162.84C3488.17 1418.04 3296.49 1699.62 3026.46 1947.06C2756.43 2194.49 2459.22 2360.9 2197 2429.93C1934.76 2498.98 1707.68 2470.6 1577.68 2328.73C1447.69 2186.87 1439.21 1958.18 1530.84 1702.95C1622.47 1447.75 1814.14 1166.17 2084.17 918.73Z" stroke="#8F9DA8" stroke-width="1.15556"/>
<path d="M3067.35 961.334C3314.79 1231.36 3481.2 1528.58 3550.23 1790.79C3619.27 2053.04 3590.89 2280.12 3449.03 2410.11C3307.16 2540.11 3078.48 2548.59 2823.24 2456.95C2568.04 2365.33 2286.46 2173.65 2039.03 1903.62C1791.59 1633.59 1625.18 1336.38 1556.15 1074.16C1487.11 811.915 1515.49 584.836 1657.35 454.842C1799.21 324.849 2027.9 316.366 2283.13 408.002C2538.34 499.628 2819.92 691.304 3067.35 961.334Z" stroke="#8F9DA8" stroke-width="1.15556"/>
</g>
<defs>
<clipPath id="clip0_233_967">
<rect width="2110" height="684" fill="white"/>
</clipPath>
</defs>
</svg>
