<svg xmlns="http://www.w3.org/2000/svg" id="Layer_2" data-name="Layer 2" viewBox="0 0 1280 640"><defs><style>.cls-6{fill:#1a1a1a}</style></defs><g id="Layer_1-2"><path d="M0 0h1280v640H0z" style="fill:#edeff3"/><path d="M1139.7 596h-9.8v-1.7l6.6-9.2h-6.2V583h9.3v1.9l-6.4 9h6.6v2.1zm7.9-13.2c1.2 0 2.2.2 3 .7s1.5 1.2 1.9 2c.4.9.7 1.9.7 3.1v1.5h-8.7c0 1.3.4 2.2 1 2.9.7.7 1.6 1 2.7 1s1.6 0 2.2-.2c.7-.2 1.3-.4 2.1-.7v2.2c-.7.3-1.3.5-2 .7-.7 0-1.5.2-2.4.2s-2.4-.2-3.4-.7-1.7-1.2-2.3-2.2c-.5-1-.8-2.2-.8-3.7s.2-2.7.7-3.7 1.2-1.8 2.1-2.3 1.9-.8 3.1-.8zm0 2.1c-.9 0-1.6.3-2.1.8-.5.6-.8 1.4-.9 2.5h5.9c0-.6 0-1.2-.3-1.7q-.3-.75-.9-1.2c-.6-.45-.9-.4-1.6-.4zm15.3-2.1h1.4l-.3 2.6h-1.2c-.5 0-1 0-1.4.2s-.8.4-1.2.7c-.3.3-.6.7-.8 1.2s-.3 1-.3 1.7v6.8h-2.8v-13h2.2l.4 2.3c.3-.5.6-.9 1-1.3s.8-.7 1.3-.9 1.1-.4 1.7-.4v.2zm15.2 6.7c0 1.1 0 2-.4 2.9q-.45 1.2-1.2 2.1c-.75.9-1.2 1-1.9 1.3-.8.3-1.6.4-2.6.4s-1.7 0-2.4-.4c-.7-.3-1.4-.7-1.9-1.3s-1-1.3-1.3-2.1-.4-1.8-.4-2.9.2-2.6.7-3.6 1.2-1.8 2.1-2.3 2-.8 3.3-.8 2.2.3 3.2.8c.9.5 1.6 1.3 2.1 2.3s.8 2.2.8 3.6zm-9.4 0c0 .9 0 1.8.3 2.4.2.7.6 1.2 1.1 1.5.5.4 1.1.5 1.9.5s1.4-.2 1.9-.5c.5-.4.8-.9 1.1-1.5s.3-1.5.3-2.4 0-1.7-.3-2.4c-.2-.7-.6-1.2-1.1-1.5-.5-.4-1.1-.5-1.9-.5s-2 .4-2.5 1.1c-.5.8-.8 1.9-.8 3.3m19.2-6.7c1.5 0 2.8.6 3.7 1.7s1.4 2.8 1.4 5-.2 2.7-.7 3.7c-.4 1-1 1.8-1.8 2.3s-1.7.8-2.7.8-1.2 0-1.7-.3c-.4-.2-.9-.4-1.2-.7l-.9-.9h-.2v7.3h-2.8V583h2.2l.4 1.8c.2-.4.5-.7.9-1s.8-.6 1.3-.7q.75-.3 1.8-.3zm-.7 2.2c-.8 0-1.4.2-1.8.5s-.8.7-1 1.3-.3 1.4-.3 2.3v.4c0 1 0 1.8.3 2.5.2.7.5 1.2 1 1.5s1.1.5 1.9.5 1.2-.2 1.7-.6c.4-.4.8-.9 1-1.6q.3-1.05.3-2.4c0-1.4-.2-2.5-.8-3.3-.5-.8-1.2-1.2-2.3-1.2zm17.8 7.3c0 .9-.2 1.6-.6 2.2s-1 1-1.8 1.3-1.8.4-2.9.4-1.7 0-2.3-.2c-.6 0-1.3-.3-1.8-.6V593c.6.3 1.3.5 2.1.8.8.2 1.5.3 2.2.3s1.6 0 2-.4c.4-.3.6-.7.6-1.1s0-.5-.2-.8c-.2-.2-.5-.5-.9-.7s-1.1-.5-1.9-.9c-.8-.3-1.5-.7-2.1-1s-1-.7-1.3-1.2-.4-1.1-.4-1.8c0-1.1.5-2 1.4-2.6s2.1-.9 3.6-.9 1.6 0 2.2.2c.7.2 1.4.4 2.1.7l-.9 2.1q-.9-.45-1.8-.6-.9-.3-1.8-.3c-.9 0-1.2 0-1.6.3s-.6.5-.6.9 0 .6.3.8.5.4.9.6 1.1.5 1.8.8c.8.3 1.4.6 2 .9s1 .7 1.3 1.2.5 1.1.5 1.8v.2zm2.5 2.2c0-.6.2-1.1.5-1.3.3-.3.7-.4 1.2-.4s.9 0 1.2.4c.3.3.5.7.5 1.3s-.2 1.1-.5 1.4-.7.4-1.2.4-.9 0-1.2-.4c-.3-.3-.5-.7-.5-1.4m9.8-11.5v13h-2.8v-13zm-1.4-4.9c.4 0 .8 0 1.1.3.3.2.5.6.5 1.2s-.2.9-.5 1.2c-.3.2-.7.3-1.1.3s-.8 0-1.1-.3c-.3-.2-.4-.6-.4-1.2s.2-.9.4-1.2c.3-.2.7-.3 1.1-.3m16.8 11.4c0 1.1 0 2-.4 2.9q-.45 1.2-1.2 2.1c-.75.9-1.2 1-1.9 1.3-.8.3-1.6.4-2.6.4s-1.7 0-2.4-.4c-.7-.3-1.4-.7-1.9-1.3s-.9-1.3-1.2-2.1-.4-1.8-.4-2.9.2-2.6.7-3.6 1.2-1.8 2.1-2.3 2-.8 3.3-.8 2.2.3 3.2.8c.9.5 1.6 1.3 2.2 2.3.5 1 .8 2.2.8 3.6zm-9.4 0c0 .9 0 1.8.3 2.4.2.7.6 1.2 1.1 1.5.5.4 1.1.5 1.9.5s1.4-.2 1.9-.5c.5-.4.8-.9 1.1-1.5q.3-1.05.3-2.4c0-1.35 0-1.7-.3-2.4-.2-.7-.6-1.2-1.1-1.5-.5-.4-1.1-.5-1.9-.5s-2 .4-2.5 1.1c-.5.8-.8 1.9-.8 3.3" class="cls-6"/><path d="m375.34 179.9-96.4 36.8c-8.6 3.4-14.3 11.7-14.2 20.9v92.7l44.3-25.4v-52.1l74.2-28.5v-45.9c-2.7 0-5.4.5-7.9 1.5m-65.5 207.6 73.4-42.3v-51.1l-113.5 65.4c-3.1 1.8-5 5.1-5 8.7v34.2c0 9.2 5.7 17.3 14.2 20.7l96.4 36.8c2.5 1 5.2 1.5 7.9 1.5v-45.9l-73.4-28.1z" style="fill:#323232"/><path d="M497.04 279.5c2.9-1.7 4.8-4.8 4.7-8.2v-33.6c0-9.2-5.6-17.5-14.2-20.9l-96.4-36.8c-2.5-1-5.2-1.4-7.8-1.5v45.9l72.9 28-72.9 42v51.1l113.8-65.9h-.1zm-106 180.5 96.4-36.8c8.5-3.3 14.2-11.5 14.2-20.7v-93.7l-44.3 25.6v52.9l-74.2 28.4v45.9q4.05 0 7.8-1.5z" class="cls-6"/><path d="m670.5 305.6-6-6-24 24-24-24-6 6 24 24-24 24 6 6 24-24 24 24 6-6-24-24z" style="fill:#939393"/><path d="M970.75 274.53h-22.68v95.49h22.68zm-31.76 9.09c0 7.54-6.09 13.65-13.61 13.65-7.52-.01-13.61-6.12-13.61-13.64 0-7.54 6.09-13.64 13.61-13.64 7.52.01 13.61 6.12 13.61 13.64Zm65.77-9.09h-22.68v95.49h22.68zm-127.83 65.35-16.18-35.8h-17.01l-14.98 34.78-15.64-34.78h-21.55v-18.19h-22.68v18.19h-9.07v20.31h9.07v45.63h22.68v-45.63h6.8l22.69 45.63h15.87L852.02 334l16.66 36.02h15.87l22.68-45.63h6.8v45.63h22.68v-65.94h-43.09l-16.71 35.8Z"/><path d="M1063.94 274.49h104.38c26.38 0 47.77 21.39 47.77 47.77s-21.39 47.77-47.77 47.77h-104.38c-26.38 0-47.77-21.39-47.77-47.77s21.39-47.77 47.77-47.77" style="fill:#6621d9"/><path d="M1088.06 315.01h-8.13c-.2-1.25-.64-2.45-1.28-3.53a9.5 9.5 0 0 0-2.32-2.64 9.8 9.8 0 0 0-3.17-1.62c-1.23-.39-2.51-.58-3.8-.57-2.42 0-4.56.61-6.43 1.82-1.87 1.2-3.33 2.96-4.39 5.29-1.06 2.31-1.59 5.14-1.59 8.47s.53 6.26 1.59 8.58c1.07 2.31 2.53 4.06 4.39 5.25 1.87 1.17 4 1.75 6.41 1.75 1.33 0 2.58-.17 3.73-.52 1.13-.34 2.2-.88 3.15-1.58a9.58 9.58 0 0 0 3.71-6.02l8.13.04c-.3 2.08-.97 4.09-1.98 5.94a17.8 17.8 0 0 1-3.93 4.9c-1.62 1.4-3.52 2.5-5.69 3.29-2.17.78-4.59 1.17-7.24 1.17q-5.865 0-10.47-2.7c-3.07-1.81-5.49-4.42-7.26-7.82-1.77-3.41-2.65-7.5-2.65-12.27s.89-8.87 2.67-12.26c1.78-3.41 4.21-6.02 7.28-7.82s6.55-2.71 10.43-2.71c2.48 0 4.78.35 6.91 1.04 2.07.66 4 1.7 5.69 3.05 1.67 1.33 3.03 2.96 4.11 4.9 1.09 1.92 1.8 4.12 2.13 6.59Zm7.38-14.97h9.86l13.21 32.15h.52l13.21-32.15h9.86v44.38h-7.74v-30.49h-.41l-12.3 30.36h-5.78l-12.3-30.42h-.41v30.55h-7.74v-44.38Zm79.62 12.2c-.2-1.89-1.06-3.37-2.56-4.42-1.49-1.06-3.43-1.58-5.82-1.58-1.68 0-3.12.25-4.32.76-1.2.5-2.12 1.19-2.76 2.06s-.96 1.85-.98 2.97c0 .92.21 1.73.63 2.4.43.68 1.02 1.26 1.76 1.73.74.46 1.56.85 2.45 1.17s1.8.58 2.71.8l4.17 1.04c1.68.39 3.29.92 4.85 1.58s2.96 1.5 4.2 2.51 2.23 2.23 2.95 3.66 1.08 3.11 1.08 5.03c0 2.6-.66 4.89-2 6.87-1.33 1.96-3.26 3.5-5.78 4.61-2.5 1.1-5.54 1.65-9.1 1.65s-6.47-.53-9.02-1.6c-2.53-1.07-4.52-2.63-5.95-4.68-1.42-2.05-2.19-4.55-2.3-7.5h7.93c.11 1.54.59 2.83 1.43 3.85.84 1.03 1.93 1.79 3.28 2.3 1.36.5 2.88.75 4.57.75s3.29-.26 4.61-.78c1.33-.53 2.37-1.27 3.13-2.21.75-.95 1.14-2.07 1.15-3.33-.01-1.16-.35-2.11-1.02-2.86-.67-.77-1.6-1.4-2.8-1.91-1.35-.57-2.75-1.04-4.17-1.39l-5.06-1.3c-3.66-.94-6.56-2.36-8.69-4.27-2.11-1.92-3.17-4.47-3.17-7.65 0-2.61.71-4.91 2.13-6.87 1.43-1.97 3.38-3.49 5.85-4.57 2.46-1.1 5.25-1.65 8.36-1.65s5.92.55 8.3 1.65c2.39 1.08 4.27 2.59 5.63 4.53 1.36 1.92 2.06 4.13 2.11 6.63h-7.76Z" style="fill:#fff"/></g></svg>