<svg xmlns="http://www.w3.org/2000/svg" width="2363" height="1182" fill="none"><g clip-path="url(#a)"><path fill="#EDEFF3" d="M2363 0H0v1181.5h2363z"/><path fill="#1A1A1A" d="M2103.9 1100.27h-18.18v-3.13l12.09-16.9h-11.35v-3.92h17.09v3.46l-11.85 16.58h12.2zm14.71-24.4c2.15 0 3.97.44 5.51 1.32 1.53.88 2.69 2.13 3.52 3.74.81 1.62 1.24 3.55 1.24 5.8v2.73h-15.99c.06 2.32.67 4.1 1.85 5.36 1.2 1.26 2.88 1.88 5.02 1.88 1.53 0 2.9-.14 4.12-.43 1.21-.3 2.49-.74 3.78-1.32v4.13c-1.2.56-2.42.98-3.66 1.23-1.23.26-2.73.39-4.46.39-2.35 0-4.41-.45-6.21-1.36-1.77-.92-3.15-2.29-4.17-4.11-.99-1.82-1.49-4.07-1.49-6.77 0-2.68.46-4.96 1.36-6.84.91-1.87 2.18-3.3 3.82-4.28q2.475-1.47 5.76-1.47m0 3.83c-1.6 0-2.89.52-3.89 1.56-.98 1.03-1.55 2.56-1.74 4.56h10.91c-.01-1.2-.22-2.26-.61-3.18-.36-.92-.94-1.64-1.73-2.16q-1.14-.78-2.94-.78m28.14-3.83c.39 0 .83.02 1.31.06.48.05.89.1 1.24.18l-.48 4.76c-.3-.09-.69-.16-1.13-.2-.42-.04-.81-.06-1.16-.06q-1.365 0-2.61.45c-.81.29-1.55.74-2.17 1.34-.65.59-1.13 1.34-1.5 2.23-.37.9-.53 1.93-.53 3.12v12.52h-5.12v-23.95h3.99l.68 4.22h.24c.48-.85 1.07-1.63 1.77-2.33.72-.71 1.52-1.27 2.42-1.69.93-.44 1.94-.65 3.05-.65m28.17 12.37c0 1.99-.26 3.76-.78 5.3-.51 1.55-1.27 2.85-2.27 3.92a9.8 9.8 0 0 1-3.58 2.42c-1.4.55-2.99.82-4.74.82-1.65 0-3.16-.27-4.52-.82-1.37-.56-2.57-1.37-3.57-2.42-.99-1.07-1.77-2.37-2.32-3.92-.54-1.54-.82-3.31-.82-5.3 0-2.64.45-4.87 1.37-6.7.92-1.85 2.23-3.26 3.93-4.22 1.7-.97 3.73-1.45 6.08-1.45 2.21 0 4.15.48 5.85 1.45 1.68.96 3.01 2.37 3.95 4.22.96 1.84 1.42 4.08 1.42 6.7m-17.37 0c0 1.75.22 3.24.63 4.48.44 1.24 1.1 2.19 1.99 2.86.9.65 2.05.97 3.47.97 1.4 0 2.57-.32 3.45-.97.91-.67 1.55-1.62 1.98-2.86.42-1.24.63-2.73.63-4.48 0-1.74-.21-3.22-.63-4.43-.43-1.23-1.07-2.16-1.98-2.79-.88-.65-2.05-.98-3.47-.98-2.1 0-3.65.71-4.61 2.12-.96 1.42-1.46 3.44-1.46 6.08m35.52-12.37c2.82 0 5.11 1.04 6.83 3.11 1.73 2.08 2.58 5.17 2.58 9.26 0 2.71-.39 5-1.2 6.86-.79 1.85-1.92 3.25-3.36 4.2-1.42.93-3.08 1.4-4.98 1.4-1.22 0-2.27-.15-3.18-.47-.88-.32-1.64-.73-2.29-1.23a9.8 9.8 0 0 1-1.6-1.69h-.3c.08.57.13 1.22.21 1.92.07.69.09 1.33.09 1.91v9.75h-5.1v-34.57h4.16l.72 3.31h.22c.46-.67.99-1.3 1.62-1.88a7.4 7.4 0 0 1 2.35-1.36c.92-.35 1.99-.52 3.23-.52m-1.37 4.15c-1.4 0-2.53.28-3.38.85-.83.54-1.46 1.37-1.84 2.48-.37 1.12-.58 2.51-.61 4.18v.71c0 1.78.18 3.29.55 4.53.37 1.22.98 2.16 1.83 2.81.87.63 2.05.95 3.51.95 1.23 0 2.27-.34 3.08-1.02.81-.67 1.42-1.64 1.83-2.9.4-1.25.61-2.73.61-4.43 0-2.58-.47-4.59-1.39-6.02-.9-1.42-2.31-2.14-4.19-2.14m32.77 13.42c0 1.57-.39 2.89-1.15 3.98-.75 1.08-1.88 1.9-3.36 2.46-1.45.55-3.23.82-5.35.82-1.68 0-3.12-.12-4.34-.36-1.2-.23-2.32-.59-3.39-1.09v-4.39c1.14.54 2.41 1 3.84 1.39 1.42.39 2.76.58 4.04.58 1.68 0 2.88-.26 3.62-.78.72-.53 1.09-1.24 1.09-2.12q0-.78-.45-1.38c-.29-.42-.85-.85-1.64-1.28-.79-.44-1.98-.98-3.51-1.6-1.51-.6-2.79-1.21-3.84-1.82-1.03-.6-1.81-1.33-2.34-2.18-.54-.87-.81-1.97-.81-3.31 0-2.12.85-3.73 2.51-4.82 1.7-1.12 3.91-1.67 6.68-1.67 1.48 0 2.86.15 4.15.45 1.33.29 2.61.72 3.86 1.28l-1.6 3.83a22.4 22.4 0 0 0-3.27-1.17c-1.07-.32-2.18-.48-3.31-.48-1.31 0-2.3.21-3.01.61-.68.4-1.01.98-1.01 1.73 0 .56.16 1.04.5 1.43q.495.585 1.71 1.17c.82.39 1.96.87 3.42 1.45 1.42.54 2.66 1.12 3.69 1.73 1.05.59 1.87 1.32 2.42 2.18.57.87.85 1.99.85 3.36m4.76 4.15c0-1.18.3-2.01.91-2.49.62-.49 1.36-.73 2.25-.73s1.62.24 2.25.73c.63.48.94 1.31.94 2.49 0 1.15-.31 1.99-.94 2.51-.63.5-1.36.76-2.25.76s-1.63-.26-2.25-.76c-.61-.52-.91-1.36-.91-2.51m17.98-21.27v23.95h-5.09v-23.95zm-2.51-9.17c.78 0 1.44.21 2.01.63q.87.63.87 2.16 0 1.515-.87 2.16c-.57.42-1.23.63-2.01.63-.81 0-1.49-.21-2.07-.63-.53-.43-.81-1.15-.81-2.16 0-1.02.28-1.74.81-2.16.58-.42 1.26-.63 2.07-.63m31 21.09c0 1.99-.26 3.76-.78 5.3-.51 1.55-1.27 2.85-2.27 3.92a9.9 9.9 0 0 1-3.6 2.42c-1.38.55-2.97.82-4.72.82-1.65 0-3.16-.27-4.53-.82-1.36-.56-2.56-1.37-3.58-2.42-.99-1.07-1.75-2.37-2.31-3.92-.55-1.54-.83-3.31-.83-5.3 0-2.64.47-4.87 1.37-6.7.92-1.85 2.23-3.26 3.95-4.22 1.7-.97 3.73-1.45 6.07-1.45 2.2 0 4.16.48 5.84 1.45 1.7.96 3.01 2.37 3.97 4.22.94 1.84 1.42 4.08 1.42 6.7m-17.37 0c0 1.75.2 3.24.62 4.48.45 1.24 1.09 2.19 2 2.86.88.65 2.05.97 3.45.97 1.42 0 2.57-.32 3.47-.97.89-.67 1.55-1.62 1.98-2.86.4-1.24.62-2.73.62-4.48 0-1.74-.22-3.22-.62-4.43q-.645-1.845-1.98-2.79c-.9-.65-2.05-.98-3.49-.98-2.1 0-3.64.71-4.6 2.12-.97 1.42-1.45 3.44-1.45 6.08"/><path fill="#323232" d="m623.234 331.294-177.886 67.988a41.39 41.39 0 0 0-26.284 38.6v171.159l81.75-46.981v-96.239l137.012-52.567v-84.649a41.5 41.5 0 0 0-14.592 2.689M502.263 714.593l135.563-78.128v-94.376L428.377 662.853a18.84 18.84 0 0 0-9.314 16.144v63.227a41.39 41.39 0 0 0 26.285 38.184l177.886 67.988a41.3 41.3 0 0 0 14.592 2.69v-84.647z"/><path fill="#1A1A1A" d="M847.894 515.182a17.28 17.28 0 0 0 8.693-15.212v-62.088a41.4 41.4 0 0 0-7.179-23.36 41.43 41.43 0 0 0-19.105-15.24l-177.99-67.988a41.4 41.4 0 0 0-14.488-2.689v84.649l134.527 51.74-134.527 77.508v94.376zM652.313 848.396l177.99-67.988a41.4 41.4 0 0 0 18.989-15.067 41.4 41.4 0 0 0 7.295-23.117V569.306l-81.752 47.186v97.584l-137.01 52.363v84.647a41.4 41.4 0 0 0 14.488-2.69"/><path fill="#939393" d="m1236.88 545.618-11.15-11.156-44.23 44.227-44.23-44.227-11.15 11.156 44.22 44.227-44.22 44.227 11.15 11.156 44.23-44.227 44.23 44.227 11.15-11.156-44.22-44.227z"/><path fill="url(#b)" stroke="#F2F2F2" stroke-linecap="round" stroke-opacity=".51" stroke-width="200" d="M1902.49 503.372c55.45 126.767 55.45 206.252 0 238.435-83.19 48.273-299.97 62.991-362.37-11.217-41.6-49.471-41.6-125.218 0-227.218q63.45-104.51 180.36-104.51c77.95 0 138.61 34.836 182.01 104.51Z"/></g><defs><linearGradient id="b" x1="1664.31" x2="1875.07" y1="529.719" y2="731.468" gradientUnits="userSpaceOnUse"><stop stop-color="#5CDD8B"/><stop offset="1" stop-color="#86E6A9"/></linearGradient><clipPath id="a"><path fill="#fff" d="M0 0h2363v1181.5H0z"/></clipPath></defs></svg>