<svg xmlns="http://www.w3.org/2000/svg" width="1280" height="640" fill="none"><path fill="#EDEFF3" d="M0 0h1280v640H0z"/><path fill="#1A1A1A" d="M1139.65 596h-9.85v-1.699l6.55-9.153h-6.15v-2.121h9.26v1.875l-6.42 8.977h6.61zm7.97-13.219c1.16 0 2.15.239 2.98.715.83.477 1.46 1.152 1.91 2.027.44.875.67 1.922.67 3.141v1.477h-8.66c.03 1.257.36 2.226 1 2.906.65.68 1.56 1.019 2.72 1.019.83 0 1.57-.078 2.23-.234.66-.164 1.35-.402 2.05-.715v2.238q-.975.458-1.98.668c-.67.141-1.48.211-2.42.211q-1.905 0-3.36-.738c-.96-.5-1.71-1.242-2.26-2.226q-.81-1.478-.81-3.668c0-1.454.25-2.688.74-3.704q.735-1.523 2.07-2.32t3.12-.797m0 2.074c-.87 0-1.57.282-2.11.844-.53.563-.84 1.387-.94 2.473h5.91q-.015-.973-.33-1.723c-.2-.5-.51-.89-.94-1.172q-.615-.422-1.59-.422m15.24-2.074c.21 0 .45.012.71.035s.48.055.67.094l-.26 2.578a3.4 3.4 0 0 0-.61-.105 6 6 0 0 0-.63-.035q-.735 0-1.41.246c-.44.156-.84.398-1.18.726-.35.321-.61.723-.81 1.207s-.29 1.047-.29 1.688V596h-2.77v-12.973h2.16l.37 2.285h.13q.39-.69.96-1.265c.39-.383.82-.688 1.31-.914a3.8 3.8 0 0 1 1.65-.352m15.26 6.703q0 1.618-.42 2.871-.42 1.254-1.23 2.122a5.4 5.4 0 0 1-1.94 1.312c-.76.297-1.62.445-2.57.445-.89 0-1.71-.148-2.45-.445a5.5 5.5 0 0 1-1.93-1.312q-.81-.868-1.26-2.122c-.29-.835-.44-1.793-.44-2.871 0-1.429.24-2.64.74-3.632q.75-1.5 2.13-2.286c.92-.523 2.02-.785 3.29-.785 1.2 0 2.25.262 3.17.785.91.524 1.63 1.286 2.14 2.286.52 1 .77 2.21.77 3.632m-9.41 0c0 .946.12 1.754.34 2.426q.36 1.008 1.08 1.547c.49.352 1.11.527 1.88.527.76 0 1.39-.175 1.87-.527.49-.359.84-.875 1.07-1.547s.34-1.48.34-2.426c0-.945-.11-1.746-.34-2.402-.23-.664-.58-1.168-1.07-1.512-.48-.351-1.11-.527-1.88-.527-1.14 0-1.98.383-2.5 1.148-.52.766-.79 1.864-.79 3.293m19.24-6.703c1.53 0 2.77.563 3.7 1.688.94 1.125 1.4 2.797 1.4 5.015 0 1.469-.21 2.707-.65 3.715-.43 1-1.04 1.758-1.82 2.274q-1.155.76-2.7.761c-.66 0-1.23-.086-1.72-.257a4.4 4.4 0 0 1-1.24-.668 5 5 0 0 1-.87-.914h-.16c.04.312.07.66.11 1.043.04.374.05.718.05 1.031v5.285h-2.76v-18.727h2.25l.39 1.793h.12c.25-.367.54-.707.88-1.019.36-.313.78-.559 1.27-.739.5-.187 1.08-.281 1.75-.281m-.74 2.25q-1.14 0-1.83.457c-.45.297-.79.746-1 1.348q-.3.902-.33 2.262v.386q0 1.442.3 2.45.3.995.99 1.523c.47.344 1.11.516 1.9.516.67 0 1.23-.184 1.67-.551q.66-.551.99-1.57t.33-2.403q0-2.097-.75-3.258c-.49-.773-1.25-1.16-2.27-1.16m17.75 7.266c0 .851-.21 1.57-.62 2.156s-1.02 1.031-1.82 1.336c-.79.297-1.75.445-2.9.445-.91 0-1.69-.066-2.35-.199a8 8 0 0 1-1.84-.586v-2.379c.62.289 1.31.539 2.08.75q1.155.317 2.19.317c.91 0 1.56-.141 1.96-.422.39-.289.59-.672.59-1.149q0-.421-.24-.75c-.16-.226-.46-.457-.89-.691-.43-.242-1.07-.531-1.9-.867-.82-.328-1.51-.656-2.08-.985-.56-.328-.98-.722-1.27-1.183-.29-.469-.44-1.067-.44-1.793 0-1.149.46-2.02 1.36-2.613.92-.602 2.12-.903 3.62-.903q1.2 0 2.25.246c.72.157 1.41.387 2.09.692l-.87 2.074q-.87-.387-1.77-.633a6.3 6.3 0 0 0-1.79-.258c-.71 0-1.25.11-1.63.328-.37.219-.55.532-.55.938q0 .457.27.773.27.317.93.633c.44.211 1.06.473 1.85.785.77.297 1.44.61 2 .938.57.32 1.01.715 1.31 1.183.31.469.46 1.075.46 1.817m2.58 2.25c0-.641.16-1.09.49-1.348.34-.265.74-.398 1.22-.398s.88.133 1.22.398q.51.387.51 1.348 0 .938-.51 1.359c-.34.274-.74.41-1.22.41s-.88-.136-1.22-.41c-.33-.281-.49-.734-.49-1.359m9.74-11.52V596h-2.76v-12.973zm-1.36-4.968c.42 0 .78.113 1.09.339s.47.618.47 1.172c0 .547-.16.938-.47 1.172-.31.227-.67.34-1.09.34-.44 0-.81-.113-1.12-.34-.29-.234-.44-.625-.44-1.172 0-.554.15-.945.44-1.172.31-.226.68-.339 1.12-.339m16.79 11.425q0 1.618-.42 2.871-.42 1.254-1.23 2.122a5.4 5.4 0 0 1-1.95 1.312c-.75.297-1.61.445-2.56.445-.89 0-1.71-.148-2.45-.445a5.7 5.7 0 0 1-1.94-1.312c-.54-.579-.95-1.286-1.25-2.122q-.45-1.253-.45-2.871c0-1.429.25-2.64.74-3.632.5-1 1.21-1.762 2.14-2.286.92-.523 2.02-.785 3.29-.785 1.19 0 2.25.262 3.16.785.92.524 1.63 1.286 2.15 2.286.51 1 .77 2.21.77 3.632m-9.41 0c0 .946.11 1.754.34 2.426.24.672.59 1.188 1.08 1.547.48.352 1.11.527 1.87.527.77 0 1.39-.175 1.88-.527.48-.359.84-.875 1.07-1.547.22-.672.34-1.48.34-2.426 0-.945-.12-1.746-.34-2.402-.23-.664-.59-1.168-1.07-1.512-.49-.351-1.11-.527-1.89-.527q-1.71 0-2.49 1.148c-.53.766-.79 1.864-.79 3.293"/><path fill="#323232" d="m337.596 179.457-96.358 36.828A22.43 22.43 0 0 0 227 237.194v92.714l44.283-25.449v-52.131l74.217-28.475V178c-2.701.006-5.379.5-7.904 1.457M272.068 387.085l73.432-42.322v-51.121l-113.455 65.415a10.21 10.21 0 0 0-5.045 8.745v34.249a22.4 22.4 0 0 0 3.952 12.522 22.4 22.4 0 0 0 10.286 8.162l96.358 36.828a22.4 22.4 0 0 0 7.904 1.458v-45.853z"/><path fill="#1A1A1A" d="M459.291 279.066a9.36 9.36 0 0 0 4.709-8.24v-33.632a22.43 22.43 0 0 0-14.238-20.909l-96.414-36.828A22.4 22.4 0 0 0 345.5 178v45.853l72.871 28.027-72.871 41.985v51.122zM353.348 459.563l96.414-36.828A22.43 22.43 0 0 0 464 402.051v-93.667l-44.284 25.561v52.859L345.5 415.168v45.853a22.4 22.4 0 0 0 7.848-1.458"/><path fill="#939393" d="m670 295.553-6.043-6.043L640 313.467l-23.957-23.957-6.043 6.043 23.957 23.957L610 343.467l6.043 6.043L640 325.553l23.957 23.957 6.043-6.043-23.957-23.957z"/><path fill="#fff" fill-rule="evenodd" d="M920.048 195.072c-9.634 4.844-29.944 14.275-40.946 21.799s-9.634 14.533-14.451 19.377c-4.818 4.845-19.269 16.956-28.904 24.222-9.634 7.267-7.226 26.644-9.634 33.91-2.409 7.267-7.226 24.222-9.635 31.488-2.408 7.267 4.818 16.955 9.635 26.644s16.86 36.332 21.677 46.021 19.269 4.844 31.312 14.533 28.903 21.799 40.946 29.066 16.861 7.266 28.904 0c12.043-7.267 28.903-19.377 40.946-29.066s26.492-4.844 31.312-14.533 16.86-36.332 21.68-46.021c4.81-9.689 12.04-19.377 9.63-26.644s-7.22-24.221-9.63-31.488 0-26.643-9.64-33.91c-9.63-7.266-20.82-16.519-28.9-24.222-8.086-7.702-4.818-12.11-14.452-19.377s-31.312-16.955-40.946-21.799q-14.452-7.267-28.904 0" clip-rule="evenodd"/><path fill="#BF4722" fill-rule="evenodd" d="m886.03 237.097 45.079 30.771a6.4 6.4 0 0 0 3.426 1.069 6.17 6.17 0 0 0 3.425-1.069l45.114-30.875a6.16 6.16 0 0 0 2.544-5.506 6.14 6.14 0 0 0-3.4-5.015l-45.08-22.319a6.2 6.2 0 0 0-5.412 0l-44.943 22.319a6.14 6.14 0 0 0-3.432 5.092 6.16 6.16 0 0 0 2.679 5.533m63.817 40.43a6.22 6.22 0 0 0 2.672 5.105l36.138 24.7a6.066 6.066 0 0 0 7.502-.483l30.321-27.115a6.13 6.13 0 0 0 2.04-4.773 6.14 6.14 0 0 0-2.32-4.644l-28.944-23.147a6.13 6.13 0 0 0-7.263-.276l-37.474 25.631a6.22 6.22 0 0 0-2.672 5.002m-89.885 33.599a6.2 6.2 0 0 1 2.021 5.209 6.04 6.04 0 0 1-3.049 4.692l-21.581 12.936a6.1 6.1 0 0 1-6.942-.474 6.2 6.2 0 0 1-2.032-6.701l7.981-25.114a6.12 6.12 0 0 1 4.213-4.07 5.93 5.93 0 0 1 5.687 1.345zm117.049 2.622-39.016-26.7a6.13 6.13 0 0 0-6.852 0l-39.016 26.7a6.25 6.25 0 0 0-2.672 4.692 6.37 6.37 0 0 0 2.055 5.036l38.982 34.876a6.1 6.1 0 0 0 4.077 1.553 6.14 6.14 0 0 0 4.076-1.553l38.982-34.876a6.23 6.23 0 0 0 2.022-5.036 6.12 6.12 0 0 0-2.638-4.692m-104.067-6.899-30.281-27.115a6.3 6.3 0 0 1-2.055-4.864 6.08 6.08 0 0 1 2.295-4.656l28.945-23.286a6.2 6.2 0 0 1 7.296-.276l37.441 25.631a6.19 6.19 0 0 1 2.786 5.175 6.18 6.18 0 0 1-2.786 5.174l-36.105 24.7a6.13 6.13 0 0 1-7.536-.483m155.486 38.946-30.832-18.455a6.06 6.06 0 0 0-7.193.69l-37.681 33.634a6.2 6.2 0 0 0-1.973 5.674 6.17 6.17 0 0 0 3.754 4.675l52.275 21.181c.72.297 1.48.45 2.26.448a6.13 6.13 0 0 0 5.62-3.656l16.2-36.291c1.32-2.872.27-6.283-2.43-7.9m4.28-44.121 7.98 25.114h-.07a6.2 6.2 0 0 1-.9 5.516 6.13 6.13 0 0 1-4.96 2.522 6 6 0 0 1-3.11-.863l-21.62-12.936a6 6 0 0 1-2.94-4.692 6.1 6.1 0 0 1 2.02-5.209l13.7-12.211a6.11 6.11 0 0 1 5.69-1.346 6.23 6.23 0 0 1 4.21 4.105m-114.344 65.647a6.16 6.16 0 0 0-1.952-5.657l-37.68-33.634a6.065 6.065 0 0 0-7.194-.69l-30.83 18.455c-2.669 1.624-3.725 4.992-2.466 7.866l16.237 36.29c1.345 3.026 4.823 4.442 7.878 3.208l52.239-21.181a6.16 6.16 0 0 0 3.768-4.657m18.498 10.349 41.928 16.973a6.17 6.17 0 0 1 3.7 5.036 6.12 6.12 0 0 1-2.604 5.761l-41.962 29.15a6.07 6.07 0 0 1-3.426 1.103 6.17 6.17 0 0 1-3.425-1.103l-41.928-29.15a6.16 6.16 0 0 1-2.638-5.761 6.27 6.27 0 0 1 3.837-5.036l41.928-16.973a6.2 6.2 0 0 1 4.59 0" clip-rule="evenodd"/></svg>