<svg width="1280" height="640" fill="none" xmlns="http://www.w3.org/2000/svg"><path fill="#EDEFF3" d="M0 0h1280v640H0z"/><path d="M1139.65 596h-9.85v-1.699l6.55-9.153h-6.15v-2.121h9.26v1.875l-6.42 8.977h6.61V596Zm7.97-13.219c1.16 0 2.15.239 2.98.715.83.477 1.46 1.152 1.91 2.027.44.875.67 1.922.67 3.141v1.477h-8.66c.03 1.257.36 2.226 1 2.906.65.68 1.56 1.019 2.72 1.019.83 0 1.57-.078 2.23-.234.66-.164 1.35-.402 2.05-.715v2.238c-.65.305-1.31.528-1.98.668-.67.141-1.48.211-2.42.211-1.27 0-2.39-.246-3.36-.738-.96-.5-1.71-1.242-2.26-2.226-.54-.985-.81-2.208-.81-3.668 0-1.454.25-2.688.74-3.704.49-1.015 1.18-1.789 2.07-2.32.89-.531 1.93-.797 3.12-.797Zm0 2.074c-.87 0-1.57.282-2.11.844-.53.563-.84 1.387-.94 2.473h5.91c-.01-.649-.12-1.223-.33-1.723-.2-.5-.51-.89-.94-1.172-.41-.281-.94-.422-1.59-.422Zm15.24-2.074c.21 0 .45.012.71.035.26.024.48.055.67.094l-.26 2.578a3.41 3.41 0 0 0-.61-.105 6.093 6.093 0 0 0-.63-.035c-.49 0-.96.082-1.41.246-.44.156-.84.398-1.18.726-.35.321-.61.723-.81 1.207-.2.485-.29 1.047-.29 1.688V596h-2.77v-12.973h2.16l.37 2.285h.13c.26-.46.58-.882.96-1.265.39-.383.82-.688 1.31-.914a3.83 3.83 0 0 1 1.65-.352Zm15.26 6.703c0 1.078-.14 2.036-.42 2.871-.28.836-.69 1.543-1.23 2.122a5.398 5.398 0 0 1-1.94 1.312c-.76.297-1.62.445-2.57.445-.89 0-1.71-.148-2.45-.445a5.537 5.537 0 0 1-1.93-1.312c-.54-.579-.96-1.286-1.26-2.122-.29-.835-.44-1.793-.44-2.871 0-1.429.24-2.64.74-3.632.5-1 1.21-1.762 2.13-2.286.92-.523 2.02-.785 3.29-.785 1.2 0 2.25.262 3.17.785.91.524 1.63 1.286 2.14 2.286.52 1 .77 2.21.77 3.632Zm-9.41 0c0 .946.12 1.754.34 2.426.24.672.6 1.188 1.08 1.547.49.352 1.11.527 1.88.527.76 0 1.39-.175 1.87-.527.49-.359.84-.875 1.07-1.547.23-.672.34-1.48.34-2.426 0-.945-.11-1.746-.34-2.402-.23-.664-.58-1.168-1.07-1.512-.48-.351-1.11-.527-1.88-.527-1.14 0-1.98.383-2.5 1.148-.52.766-.79 1.864-.79 3.293Zm19.24-6.703c1.53 0 2.77.563 3.7 1.688.94 1.125 1.4 2.797 1.4 5.015 0 1.469-.21 2.707-.65 3.715-.43 1-1.04 1.758-1.82 2.274-.77.507-1.67.761-2.7.761-.66 0-1.23-.086-1.72-.257a4.414 4.414 0 0 1-1.24-.668 5.114 5.114 0 0 1-.87-.914h-.16c.04.312.07.66.11 1.043.04.374.05.718.05 1.031v5.285h-2.76v-18.727h2.25l.39 1.793h.12c.25-.367.54-.707.88-1.019.36-.313.78-.559 1.27-.739.5-.187 1.08-.281 1.75-.281Zm-.74 2.25c-.76 0-1.37.153-1.83.457-.45.297-.79.746-1 1.348-.2.602-.31 1.355-.33 2.262v.386c0 .961.1 1.778.3 2.45.2.664.53 1.171.99 1.523.47.344 1.11.516 1.9.516.67 0 1.23-.184 1.67-.551.44-.367.77-.891.99-1.57.22-.68.33-1.481.33-2.403 0-1.398-.25-2.484-.75-3.258-.49-.773-1.25-1.16-2.27-1.16Zm17.75 7.266c0 .851-.21 1.57-.62 2.156-.41.586-1.02 1.031-1.82 1.336-.79.297-1.75.445-2.9.445-.91 0-1.69-.066-2.35-.199a8.017 8.017 0 0 1-1.84-.586v-2.379c.62.289 1.31.539 2.08.75.77.211 1.5.317 2.19.317.91 0 1.56-.141 1.96-.422.39-.289.59-.672.59-1.149 0-.281-.08-.531-.24-.75-.16-.226-.46-.457-.89-.691-.43-.242-1.07-.531-1.9-.867-.82-.328-1.51-.656-2.08-.985-.56-.328-.98-.722-1.27-1.183-.29-.469-.44-1.067-.44-1.793 0-1.149.46-2.02 1.36-2.613.92-.602 2.12-.903 3.62-.903.8 0 1.55.082 2.25.246.72.157 1.41.387 2.09.692l-.87 2.074c-.58-.258-1.17-.469-1.77-.633a6.28 6.28 0 0 0-1.79-.258c-.71 0-1.25.11-1.63.328-.37.219-.55.532-.55.938 0 .305.09.562.27.773.18.211.49.422.93.633.44.211 1.06.473 1.85.785.77.297 1.44.61 2 .938.57.32 1.01.715 1.31 1.183.31.469.46 1.075.46 1.817Zm2.58 2.25c0-.641.16-1.09.49-1.348.34-.265.74-.398 1.22-.398s.88.133 1.22.398c.34.258.51.707.51 1.348 0 .625-.17 1.078-.51 1.359-.34.274-.74.41-1.22.41s-.88-.136-1.22-.41c-.33-.281-.49-.734-.49-1.359Zm9.74-11.52V596h-2.76v-12.973h2.76Zm-1.36-4.968c.42 0 .78.113 1.09.339.31.227.47.618.47 1.172 0 .547-.16.938-.47 1.172-.31.227-.67.34-1.09.34-.44 0-.81-.113-1.12-.34-.29-.234-.44-.625-.44-1.172 0-.554.15-.945.44-1.172.31-.226.68-.339 1.12-.339Zm16.79 11.425c0 1.078-.14 2.036-.42 2.871-.28.836-.69 1.543-1.23 2.122a5.437 5.437 0 0 1-1.95 1.312c-.75.297-1.61.445-2.56.445-.89 0-1.71-.148-2.45-.445a5.67 5.67 0 0 1-1.94-1.312c-.54-.579-.95-1.286-1.25-2.122-.3-.835-.45-1.793-.45-2.871 0-1.429.25-2.64.74-3.632.5-1 1.21-1.762 2.14-2.286.92-.523 2.02-.785 3.29-.785 1.19 0 2.25.262 3.16.785.92.524 1.63 1.286 2.15 2.286.51 1 .77 2.21.77 3.632Zm-9.41 0c0 .946.11 1.754.34 2.426.24.672.59 1.188 1.08 1.547.48.352 1.11.527 1.87.527.77 0 1.39-.175 1.88-.527.48-.359.84-.875 1.07-1.547.22-.672.34-1.48.34-2.426 0-.945-.12-1.746-.34-2.402-.23-.664-.59-1.168-1.07-1.512-.49-.351-1.11-.527-1.89-.527-1.14 0-1.97.383-2.49 1.148-.53.766-.79 1.864-.79 3.293Z" fill="#1A1A1A"/><path d="m337.596 179.457-96.358 36.828A22.427 22.427 0 0 0 227 237.194v92.714l44.283-25.449v-52.131l74.217-28.475V178c-2.701.006-5.379.5-7.904 1.457ZM272.068 387.084l73.432-42.321v-51.122l-113.455 65.416a10.205 10.205 0 0 0-5.045 8.745v34.249a22.421 22.421 0 0 0 14.238 20.684l96.358 36.828a22.4 22.4 0 0 0 7.904 1.457v-45.852l-73.432-28.084Z" fill="#323232"/><path d="M459.291 279.066a9.36 9.36 0 0 0 4.708-8.24v-33.632a22.427 22.427 0 0 0-14.238-20.909l-96.414-36.828A22.431 22.431 0 0 0 345.5 178v45.853l72.871 28.027-72.871 41.985v51.122l113.791-65.921ZM353.347 459.563l96.414-36.828a22.424 22.424 0 0 0 14.238-20.684v-93.667l-44.283 25.56v52.86L345.5 415.168v45.852a22.408 22.408 0 0 0 7.847-1.457Z" fill="#1A1A1A"/><path d="m670 295.553-6.043-6.043L640 313.467l-23.957-23.957-6.043 6.043 23.957 23.957L610 343.467l6.043 6.043L640 325.553l23.957 23.957 6.043-6.043-23.957-23.957L670 295.553Z" fill="#939393"/><path d="M910.803 220.564c3.162-8.961 14.919-11.034 20.955-3.695l31.64 38.468a21.218 21.218 0 0 0 15.872 7.73l49.84 1.213c9.51.231 15.1 10.752 9.98 18.75l-26.86 41.958a21.156 21.156 0 0 0-2.46 17.476l14.22 47.718c2.71 9.092-5.57 17.678-14.78 15.283l-48.246-12.534a21.207 21.207 0 0 0-9.028-.36c-3 .528-5.852 1.696-8.36 3.426l-41.045 28.279c-7.841 5.4-18.558.165-19.121-9.306l-2.953-49.706a21.183 21.183 0 0 0-8.29-15.579l-39.594-30.241c-7.546-5.764-5.893-17.562 2.969-21.034l46.416-18.184a21.215 21.215 0 0 0 12.27-12.693l16.575-46.969Z" fill="#FFAFF3"/><path d="M919.459 208.316c-5.623.992-10.762 4.725-12.89 10.754l-16.577 46.968a16.709 16.709 0 0 1-9.667 9.998l-46.418 18.186c-11.912 4.667-14.215 21.05-4.061 28.806l39.594 30.238a16.662 16.662 0 0 1 6.528 12.266l2.951 49.705c.757 12.752 15.631 20.006 26.171 12.746v-.001l41.048-28.279v-.001a16.707 16.707 0 0 1 13.7-2.415l48.242 12.532c12.39 3.219 23.88-8.686 20.23-20.929v.001l-14.22-47.717a16.673 16.673 0 0 1-.53-7.092 16.653 16.653 0 0 1 2.47-6.668v-.001l26.87-41.959-.01-.001c6.89-10.761-.87-25.368-13.66-25.679l-49.84-1.21a16.7 16.7 0 0 1-12.501-6.088l-31.64-38.467c-4.061-4.937-10.168-6.687-15.791-5.695m1.513 8.584c2.556-.45 5.346.432 7.321 2.834l31.64 38.465a25.728 25.728 0 0 0 19.239 9.371l49.839 1.211c6.24.151 9.65 6.585 6.3 11.818l-26.86 41.96a25.703 25.703 0 0 0-2.99 21.189l14.22 47.717c1.77 5.942-3.29 11.208-9.33 9.638l-48.248-12.533a25.74 25.74 0 0 0-21.076 3.718l-41.048 28.279c-5.143 3.543-11.702.326-12.07-5.863l-2.951-49.705a25.694 25.694 0 0 0-10.052-18.891l-39.593-30.238c-4.939-3.772-3.935-10.983 1.878-13.261l46.418-18.186a25.734 25.734 0 0 0 14.876-15.388l16.577-46.968c1.035-2.932 3.355-4.716 5.91-5.167" fill="#1A1A1A"/><path d="M905.016 334.831a8.847 8.847 0 1 0-3.07-17.42 8.847 8.847 0 0 0 3.07 17.42ZM976.293 322.263a8.845 8.845 0 0 0 7.175-10.248c-.847-4.811-5.435-8.023-10.248-7.175a8.846 8.846 0 1 0 3.073 17.423ZM933.328 332.86a4.51 4.51 0 0 0-2.496 2.377 4.512 4.512 0 0 0-.085 3.446 11.777 11.777 0 0 0 2.454 3.87 11.703 11.703 0 0 0 3.748 2.635l.001.002c1.408.623 2.926.963 4.467 1h.004a11.76 11.76 0 0 0 4.51-.785h.001a11.728 11.728 0 0 0 3.869-2.453h.001v-.001a11.74 11.74 0 0 0 3.637-8.219 4.507 4.507 0 0 0-1.243-3.214 4.508 4.508 0 0 0-6.368-.149 4.47 4.47 0 0 0-1.01 1.438 4.486 4.486 0 0 0-.383 1.715 2.725 2.725 0 0 1-.233 1.036v.001l-.001.002a2.746 2.746 0 0 1-1.512 1.441l-.003.001c-.335.13-.692.192-1.051.184a2.737 2.737 0 0 1-1.039-.234h-.003l-.001-.002a2.742 2.742 0 0 1-.87-.611v-.001a2.729 2.729 0 0 1-.571-.901 4.505 4.505 0 0 0-4.093-2.88 4.488 4.488 0 0 0-1.73.302Z" fill="#1A1A1A"/></svg>
