<svg width="1280" height="640" fill="none" xmlns="http://www.w3.org/2000/svg"><path fill="#EDEFF3" d="M0 0h1280v640H0z"/><path d="M1139.65 596h-9.85v-1.699l6.55-9.153h-6.15v-2.121h9.26v1.875l-6.42 8.977h6.61V596Zm7.97-13.219c1.16 0 2.15.239 2.98.715.83.477 1.46 1.152 1.91 2.027.44.875.67 1.922.67 3.141v1.477h-8.66c.03 1.257.36 2.226 1 2.906.65.68 1.56 1.019 2.72 1.019.83 0 1.57-.078 2.23-.234.66-.164 1.35-.402 2.05-.715v2.238c-.65.305-1.31.528-1.98.668-.67.141-1.48.211-2.42.211-1.27 0-2.39-.246-3.36-.738-.96-.5-1.71-1.242-2.26-2.226-.54-.985-.81-2.208-.81-3.668 0-1.454.25-2.688.74-3.704.49-1.015 1.18-1.789 2.07-2.32.89-.531 1.93-.797 3.12-.797Zm0 2.074c-.87 0-1.57.282-2.11.844-.53.563-.84 1.387-.94 2.473h5.91c-.01-.649-.12-1.223-.33-1.723-.2-.5-.51-.89-.94-1.172-.41-.281-.94-.422-1.59-.422Zm15.24-2.074c.21 0 .45.012.71.035.26.024.48.055.67.094l-.26 2.578a3.41 3.41 0 0 0-.61-.105 6.093 6.093 0 0 0-.63-.035c-.49 0-.96.082-1.41.246-.44.156-.84.398-1.18.726-.35.321-.61.723-.81 1.207-.2.485-.29 1.047-.29 1.688V596h-2.77v-12.973h2.16l.37 2.285h.13c.26-.46.58-.882.96-1.265.39-.383.82-.688 1.31-.914a3.83 3.83 0 0 1 1.65-.352Zm15.26 6.703c0 1.078-.14 2.036-.42 2.871-.28.836-.69 1.543-1.23 2.122a5.398 5.398 0 0 1-1.94 1.312c-.76.297-1.62.445-2.57.445-.89 0-1.71-.148-2.45-.445a5.537 5.537 0 0 1-1.93-1.312c-.54-.579-.96-1.286-1.26-2.122-.29-.835-.44-1.793-.44-2.871 0-1.429.24-2.64.74-3.632.5-1 1.21-1.762 2.13-2.286.92-.523 2.02-.785 3.29-.785 1.2 0 2.25.262 3.17.785.91.524 1.63 1.286 2.14 2.286.52 1 .77 2.21.77 3.632Zm-9.41 0c0 .946.12 1.754.34 2.426.24.672.6 1.188 1.08 1.547.49.352 1.11.527 1.88.527.76 0 1.39-.175 1.87-.527.49-.359.84-.875 1.07-1.547.23-.672.34-1.48.34-2.426 0-.945-.11-1.746-.34-2.402-.23-.664-.58-1.168-1.07-1.512-.48-.351-1.11-.527-1.88-.527-1.14 0-1.98.383-2.5 1.148-.52.766-.79 1.864-.79 3.293Zm19.24-6.703c1.53 0 2.77.563 3.7 1.688.94 1.125 1.4 2.797 1.4 5.015 0 1.469-.21 2.707-.65 3.715-.43 1-1.04 1.758-1.82 2.274-.77.507-1.67.761-2.7.761-.66 0-1.23-.086-1.72-.257a4.414 4.414 0 0 1-1.24-.668 5.114 5.114 0 0 1-.87-.914h-.16c.04.312.07.66.11 1.043.04.374.05.718.05 1.031v5.285h-2.76v-18.727h2.25l.39 1.793h.12c.25-.367.54-.707.88-1.019.36-.313.78-.559 1.27-.739.5-.187 1.08-.281 1.75-.281Zm-.74 2.25c-.76 0-1.37.153-1.83.457-.45.297-.79.746-1 1.348-.2.602-.31 1.355-.33 2.262v.386c0 .961.1 1.778.3 2.45.2.664.53 1.171.99 1.523.47.344 1.11.516 1.9.516.67 0 1.23-.184 1.67-.551.44-.367.77-.891.99-1.57.22-.68.33-1.481.33-2.403 0-1.398-.25-2.484-.75-3.258-.49-.773-1.25-1.16-2.27-1.16Zm17.75 7.266c0 .851-.21 1.57-.62 2.156-.41.586-1.02 1.031-1.82 1.336-.79.297-1.75.445-2.9.445-.91 0-1.69-.066-2.35-.199a8.017 8.017 0 0 1-1.84-.586v-2.379c.62.289 1.31.539 2.08.75.77.211 1.5.317 2.19.317.91 0 1.56-.141 1.96-.422.39-.289.59-.672.59-1.149 0-.281-.08-.531-.24-.75-.16-.226-.46-.457-.89-.691-.43-.242-1.07-.531-1.9-.867-.82-.328-1.51-.656-2.08-.985-.56-.328-.98-.722-1.27-1.183-.29-.469-.44-1.067-.44-1.793 0-1.149.46-2.02 1.36-2.613.92-.602 2.12-.903 3.62-.903.8 0 1.55.082 2.25.246.72.157 1.41.387 2.09.692l-.87 2.074c-.58-.258-1.17-.469-1.77-.633a6.28 6.28 0 0 0-1.79-.258c-.71 0-1.25.11-1.63.328-.37.219-.55.532-.55.938 0 .305.09.562.27.773.18.211.49.422.93.633.44.211 1.06.473 1.85.785.77.297 1.44.61 2 .938.57.32 1.01.715 1.31 1.183.31.469.46 1.075.46 1.817Zm2.58 2.25c0-.641.16-1.09.49-1.348.34-.265.74-.398 1.22-.398s.88.133 1.22.398c.34.258.51.707.51 1.348 0 .625-.17 1.078-.51 1.359-.34.274-.74.41-1.22.41s-.88-.136-1.22-.41c-.33-.281-.49-.734-.49-1.359Zm9.74-11.52V596h-2.76v-12.973h2.76Zm-1.36-4.968c.42 0 .78.113 1.09.339.31.227.47.618.47 1.172 0 .547-.16.938-.47 1.172-.31.227-.67.34-1.09.34-.44 0-.81-.113-1.12-.34-.29-.234-.44-.625-.44-1.172 0-.554.15-.945.44-1.172.31-.226.68-.339 1.12-.339Zm16.79 11.425c0 1.078-.14 2.036-.42 2.871-.28.836-.69 1.543-1.23 2.122a5.437 5.437 0 0 1-1.95 1.312c-.75.297-1.61.445-2.56.445-.89 0-1.71-.148-2.45-.445a5.67 5.67 0 0 1-1.94-1.312c-.54-.579-.95-1.286-1.25-2.122-.3-.835-.45-1.793-.45-2.871 0-1.429.25-2.64.74-3.632.5-1 1.21-1.762 2.14-2.286.92-.523 2.02-.785 3.29-.785 1.19 0 2.25.262 3.16.785.92.524 1.63 1.286 2.15 2.286.51 1 .77 2.21.77 3.632Zm-9.41 0c0 .946.11 1.754.34 2.426.24.672.59 1.188 1.08 1.547.48.352 1.11.527 1.87.527.77 0 1.39-.175 1.88-.527.48-.359.84-.875 1.07-1.547.22-.672.34-1.48.34-2.426 0-.945-.12-1.746-.34-2.402-.23-.664-.59-1.168-1.07-1.512-.49-.351-1.11-.527-1.89-.527-1.14 0-1.97.383-2.49 1.148-.53.766-.79 1.864-.79 3.293Z" fill="#1A1A1A"/><path d="m310.882 179.457-96.358 36.828a22.427 22.427 0 0 0-14.238 20.909v92.714l44.283-25.449v-52.131l74.216-28.475V178a22.44 22.44 0 0 0-7.903 1.457ZM245.354 387.084l73.431-42.321v-51.122l-113.454 65.416a10.195 10.195 0 0 0-5.045 8.745v34.249a22.416 22.416 0 0 0 14.238 20.684l96.358 36.828a22.394 22.394 0 0 0 7.903 1.457v-45.852l-73.431-28.084Z" fill="#323232"/><path d="M432.577 279.066a9.355 9.355 0 0 0 4.708-8.24v-33.632a22.42 22.42 0 0 0-14.238-20.909l-96.414-36.828a22.431 22.431 0 0 0-7.847-1.457v45.853l72.871 28.027-72.871 41.985v51.122l113.791-65.921ZM326.633 459.563l96.414-36.828a22.416 22.416 0 0 0 14.238-20.684v-93.667l-44.283 25.561v52.859l-74.216 28.364v45.852a22.408 22.408 0 0 0 7.847-1.457Z" fill="#1A1A1A"/><path d="m643.286 295.553-6.043-6.043-23.957 23.957-23.957-23.957-6.043 6.043 23.957 23.957-23.957 23.957 6.043 6.043 23.957-23.957 23.957 23.957 6.043-6.043-23.957-23.957 23.957-23.957Z" fill="#939393"/><path d="M1048.26 267.563a55.809 55.809 0 0 0-1.82-1.821c-.62-.583-1.21-1.239-1.83-1.822-.62-.583-1.2-1.238-1.82-1.821-.62-.583-1.2-1.239-1.82-1.822-.62-.582-1.2-1.238-1.82-1.821-.62-.583-1.2-1.239-1.82-1.821-.62-.583-1.2-1.239-1.82-1.822a96.364 96.364 0 0 1 28.81 67.247c0 60.362-61.27 109.468-136.606 109.468-42.184 0-79.924-15.409-105.023-39.561l1.821 1.821 1.822 1.822 1.821 1.821 1.821 1.821 1.822 1.822 1.821 1.821 1.822 1.822c25.063 25.172 63.64 41.383 106.845 41.383 75.334 0 136.604-49.106 136.604-109.286 0-25.719-11.07-50.089-30.63-69.251Z" fill="#000"/><path d="M1055.21 322.06c0 55.408-57.079 100.325-127.496 100.325-70.416 0-127.5-44.917-127.5-100.325 0-34.352 21.857-64.697 55.445-82.693 33.587-17.995 54.497-36.428 72.055-36.428 17.559 0 32.567 15.045 72.056 36.428 33.59 17.996 55.44 48.341 55.44 82.693Z" fill="#FBF0DF"/><path d="M1055.21 322.06a78.47 78.47 0 0 0-2.91-21.055c-9.94 121.307-157.918 127.135-216.094 90.852a145.71 145.71 0 0 0 91.508 30.528c70.307 0 127.496-44.99 127.496-100.325Z" fill="#F6DECE"/><path d="M878.645 232.701c16.284-9.763 37.922-28.086 59.196-28.123a33.81 33.81 0 0 0-10.127-1.639c-8.815 0-18.214 4.553-30.053 11.402-4.117 2.404-8.379 5.064-12.896 7.832-8.488 5.246-18.214 11.184-29.143 17.122-34.68 18.76-55.408 49.688-55.408 82.765v4.335c22.076-77.993 62.184-83.931 78.431-93.694Z" fill="#FFFEFC"/><path fill-rule="evenodd" clip-rule="evenodd" d="M917.223 212.155a59.773 59.773 0 0 1-20.509 45.427c-1.02.91-.219 2.659 1.092 2.149 12.277-4.772 28.852-19.052 21.858-47.867-.292-1.639-2.441-1.202-2.441.291Zm8.269 0a59.164 59.164 0 0 1 5.865 49.07c-.437 1.275 1.129 2.367 2.004 1.311 7.978-10.2 14.935-30.454-5.902-52.311-1.056-.948-2.695.51-1.967 1.785v.145Zm10.054-.619a59.818 59.818 0 0 1 24.954 42.84 1.2 1.2 0 0 0 .993 1.329 1.203 1.203 0 0 0 1.375-.928c3.351-12.714 1.457-34.389-26.119-45.645-1.458-.583-2.405 1.384-1.203 2.258v.146Zm-67.247 37.886a61.71 61.71 0 0 0 38.141-32.786c.656-1.311 2.732-.801 2.404.656-6.302 29.143-27.394 35.226-40.508 34.425-1.385.036-1.348-1.895-.037-2.295Z" fill="#CCBEA7"/><path d="M927.714 431.528c-75.334 0-136.607-49.106-136.607-109.468 0-36.428 22.513-70.416 60.217-90.78 10.928-5.828 20.29-11.693 28.632-16.83 4.59-2.841 8.925-5.5 13.115-7.978 12.786-7.577 23.715-12.64 34.643-12.64 10.929 0 20.473 4.371 32.422 11.438 3.643 2.077 7.285 4.335 11.183 6.812 9.071 5.61 19.307 11.949 32.791 19.198 37.7 20.364 60.21 54.315 60.21 90.78 0 60.362-61.27 109.468-136.606 109.468Zm0-228.589c-8.815 0-18.214 4.553-30.053 11.402-4.117 2.404-8.379 5.064-12.896 7.832-8.488 5.246-18.214 11.184-29.143 17.122-34.68 18.76-55.408 49.688-55.408 82.765 0 55.335 57.193 100.361 127.5 100.361s127.496-45.026 127.496-100.361c0-33.077-20.72-64.005-55.44-82.693-13.77-7.285-24.516-14.134-33.223-19.525-3.971-2.441-7.613-4.7-10.928-6.703-11.038-6.557-19.089-10.2-27.905-10.2Z" fill="#000"/><path d="M953.396 348.653a32.525 32.525 0 0 1-10.637 17.158 24.813 24.813 0 0 1-14.571 6.849 24.922 24.922 0 0 1-15.045-6.849 32.537 32.537 0 0 1-10.492-17.158c-.052-.397-.014-.8.113-1.18a2.619 2.619 0 0 1 2.802-1.771h44.953a2.627 2.627 0 0 1 2.766 1.781c.125.377.163.777.111 1.17Z" fill="#B71422"/><path d="M913.143 366.102a25.168 25.168 0 0 0 15.008 6.922 25.17 25.17 0 0 0 14.973-6.922 38.785 38.785 0 0 0 3.642-3.897 24.873 24.873 0 0 0-17.85-8.415 22.405 22.405 0 0 0-18.214 10.127c.838.765 1.567 1.493 2.441 2.185Z" fill="#FF6164"/><path d="M913.726 363.225a19.521 19.521 0 0 1 15.263-7.578 21.855 21.855 0 0 1 14.572 6.157 57.703 57.703 0 0 0 2.404-2.805 25.5 25.5 0 0 0-17.158-7.031 23.165 23.165 0 0 0-17.813 8.597 34.64 34.64 0 0 0 2.732 2.66Z" fill="#000"/><path d="M928.042 374.845a27.034 27.034 0 0 1-16.211-7.285 34.688 34.688 0 0 1-11.329-18.397 4.373 4.373 0 0 1 .947-3.643 5.143 5.143 0 0 1 4.117-1.858h44.953a5.243 5.243 0 0 1 4.116 1.858 4.33 4.33 0 0 1 .911 3.643 34.683 34.683 0 0 1-11.33 18.397 27.027 27.027 0 0 1-16.174 7.285Zm-22.476-26.957c-.583 0-.729.255-.765.328a30.197 30.197 0 0 0 9.945 15.919 22.694 22.694 0 0 0 13.296 6.375 22.878 22.878 0 0 0 13.297-6.302 30.234 30.234 0 0 0 9.908-15.919.758.758 0 0 0-.728-.328l-44.953-.073Z" fill="#000"/><path d="M983.159 350.912c11.769 0 21.311-5.611 21.311-12.532s-9.542-12.531-21.311-12.531c-11.77 0-21.311 5.61-21.311 12.531s9.541 12.532 21.311 12.532ZM872.889 350.912c11.77 0 21.311-5.611 21.311-12.532s-9.541-12.531-21.311-12.531c-11.769 0-21.31 5.61-21.31 12.531s9.541 12.532 21.31 12.532Z" fill="#FEBBD0"/><path fill-rule="evenodd" clip-rule="evenodd" d="M882.907 333.353a20.077 20.077 0 0 0 18.57-12.365 20.068 20.068 0 0 0-4.327-21.887 20.076 20.076 0 0 0-21.879-4.368 20.068 20.068 0 0 0-12.4 18.548 20.07 20.07 0 0 0 20.036 20.072Zm90.234 0a20.071 20.071 0 1 0-19.927-20.072 20.038 20.038 0 0 0 19.927 20.072Z" fill="#000"/><path fill-rule="evenodd" clip-rule="evenodd" d="M876.714 314.556a7.546 7.546 0 0 0 6.993-4.63 7.54 7.54 0 1 0-6.993 4.63Zm90.234 0a7.543 7.543 0 0 0 7.437-8.989 7.542 7.542 0 1 0-7.51 8.989h.073Z" fill="#fff"/></svg>