<svg width="1280" height="640" fill="none" xmlns="http://www.w3.org/2000/svg"><path fill="#EDEFF3" d="M0 0h1280v640H0z"/><path d="M1139.65 596h-9.85v-1.699l6.55-9.153h-6.15v-2.121h9.26v1.875l-6.42 8.977h6.61V596Zm7.97-13.219c1.16 0 2.15.239 2.98.715.83.477 1.46 1.152 1.91 2.027.44.875.67 1.922.67 3.141v1.477h-8.66c.03 1.257.36 2.226 1 2.906.65.68 1.56 1.019 2.72 1.019.83 0 1.57-.078 2.23-.234.66-.164 1.35-.402 2.05-.715v2.238c-.65.305-1.31.528-1.98.668-.67.141-1.48.211-2.42.211-1.27 0-2.39-.246-3.36-.738-.96-.5-1.71-1.242-2.26-2.226-.54-.985-.81-2.208-.81-3.668 0-1.454.25-2.688.74-3.704.49-1.015 1.18-1.789 2.07-2.32.89-.531 1.93-.797 3.12-.797Zm0 2.074c-.87 0-1.57.282-2.11.844-.53.563-.84 1.387-.94 2.473h5.91c-.01-.649-.12-1.223-.33-1.723-.2-.5-.51-.89-.94-1.172-.41-.281-.94-.422-1.59-.422Zm15.24-2.074c.21 0 .45.012.71.035.26.024.48.055.67.094l-.26 2.578a3.41 3.41 0 0 0-.61-.105 6.093 6.093 0 0 0-.63-.035c-.49 0-.96.082-1.41.246-.44.156-.84.398-1.18.726-.35.321-.61.723-.81 1.207-.2.485-.29 1.047-.29 1.688V596h-2.77v-12.973h2.16l.37 2.285h.13c.26-.46.58-.882.96-1.265.39-.383.82-.688 1.31-.914a3.83 3.83 0 0 1 1.65-.352Zm15.26 6.703c0 1.078-.14 2.036-.42 2.871-.28.836-.69 1.543-1.23 2.122a5.398 5.398 0 0 1-1.94 1.312c-.76.297-1.62.445-2.57.445-.89 0-1.71-.148-2.45-.445a5.537 5.537 0 0 1-1.93-1.312c-.54-.579-.96-1.286-1.26-2.122-.29-.835-.44-1.793-.44-2.871 0-1.429.24-2.64.74-3.632.5-1 1.21-1.762 2.13-2.286.92-.523 2.02-.785 3.29-.785 1.2 0 2.25.262 3.17.785.91.524 1.63 1.286 2.14 2.286.52 1 .77 2.21.77 3.632Zm-9.41 0c0 .946.12 1.754.34 2.426.24.672.6 1.188 1.08 1.547.49.352 1.11.527 1.88.527.76 0 1.39-.175 1.87-.527.49-.359.84-.875 1.07-1.547.23-.672.34-1.48.34-2.426 0-.945-.11-1.746-.34-2.402-.23-.664-.58-1.168-1.07-1.512-.48-.351-1.11-.527-1.88-.527-1.14 0-1.98.383-2.5 1.148-.52.766-.79 1.864-.79 3.293Zm19.24-6.703c1.53 0 2.77.563 3.7 1.688.94 1.125 1.4 2.797 1.4 5.015 0 1.469-.21 2.707-.65 3.715-.43 1-1.04 1.758-1.82 2.274-.77.507-1.67.761-2.7.761-.66 0-1.23-.086-1.72-.257a4.414 4.414 0 0 1-1.24-.668 5.114 5.114 0 0 1-.87-.914h-.16c.04.312.07.66.11 1.043.04.374.05.718.05 1.031v5.285h-2.76v-18.727h2.25l.39 1.793h.12c.25-.367.54-.707.88-1.019.36-.313.78-.559 1.27-.739.5-.187 1.08-.281 1.75-.281Zm-.74 2.25c-.76 0-1.37.153-1.83.457-.45.297-.79.746-1 1.348-.2.602-.31 1.355-.33 2.262v.386c0 .961.1 1.778.3 2.45.2.664.53 1.171.99 1.523.47.344 1.11.516 1.9.516.67 0 1.23-.184 1.67-.551.44-.367.77-.891.99-1.57.22-.68.33-1.481.33-2.403 0-1.398-.25-2.484-.75-3.258-.49-.773-1.25-1.16-2.27-1.16Zm17.75 7.266c0 .851-.21 1.57-.62 2.156-.41.586-1.02 1.031-1.82 1.336-.79.297-1.75.445-2.9.445-.91 0-1.69-.066-2.35-.199a8.017 8.017 0 0 1-1.84-.586v-2.379c.62.289 1.31.539 2.08.75.77.211 1.5.317 2.19.317.91 0 1.56-.141 1.96-.422.39-.289.59-.672.59-1.149 0-.281-.08-.531-.24-.75-.16-.226-.46-.457-.89-.691-.43-.242-1.07-.531-1.9-.867-.82-.328-1.51-.656-2.08-.985-.56-.328-.98-.722-1.27-1.183-.29-.469-.44-1.067-.44-1.793 0-1.149.46-2.02 1.36-2.613.92-.602 2.12-.903 3.62-.903.8 0 1.55.082 2.25.246.72.157 1.41.387 2.09.692l-.87 2.074c-.58-.258-1.17-.469-1.77-.633a6.28 6.28 0 0 0-1.79-.258c-.71 0-1.25.11-1.63.328-.37.219-.55.532-.55.938 0 .305.09.562.27.773.18.211.49.422.93.633.44.211 1.06.473 1.85.785.77.297 1.44.61 2 .938.57.32 1.01.715 1.31 1.183.31.469.46 1.075.46 1.817Zm2.58 2.25c0-.641.16-1.09.49-1.348.34-.265.74-.398 1.22-.398s.88.133 1.22.398c.34.258.51.707.51 1.348 0 .625-.17 1.078-.51 1.359-.34.274-.74.41-1.22.41s-.88-.136-1.22-.41c-.33-.281-.49-.734-.49-1.359Zm9.74-11.52V596h-2.76v-12.973h2.76Zm-1.36-4.968c.42 0 .78.113 1.09.339.31.227.47.618.47 1.172 0 .547-.16.938-.47 1.172-.31.227-.67.34-1.09.34-.44 0-.81-.113-1.12-.34-.29-.234-.44-.625-.44-1.172 0-.554.15-.945.44-1.172.31-.226.68-.339 1.12-.339Zm16.79 11.425c0 1.078-.14 2.036-.42 2.871-.28.836-.69 1.543-1.23 2.122a5.437 5.437 0 0 1-1.95 1.312c-.75.297-1.61.445-2.56.445-.89 0-1.71-.148-2.45-.445a5.67 5.67 0 0 1-1.94-1.312c-.54-.579-.95-1.286-1.25-2.122-.3-.835-.45-1.793-.45-2.871 0-1.429.25-2.64.74-3.632.5-1 1.21-1.762 2.14-2.286.92-.523 2.02-.785 3.29-.785 1.19 0 2.25.262 3.16.785.92.524 1.63 1.286 2.15 2.286.51 1 .77 2.21.77 3.632Zm-9.41 0c0 .946.11 1.754.34 2.426.24.672.59 1.188 1.08 1.547.48.352 1.11.527 1.87.527.77 0 1.39-.175 1.88-.527.48-.359.84-.875 1.07-1.547.22-.672.34-1.48.34-2.426 0-.945-.12-1.746-.34-2.402-.23-.664-.59-1.168-1.07-1.512-.49-.351-1.11-.527-1.89-.527-1.14 0-1.97.383-2.49 1.148-.53.766-.79 1.864-.79 3.293Z" fill="#1A1A1A"/><path d="m337.596 179.457-96.358 36.828A22.427 22.427 0 0 0 227 237.194v92.714l44.283-25.449v-52.131l74.217-28.475V178c-2.701.006-5.379.5-7.904 1.457ZM272.068 387.084l73.432-42.321v-51.122l-113.455 65.416a10.205 10.205 0 0 0-5.045 8.745v34.249a22.421 22.421 0 0 0 14.238 20.684l96.358 36.828a22.4 22.4 0 0 0 7.904 1.457v-45.852l-73.432-28.084Z" fill="#323232"/><path d="M459.291 279.066a9.36 9.36 0 0 0 4.709-8.24v-33.632a22.428 22.428 0 0 0-14.238-20.909l-96.414-36.828A22.44 22.44 0 0 0 345.5 178v45.853l72.871 28.027-72.871 41.985v51.122l113.791-65.921ZM353.348 459.563l96.414-36.828A22.426 22.426 0 0 0 464 402.051v-93.667l-44.284 25.561v52.859L345.5 415.168v45.853a22.442 22.442 0 0 0 7.848-1.458Z" fill="#1A1A1A"/><path d="m670 295.553-6.043-6.043L640 313.467l-23.957-23.957-6.043 6.043 23.957 23.957L610 343.467l6.043 6.043L640 325.553l23.957 23.957 6.043-6.043-23.957-23.957L670 295.553Z" fill="#939393"/><g clip-path="url(#a)"><mask id="b" style="mask-type:luminance" maskUnits="userSpaceOnUse" x="860" y="235" width="193" height="169"><path d="M860.839 235.483h192.141v167.612H860.839V235.483Z" fill="#fff"/></mask><g mask="url(#b)"><path d="m956.911 235.486 96.069 167.609H860.839l96.072-167.609Z" fill="#1A1A1A"/></g><mask id="c" style="mask-type:luminance" maskUnits="userSpaceOnUse" x="815" y="260" width="165" height="144"><path d="M815.981 260.452h163.524v143.082H815.98l.001-143.082Z" fill="#fff"/></mask><g mask="url(#c)"><path d="m897.742 260.452 81.76 143.082h-163.52l81.759-143.082" fill="#323232"/></g><path d="M1036.69 360.738H832.8v-2.239h203.89v2.239Z" fill="#EDEFF3"/><mask id="d" style="mask-type:luminance" maskUnits="userSpaceOnUse" x="841" y="317" width="184" height="77"><path d="M841.39 317.171h183.18v76.652H841.39v-76.652Z" fill="#fff"/></mask><g mask="url(#d)"><path d="M1005.19 393.487c-.79 0-1.54-.332-2.17-.958-3.745-3.762-3.909-19.058-3.728-41.966.102-12.517.238-29.664-1.758-31.017-1.949.808-2.144 14.972-2.27 24.349-.15 10.911-.303 22.2-2.075 27.948-.528 1.703-1.209 3.264-2.58 3.138-1.931-.17-2.556-3.221-3.997-15.255-.599-4.998-1.219-10.164-1.945-12.165a10.906 10.906 0 0 0-.248-.609c-.774 1.748-1.666 6.552-2.287 9.888-.859 4.606-1.669 8.958-2.685 10.856-.784 1.458-2.028 3.36-3.765 2.992-2.368-.498-3.077-5.272-3.289-8.073 0-23.565-3.083-26.308-3.7-26.618l-.099.075-.15-.034c-2.2.961-2.32 8.604-2.432 15.994-.089 5.421-.184 11.565-.975 17.313-1.026 7.452-2.266 8.89-3.809 8.801-3.554-.242-3.657-12.481-3.657-13.875 0-.436.011-.951.025-1.52.068-2.848.19-8.147-1.562-9.816-.231-.222-.558-.477-.814-.405-1.247.313-2.541 4.364-2.971 5.696-.136.423-.245.771-.337 1.009-.072.198-.163.477-.272.815-.944 2.865-2.018 5.724-3.851 6.429-.678.262-1.386.205-2.051-.17-.883-.501-1.602-1.523-2.273-3.223-.368-.941-.681-1.895-1.002-2.853-.388-1.169-.787-2.378-1.281-3.526-.388-.893-1.356-1.295-2.589-1.077-2.563.457-2.992 3.046-3.353 6.944-.065.678-.127 1.344-.211 1.97-.011.183-.464 5.905-.754 7.724-.801 4.99-1.854 6.955-3.602 6.812-4.313-.368-6.292-19.289-6.187-27.283.081-6.102-1.022-8.331-1.683-8.685-.068-.032-.175-.089-.426.088-.781.529-1.476 2.174-1.261 3.902 2.375 18.811.623 40.356-3.667 45.209-1.352 1.526-3.192 1.506-4.473.218-3.749-3.762-3.905-19.058-3.728-41.966.102-12.517.236-29.664-1.758-31.017-1.949.808-2.14 14.972-2.269 24.349-.15 10.911-.304 22.2-2.079 27.948-.528 1.703-1.21 3.264-2.576 3.138-1.935-.171-2.555-3.221-4-15.255-.6-4.998-1.22-10.164-1.945-12.165a7.211 7.211 0 0 0-.25-.609c-.77 1.748-1.662 6.552-2.282 9.888-.859 4.606-1.67 8.958-2.689 10.856-.783 1.458-2.027 3.36-3.761 2.992-2.368-.498-3.078-5.272-3.289-8.073-.003-23.565-3.083-26.308-3.7-26.618l-.099.075-.153-.034c-2.198.961-2.318 8.603-2.434 15.994-.084 5.421-.179 11.565-.971 17.313-1.025 7.452-2.255 8.904-3.805 8.801-3.561-.242-3.664-12.481-3.664-13.875 0-.436.015-.951.028-1.52.068-2.848.191-8.147-1.561-9.816-.232-.222-.558-.477-.814-.406-1.248.314-2.546 4.365-2.968 5.698-.136.419-.252.77-.337 1.008-.099.268-.191.539-.276.811-.944 2.866-2.018 5.728-3.847 6.434-.681.261-1.394.204-2.055-.171-.882-.501-1.605-1.523-2.272-3.223a57.738 57.738 0 0 1-1.003-2.853c-.388-1.169-.79-2.378-1.284-3.526-.385-.893-1.356-1.295-2.589-1.077-2.951.525-3.65 4.184-4.212 8.553l-.098.776-2.233-.296.106-.763c.488-3.83 1.23-9.619 6.045-10.471 2.265-.402 4.245.538 5.043 2.392.534 1.241.954 2.495 1.356 3.711.3.916.606 1.833.96 2.739.624 1.581 1.108 1.99 1.289 2.089 1.128-.351 2.279-3.857 2.66-5.012.12-.372.223-.678.304-.896.078-.216.18-.529.303-.907 1.016-3.175 2.29-6.614 4.553-7.186.692-.177 1.762-.154 2.923.958 2.467 2.355 2.338 7.85 2.252 11.489-.013.546-.026 1.043-.026 1.466 0 5.806.861 9.864 1.519 11.258.34-.713.923-2.437 1.479-6.488.769-5.615.869-11.687.951-17.044.149-9.479.255-16.352 3.686-17.968.511-.313 1.36-.483 2.256-.03 3.319 1.669 4.93 11.003 4.93 28.53.209 2.709.938 5.561 1.537 5.97.004-.061.491-.361 1.291-1.861.856-1.591 1.708-6.17 2.457-10.208 1.659-8.9 2.413-12.025 4.376-12.189 1.495-.146 2.187 1.755 2.477 2.556.817 2.242 1.424 7.302 2.065 12.662.5 4.157 1.212 10.093 1.938 12.495.078-.211.167-.463.262-.774 1.681-5.441 1.834-16.559 1.981-27.316.204-14.943.466-24.199 3.192-26.132a2.262 2.262 0 0 1 2.067-.293c3.193 1.06 3.439 10.42 3.258 33.144-.129 16.477-.289 36.987 3.077 40.367.293.296.502.296.576.296.157 0 .382-.15.621-.418 3.407-3.854 5.563-24.091 3.121-43.445-.304-2.409.626-4.94 2.215-6.031.875-.603 1.884-.681 2.756-.214 1.986 1.055 2.951 4.651 2.873 10.689-.14 10.542 2.391 22.88 4.044 24.85.262-.437.78-1.633 1.277-4.763.279-1.732.74-7.548.747-7.607a55.57 55.57 0 0 0 .201-1.941c.341-3.632.759-8.151 5.196-8.938 2.263-.402 4.243.535 5.043 2.392.535 1.241.951 2.495 1.353 3.711.307.916.614 1.833.968 2.739.619 1.581 1.108 1.99 1.284 2.089 1.128-.351 2.283-3.857 2.661-5.009.122-.371.225-.682.304-.9.082-.211.18-.528.3-.906 1.019-3.175 2.293-6.614 4.558-7.186.685-.177 1.759-.154 2.921.958 2.467 2.354 2.337 7.85 2.255 11.489-.017.489-.027.977-.03 1.466 0 5.806.862 9.864 1.519 11.258.338-.713.921-2.437 1.483-6.488.77-5.615.861-11.687.95-17.044.147-9.479.252-16.352 3.684-17.968.51-.313 1.359-.483 2.259-.03 3.315 1.669 4.93 11.002 4.93 28.53.208 2.709.937 5.561 1.534 5.97.007-.061.487-.361 1.294-1.861.855-1.591 1.704-6.17 2.457-10.208 1.653-8.9 2.409-12.025 4.372-12.189 1.499-.146 2.191 1.755 2.48 2.556.814 2.242 1.421 7.302 2.068 12.662.494 4.157 1.207 10.093 1.936 12.495.075-.211.163-.463.259-.774 1.679-5.441 1.83-16.559 1.98-27.316.2-14.943.466-24.199 3.192-26.132a2.267 2.267 0 0 1 2.068-.293c3.201 1.06 3.441 10.42 3.261 33.144-.13 16.477-.29 36.987 3.07 40.367.3.296.5.296.58.296.16 0 .38-.15.62-.418 3.41-3.854 5.56-24.091 3.12-43.445-.32-2.521.4-5.063 1.7-6.041.66-.497 1.46-.599 2.2-.29 1.9.811 3.19 4.287 3.94 10.632.31 2.657.59 5.53.86 8.365.59 6.187 1.4 14.525 2.48 16.358.34-.426 1.02-1.577 2.03-4.664l2.14.698c-1.57 4.774-2.8 6.573-4.4 6.389-2.49-.276-3.21-5.309-4.49-18.566-.26-2.822-.54-5.677-.85-8.322-.96-8.092-2.58-8.825-2.6-8.832-.31.16-1.05 1.844-.78 3.991 2.37 18.811.63 40.361-3.67 45.209-.69.78-1.47 1.175-2.3 1.175" fill="#EDEFF3"/></g></g><defs><clipPath id="a"><path fill="#fff" transform="translate(816 235.486)" d="M0 0h237v168.048H0z"/></clipPath></defs></svg>