<svg width="1280" height="640" fill="none" xmlns="http://www.w3.org/2000/svg"><path fill="#EDEFF3" d="M0 0h1280v640H0z"/><path d="M1139.65 596h-9.85v-1.699l6.55-9.153h-6.15v-2.121h9.26v1.875l-6.42 8.977h6.61V596Zm7.97-13.219c1.16 0 2.15.239 2.98.715.83.477 1.46 1.152 1.91 2.027.44.875.67 1.922.67 3.141v1.477h-8.66c.03 1.257.36 2.226 1 2.906.65.68 1.56 1.019 2.72 1.019.83 0 1.57-.078 2.23-.234.66-.164 1.35-.402 2.05-.715v2.238c-.65.305-1.31.528-1.98.668-.67.141-1.48.211-2.42.211-1.27 0-2.39-.246-3.36-.738-.96-.5-1.71-1.242-2.26-2.226-.54-.985-.81-2.208-.81-3.668 0-1.454.25-2.688.74-3.704.49-1.015 1.18-1.789 2.07-2.32.89-.531 1.93-.797 3.12-.797Zm0 2.074c-.87 0-1.57.282-2.11.844-.53.563-.84 1.387-.94 2.473h5.91c-.01-.649-.12-1.223-.33-1.723-.2-.5-.51-.89-.94-1.172-.41-.281-.94-.422-1.59-.422Zm15.24-2.074c.21 0 .45.012.71.035.26.024.48.055.67.094l-.26 2.578a3.41 3.41 0 0 0-.61-.105 6.093 6.093 0 0 0-.63-.035c-.49 0-.96.082-1.41.246-.44.156-.84.398-1.18.726-.35.321-.61.723-.81 1.207-.2.485-.29 1.047-.29 1.688V596h-2.77v-12.973h2.16l.37 2.285h.13c.26-.46.58-.882.96-1.265.39-.383.82-.688 1.31-.914a3.83 3.83 0 0 1 1.65-.352Zm15.26 6.703c0 1.078-.14 2.036-.42 2.871-.28.836-.69 1.543-1.23 2.122a5.398 5.398 0 0 1-1.94 1.312c-.76.297-1.62.445-2.57.445-.89 0-1.71-.148-2.45-.445a5.537 5.537 0 0 1-1.93-1.312c-.54-.579-.96-1.286-1.26-2.122-.29-.835-.44-1.793-.44-2.871 0-1.429.24-2.64.74-3.632.5-1 1.21-1.762 2.13-2.286.92-.523 2.02-.785 3.29-.785 1.2 0 2.25.262 3.17.785.91.524 1.63 1.286 2.14 2.286.52 1 .77 2.21.77 3.632Zm-9.41 0c0 .946.12 1.754.34 2.426.24.672.6 1.188 1.08 1.547.49.352 1.11.527 1.88.527.76 0 1.39-.175 1.87-.527.49-.359.84-.875 1.07-1.547.23-.672.34-1.48.34-2.426 0-.945-.11-1.746-.34-2.402-.23-.664-.58-1.168-1.07-1.512-.48-.351-1.11-.527-1.88-.527-1.14 0-1.98.383-2.5 1.148-.52.766-.79 1.864-.79 3.293Zm19.24-6.703c1.53 0 2.77.563 3.7 1.688.94 1.125 1.4 2.797 1.4 5.015 0 1.469-.21 2.707-.65 3.715-.43 1-1.04 1.758-1.82 2.274-.77.507-1.67.761-2.7.761-.66 0-1.23-.086-1.72-.257a4.414 4.414 0 0 1-1.24-.668 5.114 5.114 0 0 1-.87-.914h-.16c.04.312.07.66.11 1.043.04.374.05.718.05 1.031v5.285h-2.76v-18.727h2.25l.39 1.793h.12c.25-.367.54-.707.88-1.019.36-.313.78-.559 1.27-.739.5-.187 1.08-.281 1.75-.281Zm-.74 2.25c-.76 0-1.37.153-1.83.457-.45.297-.79.746-1 1.348-.2.602-.31 1.355-.33 2.262v.386c0 .961.1 1.778.3 2.45.2.664.53 1.171.99 1.523.47.344 1.11.516 1.9.516.67 0 1.23-.184 1.67-.551.44-.367.77-.891.99-1.57.22-.68.33-1.481.33-2.403 0-1.398-.25-2.484-.75-3.258-.49-.773-1.25-1.16-2.27-1.16Zm17.75 7.266c0 .851-.21 1.57-.62 2.156-.41.586-1.02 1.031-1.82 1.336-.79.297-1.75.445-2.9.445-.91 0-1.69-.066-2.35-.199a8.017 8.017 0 0 1-1.84-.586v-2.379c.62.289 1.31.539 2.08.75.77.211 1.5.317 2.19.317.91 0 1.56-.141 1.96-.422.39-.289.59-.672.59-1.149 0-.281-.08-.531-.24-.75-.16-.226-.46-.457-.89-.691-.43-.242-1.07-.531-1.9-.867-.82-.328-1.51-.656-2.08-.985-.56-.328-.98-.722-1.27-1.183-.29-.469-.44-1.067-.44-1.793 0-1.149.46-2.02 1.36-2.613.92-.602 2.12-.903 3.62-.903.8 0 1.55.082 2.25.246.72.157 1.41.387 2.09.692l-.87 2.074c-.58-.258-1.17-.469-1.77-.633a6.28 6.28 0 0 0-1.79-.258c-.71 0-1.25.11-1.63.328-.37.219-.55.532-.55.938 0 .305.09.562.27.773.18.211.49.422.93.633.44.211 1.06.473 1.85.785.77.297 1.44.61 2 .938.57.32 1.01.715 1.31 1.183.31.469.46 1.075.46 1.817Zm2.58 2.25c0-.641.16-1.09.49-1.348.34-.265.74-.398 1.22-.398s.88.133 1.22.398c.34.258.51.707.51 1.348 0 .625-.17 1.078-.51 1.359-.34.274-.74.41-1.22.41s-.88-.136-1.22-.41c-.33-.281-.49-.734-.49-1.359Zm9.74-11.52V596h-2.76v-12.973h2.76Zm-1.36-4.968c.42 0 .78.113 1.09.339.31.227.47.618.47 1.172 0 .547-.16.938-.47 1.172-.31.227-.67.34-1.09.34-.44 0-.81-.113-1.12-.34-.29-.234-.44-.625-.44-1.172 0-.554.15-.945.44-1.172.31-.226.68-.339 1.12-.339Zm16.79 11.425c0 1.078-.14 2.036-.42 2.871-.28.836-.69 1.543-1.23 2.122a5.437 5.437 0 0 1-1.95 1.312c-.75.297-1.61.445-2.56.445-.89 0-1.71-.148-2.45-.445a5.67 5.67 0 0 1-1.94-1.312c-.54-.579-.95-1.286-1.25-2.122-.3-.835-.45-1.793-.45-2.871 0-1.429.25-2.64.74-3.632.5-1 1.21-1.762 2.14-2.286.92-.523 2.02-.785 3.29-.785 1.19 0 2.25.262 3.16.785.92.524 1.63 1.286 2.15 2.286.51 1 .77 2.21.77 3.632Zm-9.41 0c0 .946.11 1.754.34 2.426.24.672.59 1.188 1.08 1.547.48.352 1.11.527 1.87.527.77 0 1.39-.175 1.88-.527.48-.359.84-.875 1.07-1.547.22-.672.34-1.48.34-2.426 0-.945-.12-1.746-.34-2.402-.23-.664-.59-1.168-1.07-1.512-.49-.351-1.11-.527-1.89-.527-1.14 0-1.97.383-2.49 1.148-.53.766-.79 1.864-.79 3.293Z" fill="#1A1A1A"/><path d="m337.596 179.457-96.358 36.828A22.427 22.427 0 0 0 227 237.194v92.714l44.283-25.449v-52.131l74.217-28.475V178c-2.701.006-5.379.5-7.904 1.457ZM272.068 387.084l73.432-42.321v-51.122l-113.455 65.416a10.205 10.205 0 0 0-5.045 8.745v34.249a22.421 22.421 0 0 0 14.238 20.684l96.358 36.828a22.4 22.4 0 0 0 7.904 1.457v-45.852l-73.432-28.084Z" fill="#323232"/><path d="M459.291 279.066a9.36 9.36 0 0 0 4.709-8.24v-33.632a22.428 22.428 0 0 0-14.238-20.909l-96.414-36.828A22.44 22.44 0 0 0 345.5 178v45.853l72.871 28.027-72.871 41.985v51.122l113.791-65.921ZM353.348 459.563l96.414-36.828A22.426 22.426 0 0 0 464 402.051v-93.667l-44.284 25.56v52.86L345.5 415.168v45.852a22.418 22.418 0 0 0 7.848-1.457Z" fill="#1A1A1A"/><path d="m670 295.553-6.043-6.043L640 313.467l-23.957-23.957-6.043 6.043 23.957 23.957L610 343.467l6.043 6.043L640 325.553l23.957 23.957 6.043-6.043-23.957-23.957L670 295.553Z" fill="#939393"/><path d="M819.511 207.155c.814.338 1.312.836 1.92 1.467a37.914 37.914 0 0 0 2.484 2.327c.608.539 1.17 1.119 1.739 1.698.568.559 1.168 1.074 1.771 1.593.548.486 1.057 1.005 1.57 1.528.409.402.834.778 1.269 1.152a33.947 33.947 0 0 1 2.023 1.92c.409.402.834.778 1.268 1.152a33.347 33.347 0 0 1 2.023 1.92c.409.403.834.778 1.269 1.153.709.61 1.368 1.253 2.023 1.92.409.402.834.777 1.269 1.152.708.61 1.367 1.253 2.023 1.92.409.402.834.777 1.268 1.152.572.493 1.117.997 1.646 1.536a26.374 26.374 0 0 0 1.632 1.522c.775.667 1.491 1.377 2.207 2.105.568.559 1.168 1.074 1.771 1.593.549.486 1.057 1.005 1.57 1.528.409.402.834.778 1.269 1.152a33.947 33.947 0 0 1 2.023 1.92c.409.402.834.778 1.268 1.152a33.347 33.347 0 0 1 2.023 1.92c.41.403.834.778 1.269 1.153.709.61 1.368 1.253 2.023 1.92.409.402.834.777 1.269 1.152.708.61 1.367 1.253 2.023 1.92.409.402.834.777 1.268 1.152a33.347 33.347 0 0 1 2.023 1.92c.41.402.834.778 1.269 1.152.572.493 1.117.998 1.646 1.536a26.107 26.107 0 0 0 1.632 1.523c.774.667 1.491 1.376 2.207 2.104a35.156 35.156 0 0 0 1.771 1.593c.548.486 1.057 1.006 1.57 1.528.409.402.834.778 1.268 1.152a33.347 33.347 0 0 1 2.023 1.92c.41.403.834.778 1.269 1.153.709.61 1.368 1.253 2.023 1.92.409.402.834.777 1.269 1.152a33.33 33.33 0 0 1 2.023 1.92c.409.402.834.777 1.268 1.152a33.347 33.347 0 0 1 2.023 1.92c.41.402.834.778 1.269 1.152.572.493 1.117.998 1.646 1.536a26.107 26.107 0 0 0 1.632 1.523c.774.667 1.491 1.376 2.207 2.104.568.559 1.168 1.074 1.771 1.593.548.486 1.057 1.006 1.57 1.528.409.402.834.778 1.269 1.152a33.947 33.947 0 0 1 2.023 1.92c.409.403.834.778 1.268 1.153.709.61 1.368 1.253 2.023 1.92.409.402.834.777 1.269 1.152.709.61 1.368 1.253 2.023 1.92.409.402.834.777 1.269 1.152a33.947 33.947 0 0 1 2.023 1.92c.409.402.834.778 1.268 1.152.572.493 1.117.998 1.646 1.536a26.39 26.39 0 0 0 1.632 1.523c.775.667 1.491 1.376 2.207 2.104.568.559 1.168 1.074 1.771 1.593.549.486 1.057 1.006 1.57 1.528.409.402.834.778 1.269 1.152a33.947 33.947 0 0 1 2.023 1.92c.409.403.834.778 1.268 1.153.709.61 1.368 1.253 2.023 1.92.41.402.834.777 1.269 1.152.709.61 1.368 1.253 2.023 1.92.409.402.834.777 1.269 1.152a33.947 33.947 0 0 1 2.023 1.92c.409.402.834.778 1.268 1.152.572.493 1.117.998 1.646 1.536a26.679 26.679 0 0 0 1.632 1.523c.775.667 1.491 1.376 2.208 2.104.567.559 1.167 1.074 1.771 1.593.548.486 1.056 1.006 1.569 1.528.409.402.834.778 1.269 1.152a33.644 33.644 0 0 1 2.023 1.92c.409.403.834.778 1.268 1.153.709.61 1.368 1.253 2.023 1.92.41.402.834.777 1.269 1.152.709.61 1.368 1.253 2.023 1.92.409.402.834.777 1.269 1.152a33.644 33.644 0 0 1 2.023 1.92c.409.402.834.778 1.268 1.152.572.493 1.117.998 1.646 1.536a26.679 26.679 0 0 0 1.632 1.523c.775.667 1.491 1.376 2.208 2.104.567.559 1.167 1.074 1.771 1.593.548.486 1.056 1.006 1.569 1.528.409.402.834.778 1.269 1.152a33.347 33.347 0 0 1 2.023 1.92c.409.403.834.778 1.269 1.153.708.61 1.367 1.253 2.023 1.92.409.402.834.777 1.268 1.152.709.61 1.368 1.253 2.023 1.92.409.402.834.777 1.269 1.152a33.347 33.347 0 0 1 2.023 1.92c.409.402.834.778 1.269 1.152a33.947 33.947 0 0 1 2.023 1.92c.409.402.834.778 1.268 1.152a26.86 26.86 0 0 1 1.646 1.537 26.374 26.374 0 0 0 1.632 1.522c.775.667 1.491 1.376 2.207 2.104.568.559 1.168 1.074 1.771 1.593.549.486 1.057 1.006 1.57 1.528.409.403.834.778 1.269 1.153.705.61 1.365 1.253 2.025 1.92.41.402.83.777 1.27 1.152.71.61 1.36 1.253 2.02 1.92.41.402.83.777 1.27 1.152.71.611 1.37 1.253 2.02 1.92.41.402.83.778 1.27 1.152.71.611 1.37 1.253 2.02 1.92.41.402.84.778 1.27 1.152.57.493 1.12.998 1.65 1.537.52.534 1.06 1.034 1.63 1.522.77.667 1.49 1.376 2.21 2.104.56.559 1.16 1.074 1.77 1.593.55.486 1.05 1.006 1.57 1.528.41.403.83.778 1.27 1.153.7.61 1.36 1.253 2.02 1.92.55.538 1.13 1.032 1.71 1.533.56.494 1.07 1.019 1.59 1.555.39.396.39.396.94.77.63.557.84 1.01 1.14 1.792.14.34.14.34.27.686.83 2.344.63 4.755-.43 6.995-1.24 2.107-2.92 3.84-5.26 4.683-3.01.65-5.75.132-8.34-1.511-.74-.528-1.36-1.158-2-1.814-.13-.137-.27-.273-.4-.414a46.754 46.754 0 0 1-2.27-2.483c-.6-.682-1.26-1.316-1.91-1.958-.71-.702-1.37-1.43-2.01-2.188-.52-.578-1.07-1.122-1.62-1.666a37.441 37.441 0 0 1-2.33-2.504c-.52-.577-1.07-1.121-1.62-1.666a37.426 37.426 0 0 1-2.33-2.503 39.246 39.246 0 0 0-1.622-1.666 39.683 39.683 0 0 1-2.332-2.503 37.41 37.41 0 0 0-1.618-1.667 39.683 39.683 0 0 1-2.332-2.503 36.853 36.853 0 0 0-1.618-1.666 39.683 39.683 0 0 1-2.332-2.503 37.41 37.41 0 0 0-1.618-1.667 39.683 39.683 0 0 1-2.332-2.503 36.853 36.853 0 0 0-1.618-1.666 39.683 39.683 0 0 1-2.332-2.503 37.41 37.41 0 0 0-1.618-1.667 39.41 39.41 0 0 1-2.332-2.503 37.387 37.387 0 0 0-1.618-1.666 39.683 39.683 0 0 1-2.332-2.503 36.853 36.853 0 0 0-1.618-1.666 39.7 39.7 0 0 1-2.332-2.504 37.936 37.936 0 0 0-1.618-1.666 39.683 39.683 0 0 1-2.332-2.503 36.853 36.853 0 0 0-1.618-1.666 39.683 39.683 0 0 1-2.332-2.503 37.41 37.41 0 0 0-1.618-1.667 39.683 39.683 0 0 1-2.332-2.503 36.853 36.853 0 0 0-1.618-1.666 39.683 39.683 0 0 1-2.332-2.503 37.41 37.41 0 0 0-1.618-1.667 39.683 39.683 0 0 1-2.332-2.503 36.853 36.853 0 0 0-1.618-1.666 39.683 39.683 0 0 1-2.332-2.503 37.41 37.41 0 0 0-1.618-1.667 39.41 39.41 0 0 1-2.332-2.503 37.387 37.387 0 0 0-1.618-1.666 39.683 39.683 0 0 1-2.332-2.503 36.853 36.853 0 0 0-1.618-1.666 39.7 39.7 0 0 1-2.332-2.504 37.936 37.936 0 0 0-1.618-1.666 39.683 39.683 0 0 1-2.332-2.503 36.853 36.853 0 0 0-1.618-1.666 39.683 39.683 0 0 1-2.332-2.503 37.41 37.41 0 0 0-1.618-1.667 39.683 39.683 0 0 1-2.332-2.503 36.853 36.853 0 0 0-1.618-1.666 39.683 39.683 0 0 1-2.332-2.503 37.41 37.41 0 0 0-1.618-1.667 39.683 39.683 0 0 1-2.332-2.503 36.853 36.853 0 0 0-1.618-1.666 39.683 39.683 0 0 1-2.332-2.503 37.41 37.41 0 0 0-1.618-1.667 39.41 39.41 0 0 1-2.332-2.503 37.387 37.387 0 0 0-1.618-1.666 39.683 39.683 0 0 1-2.332-2.503 36.853 36.853 0 0 0-1.618-1.666 39.7 39.7 0 0 1-2.332-2.504 37.936 37.936 0 0 0-1.618-1.666 39.683 39.683 0 0 1-2.332-2.503 36.853 36.853 0 0 0-1.618-1.666 39.683 39.683 0 0 1-2.332-2.503 37.41 37.41 0 0 0-1.618-1.667 39.683 39.683 0 0 1-2.332-2.503 36.853 36.853 0 0 0-1.618-1.666 39.683 39.683 0 0 1-2.332-2.503 37.41 37.41 0 0 0-1.618-1.667 39.683 39.683 0 0 1-2.332-2.503 36.853 36.853 0 0 0-1.618-1.666 39.683 39.683 0 0 1-2.332-2.503 37.41 37.41 0 0 0-1.618-1.667 39.41 39.41 0 0 1-2.332-2.503 37.387 37.387 0 0 0-1.618-1.666 39.683 39.683 0 0 1-2.332-2.503 36.853 36.853 0 0 0-1.618-1.666 39.7 39.7 0 0 1-2.332-2.504 37.936 37.936 0 0 0-1.618-1.666 39.683 39.683 0 0 1-2.332-2.503 36.853 36.853 0 0 0-1.618-1.666 39.683 39.683 0 0 1-2.332-2.503 37.41 37.41 0 0 0-1.618-1.667 39.683 39.683 0 0 1-2.332-2.503 36.853 36.853 0 0 0-1.618-1.666 39.683 39.683 0 0 1-2.332-2.503 37.41 37.41 0 0 0-1.618-1.667 39.683 39.683 0 0 1-2.332-2.503 36.853 36.853 0 0 0-1.618-1.666 39.683 39.683 0 0 1-2.332-2.503 37.41 37.41 0 0 0-1.618-1.667 39.41 39.41 0 0 1-2.332-2.503 37.387 37.387 0 0 0-1.618-1.666 39.683 39.683 0 0 1-2.332-2.503 36.853 36.853 0 0 0-1.618-1.666 39.7 39.7 0 0 1-2.332-2.504 37.936 37.936 0 0 0-1.618-1.666 38.401 38.401 0 0 1-2.326-2.498c-.65-.723-1.349-1.398-2.051-2.071a22.845 22.845 0 0 1-.78-.807v-.439ZM837.944 268.819c.886.359 1.512.984 2.195 1.632l.767.718.39.367c.565.53 1.137 1.053 1.709 1.575l.653.598.325.298 1.642 1.505.658.603 17.446 15.992.657.603 1.663 1.525c1.01.927 2.022 1.853 3.043 2.769 1.09.978 2.166 1.972 3.241 2.966.682.632 1.367 1.261 2.053 1.889l.326.299.651.596 1.642 1.505.659.603 22.712 20.82.658.603 1.662 1.525c1.01.927 2.022 1.853 3.043 2.769 1.09.978 2.166 1.972 3.241 2.966a521.498 521.498 0 0 0 3.03 2.784l1.643 1.505.658.603 22.713 20.82.657.603 1.662 1.525c1.01.927 2.022 1.853 3.043 2.769 1.09.978 2.166 1.972 3.241 2.966a603.659 603.659 0 0 0 3.031 2.784l1.642 1.505.658.603 25.346 23.234.657.603 1.663 1.525c1.01.927 2.022 1.853 3.043 2.768 1.09.979 2.166 1.973 3.241 2.967.682.632 1.367 1.261 2.053 1.889l.326.299.651.596 1.642 1.505.659.603 6.583 6.035.33.302.654.602a60.25 60.25 0 0 0 1.711 1.525c1.583 1.372 2.543 2.573 3.013 4.648.18 3.011.01 5.246-1.98 7.644-1.597 1.748-3.101 3.019-5.531 3.191-2.877.117-5.596-.406-7.792-2.401a34.79 34.79 0 0 1-1.075-1.165l-.803-.881-.409-.453c-.648-.715-1.31-1.418-1.97-2.122a625.477 625.477 0 0 1-3.131-3.378c-1.02-1.106-2.051-2.203-3.081-3.301a396.062 396.062 0 0 1-2.855-3.074 416.885 416.885 0 0 0-2.646-2.838 474.61 474.61 0 0 1-3.279-3.525 394.687 394.687 0 0 0-2.646-2.839 459.977 459.977 0 0 1-3.295-3.542c-1.345-1.459-2.701-2.908-4.057-4.358a973.4 973.4 0 0 1-4.694-5.05c-1.02-1.107-2.051-2.204-3.081-3.301a436.134 436.134 0 0 1-2.855-3.074c-.876-.952-1.76-1.896-2.646-2.839a455.55 455.55 0 0 1-3.279-3.525c-.876-.951-1.76-1.896-2.646-2.838a500.15 500.15 0 0 1-3.295-3.542c-1.345-1.46-2.701-2.909-4.056-4.358-1.57-1.68-3.138-3.36-4.694-5.051a481.008 481.008 0 0 0-3.082-3.301 436.134 436.134 0 0 1-2.855-3.074c-.876-.951-1.76-1.895-2.646-2.838a524.785 524.785 0 0 1-3.295-3.542c-1.345-1.46-2.701-2.909-4.056-4.358a895.832 895.832 0 0 1-4.694-5.051 481.008 481.008 0 0 0-3.082-3.301 435.992 435.992 0 0 1-2.854-3.074 443.853 443.853 0 0 0-2.646-2.838 474.753 474.753 0 0 1-3.279-3.526 443.853 443.853 0 0 0-2.646-2.838 500.295 500.295 0 0 1-3.296-3.542c-1.344-1.46-2.701-2.908-4.056-4.358a934.526 934.526 0 0 1-4.694-5.051 479.363 479.363 0 0 0-3.082-3.301 415.001 415.001 0 0 1-2.854-3.074 443.853 443.853 0 0 0-2.646-2.838 474.753 474.753 0 0 1-3.279-3.526 443.853 443.853 0 0 0-2.646-2.838 479.223 479.223 0 0 1-3.295-3.542c-1.345-1.459-2.701-2.908-4.057-4.358a934.526 934.526 0 0 1-4.694-5.051c-1.02-1.106-2.051-2.203-3.081-3.301a396.062 396.062 0 0 1-2.855-3.074c-.876-.951-1.76-1.895-2.646-2.838a516.8 516.8 0 0 1-3.97-4.271l-.635-.69a943.347 943.347 0 0 1-1.481-1.612c-.388-.449-.388-.449-.388-.668ZM881.833 226.685a21.384 21.384 0 0 1 3.078 2.638c.392.394.793.759 1.215 1.12a81.493 81.493 0 0 1 2.592 2.359 190.77 190.77 0 0 0 3.316 3.042c.778.701 1.547 1.413 2.316 2.124.805.744 1.611 1.487 2.419 2.227l.326.299.651.596 1.313 1.203.658.603 1.662 1.525c1.01.928 2.022 1.853 3.043 2.769 1.09.978 2.166 1.972 3.241 2.966.683.632 1.368 1.261 2.053 1.889l.327.299.65.596 1.643 1.505.658.603 20.079 18.407.658.602 1.662 1.525c1.01.928 2.022 1.853 3.043 2.769a283.92 283.92 0 0 1 3.241 2.967 611.74 611.74 0 0 0 2.38 2.187l.65.596 1.643 1.505.658.604 20.079 18.406.658.602 1.662 1.525c1.01.928 2.022 1.853 3.043 2.769a283.92 283.92 0 0 1 3.241 2.967c.683.631 1.367 1.26 2.053 1.888l.326.299.651.596 1.643 1.505.658.604 20.078 18.406.66.602c.55.508 1.11 1.016 1.66 1.525 1.01.928 2.02 1.853 3.04 2.769 1.09.978 2.17 1.972 3.24 2.967.69.631 1.37 1.26 2.06 1.888.16.148.16.148.32.299l.66.596c.54.502 1.09 1.004 1.64 1.505l.66.604 17.44 15.992.66.602c.55.508 1.11 1.017 1.66 1.525 1.01.928 2.02 1.854 3.04 2.769.97.867 1.92 1.744 2.88 2.626.6.56 1.21 1.116 1.82 1.667.17.159.17.159.35.322.32.29.65.58.97.87 1.8 1.74 2.58 3.522 2.67 6.05-.11 3.029-1.34 5.052-3.49 7.091-1.92 1.649-4.01 2.079-6.5 1.906-2.67-.41-4.72-1.441-6.46-3.507-.69-.81-1.41-1.578-2.14-2.349-.28-.304-.57-.608-.86-.913-.14-.151-.28-.303-.43-.459a996.37 996.37 0 0 1-5.12-5.503 480.723 480.723 0 0 0-3.08-3.301c-.96-1.02-1.91-2.045-2.85-3.074-.88-.952-1.76-1.896-2.65-2.838-1.1-1.176-2.2-2.356-3.29-3.543-1.35-1.459-2.71-2.908-4.06-4.357a715.25 715.25 0 0 1-4.69-5.051 607.082 607.082 0 0 0-3.086-3.301 436.134 436.134 0 0 1-2.855-3.074c-.876-.951-1.76-1.896-2.646-2.838a474.753 474.753 0 0 1-3.279-3.526c-.876-.951-1.76-1.895-2.646-2.838a474.753 474.753 0 0 1-3.279-3.526c-.876-.951-1.76-1.895-2.646-2.838a474.753 474.753 0 0 1-3.279-3.526c-.876-.951-1.76-1.895-2.646-2.838a524.785 524.785 0 0 1-3.295-3.542c-1.345-1.46-2.701-2.908-4.056-4.358a895.832 895.832 0 0 1-4.694-5.051 505.411 505.411 0 0 0-3.082-3.301 415.001 415.001 0 0 1-2.854-3.074 443.853 443.853 0 0 0-2.646-2.838 474.753 474.753 0 0 1-3.279-3.526 443.853 443.853 0 0 0-2.646-2.838 474.61 474.61 0 0 1-3.279-3.525 418.77 418.77 0 0 0-2.646-2.839 474.61 474.61 0 0 1-3.279-3.525 418.77 418.77 0 0 0-2.646-2.839 460.104 460.104 0 0 1-3.296-3.542c-1.344-1.459-2.701-2.908-4.056-4.358a934.324 934.324 0 0 1-4.694-5.05c-1.02-1.107-2.051-2.204-3.082-3.301a435.992 435.992 0 0 1-2.854-3.074 396.077 396.077 0 0 0-2.646-2.838 474.753 474.753 0 0 1-3.279-3.526 418.606 418.606 0 0 0-2.646-2.838 474.753 474.753 0 0 1-3.279-3.526 443.853 443.853 0 0 0-2.646-2.838 474.753 474.753 0 0 1-3.279-3.526 443.853 443.853 0 0 0-2.646-2.838 474.753 474.753 0 0 1-3.279-3.526 443.853 443.853 0 0 0-2.646-2.838 479.079 479.079 0 0 1-3.295-3.541 496.297 496.297 0 0 0-2.521-2.713l-.769-.826a478.62 478.62 0 0 0-1.547-1.647l-.728-.778-.345-.362c-.78-.836-.78-.836-.78-1.325ZM852.428 317.535c.66.294 1.096.614 1.591 1.139a23.605 23.605 0 0 0 1.591 1.508c.89.768 1.748 1.569 2.606 2.373a190.65 190.65 0 0 0 3.315 3.041c.779.702 1.548 1.413 2.317 2.125a915.13 915.13 0 0 0 3.394 3.12c.334.305.667.612 1 .918 1.011.928 2.023 1.854 3.044 2.769 1.09.979 2.166 1.973 3.241 2.967a728.375 728.375 0 0 0 3.031 2.784l1.642 1.505.658.603 22.713 20.82.657.603c.555.508 1.109 1.016 1.662 1.525 1.011.927 2.022 1.853 3.043 2.768 1.091.979 2.166 1.973 3.242 2.967a527.734 527.734 0 0 0 3.03 2.784l1.642 1.505.659.603 22.712 20.82.657.603 1.663 1.525c1.01.927 2.022 1.853 3.043 2.768 1.09.979 2.165 1.973 3.241 2.967.682.631 1.367 1.261 2.053 1.889l.326.299.651.596 1.642 1.505.659.603 6.912 6.337.658.603a1188.341 1188.341 0 0 1 2.645 2.428c.543.501 1.091.992 1.655 1.469 1.519 1.307 2.246 2.09 2.474 4.072.116 2.114-.358 3.832-1.78 5.439-1.314 1.19-2.828 1.86-4.617 1.821-2.876-.355-4.455-1.675-6.254-3.797-.366-.42-.747-.811-1.145-1.2a25.443 25.443 0 0 1-1.48-1.583 84.855 84.855 0 0 0-2.483-2.71l-.93-.985-.468-.495a640.264 640.264 0 0 1-5.148-5.532 481.008 481.008 0 0 0-3.082-3.301 435.992 435.992 0 0 1-2.854-3.074 443.853 443.853 0 0 0-2.646-2.838 524.933 524.933 0 0 1-3.296-3.542c-1.344-1.46-2.701-2.909-4.056-4.358a934.526 934.526 0 0 1-4.694-5.051c-1.02-1.107-2.051-2.204-3.081-3.301a436.134 436.134 0 0 1-2.855-3.074 416.885 416.885 0 0 0-2.646-2.838 474.753 474.753 0 0 1-3.279-3.526 416.885 416.885 0 0 0-2.646-2.838 474.753 474.753 0 0 1-3.279-3.526 416.885 416.885 0 0 0-2.646-2.838 479.223 479.223 0 0 1-3.295-3.542c-1.345-1.46-2.701-2.908-4.056-4.358a896.01 896.01 0 0 1-4.695-5.051c-1.02-1.106-2.051-2.203-3.081-3.301a415.133 415.133 0 0 1-2.855-3.074c-.876-.951-1.76-1.895-2.646-2.838a455.69 455.69 0 0 1-3.279-3.526c-.876-.951-1.76-1.895-2.646-2.838a459.977 459.977 0 0 1-3.295-3.542c-1.345-1.459-2.701-2.908-4.056-4.358a931.488 931.488 0 0 1-4.694-5.05 481.008 481.008 0 0 0-3.082-3.301 414.163 414.163 0 0 1-2.851-3.071c-.618-.672-1.241-1.34-1.868-2.005l-.448-.476-.866-.917c-1.991-2.112-1.991-2.112-1.991-2.516ZM934.5 243.583c.948.577 1.682 1.217 2.453 2.012.376.378.763.727 1.168 1.073a84.798 84.798 0 0 1 2.606 2.373 194.763 194.763 0 0 0 3.315 3.042c.779.701 1.548 1.413 2.317 2.124a724.402 724.402 0 0 0 3.396 3.122l1.642 1.505.659.603 17.445 15.993.658.602 1.662 1.525c1.01.928 2.022 1.853 3.043 2.769a283.92 283.92 0 0 1 3.241 2.967c.683.631 1.368 1.26 2.053 1.888l.327.299.65.596 1.643 1.505.658.604 22.714 20.82.66.602c.55.508 1.1 1.016 1.66 1.525 1.01.928 2.02 1.853 3.04 2.769 1.09.978 2.17 1.972 3.24 2.967.69.631 1.37 1.26 2.06 1.888.16.148.16.148.32.299.22.199.44.397.65.596.55.501 1.1 1.003 1.64 1.505l.66.604 22.72 20.82c.21.2.43.4.65.6.56.516 1.13 1.033 1.69 1.55.11.105.23.211.35.319.22.208.45.416.67.624.58.533 1.17 1.033 1.79 1.515 1.08.937 1.47 1.984 1.63 3.387.09 2.285-.37 3.849-1.89 5.555-1.37 1.253-2.99 1.727-4.83 1.647-3.24-.44-4.98-2.665-7.05-4.953-.62-.677-1.25-1.346-1.87-2.015l-.78-.834c-.26-.28-.53-.56-.79-.84-1.57-1.679-3.13-3.36-4.69-5.05-.88-.955-1.77-1.903-2.66-2.85-1.1-1.175-2.2-2.355-3.29-3.542-1.35-1.459-2.71-2.908-4.06-4.358-1.57-1.679-3.14-3.36-4.69-5.05-1.03-1.107-2.06-2.204-3.09-3.301-.95-1.02-1.9-2.045-2.85-3.074-.88-.952-1.76-1.896-2.65-2.839-1.1-1.169-2.19-2.344-3.28-3.525-.87-.952-1.756-1.896-2.642-2.838a474.753 474.753 0 0 1-3.279-3.526c-.876-.951-1.76-1.896-2.646-2.838a474.753 474.753 0 0 1-3.279-3.526c-.876-.951-1.76-1.895-2.646-2.838a500.15 500.15 0 0 1-3.295-3.542c-1.345-1.46-2.701-2.908-4.056-4.358a860.216 860.216 0 0 1-4.694-5.051 481.008 481.008 0 0 0-3.082-3.301 436.134 436.134 0 0 1-2.855-3.074c-.876-.951-1.76-1.895-2.646-2.838a474.753 474.753 0 0 1-3.279-3.526c-.876-.951-1.76-1.895-2.646-2.838a474.753 474.753 0 0 1-3.279-3.526c-.876-.951-1.76-1.895-2.646-2.838a474.753 474.753 0 0 1-3.279-3.526c-.876-.951-1.76-1.895-2.646-2.838a501.793 501.793 0 0 1-3.295-3.542c-1.345-1.459-2.701-2.908-4.056-4.358l-1.564-1.673-.382-.409a545.8 545.8 0 0 1-2.922-3.158 25.914 25.914 0 0 0-1.24-1.285c-.256-.278-.256-.278-.256-.716ZM988.264 267.941c.666.3 1.143.643 1.67 1.148l.447.424.461.444a87.85 87.85 0 0 0 3.152 2.888 78.665 78.665 0 0 1 1.813 1.652 257.88 257.88 0 0 0 3.095 2.821c1.188 1.065 2.348 2.145 3.528 3.223a525.74 525.74 0 0 0 3.92 3.57c.75.671 1.48 1.348 2.22 2.025.69.632 1.38 1.26 2.08 1.884.92.829 1.84 1.666 2.75 2.505.69.632 1.38 1.26 2.07 1.884.93.829 1.84 1.666 2.76 2.505.68.628 1.37 1.251 2.06 1.87.98.877 1.94 1.767 2.91 2.66.89.824 1.79 1.639 2.69 2.45.63.565 1.25 1.135 1.87 1.707.8.735 1.61 1.468 2.42 2.194.92.829 1.84 1.666 2.75 2.505.86.794 1.74 1.579 2.61 2.363.75.675 1.49 1.355 2.23 2.04.51.47 1.02.926 1.56 1.364 1.46 1.194 1.46 1.194 1.75 2.179.1 1.178-.12 1.804-.78 2.771-.56.592-1 .885-1.82.998-1.53.008-2.46-.345-3.57-1.424-.51-.539-1.01-1.09-1.49-1.653a86.472 86.472 0 0 0-2.53-2.749 325.246 325.246 0 0 1-3.62-3.891c-.7-.77-1.41-1.532-2.13-2.295-.95-1.025-1.91-2.053-2.86-3.086-.95-1.028-1.9-2.051-2.86-3.072-1.06-1.136-2.11-2.276-3.17-3.42-.84-.912-1.68-1.819-2.53-2.724a599.59 599.59 0 0 1-3.17-3.421c-.84-.911-1.69-1.818-2.54-2.724-1.5-1.609-2.99-3.226-4.49-4.846-1.4-1.529-2.82-3.052-4.238-4.571a563.868 563.868 0 0 1-2.781-3c-.84-.912-1.685-1.819-2.532-2.724-5.705-6.108-5.705-6.108-5.705-6.474ZM878.542 369.324c.667.3 1.143.643 1.67 1.148l.447.425.461.443a87.807 87.807 0 0 0 3.136 2.873c.708.622 1.391 1.268 2.076 1.914.968.908 1.94 1.805 2.946 2.671.756.665 1.49 1.353 2.229 2.037.899.833 1.807 1.655 2.719 2.473.627.565 1.25 1.135 1.872 1.706.8.736 1.604 1.469 2.413 2.195 1.367 1.226 2.717 2.47 4.069 3.712a473.256 473.256 0 0 0 3.927 3.571c.743.67 1.48 1.347 2.217 2.024.689.633 1.381 1.26 2.076 1.885.923.828 1.839 1.665 2.752 2.504.688.632 1.381 1.26 2.076 1.884.923.829 1.839 1.666 2.752 2.506.684.627 1.371 1.25 2.062 1.87a244.04 244.04 0 0 1 2.906 2.659 239.92 239.92 0 0 0 2.696 2.449c.407.367.812.735 1.216 1.106l.342.314.679.628c.636.588 1.29 1.137 1.968 1.676.869.757 1.07 1.337 1.179 2.483-.198 1.009-.614 1.669-1.317 2.414-.934.563-1.789.554-2.852.439-1.54-.524-2.53-1.814-3.565-3.013a88.816 88.816 0 0 0-2.511-2.734 337.511 337.511 0 0 1-3.168-3.388 541.409 541.409 0 0 0-2.826-3.045 641.69 641.69 0 0 1-3.173-3.42 652.445 652.445 0 0 0-2.532-2.724 932.627 932.627 0 0 1-4.49-4.846 796.32 796.32 0 0 0-4.242-4.571 605.69 605.69 0 0 1-2.781-3.001c-.84-.911-1.685-1.818-2.532-2.724a641.69 641.69 0 0 1-3.173-3.42 652.445 652.445 0 0 0-2.532-2.724 932.627 932.627 0 0 1-4.49-4.846l-.969-1.052a223.811 223.811 0 0 0-2.558-2.739c-.261-.277-.522-.552-.784-.827-.874-.926-1.646-1.902-2.391-2.935Z" fill="#FF5D3C"/></svg>
