<svg width="2110" height="684" fill="none" xmlns="http://www.w3.org/2000/svg"><g clip-path="url(#a)"><path fill="#EDEFF3" d="M0 0h2110v684H0z"/><path d="m79.266 573.321-21.142 8.08A4.925 4.925 0 0 0 55 585.989v20.342l9.716-5.584v-11.438L81 583.062v-10.061c-.593.001-1.18.11-1.734.32ZM64.892 618.875l16.112-9.285v-11.217L56.11 612.726a2.232 2.232 0 0 0-1.107 1.918v7.515a4.921 4.921 0 0 0 3.124 4.538l21.142 8.081c.554.21 1.141.318 1.734.319v-10.06l-16.112-6.162Z" fill="#9DCFCC"/><path d="M105.967 595.175a2.059 2.059 0 0 0 1.033-1.808v-7.379a4.927 4.927 0 0 0-.853-2.777 4.93 4.93 0 0 0-2.271-1.811l-21.154-8.08A4.918 4.918 0 0 0 81 573v10.06l15.989 6.15L81 598.422v11.216l24.967-14.463ZM82.72 634.779l21.154-8.081a4.923 4.923 0 0 0 3.124-4.538v-20.552l-9.716 5.609v11.598l-16.284 6.223v10.061a4.942 4.942 0 0 0 1.722-.32Z" fill="#91C8C3"/><path d="M88.31 113H56.436v-5.889l20.538-29.443h-19.98v-7.5h30.76v5.86L67.247 105.5h21.065v7.5Zm19.629-33.37c3.028 0 5.635.587 7.823 1.759 2.187 1.152 3.877 2.832 5.068 5.039 1.191 2.207 1.787 4.902 1.787 8.086v4.336h-21.123c.098 2.519.85 4.502 2.256 5.947 1.426 1.426 3.398 2.139 5.918 2.139 2.09 0 4.004-.215 5.742-.645 1.738-.43 3.526-1.074 5.361-1.934v6.914a21.272 21.272 0 0 1-5.097 1.758c-1.758.371-3.897.557-6.416.557-3.281 0-6.192-.606-8.731-1.816-2.52-1.211-4.502-3.057-5.947-5.538-1.426-2.48-2.139-5.605-2.139-9.375 0-3.828.645-7.011 1.934-9.55 1.309-2.559 3.125-4.473 5.45-5.743 2.323-1.289 5.029-1.933 8.114-1.933Zm.059 6.358c-1.738 0-3.184.557-4.336 1.67-1.133 1.114-1.787 2.861-1.963 5.244h12.539c-.019-1.328-.263-2.51-.732-3.545a5.503 5.503 0 0 0-2.051-2.46c-.898-.606-2.051-.909-3.457-.909Zm40.166-6.357c.449 0 .967.03 1.553.088a10.75 10.75 0 0 1 1.465.175l-.674 8.38c-.293-.098-.713-.167-1.26-.206a12.675 12.675 0 0 0-1.377-.087 12.97 12.97 0 0 0-3.369.439 8.236 8.236 0 0 0-2.9 1.436c-.86.644-1.543 1.503-2.051 2.578-.489 1.054-.733 2.353-.733 3.896V113h-8.935V80.246h6.767l1.319 5.508h.439a13.785 13.785 0 0 1 2.403-3.047c.976-.938 2.08-1.68 3.31-2.226 1.25-.567 2.598-.85 4.043-.85Zm38.731 16.933c0 2.735-.372 5.157-1.114 7.266-.722 2.109-1.787 3.897-3.193 5.361-1.387 1.446-3.067 2.539-5.039 3.282-1.953.742-4.16 1.113-6.621 1.113-2.305 0-4.424-.371-6.358-1.113a14.125 14.125 0 0 1-5.009-3.282c-1.407-1.464-2.5-3.252-3.282-5.361-.761-2.109-1.142-4.531-1.142-7.266 0-3.632.644-6.708 1.933-9.228 1.289-2.52 3.125-4.434 5.508-5.742 2.383-1.309 5.225-1.963 8.526-1.963 3.066 0 5.781.654 8.144 1.963 2.383 1.308 4.248 3.222 5.596 5.742 1.367 2.52 2.051 5.596 2.051 9.228Zm-22.647 0c0 2.149.234 3.956.703 5.42.469 1.465 1.201 2.569 2.197 3.311.997.742 2.295 1.113 3.897 1.113 1.582 0 2.861-.371 3.838-1.113.996-.742 1.719-1.846 2.168-3.311.469-1.464.703-3.271.703-5.42 0-2.167-.234-3.964-.703-5.39-.449-1.446-1.172-2.53-2.168-3.252-.996-.723-2.295-1.084-3.897-1.084-2.363 0-4.082.81-5.156 2.431-1.055 1.622-1.582 4.053-1.582 7.295ZM212.5 79.631c3.691 0 6.67 1.435 8.936 4.306 2.285 2.872 3.427 7.08 3.427 12.627 0 3.711-.537 6.836-1.611 9.375-1.074 2.52-2.559 4.424-4.453 5.713-1.895 1.289-4.072 1.934-6.533 1.934-1.582 0-2.94-.195-4.073-.586-1.132-.41-2.099-.928-2.9-1.553a13.757 13.757 0 0 1-2.08-2.051h-.469c.156.782.274 1.583.352 2.403.078.82.117 1.621.117 2.402v13.213h-8.936V80.246h7.266l1.26 4.248h.41a12.491 12.491 0 0 1 2.139-2.431c.839-.743 1.845-1.329 3.017-1.758 1.192-.45 2.569-.674 4.131-.674Zm-2.871 7.148c-1.563 0-2.803.323-3.721.967-.918.645-1.592 1.611-2.021 2.9-.41 1.29-.635 2.92-.674 4.893v.967c0 2.11.195 3.896.586 5.361.41 1.465 1.084 2.578 2.021 3.34.957.762 2.266 1.143 3.926 1.143 1.367 0 2.49-.381 3.369-1.143s1.533-1.875 1.963-3.34c.449-1.484.674-3.29.674-5.42 0-3.203-.498-5.615-1.494-7.236-.996-1.621-2.539-2.432-4.629-2.432Zm45.469 16.494c0 2.227-.528 4.112-1.582 5.655-1.036 1.523-2.588 2.685-4.659 3.486-2.07.781-4.648 1.172-7.734 1.172-2.285 0-4.248-.147-5.889-.44a24.246 24.246 0 0 1-4.922-1.464v-7.383a35.729 35.729 0 0 0 5.713 1.992c2.051.508 3.848.762 5.391.762 1.738 0 2.979-.254 3.721-.762.761-.527 1.142-1.211 1.142-2.051 0-.547-.156-1.035-.468-1.465-.293-.449-.938-.947-1.934-1.494-.996-.566-2.559-1.299-4.688-2.197-2.05-.86-3.74-1.728-5.068-2.607-1.309-.88-2.285-1.915-2.93-3.106-.625-1.21-.937-2.744-.937-4.6 0-3.027 1.172-5.302 3.516-6.826 2.363-1.543 5.517-2.314 9.462-2.314 2.032 0 3.965.205 5.801.615 1.856.41 3.76 1.065 5.713 1.963l-2.695 6.445a45.76 45.76 0 0 0-4.6-1.728 14.446 14.446 0 0 0-4.365-.674c-1.309 0-2.295.176-2.959.527-.664.352-.996.889-.996 1.612 0 .527.166.996.498 1.406.351.41 1.016.869 1.992 1.377.996.488 2.451 1.123 4.365 1.904 1.856.762 3.467 1.563 4.834 2.403 1.368.82 2.422 1.845 3.164 3.076.743 1.21 1.114 2.783 1.114 4.716Z" fill="#4D575F"/><path d="M95.928 173.174c0 4.824-.928 8.857-2.784 12.099-1.835 3.223-4.501 5.655-7.998 7.295C81.65 194.189 77.442 195 72.52 195H60.391v-42.832h13.447c4.492 0 8.389.801 11.69 2.402 3.3 1.582 5.859 3.936 7.675 7.061 1.816 3.105 2.725 6.953 2.725 11.543Zm-9.434.234c0-3.164-.469-5.762-1.406-7.793-.918-2.051-2.285-3.564-4.102-4.541-1.797-.976-4.023-1.465-6.68-1.465h-4.833V187.5h3.896c4.434 0 7.725-1.182 9.873-3.545 2.168-2.363 3.252-5.879 3.252-10.547Zm47.373 5.156c0 2.735-.371 5.157-1.113 7.266-.723 2.109-1.787 3.897-3.193 5.361-1.387 1.446-3.067 2.539-5.04 3.282-1.953.742-4.16 1.113-6.621 1.113-2.304 0-4.423-.371-6.357-1.113a14.138 14.138 0 0 1-5.01-3.282c-1.406-1.464-2.5-3.252-3.281-5.361-.762-2.109-1.143-4.531-1.143-7.266 0-3.632.645-6.709 1.934-9.228 1.289-2.52 3.125-4.434 5.508-5.742 2.383-1.309 5.224-1.963 8.525-1.963 3.067 0 5.781.654 8.145 1.963 2.383 1.308 4.248 3.222 5.595 5.742 1.368 2.519 2.051 5.596 2.051 9.228Zm-22.646 0c0 2.149.234 3.956.703 5.42.469 1.465 1.201 2.569 2.197 3.311s2.295 1.113 3.897 1.113c1.582 0 2.861-.371 3.837-1.113.997-.742 1.719-1.846 2.168-3.311.469-1.464.704-3.271.704-5.42 0-2.168-.235-3.964-.704-5.39-.449-1.445-1.171-2.529-2.168-3.252-.996-.723-2.294-1.084-3.896-1.084-2.363 0-4.082.81-5.156 2.432-1.055 1.621-1.582 4.052-1.582 7.294Zm43.33 17.022c-3.242 0-6.006-.586-8.291-1.758-2.285-1.191-4.024-3.027-5.215-5.508-1.191-2.48-1.787-5.654-1.787-9.521 0-4.004.674-7.266 2.021-9.785 1.367-2.539 3.252-4.405 5.655-5.596 2.421-1.191 5.224-1.787 8.408-1.787 2.265 0 4.219.224 5.859.674 1.66.429 3.106.947 4.336 1.552l-2.637 6.914a41.608 41.608 0 0 0-3.925-1.376 12.314 12.314 0 0 0-3.633-.557c-1.563 0-2.862.371-3.897 1.113-1.035.723-1.806 1.817-2.314 3.281-.508 1.465-.762 3.301-.762 5.508 0 2.168.274 3.965.82 5.391.547 1.426 1.338 2.49 2.373 3.193 1.036.684 2.295 1.026 3.78 1.026 1.855 0 3.506-.245 4.951-.733a19.393 19.393 0 0 0 4.219-2.109v7.646a14.632 14.632 0 0 1-4.307 1.846c-1.484.391-3.369.586-5.654.586Zm47.637-33.34V195h-6.856l-1.201-4.189h-.469a9.005 9.005 0 0 1-2.637 2.724 11.454 11.454 0 0 1-3.486 1.553 15.566 15.566 0 0 1-3.955.498c-2.344 0-4.385-.41-6.123-1.231-1.738-.839-3.096-2.138-4.072-3.896-.957-1.758-1.436-4.043-1.436-6.855v-21.358h8.936v19.131c0 2.344.42 4.111 1.259 5.303.84 1.191 2.178 1.787 4.014 1.787 1.817 0 3.242-.41 4.277-1.231 1.036-.84 1.758-2.06 2.168-3.662.43-1.621.645-3.594.645-5.918v-15.41h8.936Zm47.841-.615c3.711 0 6.514.957 8.409 2.871 1.914 1.894 2.871 4.941 2.871 9.141V195h-8.965v-19.131c0-2.344-.401-4.111-1.201-5.303-.801-1.191-2.041-1.787-3.721-1.787-2.363 0-4.043.85-5.039 2.549-.996 1.68-1.494 4.092-1.494 7.236V195h-8.936v-19.131c0-1.562-.176-2.871-.527-3.926-.352-1.054-.889-1.845-1.612-2.373-.722-.527-1.65-.791-2.783-.791-1.66 0-2.969.42-3.926 1.26-.937.82-1.611 2.041-2.021 3.662-.391 1.602-.586 3.565-.586 5.889V195h-8.936v-32.754h6.827l1.201 4.19h.498c.664-1.133 1.494-2.051 2.49-2.754a10.881 10.881 0 0 1 3.34-1.553 13.897 13.897 0 0 1 3.691-.498c2.403 0 4.434.39 6.094 1.172 1.68.781 2.969 1.992 3.867 3.633h.791c.977-1.68 2.354-2.901 4.131-3.663a14.071 14.071 0 0 1 5.537-1.142Zm33.985 0c3.027 0 5.634.586 7.822 1.758 2.187 1.152 3.877 2.832 5.068 5.039 1.192 2.207 1.787 4.902 1.787 8.086v4.336h-21.123c.098 2.519.85 4.502 2.256 5.947 1.426 1.426 3.399 2.139 5.918 2.139 2.09 0 4.004-.215 5.742-.645 1.739-.43 3.526-1.074 5.362-1.934v6.914a21.28 21.28 0 0 1-5.098 1.758c-1.758.371-3.896.557-6.416.557-3.281 0-6.191-.606-8.73-1.816-2.52-1.211-4.502-3.057-5.948-5.538-1.425-2.48-2.138-5.605-2.138-9.375 0-3.828.644-7.011 1.933-9.55 1.309-2.559 3.125-4.473 5.449-5.743 2.325-1.289 5.03-1.933 8.116-1.933Zm.058 6.357c-1.738 0-3.183.557-4.336 1.67-1.132 1.113-1.787 2.862-1.963 5.244h12.539c-.019-1.328-.263-2.509-.732-3.545a5.507 5.507 0 0 0-2.051-2.461c-.898-.605-2.05-.908-3.457-.908Zm40.489-6.357c3.496 0 6.308.957 8.437 2.871 2.129 1.894 3.193 4.941 3.193 9.141V195h-8.935v-19.131c0-2.344-.43-4.111-1.289-5.303-.84-1.191-2.168-1.787-3.985-1.787-2.734 0-4.599.928-5.595 2.783-.996 1.856-1.494 4.532-1.494 8.028V195h-8.936v-32.754h6.826l1.201 4.19h.498c.704-1.133 1.573-2.051 2.608-2.754a11.476 11.476 0 0 1 3.486-1.553 15.91 15.91 0 0 1 3.985-.498Zm34.628 26.836c.977 0 1.924-.098 2.842-.293.938-.195 1.865-.44 2.783-.733v6.651c-.957.429-2.148.781-3.574 1.054-1.406.293-2.949.44-4.629.44-1.953 0-3.711-.313-5.273-.938-1.543-.644-2.764-1.748-3.662-3.31-.879-1.582-1.319-3.779-1.319-6.592v-15.791h-4.277v-3.779l4.922-2.988 2.578-6.915h5.713v6.973h9.17v6.709h-9.17v15.791c0 1.25.352 2.188 1.055 2.813.722.605 1.67.908 2.841.908Zm25.694-26.895c4.394 0 7.763.957 10.107 2.871 2.344 1.914 3.516 4.825 3.516 8.731V195h-6.24l-1.729-4.453h-.234c-.938 1.172-1.895 2.129-2.871 2.871-.977.742-2.1 1.289-3.37 1.641-1.269.351-2.812.527-4.628.527-1.934 0-3.672-.371-5.215-1.113-1.524-.743-2.725-1.875-3.604-3.399-.879-1.543-1.318-3.496-1.318-5.859 0-3.477 1.221-6.035 3.662-7.676 2.441-1.66 6.103-2.578 10.986-2.754l5.684-.176v-1.435c0-1.719-.449-2.979-1.348-3.779-.898-.801-2.148-1.202-3.75-1.202-1.582 0-3.135.225-4.658.674a36.162 36.162 0 0 0-4.57 1.699l-2.959-6.035c1.738-.918 3.681-1.64 5.83-2.168a28.3 28.3 0 0 1 6.709-.791Zm4.746 18.252-3.457.117c-2.891.079-4.902.596-6.035 1.553-1.114.957-1.67 2.217-1.67 3.779 0 1.368.4 2.344 1.201 2.93.801.567 1.846.85 3.135.85 1.914 0 3.525-.567 4.834-1.699 1.328-1.133 1.992-2.745 1.992-4.834v-2.696Zm31.904 8.643c.977 0 1.924-.098 2.842-.293.937-.195 1.865-.44 2.783-.733v6.651c-.957.429-2.148.781-3.574 1.054-1.406.293-2.949.44-4.629.44-1.953 0-3.711-.313-5.273-.938-1.543-.644-2.764-1.748-3.662-3.31-.879-1.582-1.319-3.779-1.319-6.592v-15.791h-4.277v-3.779l4.922-2.988 2.578-6.915h5.713v6.973h9.17v6.709h-9.17v15.791c0 1.25.351 2.188 1.054 2.813.723.605 1.67.908 2.842.908Zm21.211-26.221V195h-8.935v-32.754h8.935Zm-4.453-12.832c1.328 0 2.471.313 3.428.938.957.605 1.435 1.748 1.435 3.427 0 1.66-.478 2.813-1.435 3.457-.957.625-2.1.938-3.428.938-1.348 0-2.5-.313-3.457-.938-.938-.644-1.406-1.797-1.406-3.457 0-1.679.468-2.822 1.406-3.427.957-.625 2.109-.938 3.457-.938Zm43.623 29.15c0 2.735-.371 5.157-1.113 7.266-.723 2.109-1.787 3.897-3.194 5.361-1.386 1.446-3.066 2.539-5.039 3.282-1.953.742-4.16 1.113-6.621 1.113-2.304 0-4.424-.371-6.357-1.113a14.138 14.138 0 0 1-5.01-3.282c-1.406-1.464-2.5-3.252-3.281-5.361-.762-2.109-1.143-4.531-1.143-7.266 0-3.632.645-6.709 1.934-9.228 1.289-2.52 3.125-4.434 5.508-5.742 2.382-1.309 5.224-1.963 8.525-1.963 3.066 0 5.781.654 8.145 1.963 2.382 1.308 4.248 3.222 5.595 5.742 1.367 2.519 2.051 5.596 2.051 9.228Zm-22.646 0c0 2.149.234 3.956.703 5.42.468 1.465 1.201 2.569 2.197 3.311s2.295 1.113 3.896 1.113c1.582 0 2.862-.371 3.838-1.113.996-.742 1.719-1.846 2.168-3.311.469-1.464.703-3.271.703-5.42 0-2.168-.234-3.964-.703-5.39-.449-1.445-1.172-2.529-2.168-3.252-.996-.723-2.295-1.084-3.896-1.084-2.363 0-4.082.81-5.156 2.432-1.055 1.621-1.582 4.052-1.582 7.294Zm48.632-16.933c3.496 0 6.309.957 8.438 2.871 2.129 1.894 3.193 4.941 3.193 9.141V195h-8.935v-19.131c0-2.344-.43-4.111-1.289-5.303-.84-1.191-2.168-1.787-3.985-1.787-2.734 0-4.599.928-5.595 2.783-.997 1.856-1.495 4.532-1.495 8.028V195h-8.935v-32.754h6.826l1.201 4.19h.498c.703-1.133 1.573-2.051 2.608-2.754a11.454 11.454 0 0 1 3.486-1.553 15.908 15.908 0 0 1 3.984-.498Z" fill="#8F9DA8"/><path d="M3063.46 1403.65c0 366.26-78.11 697.81-204.36 937.77-126.27 240-300.61 388.24-493.02 388.24-192.42 0-366.75-148.24-493.02-388.24-126.26-239.96-204.36-571.51-204.36-937.77 0-366.25 78.1-697.799 204.36-937.766 126.27-239.993 300.6-388.239 493.02-388.239 192.41 0 366.75 148.246 493.02 388.239 126.25 239.967 204.36 571.516 204.36 937.766Z" stroke="#8F9DA8" stroke-width="1.156"/><path d="M2859.72 911.765c258.97 258.975 438.19 548.655 518.59 807.605 80.42 258.99 61.97 487.09-74.09 623.15s-364.16 154.51-623.14 74.09c-258.96-80.41-548.63-259.62-807.61-518.6s-438.19-548.65-518.6-807.61c-80.42-258.982-61.97-487.083 74.09-623.141 136.06-136.058 364.16-154.507 623.15-74.091 258.95 80.406 548.63 259.618 807.61 518.597Z" stroke="#8F9DA8" stroke-width="1.156"/><path d="M2860.03 1895.86c-258.98 258.98-548.65 438.19-807.6 518.6-258.99 80.41-487.09 61.96-623.15-74.09-136.06-136.06-154.51-364.16-74.09-623.15 80.41-258.96 259.62-548.63 518.6-807.607 258.98-258.979 548.65-438.19 807.6-518.597 258.99-80.416 487.09-61.966 623.15 74.092s154.51 364.159 74.09 623.142c-80.41 258.96-259.62 548.63-518.6 807.61Z" stroke="#8F9DA8" stroke-width="1.156"/><path d="M2634.1 761.282c338.37 140.158 614.79 339.198 788.18 547.678 173.4 208.49 243.65 426.29 170.01 604.06-73.63 177.77-277.31 282.1-547.35 306.92-270.02 24.81-606.22-29.91-944.59-170.06-338.38-140.16-614.8-339.2-788.18-547.68-173.41-208.5-243.65-426.29-170.02-604.063 73.63-177.768 277.31-282.104 547.36-306.919 270.01-24.812 606.22 29.905 944.59 170.064Z" stroke="#8F9DA8" stroke-width="1.156"/><path d="M3010.99 1670.35c-140.16 338.37-339.2 614.79-547.68 788.18-208.49 173.4-426.29 243.65-604.06 170.01-177.77-73.63-282.1-277.31-306.92-547.35-24.81-270.02 29.91-606.22 170.06-944.6 140.16-338.369 339.2-614.791 547.68-788.176 208.5-173.404 426.29-243.649 604.06-170.015 177.77 73.634 282.11 277.312 306.92 547.357 24.81 270.015-29.9 606.214-170.06 944.594Z" stroke="#8F9DA8" stroke-width="1.156"/><path d="M2101 760.789c338.38-140.159 674.58-194.876 944.6-170.063 270.04 24.815 473.72 129.15 547.35 306.919 73.64 177.765 3.39 395.565-170.01 604.065-173.39 208.47-449.81 407.51-788.18 547.67-338.38 140.16-674.58 194.88-944.59 170.07-270.05-24.82-473.73-129.15-547.36-306.92s-3.39-395.57 170.01-604.07c173.39-208.47 449.81-407.512 788.18-547.671Z" stroke="#8F9DA8" stroke-width="1.156"/><path d="M3010.31 1137.09c140.16 338.37 194.88 674.58 170.06 944.59-24.81 270.05-129.15 473.72-306.91 547.36-177.77 73.63-395.57 3.39-604.07-170.02-208.47-173.38-407.51-449.8-547.67-788.18-140.16-338.37-194.88-674.572-170.07-944.588 24.82-270.045 129.16-473.723 306.92-547.357 177.77-73.634 395.57-3.388 604.07 170.016 208.47 173.384 407.51 449.806 547.67 788.179Z" stroke="#8F9DA8" stroke-width="1.156"/><path d="M3062.8 1373.3c15.97 365.9-47.6 700.54-163.26 945.79-115.68 245.27-283.39 400.98-475.62 409.37-192.23 8.4-372.87-132.1-509.49-366.36-136.6-234.23-229.09-562.06-245.07-927.96-15.97-365.91 47.6-700.548 163.26-945.793 115.68-245.273 283.39-400.982 475.62-409.375 192.23-8.393 372.87 132.107 509.49 366.364 136.6 234.231 229.09 562.054 245.07 927.964Z" stroke="#8F9DA8" stroke-width="1.156"/><path d="M2398.19 2099.07c-365.91 15.97-700.55-47.6-945.79-163.27-245.28-115.68-400.99-283.38-409.38-475.61-8.39-192.24 132.11-372.87 366.37-509.49 234.23-136.601 562.05-229.096 927.96-245.071 365.9-15.976 700.54 47.595 945.79 163.261 245.27 115.68 400.98 283.39 409.37 475.62 8.4 192.23-132.1 372.87-366.36 509.48-234.23 136.6-562.06 229.1-927.96 245.08Z" stroke="#8F9DA8" stroke-width="1.156"/><path d="M2837.78 890.763c270.03 247.437 461.71 529.017 553.33 784.217 91.64 255.23 83.16 483.92-46.84 625.78-129.99 141.87-357.07 170.25-619.32 101.21-262.21-69.04-559.43-235.44-829.46-482.88-270.03-247.44-461.7-529.01-553.33-784.22-91.63-255.229-83.15-483.918 46.84-625.782 130-141.863 357.07-170.244 619.32-101.202 262.22 69.035 559.43 235.44 829.46 482.877Z" stroke="#8F9DA8" stroke-width="1.156"/><path d="M2881.03 1873.91c-247.43 270.03-529.01 461.71-784.22 553.33-255.23 91.64-483.92 83.16-625.78-46.84-141.86-129.99-170.24-357.07-101.2-619.32 69.03-262.21 235.44-559.43 482.88-829.457 247.43-270.029 529.01-461.706 784.21-553.331 255.24-91.636 483.92-83.154 625.79 46.84 141.86 129.993 170.24 357.073 101.2 619.318-69.03 262.22-235.44 559.43-482.88 829.46Z" stroke="#8F9DA8" stroke-width="1.156"/><path d="M2605.82 750.268c344.16 125.265 629.01 312.062 811.32 512.772 182.33 200.74 262.01 415.26 196.2 596.07-65.81 180.81-264.74 293.94-533.45 330.51-268.67 36.56-606.94-3.44-951.11-128.7-344.16-125.27-629-312.06-811.32-512.78-182.33-200.73-262.01-415.26-196.2-596.069C1187.07 771.26 1386 658.14 1654.71 621.569c268.68-36.567 606.95 3.433 951.11 128.699Z" stroke="#8F9DA8" stroke-width="1.156"/><path d="M3022 1642.03c-125.26 344.16-312.06 629-512.77 811.32-200.74 182.33-415.26 262.01-596.07 196.2-180.81-65.81-293.94-264.74-330.51-533.45-36.56-268.68 3.44-606.95 128.7-951.11 125.27-344.165 312.06-629.006 512.78-811.319 200.73-182.334 415.26-262.013 596.07-196.203 180.81 65.81 293.93 264.743 330.5 533.449 36.57 268.676-3.43 606.943-128.7 951.113Z" stroke="#8F9DA8" stroke-width="1.156"/><path d="M2073.21 773.028c331.94-154.785 665.43-224.115 936.27-211.104 270.87 13.012 478.91 108.364 560.23 282.751 81.32 174.385 20.64 395.045-143.51 610.905-164.12 215.84-431.6 426.75-763.54 581.53-331.93 154.79-665.43 224.12-936.27 211.11-270.87-13.01-478.91-108.37-560.23-282.75-81.31-174.39-20.64-395.05 143.51-610.91 164.13-215.84 431.6-426.747 763.54-581.532Z" stroke="#8F9DA8" stroke-width="1.156"/><path d="M2998.07 1109.31c154.79 331.94 224.12 665.43 211.11 936.27-13.02 270.87-108.37 478.91-282.76 560.23-174.38 81.31-395.04 20.64-610.9-143.51-215.84-164.12-426.75-431.6-581.53-763.54-154.79-331.94-224.12-665.43-211.11-936.272 13.02-270.871 108.37-478.906 282.75-560.224 174.39-81.318 395.05-20.64 610.91 143.505 215.84 164.126 426.75 431.603 581.53 763.541Z" stroke="#8F9DA8" stroke-width="1.156"/><path d="M3060.81 1343c31.92 364.86-16.99 701.96-121.85 952.01-104.87 250.09-265.63 412.96-457.31 429.73-191.68 16.77-378.28-115.71-524.98-343.79-146.69-228.05-253.4-551.53-285.32-916.39-31.92-364.86 16.99-701.952 121.85-952.009C1898.07 262.466 2058.83 99.59 2250.51 82.82c191.68-16.77 378.28 115.717 524.98 343.792 146.69 228.049 253.4 551.531 285.32 916.388Z" stroke="#8F9DA8" stroke-width="1.156"/><path d="M2428.48 2097.07c-364.85 31.92-701.95-16.99-952.01-121.85-250.08-104.87-412.96-265.63-429.73-457.31-16.77-191.68 115.72-378.28 343.79-524.983 228.05-146.688 551.53-253.395 916.39-285.316 364.86-31.921 701.96 16.993 952.01 121.852 250.09 104.871 412.97 265.627 429.74 457.307 16.77 191.68-115.72 378.28-343.8 524.98-228.05 146.69-551.53 253.4-916.39 285.32Z" stroke="#8F9DA8" stroke-width="1.156"/><path d="M2814.96 870.74c280.57 235.42 484.34 508.37 587.01 759.34 102.68 250.99 104.18 479.83-19.5 627.23-123.68 147.4-349.3 185.66-614.31 128.12-264.98-57.53-569.17-210.82-849.74-446.24-280.56-235.42-484.34-508.37-587.01-759.33-102.68-250.996-104.18-479.838 19.5-627.236 123.68-147.398 349.31-185.658 614.32-128.12 264.98 57.531 569.17 210.814 849.73 446.236Z" stroke="#8F9DA8" stroke-width="1.156"/><path d="M2901.05 1851.06c-235.42 280.57-508.37 484.35-759.34 587.02-250.99 102.68-479.83 104.18-627.23-19.5-147.4-123.68-185.66-349.31-128.12-614.32 57.53-264.98 210.82-569.17 446.24-849.732 235.42-280.566 508.37-484.342 759.33-587.012 251-102.682 479.84-104.183 627.24 19.499 147.39 123.682 185.65 349.307 128.12 614.315-57.53 264.98-210.82 569.17-446.24 849.73Z" stroke="#8F9DA8" stroke-width="1.156"/><path d="M2577.09 740.502c349.3 110.134 642.02 284.328 832.91 476.898 190.92 192.59 279.88 403.44 222.02 586.95-57.86 183.51-251.67 305.2-518.53 353.45-266.82 48.25-606.52 23.05-955.82-87.09-349.3-110.13-642.02-284.32-832.91-476.89-190.92-192.59-279.88-403.44-222.02-586.95 57.86-183.51 251.67-305.201 518.53-353.457 266.82-48.252 606.52-23.045 955.82 87.089Z" stroke="#8F9DA8" stroke-width="1.156"/><path d="M3031.78 1613.25c-110.14 349.3-284.33 642.02-476.9 832.92-192.59 190.91-403.44 279.87-586.94 222.01-183.51-57.86-305.2-251.67-353.46-518.52-48.25-266.83-23.05-606.52 87.09-955.82 110.13-349.3 284.32-642.018 476.89-832.913 192.6-190.916 403.44-279.876 586.95-222.016 183.51 57.86 305.2 251.67 353.46 518.525 48.25 266.825 23.04 606.514-87.09 955.814Z" stroke="#8F9DA8" stroke-width="1.156"/><path d="M2045.98 786.465c324.87-169.117 655.02-252.928 926.17-251.743 271.18 1.185 483.18 87.372 572.03 258.046 88.85 170.674 37.85 393.762-116.72 616.582-154.56 222.79-412.58 445.17-737.45 614.29-324.87 169.11-655.02 252.92-926.18 251.74-271.18-1.19-483.17-87.37-572.02-258.05-88.85-170.67-37.85-393.76 116.72-616.58 154.56-222.79 412.58-445.169 737.45-614.285Z" stroke="#8F9DA8" stroke-width="1.156"/><path d="M2984.62 1082.09c169.12 324.86 252.93 655.02 251.75 926.17-1.19 271.18-87.37 483.18-258.05 572.02-170.67 88.85-393.76 37.86-616.58-116.72-222.79-154.55-445.17-412.57-614.29-737.44-169.11-324.87-252.92-655.03-251.74-926.179 1.19-271.18 87.37-483.177 258.05-572.024 170.67-88.847 393.76-37.851 616.58 116.721 222.79 154.555 445.17 412.578 614.28 737.452Z" stroke="#8F9DA8" stroke-width="1.156"/><path d="M3057.5 1312.82c47.8 363.12 13.64 702.03-80.21 956.42-93.86 254.42-247.36 424.16-438.13 449.27-190.77 25.12-382.96-99.11-539.48-320.57-156.49-221.43-277.21-539.95-325.01-903.07-47.81-363.12-13.65-702.024 80.21-956.417 93.86-254.422 247.35-424.155 438.12-449.27 190.77-25.116 382.97 99.107 539.48 320.565 156.5 221.434 277.21 539.953 325.02 903.072Z" stroke="#8F9DA8" stroke-width="1.156"/><path d="M2458.67 2093.75c-363.12 47.81-702.03 13.64-956.42-80.21-254.42-93.86-424.15-247.36-449.27-438.13-25.11-190.77 99.11-382.96 320.57-539.48 221.43-156.491 539.95-277.206 903.07-325.012 363.12-47.805 702.03-13.642 956.42 80.21 254.42 93.862 424.15 247.362 449.27 438.132 25.11 190.76-99.11 382.96-320.57 539.47-221.43 156.5-539.95 277.21-903.07 325.02Z" stroke="#8F9DA8" stroke-width="1.156"/><path d="M2791.29 851.733c290.56 222.957 506.05 486.767 619.57 733.007 113.53 246.28 125.01 474.83 7.88 627.49-117.14 152.65-340.88 200.71-608.14 154.79-267.24-45.92-577.83-185.79-868.39-408.75-290.57-222.96-506.06-486.76-619.58-733-113.53-246.278-125.01-474.836-7.88-627.489 117.14-152.653 340.88-200.718 608.15-154.794 267.23 45.918 577.82 185.786 868.39 408.746Z" stroke="#8F9DA8" stroke-width="1.156"/><path d="M2920.05 1827.37c-222.96 290.56-486.76 506.05-733 619.57-246.28 113.53-474.84 125.02-627.49 7.88-152.65-117.13-200.72-340.88-154.79-608.14 45.91-267.24 185.78-577.82 408.74-868.392 222.96-290.567 486.76-506.055 733.01-619.574 246.27-113.533 474.83-125.014 627.49-7.879 152.65 117.134 200.71 340.876 154.79 608.143-45.92 267.232-185.79 577.822-408.75 868.392Z" stroke="#8F9DA8" stroke-width="1.156"/><path d="M2547.96 731.988c353.77 94.793 653.81 256.051 852.92 440.112 199.13 184.08 297.21 390.85 247.41 576.7-49.8 185.86-238.12 315.89-502.62 375.74-264.46 59.85-604.93 49.48-958.71-45.31-353.77-94.8-653.81-256.05-852.92-440.11-199.13-184.08-297.21-390.85-247.4-576.71 49.8-185.857 238.11-315.885 502.61-375.736 264.47-59.844 604.93-49.479 958.71 45.314Z" stroke="#8F9DA8" stroke-width="1.156"/><path d="M3040.28 1584.08c-94.79 353.78-256.05 653.81-440.11 852.93-184.08 199.13-390.85 297.2-576.7 247.4-185.86-49.8-315.89-238.11-375.74-502.61-59.85-264.47-49.48-604.94 45.31-958.71 94.8-353.771 256.05-653.808 440.11-852.921C2317.23 171.034 2524 72.961 2709.86 122.762c185.86 49.801 315.88 238.117 375.74 502.613 59.84 264.467 49.47 604.935-45.32 958.705Z" stroke="#8F9DA8" stroke-width="1.156"/><path d="M2019.37 801.082c317.18-183.126 643.36-281.259 914.31-291.902 270.97-10.646 486.53 66.212 582.73 232.849 96.21 166.636 54.99 391.741-89.71 621.091-144.69 229.32-392.77 462.74-709.95 645.86-317.19 183.13-643.37 281.26-914.31 291.91-270.98 10.64-486.53-66.22-582.74-232.85-96.21-166.64-54.99-391.74 89.71-621.09 144.69-229.32 392.77-462.742 709.96-645.868Z" stroke="#8F9DA8" stroke-width="1.156"/><path d="M2970.01 1055.47c183.13 317.19 281.26 643.37 291.91 914.32 10.64 270.97-66.22 486.52-232.85 582.73-166.64 96.21-391.74 54.99-621.09-89.71-229.32-144.69-462.74-392.77-645.87-709.95-183.12-317.19-281.25-643.37-291.9-914.316-10.64-270.974 66.21-486.528 232.85-582.735 166.64-96.208 391.74-54.992 621.09 89.714 229.32 144.69 462.74 392.768 645.86 709.947Z" stroke="#8F9DA8" stroke-width="1.156"/><path d="M3052.88 1282.81c63.59 360.69 44.25 700.77-38.42 959.01-82.67 258.28-228.62 434.54-418.11 467.96-189.49 33.41-386.93-82.31-552.95-296.73-166.01-214.4-300.5-527.35-364.1-888.04-63.6-360.69-44.25-700.763 38.42-959.008 82.67-258.273 228.62-434.54 418.11-467.953 189.49-33.412 386.92 82.308 552.95 296.729 166 214.397 300.5 527.347 364.1 888.032Z" stroke="#8F9DA8" stroke-width="1.156"/><path d="M2488.68 2089.12c-360.68 63.6-700.76 44.25-959.01-38.42-258.27-82.67-434.54-228.62-467.95-418.11-33.41-189.49 82.31-386.92 296.73-552.95 214.4-166.004 527.35-300.498 888.03-364.097 360.69-63.599 700.77-44.251 959.01 38.415 258.28 82.676 434.54 228.622 467.96 418.112 33.41 189.49-82.31 386.93-296.73 552.95-214.4 166.01-527.35 300.5-888.04 364.1Z" stroke="#8F9DA8" stroke-width="1.156"/><path d="M2766.81 833.777c300.02 210.073 526.81 464.223 650.96 705.283 124.16 241.09 145.6 468.93 35.24 626.55-110.36 157.61-331.8 215.39-600.81 181.17-268.99-34.22-585.38-160.41-885.39-370.48-300.02-210.07-526.81-464.22-650.96-705.28-124.17-241.09-145.61-468.931-35.24-626.548 110.36-157.617 331.79-215.396 600.81-181.174 268.98 34.218 585.37 160.406 885.39 370.479Z" stroke="#8F9DA8" stroke-width="1.156"/><path d="M2938 1802.87c-210.07 300.01-464.22 526.8-705.28 650.95-241.09 124.17-468.93 145.61-626.54 35.25-157.62-110.37-215.4-331.8-181.18-600.82 34.22-268.98 160.41-585.37 370.48-885.39 210.07-300.014 464.23-526.804 705.29-650.956 241.08-124.166 468.92-145.607 626.54-35.242 157.62 110.365 215.4 331.797 181.17 600.812-34.21 268.986-160.4 585.376-370.48 885.396Z" stroke="#8F9DA8" stroke-width="1.156"/><path d="M2518.48 724.763c357.57 79.272 664.36 227.288 871.31 402.487 206.97 175.22 313.97 377.51 272.33 565.37-41.65 187.85-224.11 325.97-485.75 397.3-261.6 71.32-602.2 75.82-959.77-3.45-357.57-79.28-664.36-227.29-871.31-402.49-206.97-175.22-313.97-377.51-272.33-565.37 41.65-187.85 224.12-325.969 485.75-397.3 261.6-71.323 602.2-75.818 959.77 3.453Z" stroke="#8F9DA8" stroke-width="1.156"/><path d="M3047.51 1554.57c-79.27 357.57-227.29 664.35-402.49 871.31-175.22 206.97-377.51 313.97-565.36 272.32-187.86-41.64-325.98-224.11-397.31-485.74-71.32-261.61-75.82-602.2 3.46-959.77 79.27-357.575 227.28-664.361 402.48-871.313 175.22-206.975 377.51-313.973 565.37-272.327 187.85 41.646 325.97 224.112 397.3 485.746 71.32 261.604 75.82 602.204-3.45 959.774Z" stroke="#8F9DA8" stroke-width="1.156"/><path d="M1993.41 816.843c308.9-196.787 630.49-309.054 900.71-331.506 270.25-22.455 488.95 44.927 592.34 207.209 103.38 162.281 72.03 388.964-62.54 624.414-134.55 235.41-372.21 479.43-681.1 676.22-308.9 196.78-630.49 309.05-900.71 331.5-270.25 22.46-488.95-44.93-592.34-207.21-103.38-162.28-72.03-388.97 62.54-624.41 134.55-235.41 372.21-479.43 681.1-676.217Z" stroke="#8F9DA8" stroke-width="1.156"/><path d="M2954.25 1029.53c196.78 308.89 309.05 630.49 331.5 900.71 22.46 270.25-44.92 488.95-207.2 592.34-162.29 103.38-388.97 72.02-624.42-62.54-235.41-134.55-479.43-372.21-676.21-681.1-196.79-308.9-309.06-630.49-331.51-900.714-22.46-270.252 44.93-488.953 207.21-592.337 162.28-103.385 388.97-72.027 624.41 62.538 235.41 134.549 479.43 372.209 676.22 681.103Z" stroke="#8F9DA8" stroke-width="1.156"/><path d="M3046.95 1253.04c79.27 357.57 74.77 698.16 3.45 959.77-71.33 261.63-209.45 444.1-397.31 485.74-187.85 41.65-390.14-65.35-565.36-272.32-175.2-206.96-323.22-513.74-402.49-871.31-79.27-357.57-74.77-698.169-3.45-959.774 71.33-261.634 209.45-444.1 397.3-485.746 187.86-41.646 390.15 65.353 565.37 272.328 175.2 206.951 323.21 513.737 402.49 871.312Z" stroke="#8F9DA8" stroke-width="1.156"/><path d="M2518.47 2083.18c-357.57 79.27-698.17 74.78-959.77 3.46-261.64-71.33-444.1-209.45-485.75-397.31-41.65-187.85 65.35-390.14 272.33-565.36 206.95-175.201 513.74-323.218 871.31-402.489 357.57-79.272 698.16-74.777 959.77-3.453 261.63 71.331 444.1 209.45 485.74 397.302 41.65 187.86-65.35 390.15-272.32 565.37-206.96 175.2-513.74 323.21-871.31 402.48Z" stroke="#8F9DA8" stroke-width="1.156"/><path d="M2741.57 816.905c308.89 196.785 546.55 440.805 681.1 676.215 134.56 235.45 165.92 462.13 62.54 624.41-103.39 162.29-322.09 229.67-592.34 207.21-270.22-22.45-591.81-134.72-900.71-331.5-308.89-196.79-546.55-440.81-681.1-676.22-134.57-235.44-165.92-462.132-62.54-624.413s322.09-229.663 592.34-207.208c270.22 22.452 591.81 134.719 900.71 331.506Z" stroke="#8F9DA8" stroke-width="1.156"/><path d="M2954.88 1777.6c-196.79 308.9-440.8 546.56-676.22 681.11-235.44 134.56-462.13 165.92-624.41 62.53-162.28-103.38-229.66-322.08-207.21-592.33 22.45-270.23 134.72-591.82 331.51-900.71 196.78-308.898 440.8-546.557 676.22-681.107 235.44-134.564 462.13-165.922 624.41-62.537 162.28 103.384 229.66 322.085 207.21 592.337-22.46 270.217-134.72 591.817-331.51 900.707Z" stroke="#8F9DA8" stroke-width="1.156"/><path d="M2488.73 718.824c360.68 63.599 673.63 198.093 888.03 364.096 214.42 166.03 330.14 363.46 296.73 552.95-33.41 189.49-209.68 335.44-467.95 418.11-258.25 82.67-598.32 102.02-959.01 38.42-360.69-63.6-673.64-198.09-888.04-364.1-214.42-166.02-330.14-363.46-296.73-552.95 33.42-189.489 209.68-335.436 467.96-418.111 258.24-82.667 598.32-102.014 959.01-38.415Z" stroke="#8F9DA8" stroke-width="1.156"/><path d="M3053.44 1524.77c-63.6 360.68-198.09 673.63-364.1 888.03-166.02 214.42-363.45 330.14-552.95 296.73-189.49-33.41-335.43-209.68-418.11-467.95-82.67-258.25-102.01-598.32-38.41-959.01 63.6-360.69 198.09-673.641 364.09-888.038 166.03-214.42 363.46-330.14 552.95-296.728 189.49 33.412 335.44 209.68 418.12 467.953 82.66 258.244 102.01 598.323 38.41 959.013Z" stroke="#8F9DA8" stroke-width="1.156"/><path d="M1968.17 833.722c300.01-210.074 616.4-336.262 885.39-370.48 269.01-34.221 490.45 23.557 600.81 181.175 110.37 157.617 88.93 385.453-35.24 626.543-124.15 241.06-350.94 495.21-650.96 705.29-300.02 210.07-616.41 336.26-885.39 370.47-269.02 34.23-490.45-23.55-600.81-181.17-110.37-157.62-88.93-385.46 35.24-626.54 124.15-241.06 350.94-495.21 650.96-705.288Z" stroke="#8F9DA8" stroke-width="1.156"/><path d="M2937.37 1004.29c210.07 300.02 336.26 616.41 370.48 885.4 34.22 269.01-23.56 490.44-181.18 600.81-157.61 110.36-385.45 88.92-626.54-35.24-241.06-124.16-495.21-350.95-705.29-650.96-210.07-300.02-336.26-616.41-370.47-885.395-34.23-269.015 23.55-490.447 181.17-600.812 157.62-110.365 385.46-88.924 626.54 35.242 241.06 124.153 495.21 350.942 705.29 650.955Z" stroke="#8F9DA8" stroke-width="1.156"/><path d="M3039.73 1223.54c94.79 353.78 105.16 694.25 45.31 958.71-59.85 264.5-189.88 452.81-375.74 502.62-185.86 49.8-392.62-48.28-576.7-247.41-184.06-199.11-345.32-499.15-440.11-852.92-94.8-353.78-105.16-694.245-45.32-958.712 59.85-264.496 189.88-452.813 375.74-502.613 185.86-49.801 392.63 48.272 576.71 247.407 184.06 199.112 345.31 499.15 440.11 852.918Z" stroke="#8F9DA8" stroke-width="1.156"/><path d="M2547.96 2075.95c-353.78 94.8-694.24 105.16-958.71 45.32-264.5-59.85-452.81-189.88-502.61-375.74-49.81-185.86 48.27-392.62 247.4-576.71 199.12-184.055 499.15-345.313 852.93-440.106 353.77-94.793 694.24-105.159 958.7-45.314 264.5 59.851 452.82 189.879 502.62 375.74 49.8 185.86-48.28 392.62-247.41 576.7-199.11 184.06-499.15 345.32-852.92 440.11Z" stroke="#8F9DA8" stroke-width="1.156"/><path d="M2715.61 801.147c317.19 183.126 565.27 416.543 709.96 645.863 144.7 229.35 185.92 454.46 89.71 621.09-96.21 166.64-311.76 243.5-582.74 232.85-270.94-10.64-597.12-108.78-914.31-291.9-317.18-183.13-565.26-416.55-709.95-645.87-144.71-229.35-185.92-454.45-89.71-621.086 96.2-166.636 311.76-243.494 582.73-232.849 270.95 10.644 597.13 108.776 914.31 291.902Z" stroke="#8F9DA8" stroke-width="1.156"/><path d="M2970.63 1751.63c-183.13 317.18-416.54 565.26-645.87 709.95-229.34 144.71-454.45 185.92-621.08 89.72-166.64-96.21-243.5-311.77-232.85-582.74 10.64-270.94 108.77-597.13 291.9-914.31 183.12-317.186 416.54-565.264 645.87-709.953 229.34-144.707 454.45-185.923 621.08-89.715 166.64 96.207 243.5 311.761 232.85 582.735-10.64 270.943-108.77 597.133-291.9 914.313Z" stroke="#8F9DA8" stroke-width="1.156"/><path d="M2458.73 714.193c363.12 47.805 681.64 168.52 903.07 325.017 221.46 156.51 345.68 348.71 320.57 539.48-25.12 190.77-194.85 344.26-449.27 438.13-254.4 93.85-593.31 128.01-956.42 80.2-363.12-47.8-681.64-168.52-903.08-325.01-221.45-156.51-345.68-348.71-320.56-539.48 25.11-190.77 194.85-344.265 449.27-438.127 254.39-93.853 593.3-128.016 956.42-80.21Z" stroke="#8F9DA8" stroke-width="1.156"/><path d="M3058.06 1494.73c-47.8 363.12-168.52 681.64-325.01 903.07-156.51 221.46-348.71 345.68-539.48 320.57-190.77-25.12-344.26-194.85-438.13-449.27-93.85-254.4-128.01-593.3-80.21-956.42 47.81-363.121 168.52-681.64 325.02-903.074 156.51-221.459 348.71-345.681 539.48-320.566 190.77 25.115 344.26 194.849 438.13 449.27 93.85 254.393 128.01 593.3 80.2 956.42Z" stroke="#8F9DA8" stroke-width="1.156"/><path d="M1943.68 851.683c290.57-222.96 601.15-362.828 868.39-408.746 267.27-45.924 491.01 2.141 608.14 154.794 117.14 152.653 105.65 381.211-7.88 627.489-113.52 246.24-329 510.04-619.57 733-290.57 222.96-601.15 362.83-868.39 408.75-267.27 45.92-491.01-2.14-608.14-154.79-117.14-152.66-105.66-381.21 7.87-627.49 113.52-246.24 329.01-510.05 619.58-733.007Z" stroke="#8F9DA8" stroke-width="1.156"/><path d="M2919.4 979.818c222.96 290.572 362.83 601.152 408.75 868.392 45.92 267.26-2.14 491.01-154.79 608.14-152.66 117.13-381.22 105.65-627.49-7.88-246.25-113.52-510.05-329.01-733.01-619.57-222.96-290.57-362.83-601.16-408.74-868.393-45.93-267.266 2.14-491.008 154.79-608.143 152.65-117.134 381.21-105.653 627.49 7.879 246.24 113.52 510.04 329.008 733 619.575Z" stroke="#8F9DA8" stroke-width="1.156"/><path d="M3031.23 1194.4c110.13 349.3 135.34 688.99 87.09 955.81-48.26 266.86-169.95 460.67-353.46 518.53-183.51 57.86-394.36-31.1-586.95-222.02-192.57-190.89-366.76-483.61-476.89-832.91-110.14-349.3-135.35-688.995-87.09-955.82 48.25-266.855 169.94-460.664 353.45-518.525 183.51-57.86 394.36 31.101 586.95 222.017 192.57 190.894 366.76 483.612 476.9 832.918Z" stroke="#8F9DA8" stroke-width="1.156"/><path d="M2577.11 2067.44c-349.31 110.14-689 135.35-955.82 87.09-266.86-48.25-460.67-169.94-518.53-353.45-57.86-183.51 31.1-394.36 222.02-586.95 190.89-192.57 483.61-366.761 832.91-476.895 349.3-110.135 688.99-135.342 955.82-87.09 266.86 48.257 460.66 169.947 518.52 353.455 57.86 183.51-31.1 394.36-222.01 586.95-190.9 192.57-483.61 366.76-832.91 476.89Z" stroke="#8F9DA8" stroke-width="1.156"/><path d="M2688.99 786.543c324.87 169.116 582.9 391.487 737.45 614.287 154.57 222.81 205.57 445.91 116.72 616.58-88.85 170.67-300.84 256.86-572.02 258.05-271.15 1.18-601.31-82.63-926.18-251.75-324.87-169.11-582.89-391.49-737.44-614.28-154.58-222.82-205.57-445.91-116.73-616.584 88.85-170.675 300.85-256.862 572.03-258.046 271.15-1.185 601.3 82.626 926.17 251.743Z" stroke="#8F9DA8" stroke-width="1.156"/><path d="M2985.23 1724.99c-169.12 324.87-391.49 582.9-614.29 737.45-222.81 154.57-445.91 205.57-616.58 116.72-170.67-88.85-256.86-300.84-258.05-572.02-1.18-271.15 82.63-601.31 251.75-926.18 169.11-324.867 391.49-582.89 614.28-737.445 222.82-154.572 445.91-205.568 616.58-116.721 170.68 88.848 256.87 300.844 258.05 572.025 1.19 271.151-82.63 601.301-251.74 926.171Z" stroke="#8F9DA8" stroke-width="1.156"/><path d="M2428.57 710.869c364.85 31.921 688.34 138.627 916.39 285.315 228.07 146.706 360.56 333.296 343.79 524.986-16.77 191.68-179.65 352.43-429.73 457.3-250.06 104.86-587.16 153.78-952.02 121.86-364.85-31.93-688.34-138.63-916.38-285.32-228.08-146.7-360.57-333.3-343.8-524.98 16.77-191.69 179.65-352.439 429.73-457.31 250.06-104.859 587.16-153.772 952.02-121.851Z" stroke="#8F9DA8" stroke-width="1.156"/><path d="M3061.37 1464.52c-31.92 364.86-138.63 688.34-285.31 916.39-146.71 228.08-333.3 360.57-524.99 343.8-191.68-16.77-352.43-179.65-457.3-429.74-104.86-250.05-153.78-587.15-121.85-952.01 31.92-364.855 138.62-688.337 285.31-916.386 146.7-228.075 333.3-360.562 524.98-343.792 191.69 16.77 352.44 179.646 457.31 429.731 104.86 250.057 153.77 587.157 121.85 952.007Z" stroke="#8F9DA8" stroke-width="1.156"/><path d="M1920.01 870.699c280.57-235.422 584.75-388.705 849.73-446.236 265.01-57.538 490.64-19.278 614.32 128.12 123.68 147.398 122.18 376.24 19.5 627.227-102.67 250.97-306.45 523.92-587.01 759.34-280.57 235.42-584.76 388.71-849.74 446.24-265 57.53-490.63 19.27-614.31-128.12-123.68-147.4-122.18-376.24-19.5-627.24 102.67-250.96 306.45-523.91 587.01-759.331Z" stroke="#8F9DA8" stroke-width="1.156"/><path d="M2900.39 956.151c235.42 280.569 388.7 584.759 446.23 849.729 57.54 265.01 19.28 490.64-128.12 614.32-147.4 123.68-376.24 122.18-627.23 19.5-250.96-102.67-523.91-306.45-759.34-587.01-235.42-280.57-388.7-584.76-446.23-849.74-57.54-265.004-19.28-490.629 128.12-614.311 147.4-123.682 376.24-122.181 627.23-19.499 250.96 102.67 523.91 306.446 759.34 587.011Z" stroke="#8F9DA8" stroke-width="1.156"/><path d="M3021.46 1165.64c125.27 344.17 165.27 682.44 128.7 951.12-36.57 268.7-149.69 467.63-330.5 533.44-180.81 65.81-395.34-13.87-596.08-196.2-200.71-182.31-387.5-467.15-512.77-811.32-125.26-344.16-165.26-682.432-128.7-951.108 36.57-268.706 149.69-467.639 330.5-533.449 180.82-65.81 395.34 13.87 596.08 196.203 200.71 182.313 387.5 467.154 512.77 811.314Z" stroke="#8F9DA8" stroke-width="1.156"/><path d="M2605.86 2057.67c-344.16 125.27-682.43 165.27-951.11 128.7-268.7-36.57-467.63-149.69-533.44-330.5-65.81-180.81 13.87-395.34 196.2-596.08 182.31-200.71 467.15-387.503 811.32-512.768 344.16-125.266 682.43-165.266 951.11-128.699 268.7 36.57 467.64 149.691 533.45 330.502 65.81 180.815-13.87 395.335-196.21 596.075-182.31 200.71-467.15 387.51-811.32 512.77Z" stroke="#8F9DA8" stroke-width="1.156"/><path d="M2661.77 773.107c331.94 154.785 599.41 365.693 763.54 581.533 164.14 215.86 224.82 436.52 143.5 610.91-81.31 174.38-289.35 269.73-560.22 282.75-270.84 13.01-604.34-56.32-936.27-211.11-331.94-154.78-599.42-365.69-763.54-581.53-164.15-215.86-224.83-436.52-143.51-610.905 81.32-174.387 289.35-269.739 560.23-282.752 270.84-13.011 604.33 56.319 936.27 211.104Z" stroke="#8F9DA8" stroke-width="1.156"/><path d="M2998.65 1697.74c-154.78 331.94-365.69 599.42-581.53 763.54-215.86 164.15-436.52 224.83-610.91 143.51-174.38-81.32-269.74-289.35-282.75-560.23-13.01-270.84 56.32-604.33 211.11-936.27 154.78-331.937 365.69-599.414 581.53-763.54 215.86-164.145 436.52-224.823 610.9-143.505 174.39 81.318 269.74 289.353 282.76 560.224 13.01 270.841-56.32 604.341-211.11 936.271Z" stroke="#8F9DA8" stroke-width="1.156"/><path d="M2398.29 708.865c365.9 15.975 693.73 108.47 927.96 245.071 234.26 136.614 374.76 317.254 366.36 509.484-8.39 192.23-164.1 359.94-409.37 475.62-245.25 115.67-579.89 179.24-945.79 163.26-365.91-15.97-693.73-108.47-927.96-245.07-234.26-136.62-374.76-317.25-366.37-509.49 8.39-192.23 164.1-359.934 409.38-475.613 245.24-115.667 579.88-179.238 945.79-163.262Z" stroke="#8F9DA8" stroke-width="1.156"/><path d="M3063.37 1434.2c-15.98 365.91-108.47 693.73-245.07 927.96-136.62 234.26-317.26 374.76-509.49 366.37-192.23-8.39-359.94-164.1-475.62-409.38-115.66-245.24-179.23-579.88-163.26-945.79 15.98-365.9 108.47-693.728 245.07-927.959 136.62-234.257 317.26-374.758 509.49-366.365 192.23 8.394 359.94 164.103 475.62 409.375 115.66 245.245 179.23 579.889 163.26 945.789Z" stroke="#8F9DA8" stroke-width="1.156"/><path d="M1897.17 890.73c270.03-247.436 567.25-413.842 829.46-482.876 262.25-69.043 489.33-40.661 619.32 101.202 130 141.864 138.48 370.552 46.84 625.784-91.62 255.2-283.3 536.78-553.33 784.22-270.03 247.43-567.24 413.84-829.46 482.87-262.24 69.05-489.32 40.67-619.32-101.2-129.99-141.86-138.47-370.55-46.84-625.78 91.63-255.2 283.3-536.78 553.33-784.22Z" stroke="#8F9DA8" stroke-width="1.156"/><path d="M2880.35 933.334c247.44 270.026 413.85 567.246 482.88 829.456 69.04 262.25 40.66 489.33-101.2 619.32-141.87 130-370.55 138.48-625.79 46.84-255.2-91.62-536.78-283.3-784.21-553.33-247.44-270.03-413.85-567.24-482.88-829.46-69.04-262.245-40.66-489.324 101.2-619.318 141.86-129.993 370.55-138.476 625.78-46.84 255.21 91.626 536.79 283.302 784.22 553.332Z" stroke="#8F9DA8" stroke-width="1.156"/></g><defs><clipPath id="a"><path fill="#fff" d="M0 0h2110v684H0z"/></clipPath></defs></svg>
