<svg width="1280" height="640" viewBox="0 0 1280 640" fill="none" xmlns="http://www.w3.org/2000/svg">
<rect width="1280" height="640" fill="#EDEFF3"/>
<path d="M1139.65 596H1129.8V594.301L1136.35 585.148H1130.2V583.027H1139.46V584.902L1133.04 593.879H1139.65V596ZM1147.62 582.781C1148.78 582.781 1149.77 583.02 1150.6 583.496C1151.43 583.973 1152.06 584.648 1152.51 585.523C1152.95 586.398 1153.18 587.445 1153.18 588.664V590.141H1144.52C1144.55 591.398 1144.88 592.367 1145.52 593.047C1146.17 593.727 1147.08 594.066 1148.24 594.066C1149.07 594.066 1149.81 593.988 1150.47 593.832C1151.13 593.668 1151.82 593.43 1152.52 593.117V595.355C1151.87 595.66 1151.21 595.883 1150.54 596.023C1149.87 596.164 1149.06 596.234 1148.12 596.234C1146.85 596.234 1145.73 595.988 1144.76 595.496C1143.8 594.996 1143.05 594.254 1142.5 593.27C1141.96 592.285 1141.69 591.062 1141.69 589.602C1141.69 588.148 1141.94 586.914 1142.43 585.898C1142.92 584.883 1143.61 584.109 1144.5 583.578C1145.39 583.047 1146.43 582.781 1147.62 582.781ZM1147.62 584.855C1146.75 584.855 1146.05 585.137 1145.51 585.699C1144.98 586.262 1144.67 587.086 1144.57 588.172H1150.48C1150.47 587.523 1150.36 586.949 1150.15 586.449C1149.95 585.949 1149.64 585.559 1149.21 585.277C1148.8 584.996 1148.27 584.855 1147.62 584.855ZM1162.86 582.781C1163.07 582.781 1163.31 582.793 1163.57 582.816C1163.83 582.84 1164.05 582.871 1164.24 582.91L1163.98 585.488C1163.82 585.441 1163.61 585.406 1163.37 585.383C1163.14 585.359 1162.93 585.348 1162.74 585.348C1162.25 585.348 1161.78 585.43 1161.33 585.594C1160.89 585.75 1160.49 585.992 1160.15 586.32C1159.8 586.641 1159.54 587.043 1159.34 587.527C1159.14 588.012 1159.05 588.574 1159.05 589.215V596H1156.28V583.027H1158.44L1158.81 585.312H1158.94C1159.2 584.852 1159.52 584.43 1159.9 584.047C1160.29 583.664 1160.72 583.359 1161.21 583.133C1161.71 582.898 1162.26 582.781 1162.86 582.781ZM1178.12 589.484C1178.12 590.562 1177.98 591.52 1177.7 592.355C1177.42 593.191 1177.01 593.898 1176.47 594.477C1175.93 595.047 1175.29 595.484 1174.53 595.789C1173.77 596.086 1172.91 596.234 1171.96 596.234C1171.07 596.234 1170.25 596.086 1169.51 595.789C1168.77 595.484 1168.12 595.047 1167.58 594.477C1167.04 593.898 1166.62 593.191 1166.32 592.355C1166.03 591.52 1165.88 590.562 1165.88 589.484C1165.88 588.055 1166.12 586.844 1166.62 585.852C1167.12 584.852 1167.83 584.09 1168.75 583.566C1169.67 583.043 1170.77 582.781 1172.04 582.781C1173.24 582.781 1174.29 583.043 1175.21 583.566C1176.12 584.09 1176.84 584.852 1177.35 585.852C1177.87 586.852 1178.12 588.062 1178.12 589.484ZM1168.71 589.484C1168.71 590.43 1168.83 591.238 1169.05 591.91C1169.29 592.582 1169.65 593.098 1170.13 593.457C1170.62 593.809 1171.24 593.984 1172.01 593.984C1172.77 593.984 1173.4 593.809 1173.88 593.457C1174.37 593.098 1174.72 592.582 1174.95 591.91C1175.18 591.238 1175.29 590.43 1175.29 589.484C1175.29 588.539 1175.18 587.738 1174.95 587.082C1174.72 586.418 1174.37 585.914 1173.88 585.57C1173.4 585.219 1172.77 585.043 1172 585.043C1170.86 585.043 1170.02 585.426 1169.5 586.191C1168.98 586.957 1168.71 588.055 1168.71 589.484ZM1187.95 582.781C1189.48 582.781 1190.72 583.344 1191.65 584.469C1192.59 585.594 1193.05 587.266 1193.05 589.484C1193.05 590.953 1192.84 592.191 1192.4 593.199C1191.97 594.199 1191.36 594.957 1190.58 595.473C1189.81 595.98 1188.91 596.234 1187.88 596.234C1187.22 596.234 1186.65 596.148 1186.16 595.977C1185.68 595.805 1185.27 595.582 1184.92 595.309C1184.58 595.027 1184.29 594.723 1184.05 594.395H1183.89C1183.93 594.707 1183.96 595.055 1184 595.438C1184.04 595.812 1184.05 596.156 1184.05 596.469V601.754H1181.29V583.027H1183.54L1183.93 584.82H1184.05C1184.3 584.453 1184.59 584.113 1184.93 583.801C1185.29 583.488 1185.71 583.242 1186.2 583.062C1186.7 582.875 1187.28 582.781 1187.95 582.781ZM1187.21 585.031C1186.45 585.031 1185.84 585.184 1185.38 585.488C1184.93 585.785 1184.59 586.234 1184.38 586.836C1184.18 587.438 1184.07 588.191 1184.05 589.098V589.484C1184.05 590.445 1184.15 591.262 1184.35 591.934C1184.55 592.598 1184.88 593.105 1185.34 593.457C1185.81 593.801 1186.45 593.973 1187.24 593.973C1187.91 593.973 1188.47 593.789 1188.91 593.422C1189.35 593.055 1189.68 592.531 1189.9 591.852C1190.12 591.172 1190.23 590.371 1190.23 589.449C1190.23 588.051 1189.98 586.965 1189.48 586.191C1188.99 585.418 1188.23 585.031 1187.21 585.031ZM1204.96 592.297C1204.96 593.148 1204.75 593.867 1204.34 594.453C1203.93 595.039 1203.32 595.484 1202.52 595.789C1201.73 596.086 1200.77 596.234 1199.62 596.234C1198.71 596.234 1197.93 596.168 1197.27 596.035C1196.62 595.91 1196.01 595.715 1195.43 595.449V593.07C1196.05 593.359 1196.74 593.609 1197.51 593.82C1198.28 594.031 1199.01 594.137 1199.7 594.137C1200.61 594.137 1201.26 593.996 1201.66 593.715C1202.05 593.426 1202.25 593.043 1202.25 592.566C1202.25 592.285 1202.17 592.035 1202.01 591.816C1201.85 591.59 1201.55 591.359 1201.12 591.125C1200.69 590.883 1200.05 590.594 1199.22 590.258C1198.4 589.93 1197.71 589.602 1197.14 589.273C1196.58 588.945 1196.16 588.551 1195.87 588.09C1195.58 587.621 1195.43 587.023 1195.43 586.297C1195.43 585.148 1195.89 584.277 1196.79 583.684C1197.71 583.082 1198.91 582.781 1200.41 582.781C1201.21 582.781 1201.96 582.863 1202.66 583.027C1203.38 583.184 1204.07 583.414 1204.75 583.719L1203.88 585.793C1203.3 585.535 1202.71 585.324 1202.11 585.16C1201.53 584.988 1200.93 584.902 1200.32 584.902C1199.61 584.902 1199.07 585.012 1198.69 585.23C1198.32 585.449 1198.14 585.762 1198.14 586.168C1198.14 586.473 1198.23 586.73 1198.41 586.941C1198.59 587.152 1198.9 587.363 1199.34 587.574C1199.78 587.785 1200.4 588.047 1201.19 588.359C1201.96 588.656 1202.63 588.969 1203.19 589.297C1203.76 589.617 1204.2 590.012 1204.5 590.48C1204.81 590.949 1204.96 591.555 1204.96 592.297ZM1207.54 594.547C1207.54 593.906 1207.7 593.457 1208.03 593.199C1208.37 592.934 1208.77 592.801 1209.25 592.801C1209.73 592.801 1210.13 592.934 1210.47 593.199C1210.81 593.457 1210.98 593.906 1210.98 594.547C1210.98 595.172 1210.81 595.625 1210.47 595.906C1210.13 596.18 1209.73 596.316 1209.25 596.316C1208.77 596.316 1208.37 596.18 1208.03 595.906C1207.7 595.625 1207.54 595.172 1207.54 594.547ZM1217.28 583.027V596H1214.52V583.027H1217.28ZM1215.92 578.059C1216.34 578.059 1216.7 578.172 1217.01 578.398C1217.32 578.625 1217.48 579.016 1217.48 579.57C1217.48 580.117 1217.32 580.508 1217.01 580.742C1216.7 580.969 1216.34 581.082 1215.92 581.082C1215.48 581.082 1215.11 580.969 1214.8 580.742C1214.51 580.508 1214.36 580.117 1214.36 579.57C1214.36 579.016 1214.51 578.625 1214.8 578.398C1215.11 578.172 1215.48 578.059 1215.92 578.059ZM1232.71 589.484C1232.71 590.562 1232.57 591.52 1232.29 592.355C1232.01 593.191 1231.6 593.898 1231.06 594.477C1230.52 595.047 1229.87 595.484 1229.11 595.789C1228.36 596.086 1227.5 596.234 1226.55 596.234C1225.66 596.234 1224.84 596.086 1224.1 595.789C1223.36 595.484 1222.71 595.047 1222.16 594.477C1221.62 593.898 1221.21 593.191 1220.91 592.355C1220.61 591.52 1220.46 590.562 1220.46 589.484C1220.46 588.055 1220.71 586.844 1221.2 585.852C1221.7 584.852 1222.41 584.09 1223.34 583.566C1224.26 583.043 1225.36 582.781 1226.63 582.781C1227.82 582.781 1228.88 583.043 1229.79 583.566C1230.71 584.09 1231.42 584.852 1231.94 585.852C1232.45 586.852 1232.71 588.062 1232.71 589.484ZM1223.3 589.484C1223.3 590.43 1223.41 591.238 1223.64 591.91C1223.88 592.582 1224.23 593.098 1224.72 593.457C1225.2 593.809 1225.83 593.984 1226.59 593.984C1227.36 593.984 1227.98 593.809 1228.47 593.457C1228.95 593.098 1229.31 592.582 1229.54 591.91C1229.76 591.238 1229.88 590.43 1229.88 589.484C1229.88 588.539 1229.76 587.738 1229.54 587.082C1229.31 586.418 1228.95 585.914 1228.47 585.57C1227.98 585.219 1227.36 585.043 1226.58 585.043C1225.44 585.043 1224.61 585.426 1224.09 586.191C1223.56 586.957 1223.3 588.055 1223.3 589.484Z" fill="#1A1A1A"/>
<path d="M256.096 179.457L159.738 216.285C155.536 217.933 151.929 220.81 149.389 224.54C146.849 228.27 145.493 232.681 145.5 237.194V329.908L189.783 304.459V252.328L264 223.853V178C261.299 178.006 258.621 178.5 256.096 179.457Z" fill="#323232"/>
<path d="M190.568 387.085L264 344.763V293.642L150.545 359.057C149.018 359.952 147.75 361.229 146.865 362.762C145.98 364.295 145.51 366.032 145.5 367.802V402.051C145.538 406.526 146.914 410.887 149.452 414.573C151.989 418.26 155.572 421.102 159.738 422.735L256.096 459.563C258.621 460.521 261.299 461.015 264 461.021V415.168L190.568 387.085Z" fill="#323232"/>
<path d="M377.791 279.066C379.239 278.237 380.439 277.036 381.267 275.587C382.095 274.139 382.52 272.495 382.5 270.826V237.194C382.506 232.68 381.151 228.27 378.611 224.54C376.07 220.81 372.463 217.933 368.262 216.285L271.848 179.457C269.34 178.506 266.682 178.013 264 178V223.853L336.871 251.88L264 293.865V344.987L377.791 279.066Z" fill="#1A1A1A"/>
<path d="M271.848 459.563L368.262 422.735C372.428 421.102 376.01 418.259 378.548 414.573C381.085 410.887 382.461 406.526 382.5 402.051V308.384L338.216 333.945V386.804L264 415.168V461.021C266.682 461.008 269.34 460.514 271.848 459.563Z" fill="#1A1A1A"/>
<path d="M588.5 295.553L582.457 289.51L558.5 313.467L534.543 289.51L528.5 295.553L552.457 319.51L528.5 343.467L534.543 349.51L558.5 325.553L582.457 349.51L588.5 343.467L564.543 319.51L588.5 295.553Z" fill="#939393"/>
<path d="M775.79 352.62C776.462 349.395 777.134 346.27 777.739 343.28C778.243 340.76 778.848 338.005 779.486 334.948L779.889 333.1L783.081 317.747H795.243L797.393 307.567H784.66C784.761 307.13 784.895 306.458 785.063 305.551C785.231 304.678 785.399 303.905 785.5 303.3C785.97 300.982 786.844 299.235 788.087 298.093C789.33 296.917 791.043 296.346 793.26 296.346C794.504 296.346 795.747 296.48 796.956 296.783C798.166 297.085 799.341 297.522 800.417 298.059L803.608 287.207C802.667 286.771 801.559 286.401 800.282 286.099C799.005 285.796 797.695 285.528 796.318 285.36C794.94 285.192 793.529 285.125 792.152 285.125C789.968 285.125 787.851 285.393 785.836 285.931C783.82 286.468 781.972 287.342 780.326 288.585C778.68 289.828 777.235 291.541 775.992 293.658C774.749 295.808 773.808 298.462 773.17 301.654C772.767 303.67 772.296 305.854 771.826 308.239L771.96 307.533H764.535L762.385 317.68H769.776L769.676 318.184C769.474 319.124 769.273 320.065 769.105 320.972L768.802 322.349C768.332 324.634 767.895 326.683 767.526 328.565L766.585 333.067C765.812 336.796 765.107 340.189 764.468 343.213C763.83 346.237 763.192 349.361 762.52 352.586H775.79V352.62ZM813.654 307.433L812.377 310.691L818.323 314.857C818.659 315.093 818.827 315.496 818.76 315.933L818.727 316.067L818.323 317.915C818.223 318.385 817.887 318.721 817.45 318.721L812.209 319.057L816.711 322.181C817.047 322.417 817.215 322.82 817.148 323.257L817.114 323.391L816.711 325.239C816.61 325.709 816.274 326.045 815.837 326.045L810.596 326.415L815.098 329.539C815.434 329.774 815.602 330.177 815.535 330.614L815.501 330.749L815.098 332.596C814.997 333.067 814.661 333.403 814.225 333.403L808.984 333.772L813.486 336.897C813.822 337.132 813.99 337.535 813.922 337.972L813.889 338.106L813.486 339.954C813.385 340.424 813.049 340.76 812.612 340.76L807.371 341.13L811.873 344.254C812.209 344.49 812.377 344.893 812.31 345.33L812.276 345.464L811.873 347.312C811.772 347.782 811.436 348.118 810.999 348.118L803.642 348.756L802.735 352.687H796.855L798.669 345.464C798.77 344.994 799.106 344.658 799.543 344.658L804.784 344.288L800.282 341.164C799.946 340.928 799.778 340.525 799.845 340.088L799.879 339.954L800.282 338.106C800.383 337.636 800.719 337.3 801.156 337.3L806.397 336.93L801.895 333.806C801.559 333.571 801.391 333.168 801.458 332.731L801.492 332.596L801.895 330.749C801.996 330.278 802.332 329.942 802.768 329.942L808.009 329.573L803.507 326.448C803.171 326.213 803.003 325.81 803.071 325.373L803.104 325.239L803.507 323.391C803.608 322.921 803.944 322.585 804.381 322.585L809.622 322.215L805.12 319.091C804.784 318.855 804.616 318.452 804.683 318.016L804.717 317.881L805.12 316.033C805.221 315.563 805.557 315.227 805.994 315.227L811.235 314.857L806.733 311.733C806.397 311.498 806.229 311.095 806.296 310.658L806.33 310.523L807.136 307.601C807.169 307.701 813.654 307.433 813.654 307.433ZM818.155 285.528C820.574 285.528 822.355 286.334 823.497 287.98C824.673 289.626 825.009 291.575 824.539 293.86C824.001 296.48 822.926 298.261 821.28 299.168C819.634 300.075 817.584 300.545 815.165 300.545C812.78 300.545 810.999 299.84 809.79 298.395C808.58 296.95 808.245 294.935 808.782 292.281C809.286 289.862 810.361 288.148 812.041 287.073C813.721 286.065 815.737 285.528 818.155 285.528ZM835.39 343.28C834.752 346.304 834.114 349.395 833.475 352.62H820.171C820.843 349.395 821.515 346.27 822.12 343.247C822.758 340.223 823.464 336.83 824.27 333.1L829.444 308.071C830.25 304.409 831.023 300.78 831.762 297.186C832.501 293.591 833.24 289.996 833.979 286.401L847.485 285.225C846.746 288.787 845.973 292.415 845.201 296.178C844.428 299.941 843.588 303.871 842.748 308.037L837.541 333.067C836.701 336.863 835.995 340.256 835.39 343.28ZM870.465 306.324C874.732 306.324 878.26 307.063 881.015 308.508C883.769 309.952 885.684 312.002 886.76 314.689C887.835 317.344 887.969 320.535 887.163 324.197C886.86 325.709 886.558 327.221 886.222 328.766C885.886 330.312 885.55 331.924 885.214 333.638L884.408 337.434C883.937 339.685 883.434 342.071 882.93 344.557C882.426 347.043 881.854 349.764 881.216 352.654H869.726L870.297 346.64H869.289C868.181 348.252 866.971 349.563 865.661 350.604C864.351 351.646 862.906 352.418 861.361 352.956C859.815 353.493 858.169 353.762 856.388 353.762C853.566 353.762 851.214 353.057 849.299 351.646C847.418 350.235 846.074 348.387 845.335 346.069C844.596 343.75 844.529 341.231 845.1 338.476C845.537 336.359 846.276 334.612 847.25 333.201C848.258 331.79 849.434 330.614 850.845 329.707C852.256 328.8 853.801 328.094 855.515 327.557C857.228 327.019 858.975 326.616 860.823 326.347L874.732 324.13C875.034 322.786 874.934 321.577 874.396 320.569C873.892 319.561 872.951 318.788 871.608 318.217C870.264 317.646 868.584 317.377 866.501 317.377C865.426 317.377 864.283 317.444 863.108 317.612C861.898 317.78 860.655 318.016 859.345 318.351C858.035 318.654 856.691 319.057 855.313 319.527C853.936 319.998 852.525 320.535 851.08 321.174L853.163 309.348C854.238 308.978 855.448 308.642 856.825 308.273C858.203 307.937 859.614 307.601 861.125 307.298C862.637 306.996 864.183 306.761 865.762 306.559C867.374 306.391 868.953 306.324 870.465 306.324ZM873.119 330.211C872.716 330.513 872.212 330.816 871.608 331.085C871.003 331.387 870.196 331.656 869.155 331.958C868.114 332.26 866.702 332.596 864.922 332.966C863.78 333.235 862.704 333.537 861.764 333.907C860.823 334.276 860.017 334.78 859.412 335.452C858.774 336.124 858.371 336.964 858.169 338.039C857.867 339.685 858.169 340.996 859.009 341.903C859.882 342.81 861.025 343.28 862.536 343.28C863.612 343.28 864.687 343.045 865.762 342.575C866.837 342.104 867.878 341.432 868.886 340.559C869.894 339.685 870.801 338.644 871.608 337.434L873.119 330.211ZM937.793 314.354C937.322 312.103 936.382 310.288 934.937 308.944C933.089 307.197 930.502 306.324 927.176 306.324C925.127 306.324 923.178 306.693 921.297 307.399C919.415 308.138 917.668 309.112 916.089 310.356C914.51 311.599 913.166 313.01 912.058 314.521H910.949L911.89 306.828L900.669 307.5C899.896 311.263 899.157 314.891 898.384 318.419C897.645 321.913 896.939 325.306 896.301 328.565L895.36 333.067C894.554 336.796 893.848 340.189 893.21 343.213C892.572 346.237 891.933 349.361 891.262 352.586H904.566C905.204 349.361 905.842 346.27 906.481 343.28C907.119 340.29 907.757 337.132 908.497 333.739L910.412 324.399C911.352 323.29 912.327 322.282 913.267 321.409C914.242 320.535 915.249 319.83 916.291 319.326C917.332 318.822 918.475 318.553 919.651 318.553C921.734 318.553 923.044 319.359 923.615 321.006C924.186 322.652 924.186 324.836 923.649 327.523L922.372 333.772C921.666 337.132 920.994 340.324 920.423 343.247C919.819 346.203 919.18 349.294 918.508 352.553H931.779C932.451 349.327 933.123 346.203 933.761 343.179C934.399 340.156 935.105 336.762 935.878 333.033C936.247 331.286 936.583 329.606 936.919 327.96C937.255 326.347 937.558 324.903 937.826 323.626L937.759 323.929L937.86 323.828C938.498 323.122 939.137 322.484 939.775 321.879L940.279 321.442C941.253 320.569 942.261 319.863 943.336 319.326C944.378 318.788 945.52 318.519 946.696 318.519C948.779 318.519 950.089 319.326 950.66 320.972C951.231 322.618 951.231 324.802 950.694 327.49L949.417 333.739C948.745 337.132 948.073 340.324 947.468 343.247C946.864 346.169 946.225 349.294 945.52 352.519H958.824C959.462 349.294 960.101 346.169 960.739 343.179C961.377 340.156 962.083 336.796 962.889 333C963.259 331.253 963.595 329.573 963.931 327.927C964.267 326.314 964.569 324.869 964.838 323.593C965.98 318.318 965.611 314.118 963.763 310.927C961.915 307.769 958.723 306.19 954.188 306.19C952.138 306.19 950.156 306.559 948.275 307.298C946.393 308.037 944.613 309.045 943 310.288C941.388 311.565 940.01 312.976 938.834 314.589H937.86L937.793 314.354ZM995.276 306.324C999.946 306.324 1003.74 307.197 1006.67 308.911C1009.59 310.624 1011.6 313.043 1012.61 316.134C1013.65 319.225 1013.65 322.853 1012.65 326.986C1012.41 327.994 1012.18 328.901 1011.91 329.774C1011.71 330.413 1011.5 331.051 1011.3 331.689L1011.1 332.294H983.854V332.462C983.786 334.175 984.055 335.687 984.593 336.964C985.433 338.879 986.844 340.324 988.792 341.264C990.741 342.205 993.16 342.675 995.982 342.675C997.225 342.675 998.602 342.575 1000.15 342.339C1001.66 342.104 1003.21 341.768 1004.72 341.298C1006.23 340.828 1007.61 340.223 1008.88 339.517L1007.1 351.007C1006.3 351.478 1005.22 351.948 1003.81 352.351C1002.43 352.788 1000.82 353.124 998.972 353.393C997.158 353.661 995.176 353.796 993.093 353.796C987.751 353.796 983.316 352.754 979.721 350.671C976.16 348.588 973.64 345.598 972.162 341.735C970.684 337.871 970.482 333.302 971.557 327.994C972.431 323.626 973.943 319.83 976.093 316.571C978.243 313.312 980.897 310.792 984.156 309.012C987.448 307.197 991.144 306.324 995.276 306.324ZM995.545 315.832C994.033 315.832 992.555 316.235 991.11 317.041C989.666 317.848 988.389 319.124 987.247 320.838C986.575 321.879 986.004 323.089 985.5 324.466L985.365 324.869L1001.42 324.533L1001.49 324.13C1001.73 322.148 1001.42 320.367 1000.62 318.788C999.644 316.84 997.964 315.832 995.545 315.832ZM1029.07 352.62C1029.71 349.395 1030.35 346.304 1030.99 343.347C1031.63 340.391 1032.27 337.199 1033.01 333.806L1034.92 324.466C1035.86 323.357 1036.84 322.349 1037.84 321.476C1038.85 320.602 1039.86 319.897 1040.97 319.393C1042.04 318.889 1043.22 318.62 1044.5 318.62C1046.85 318.62 1048.33 319.427 1048.93 321.073C1049.57 322.719 1049.57 324.903 1048.96 327.591L1047.69 333.839C1047.01 337.199 1046.38 340.391 1045.74 343.314C1045.13 346.27 1044.5 349.361 1043.79 352.62H1057.09C1057.77 349.395 1058.44 346.27 1059.08 343.247C1059.71 340.223 1060.42 336.83 1061.16 333.1C1061.53 331.353 1061.9 329.674 1062.23 328.027C1062.57 326.415 1062.87 324.97 1063.14 323.693C1064.25 318.419 1063.85 314.219 1062 311.027C1060.12 307.869 1056.79 306.29 1051.99 306.29C1049.87 306.29 1047.85 306.66 1045.91 307.365C1043.96 308.105 1042.18 309.079 1040.6 310.322C1038.99 311.565 1037.64 312.976 1036.57 314.488H1035.46L1036.4 306.794L1025.18 307.466C1024.4 311.229 1023.67 314.891 1022.89 318.385C1022.15 321.913 1021.45 325.272 1020.81 328.498L1019.87 333C1019.1 336.695 1018.39 340.088 1017.75 343.112C1017.11 346.169 1016.44 349.294 1015.77 352.519L1029.07 352.62ZM1087.9 353.829C1088.98 353.829 1090.12 353.729 1091.36 353.527C1092.61 353.325 1093.78 353.09 1094.86 352.754C1095.93 352.452 1096.81 352.082 1097.41 351.646L1098.82 340.592C1097.68 341.399 1096.5 341.97 1095.36 342.306C1094.22 342.642 1093.18 342.81 1092.24 342.81C1090.09 342.81 1088.61 342.071 1087.8 340.559C1086.99 339.047 1086.93 336.863 1087.57 333.974L1090.93 317.713H1104.16L1106.31 307.533H1093.08L1093.18 307.097C1093.38 306.19 1093.55 305.316 1093.71 304.443L1093.88 303.603C1094.35 301.385 1094.79 299.235 1095.23 297.152C1095.66 295.069 1096.13 292.852 1096.6 290.5L1083 292.885C1082.36 295.875 1081.79 298.765 1081.18 301.553C1080.85 303.233 1080.44 305.014 1080.04 306.929L1079.91 307.5H1072.72L1070.57 317.68H1077.76L1077.69 317.948L1077.52 318.721C1077.05 321.039 1076.58 323.223 1076.18 325.272C1075.74 327.322 1075.34 329.27 1074.97 331.152C1074.56 333.033 1074.19 334.948 1073.76 336.897C1072.95 340.727 1073.05 343.885 1074.03 346.371C1075 348.857 1076.68 350.739 1079.07 351.948C1081.55 353.225 1084.44 353.829 1087.9 353.829Z" fill="#010202"/>
</svg>
