<svg xmlns="http://www.w3.org/2000/svg" width="1280" height="640" fill="none"><path fill="#EDEFF3" d="M0 0h1280v640H0z"/><path fill="#1A1A1A" d="M1139.65 596h-9.85v-1.699l6.55-9.153h-6.15v-2.121h9.26v1.875l-6.42 8.977h6.61zm7.97-13.219c1.16 0 2.15.239 2.98.715.83.477 1.46 1.152 1.91 2.027.44.875.67 1.922.67 3.141v1.477h-8.66c.03 1.257.36 2.226 1 2.906.65.68 1.56 1.019 2.72 1.019.83 0 1.57-.078 2.23-.234.66-.164 1.35-.402 2.05-.715v2.238q-.975.458-1.98.668c-.67.141-1.48.211-2.42.211q-1.905 0-3.36-.738c-.96-.5-1.71-1.242-2.26-2.226q-.81-1.478-.81-3.668c0-1.454.25-2.688.74-3.704q.735-1.523 2.07-2.32t3.12-.797m0 2.074c-.87 0-1.57.282-2.11.844-.53.563-.84 1.387-.94 2.473h5.91q-.015-.973-.33-1.723c-.2-.5-.51-.89-.94-1.172q-.615-.422-1.59-.422m15.24-2.074c.21 0 .45.012.71.035s.48.055.67.094l-.26 2.578a3.4 3.4 0 0 0-.61-.105 6 6 0 0 0-.63-.035q-.735 0-1.41.246c-.44.156-.84.398-1.18.726-.35.321-.61.723-.81 1.207s-.29 1.047-.29 1.688V596h-2.77v-12.973h2.16l.37 2.285h.13q.39-.69.96-1.265c.39-.383.82-.688 1.31-.914a3.8 3.8 0 0 1 1.65-.352m15.26 6.703q0 1.618-.42 2.871-.42 1.254-1.23 2.122a5.4 5.4 0 0 1-1.94 1.312c-.76.297-1.62.445-2.57.445-.89 0-1.71-.148-2.45-.445a5.5 5.5 0 0 1-1.93-1.312q-.81-.868-1.26-2.122c-.29-.835-.44-1.793-.44-2.871 0-1.429.24-2.64.74-3.632q.75-1.5 2.13-2.286c.92-.523 2.02-.785 3.29-.785 1.2 0 2.25.262 3.17.785.91.524 1.63 1.286 2.14 2.286.52 1 .77 2.21.77 3.632m-9.41 0c0 .946.12 1.754.34 2.426q.36 1.008 1.08 1.547c.49.352 1.11.527 1.88.527.76 0 1.39-.175 1.87-.527.49-.359.84-.875 1.07-1.547s.34-1.48.34-2.426c0-.945-.11-1.746-.34-2.402-.23-.664-.58-1.168-1.07-1.512-.48-.351-1.11-.527-1.88-.527-1.14 0-1.98.383-2.5 1.148-.52.766-.79 1.864-.79 3.293m19.24-6.703c1.53 0 2.77.563 3.7 1.688.94 1.125 1.4 2.797 1.4 5.015 0 1.469-.21 2.707-.65 3.715-.43 1-1.04 1.758-1.82 2.274q-1.155.76-2.7.761c-.66 0-1.23-.086-1.72-.257a4.4 4.4 0 0 1-1.24-.668 5 5 0 0 1-.87-.914h-.16c.04.312.07.66.11 1.043.04.374.05.718.05 1.031v5.285h-2.76v-18.727h2.25l.39 1.793h.12c.25-.367.54-.707.88-1.019.36-.313.78-.559 1.27-.739.5-.187 1.08-.281 1.75-.281m-.74 2.25q-1.14 0-1.83.457c-.45.297-.79.746-1 1.348q-.3.902-.33 2.262v.386q0 1.442.3 2.45.3.995.99 1.523c.47.344 1.11.516 1.9.516.67 0 1.23-.184 1.67-.551q.66-.551.99-1.57t.33-2.403q0-2.097-.75-3.258c-.49-.773-1.25-1.16-2.27-1.16m17.75 7.266c0 .851-.21 1.57-.62 2.156s-1.02 1.031-1.82 1.336c-.79.297-1.75.445-2.9.445-.91 0-1.69-.066-2.35-.199a8 8 0 0 1-1.84-.586v-2.379c.62.289 1.31.539 2.08.75q1.155.317 2.19.317c.91 0 1.56-.141 1.96-.422.39-.289.59-.672.59-1.149q0-.421-.24-.75c-.16-.226-.46-.457-.89-.691-.43-.242-1.07-.531-1.9-.867-.82-.328-1.51-.656-2.08-.985-.56-.328-.98-.722-1.27-1.183-.29-.469-.44-1.067-.44-1.793 0-1.149.46-2.02 1.36-2.613.92-.602 2.12-.903 3.62-.903q1.2 0 2.25.246c.72.157 1.41.387 2.09.692l-.87 2.074q-.87-.387-1.77-.633a6.3 6.3 0 0 0-1.79-.258c-.71 0-1.25.11-1.63.328-.37.219-.55.532-.55.938q0 .457.27.773.27.317.93.633c.44.211 1.06.473 1.85.785.77.297 1.44.61 2 .938.57.32 1.01.715 1.31 1.183.31.469.46 1.075.46 1.817m2.58 2.25c0-.641.16-1.09.49-1.348.34-.265.74-.398 1.22-.398s.88.133 1.22.398q.51.387.51 1.348 0 .937-.51 1.359c-.34.274-.74.41-1.22.41s-.88-.136-1.22-.41c-.33-.281-.49-.734-.49-1.359m9.74-11.52V596h-2.76v-12.973zm-1.36-4.968c.42 0 .78.113 1.09.339s.47.618.47 1.172c0 .547-.16.938-.47 1.172-.31.227-.67.34-1.09.34-.44 0-.81-.113-1.12-.34-.29-.234-.44-.625-.44-1.172 0-.554.15-.945.44-1.172.31-.226.68-.339 1.12-.339m16.79 11.425q0 1.618-.42 2.871-.42 1.254-1.23 2.122a5.4 5.4 0 0 1-1.95 1.312c-.75.297-1.61.445-2.56.445-.89 0-1.71-.148-2.45-.445a5.7 5.7 0 0 1-1.94-1.312c-.54-.579-.95-1.286-1.25-2.122q-.45-1.253-.45-2.871c0-1.429.25-2.64.74-3.632.5-1 1.21-1.762 2.14-2.286.92-.523 2.02-.785 3.29-.785 1.19 0 2.25.262 3.16.785.92.524 1.63 1.286 2.15 2.286.51 1 .77 2.21.77 3.632m-9.41 0c0 .946.11 1.754.34 2.426.24.672.59 1.188 1.08 1.547.48.352 1.11.527 1.87.527.77 0 1.39-.175 1.88-.527.48-.359.84-.875 1.07-1.547.22-.672.34-1.48.34-2.426 0-.945-.12-1.746-.34-2.402-.23-.664-.59-1.168-1.07-1.512-.49-.351-1.11-.527-1.89-.527q-1.71 0-2.49 1.148c-.53.766-.79 1.864-.79 3.293"/><path fill="#323232" d="m337.596 179.457-96.358 36.828A22.43 22.43 0 0 0 227 237.194v92.714l44.283-25.449v-52.131l74.217-28.475V178c-2.701.006-5.379.5-7.904 1.457m-65.528 207.627 73.432-42.321v-51.122l-113.455 65.416a10.2 10.2 0 0 0-5.045 8.745v34.249a22.42 22.42 0 0 0 14.238 20.684l96.358 36.828a22.4 22.4 0 0 0 7.904 1.457v-45.852z"/><path fill="#1A1A1A" d="M459.291 279.066a9.36 9.36 0 0 0 4.709-8.24v-33.632a22.43 22.43 0 0 0-14.238-20.909l-96.414-36.828A22.4 22.4 0 0 0 345.5 178v45.853l72.871 28.027-72.871 41.985v51.122zM353.348 459.563l96.414-36.828A22.43 22.43 0 0 0 464 402.051v-93.667l-44.284 25.56v52.86L345.5 415.168v45.852a22.4 22.4 0 0 0 7.848-1.457"/><path fill="#939393" d="m670 295.553-6.043-6.043L640 313.467l-23.957-23.957-6.043 6.043 23.957 23.957L610 343.467l6.043 6.043L640 325.553l23.957 23.957 6.043-6.043-23.957-23.957z"/><g fill="#E04E39" clip-path="url(#a)"><path d="M1047.33 325.05s-5.73 4.449-10.77 3.952-3.45-11.782-3.45-11.782 1.08-10.351-1.89-11.222c-2.96-.862-6.61 2.699-6.61 2.699s-4.54 5.051-6.71 11.49l-.6.197s.69-11.293-.1-13.866c-.59-1.285-6.02-1.185-6.91 1.088-.89 2.282-5.24 18.121-5.54 24.757 0 0-8.493 7.232-15.894 8.414-7.41 1.194-9.189-3.463-9.189-3.463s20.151-5.642 19.457-21.784c-.685-16.139-16.247-10.165-18.006-8.843-1.705 1.285-10.799 6.781-13.452 22.009-.089.511-.249 2.779-.249 2.779s-7.803 5.239-12.149 6.627c0 0 12.149-20.496-2.662-29.802-4.166-2.513-7.795-.2-9.956 1.924-1.325 1.303 17.954-19.839 13.506-38.759-2.113-9.003-6.605-9.968-10.725-8.509-6.256 2.473-8.626 6.133-8.626 6.133s-8.104 11.787-9.986 29.314c-1.876 17.521-4.64 38.714-4.64 38.714s-3.855 3.763-7.407 3.96c-3.561.192-1.979-10.599-1.979-10.599s2.764-16.433 2.576-19.208c-.206-2.77-.4-4.255-3.661-5.243-3.261-.994-6.819 3.167-6.819 3.167s-9.377 14.254-10.165 16.433l-.502.896-.489-.599s6.613-19.406.297-19.7c-6.322-.3-10.471 6.93-10.471 6.93s-7.212 12.084-7.509 13.466l-.489-.594s2.959-14.057 2.37-17.529c-.599-3.464-3.852-2.77-3.852-2.77s-4.148-.497-5.236 2.179c-1.085 2.675-5.037 20.393-5.534 26.038 0 0-10.368 7.425-17.19 7.522-6.81.102-6.116-4.326-6.116-4.326s24.991-8.575 18.172-25.505c-3.061-4.357-6.613-5.725-11.65-5.631-5.043.103-11.291 3.181-15.34 12.29-1.938 4.34-2.638 8.472-3.041 11.584 0 0-4.368.9-6.738-1.079-2.376-1.982-3.593 0-3.593 0s-4.069 5.203-.02 6.782c4.055 1.587 10.371 2.324 10.371 2.324a18.96 18.96 0 0 0 7.205 11.236c7.406 5.642 21.621-.52 21.621-.52l5.825-3.275s.2 5.36 4.449 6.139c4.246.786 6.025-.011 13.431-18.032 4.349-9.208 4.646-8.712 4.646-8.712.489-.102-2.864 17.521-1.582 22.273 1.285 4.76 6.913 4.263 6.913 4.263s3.064.591 5.534-8.124c2.467-8.712 7.213-18.317 7.213-18.317.585 0-1.485 18.017 1.67 23.765 3.164 5.745 11.362 1.928 11.362 1.928s5.731-2.893 6.622-3.787c0 0 6.796 5.806 16.384 4.752 21.442-4.232 29.068-9.948 29.068-9.948s3.684 9.357 15.094 10.228c13.032.985 20.151-7.23 20.151-7.23s-.1 5.342 4.44 7.23c4.55 1.879 7.61-8.701 7.61-8.701l7.6-21.007c.69 0 1.09 13.66 8.6 15.839 7.5 2.179 17.28-5.103 17.28-5.103s2.37-1.307 1.98-5.268c-.4-3.963-3.95-2.484-3.95-2.484m-197.844-9.914c2.661 2.573 1.676 8.115-3.361 11.579-5.031 3.472-7.31 2.778-7.31 2.778.3-11.784 8.009-16.939 10.671-14.357m98.278-40.696c1.679 8.912-14.714 35.448-14.714 35.448.194-5.943 6.019-26.042 6.019-26.042s7.007-18.317 8.692-9.409zm-16.202 67.628s-1.285-4.357 2.37-16.533c3.661-12.181 12.25-7.43 12.25-7.43s5.928 4.555 1.285 16.733c-4.64 12.179-15.905 7.23-15.905 7.23m49.981-23.86c4.046-7.424 7.21-3.369 7.21-3.369s3.455 3.763-.494 9.408c-3.955 5.643-9.68 5.249-9.68 5.249s-1.085-3.867 2.964-11.288"/><path d="M1021.97 348.256v-1.422h.9c.13 0 .25.014.38.028.13.018.26.052.36.098q.165.068.27.197c.07.085.1.202.1.348 0 .328-.1.542-.3.628-.24.092-.5.133-.76.123zM1020.9 346v5.408h1.07v-2.31h.67l1.31 2.313h1.13l-1.45-2.364c.19-.019.38-.059.56-.12.17-.057.32-.143.44-.257.14-.111.23-.257.31-.434.08-.203.12-.421.11-.64 0-.585-.18-.999-.55-1.236-.36-.243-.89-.363-1.57-.363h-2.03zm-1.71 2.71c0-.554.09-1.059.28-1.522.19-.457.44-.857.77-1.191.33-.345.73-.619 1.18-.803.44-.185.92-.277 1.4-.27a3.55 3.55 0 0 1 2.57 1.073c.7.728 1.08 1.703 1.06 2.713 0 .554-.09 1.059-.28 1.528a4.1 4.1 0 0 1-.78 1.205c-.34.345-.74.619-1.18.805s-.91.279-1.39.274a3.53 3.53 0 0 1-2.58-1.079 3.8 3.8 0 0 1-.77-1.205 3.8 3.8 0 0 1-.28-1.528m-1.33 0c0 .742.14 1.408.41 1.999.28.599.64 1.108 1.09 1.53q.69.631 1.59.965c.6.226 1.22.337 1.87.337s1.28-.114 1.87-.337q.9-.332 1.59-.965c.45-.422.81-.928 1.09-1.527.27-.594.4-1.257.4-2.002 0-.731-.13-1.396-.4-1.987a4.8 4.8 0 0 0-1.09-1.517c-.46-.428-1-.759-1.59-.973a5.2 5.2 0 0 0-1.87-.343 5.16 5.16 0 0 0-3.46 1.313c-.48.447-.86.99-1.12 1.594a4.7 4.7 0 0 0-.38 1.913"/></g><defs><clipPath id="a"><path fill="#fff" d="M816 262.402h237v114.217H816z"/></clipPath></defs></svg>