<svg xmlns="http://www.w3.org/2000/svg" width="2110" height="684" fill="none"><g clip-path="url(#a)"><path fill="#EDEFF3" d="M0 0h2110v684H0z"/><path fill="#9DCFCC" d="m79.266 573.321-21.142 8.08A4.925 4.925 0 0 0 55 585.989v20.342l9.716-5.584v-11.438L81 583.062v-10.061c-.593.001-1.18.11-1.734.32m-14.374 45.554 16.112-9.285v-11.217L56.11 612.726a2.23 2.23 0 0 0-1.107 1.918v7.515a4.92 4.92 0 0 0 3.124 4.538l21.142 8.081c.554.21 1.141.318 1.734.319v-10.06z"/><path fill="#91C8C3" d="M105.967 595.175a2.06 2.06 0 0 0 1.033-1.808v-7.379a4.93 4.93 0 0 0-.853-2.777 4.93 4.93 0 0 0-2.271-1.811l-21.154-8.08A4.9 4.9 0 0 0 81 573v10.06l15.989 6.15L81 598.422v11.216zM82.72 634.779l21.154-8.081a4.92 4.92 0 0 0 3.124-4.538v-20.552l-9.716 5.609v11.598l-16.284 6.223v10.061a5 5 0 0 0 1.722-.32"/><path fill="#4D575F" d="M941.865 313H888.74v-9.814l34.229-49.073h-33.301v-12.5h51.27v9.766l-34.18 49.121h35.107zm32.715-55.615q7.568 0 13.037 2.929 5.47 2.882 8.447 8.399 2.979 5.517 2.979 13.476v7.227h-35.205q.244 6.299 3.76 9.912 3.564 3.564 9.863 3.565 5.225 0 9.57-1.075t8.936-3.222v11.523a35.5 35.5 0 0 1-8.496 2.93q-4.394.928-10.694.928-8.203 0-14.55-3.028-6.3-3.027-9.913-9.228-3.564-6.202-3.564-15.625 0-9.57 3.223-15.918 3.271-6.397 9.082-9.571 5.81-3.222 13.525-3.222m.098 10.595q-4.346 0-7.227 2.784-2.832 2.783-3.271 8.74h20.898q-.048-3.32-1.221-5.908-1.123-2.589-3.418-4.102-2.246-1.514-5.761-1.514m66.942-10.595c.75 0 1.61.049 2.59.146 1.01.065 1.82.163 2.44.293l-1.12 13.965q-.735-.245-2.1-.342c-.88-.097-1.65-.146-2.3-.146q-2.88 0-5.61.732c-1.79.488-3.4 1.286-4.84 2.393-1.43 1.074-2.57 2.506-3.41 4.297q-1.23 2.636-1.23 6.494V313h-14.89v-54.59h11.28l2.2 9.18h.73a23 23 0 0 1 4.01-5.078c1.62-1.563 3.46-2.8 5.51-3.711 2.09-.944 4.33-1.416 6.74-1.416m64.55 28.222c0 4.558-.62 8.594-1.85 12.11-1.21 3.515-2.98 6.494-5.33 8.935-2.31 2.409-5.11 4.232-8.39 5.469q-4.89 1.856-11.04 1.856c-3.84 0-7.37-.619-10.6-1.856a23.5 23.5 0 0 1-8.34-5.469c-2.35-2.441-4.17-5.42-5.47-8.935-1.27-3.516-1.91-7.552-1.91-12.11 0-6.054 1.08-11.181 3.22-15.38q3.225-6.3 9.18-9.571c3.98-2.181 8.71-3.271 14.21-3.271 5.11 0 9.64 1.09 13.58 3.271 3.97 2.181 7.08 5.371 9.32 9.571q3.42 6.299 3.42 15.38m-37.74 0q0 5.371 1.17 9.034 1.17 3.661 3.66 5.517c1.66 1.237 3.83 1.856 6.5 1.856q3.945 0 6.39-1.856c1.66-1.237 2.87-3.076 3.62-5.517q1.17-3.663 1.17-9.034 0-5.42-1.17-8.984c-.75-2.409-1.96-4.215-3.62-5.42-1.66-1.204-3.82-1.807-6.49-1.807-3.94 0-6.81 1.351-8.6 4.053-1.75 2.702-2.63 6.755-2.63 12.158m80.42-28.222c6.15 0 11.11 2.392 14.89 7.177 3.81 4.786 5.71 11.801 5.71 21.045 0 6.185-.89 11.394-2.68 15.625-1.79 4.2-4.27 7.373-7.42 9.522q-4.74 3.222-10.89 3.223c-2.64 0-4.9-.326-6.79-.977q-2.835-1.026-4.83-2.588a23 23 0 0 1-3.47-3.418h-.78c.26 1.302.45 2.637.58 4.004s.2 2.702.2 4.004v22.021h-14.89V258.41h12.11l2.1 7.08h.68a21 21 0 0 1 3.56-4.052c1.4-1.237 3.08-2.214 5.03-2.93 1.99-.749 4.28-1.123 6.89-1.123m-4.79 11.914c-2.6 0-4.67.537-6.2 1.611s-2.65 2.686-3.37 4.834c-.68 2.149-1.06 4.867-1.12 8.154v1.612c0 3.515.32 6.494.98 8.935q1.02 3.663 3.36 5.567c1.6 1.269 3.78 1.904 6.55 1.904q3.42 0 5.61-1.904 2.205-1.904 3.27-5.567c.75-2.474 1.13-5.485 1.13-9.033q0-8.008-2.49-12.06c-1.66-2.702-4.23-4.053-7.72-4.053m75.78 27.49c0 3.711-.88 6.852-2.63 9.424q-2.595 3.809-7.77 5.81c-3.45 1.303-7.74 1.954-12.89 1.954q-5.715 0-9.81-.733c-2.7-.488-5.44-1.302-8.2-2.441v-12.305c2.96 1.335 6.13 2.441 9.52 3.32 3.41.847 6.41 1.27 8.98 1.27 2.9 0 4.97-.423 6.2-1.27 1.27-.879 1.91-2.018 1.91-3.418a4.05 4.05 0 0 0-.78-2.441c-.49-.749-1.57-1.579-3.23-2.49-1.66-.944-4.26-2.165-7.81-3.662-3.42-1.433-6.23-2.881-8.45-4.346-2.18-1.465-3.81-3.19-4.88-5.176q-1.56-3.027-1.56-7.666c0-5.045 1.95-8.838 5.86-11.377 3.94-2.571 9.19-3.857 15.77-3.857 3.38 0 6.61.342 9.67 1.025 3.09.684 6.26 1.774 9.52 3.272l-4.49 10.742c-2.71-1.172-5.26-2.132-7.67-2.881a24 24 0 0 0-7.28-1.123c-2.18 0-3.82.293-4.93.879-1.1.586-1.66 1.481-1.66 2.685 0 .879.28 1.661.83 2.344.59.684 1.7 1.449 3.32 2.295 1.66.814 4.09 1.872 7.28 3.174 3.09 1.269 5.78 2.604 8.05 4.004q3.42 2.05 5.28 5.127c1.24 2.018 1.85 4.638 1.85 7.861"/><path fill="#8F9DA8" d="M732.344 412.623q0 12.06-4.639 20.166-4.59 8.057-13.33 12.158Q705.635 449 693.33 449h-20.215v-71.387h22.412q11.23 0 19.483 4.004 8.251 3.955 12.793 11.768 4.54 7.764 4.541 19.238m-15.723.391q0-7.91-2.344-12.989-2.294-5.127-6.836-7.568-4.491-2.442-11.132-2.441h-8.057V436.5h6.494q11.083 0 16.455-5.908 5.42-5.908 5.42-17.578m78.955 8.593q0 6.837-1.855 12.11-1.807 5.273-5.323 8.935-3.466 3.613-8.398 5.469-4.883 1.856-11.035 1.856-5.762 0-10.596-1.856a23.55 23.55 0 0 1-8.349-5.469q-3.516-3.662-5.469-8.935-1.905-5.274-1.905-12.11 0-9.081 3.223-15.38t9.18-9.571 14.209-3.271q7.665 0 13.574 3.271 5.957 3.271 9.326 9.571 3.418 6.299 3.418 15.38m-37.744 0q0 5.371 1.172 9.034 1.172 3.661 3.662 5.517t6.494 1.856q3.955 0 6.397-1.856 2.49-1.856 3.613-5.517 1.172-3.663 1.172-9.034 0-5.42-1.172-8.984-1.123-3.613-3.613-5.42t-6.495-1.807q-5.907 0-8.593 4.053-2.637 4.053-2.637 12.158m72.217 28.37q-8.106 0-13.819-2.93-5.712-2.979-8.691-9.18-2.978-6.201-2.978-15.869 0-10.01 3.369-16.309 3.418-6.347 9.424-9.326 6.054-2.978 14.013-2.978 5.664 0 9.766 1.123 4.15 1.074 7.226 2.588l-4.394 11.523q-3.516-1.416-6.543-2.295a20.6 20.6 0 0 0-6.055-.928q-3.906 0-6.494 1.856-2.588 1.806-3.857 5.469-1.27 3.662-1.27 9.179 0 5.42 1.367 8.985 1.368 3.564 3.955 5.322 2.589 1.709 6.299 1.709 4.639 0 8.252-1.221 3.614-1.27 7.031-3.515v12.744q-3.418 2.149-7.177 3.076-3.712.977-9.424.977m79.394-55.567V449h-11.425l-2.002-6.982h-.782q-1.757 2.783-4.394 4.541a19.1 19.1 0 0 1-5.811 2.587 26 26 0 0 1-6.591.831q-5.86 0-10.206-2.051-4.345-2.1-6.787-6.494-2.392-4.395-2.392-11.426V394.41h14.892v31.885q0 5.859 2.1 8.838t6.689 2.978q4.542 0 7.129-2.05 2.588-2.1 3.614-6.104 1.074-4.053 1.074-9.863V394.41zm79.737-1.025c6.185 0 10.86 1.595 14.01 4.785 3.19 3.157 4.79 8.236 4.79 15.234V449h-14.943v-31.885q0-5.859-2.002-8.838t-6.201-2.978q-5.908 0-8.398 4.248-2.491 4.2-2.491 12.06V449h-14.892v-31.885q0-3.906-.879-6.543t-2.686-3.955-4.638-1.318q-4.15 0-6.543 2.099-2.345 2.052-3.369 6.104-.978 4.004-.977 9.814V449h-14.893v-54.59h11.377l2.002 6.983h.83q1.66-2.832 4.151-4.59a18.1 18.1 0 0 1 5.566-2.588 23 23 0 0 1 6.152-.83q6.006 0 10.157 1.953 4.199 1.953 6.445 6.055h1.318q2.442-4.2 6.885-6.104 4.492-1.904 9.229-1.904m56.64 0c5.05 0 9.39.976 13.04 2.929 3.64 1.921 6.46 4.721 8.44 8.399 1.99 3.678 2.98 8.17 2.98 13.476v7.227h-35.2c.16 4.199 1.41 7.503 3.76 9.912 2.37 2.376 5.66 3.565 9.86 3.565q5.22 0 9.57-1.075t8.94-3.222v11.523a35.5 35.5 0 0 1-8.5 2.93c-2.93.618-6.49.928-10.69.928q-8.205 0-14.55-3.028c-4.2-2.018-7.51-5.094-9.92-9.228-2.37-4.134-3.56-9.343-3.56-15.625 0-6.381 1.07-11.686 3.22-15.918 2.18-4.265 5.21-7.455 9.08-9.571q5.82-3.222 13.53-3.222m.1 10.595q-4.35 0-7.23 2.784-2.835 2.783-3.27 8.74h20.9c-.03-2.214-.44-4.183-1.22-5.908q-1.125-2.589-3.42-4.102-2.25-1.514-5.76-1.514m67.48-10.595c5.83 0 10.51 1.595 14.06 4.785 3.55 3.157 5.32 8.236 5.32 15.234V449h-14.89v-31.885c0-3.906-.72-6.852-2.15-8.838-1.4-1.985-3.61-2.978-6.64-2.978-4.56 0-7.66 1.546-9.32 4.639q-2.49 4.639-2.49 13.378V449h-14.9v-54.59h11.38l2 6.983h.83q1.755-2.832 4.35-4.59a19.1 19.1 0 0 1 5.81-2.588c2.15-.554 4.36-.83 6.64-.83m57.71 44.726q2.445 0 4.74-.488c1.56-.325 3.11-.732 4.64-1.221v11.084c-1.6.716-3.58 1.302-5.96 1.758q-3.51.732-7.71.733-4.89 0-8.79-1.563c-2.57-1.074-4.61-2.913-6.11-5.518q-2.19-3.954-2.19-10.986v-26.318h-7.13v-6.299l8.2-4.981 4.3-11.523h9.52v11.621h15.28v11.182h-15.28v26.318c0 2.083.59 3.646 1.76 4.688 1.2 1.009 2.78 1.513 4.73 1.513m42.83-44.824c7.32 0 12.94 1.595 16.84 4.785 3.91 3.19 5.86 8.041 5.86 14.551V449h-10.4l-2.88-7.422h-.39c-1.56 1.953-3.16 3.548-4.79 4.785-1.62 1.237-3.5 2.149-5.61 2.735-2.12.586-4.69.879-7.72.879-3.22 0-6.12-.619-8.69-1.856q-3.81-1.856-6-5.664c-1.47-2.572-2.2-5.827-2.2-9.766 0-5.794 2.03-10.058 6.1-12.793 4.07-2.766 10.18-4.296 18.31-4.589l9.48-.293v-2.393q0-4.297-2.25-6.299c-1.5-1.334-3.58-2.002-6.25-2.002-2.64 0-5.23.375-7.76 1.123a60 60 0 0 0-7.62 2.832l-4.93-10.058c2.89-1.53 6.13-2.735 9.71-3.614a47.2 47.2 0 0 1 11.19-1.318m7.91 30.42-5.77.195c-4.81.131-8.17.993-10.05 2.588q-2.79 2.393-2.79 6.299c0 2.279.67 3.906 2 4.883 1.34.944 3.08 1.416 5.23 1.416 3.19 0 5.87-.944 8.06-2.832 2.21-1.888 3.32-4.574 3.32-8.057zm53.17 14.404q2.445 0 4.74-.488c1.56-.325 3.1-.732 4.63-1.221v11.084c-1.59.716-3.58 1.302-5.95 1.758-2.35.488-4.92.733-7.72.733q-4.875 0-8.79-1.563c-2.57-1.074-4.6-2.913-6.1-5.518-1.46-2.636-2.2-6.298-2.2-10.986v-26.318h-7.13v-6.299l8.21-4.981 4.29-11.523h9.53v11.621h15.28v11.182h-15.28v26.318c0 2.083.58 3.646 1.75 4.688q1.815 1.513 4.74 1.513m35.35-43.701V449h-14.89v-54.59zm-7.42-21.387c2.21 0 4.12.521 5.71 1.563 1.6 1.009 2.39 2.913 2.39 5.713 0 2.767-.79 4.687-2.39 5.762-1.59 1.041-3.5 1.562-5.71 1.562q-3.375 0-5.76-1.562c-1.57-1.075-2.35-2.995-2.35-5.762 0-2.8.78-4.704 2.35-5.713q2.385-1.563 5.76-1.563m72.7 48.584c0 4.558-.61 8.594-1.85 12.11-1.21 3.515-2.98 6.494-5.32 8.935q-3.465 3.613-8.4 5.469-4.89 1.856-11.04 1.856-5.76 0-10.59-1.856c-3.19-1.237-5.98-3.06-8.35-5.469-2.35-2.441-4.17-5.42-5.47-8.935-1.27-3.516-1.91-7.552-1.91-12.11 0-6.054 1.08-11.181 3.23-15.38q3.225-6.3 9.18-9.571c3.97-2.181 8.7-3.271 14.21-3.271 5.11 0 9.63 1.09 13.57 3.271q5.955 3.271 9.33 9.571c2.27 4.199 3.41 9.326 3.41 15.38m-37.74 0q0 5.371 1.17 9.034 1.17 3.661 3.66 5.517c1.66 1.237 3.83 1.856 6.5 1.856q3.96 0 6.39-1.856c1.66-1.237 2.87-3.076 3.62-5.517q1.17-3.663 1.17-9.034 0-5.42-1.17-8.984c-.75-2.409-1.96-4.215-3.62-5.42-1.66-1.204-3.82-1.807-6.49-1.807-3.94 0-6.8 1.351-8.59 4.053q-2.64 4.053-2.64 12.158m81.05-28.222q8.745 0 14.07 4.785c3.55 3.157 5.32 8.236 5.32 15.234V449h-14.89v-31.885c0-3.906-.72-6.852-2.15-8.838-1.4-1.985-3.61-2.978-6.64-2.978q-6.84 0-9.33 4.639t-2.49 13.378V449h-14.89v-54.59h11.38l2 6.983h.83c1.17-1.888 2.62-3.418 4.34-4.59a19.2 19.2 0 0 1 5.81-2.588c2.15-.554 4.37-.83 6.64-.83"/><path stroke="#8F9DA8" stroke-width="1.156" d="M3250.46 1431.65c0 366.26-78.11 697.81-204.36 937.77-126.27 240-300.61 388.24-493.02 388.24-192.42 0-366.75-148.24-493.02-388.24-126.26-239.96-204.36-571.51-204.36-937.77 0-366.25 78.1-697.799 204.36-937.766 126.27-239.993 300.6-388.239 493.02-388.239 192.41 0 366.75 148.246 493.02 388.239 126.25 239.967 204.36 571.516 204.36 937.766Z"/><path stroke="#8F9DA8" stroke-width="1.156" d="M3046.72 939.765c258.97 258.975 438.19 548.655 518.59 807.605 80.42 258.99 61.97 487.09-74.09 623.15s-364.16 154.51-623.14 74.09c-258.96-80.41-548.63-259.62-807.61-518.6s-438.19-548.65-518.6-807.61c-80.42-258.982-61.97-487.083 74.09-623.141s364.16-154.507 623.15-74.091c258.95 80.406 548.63 259.618 807.61 518.597Z"/><path stroke="#8F9DA8" stroke-width="1.156" d="M3047.03 1923.86c-258.98 258.98-548.65 438.19-807.6 518.6-258.99 80.41-487.09 61.96-623.15-74.09-136.06-136.06-154.51-364.16-74.09-623.15 80.41-258.96 259.62-548.63 518.6-807.607 258.98-258.979 548.65-438.19 807.6-518.597 258.99-80.416 487.09-61.966 623.15 74.092s154.51 364.159 74.09 623.142c-80.41 258.96-259.62 548.63-518.6 807.61Z"/><path stroke="#8F9DA8" stroke-width="1.156" d="M2821.1 789.283c338.37 140.158 614.79 339.197 788.18 547.677 173.4 208.49 243.65 426.29 170.01 604.06-73.63 177.77-277.31 282.1-547.35 306.92-270.02 24.81-606.22-29.9-944.59-170.06-338.38-140.16-614.8-339.2-788.18-547.68-173.41-208.49-243.65-426.29-170.02-604.062 73.63-177.768 277.31-282.104 547.36-306.919 270.01-24.812 606.22 29.905 944.59 170.064Z"/><path stroke="#8F9DA8" stroke-width="1.156" d="M3197.99 1698.35c-140.16 338.37-339.2 614.79-547.68 788.18-208.49 173.4-426.29 243.65-604.06 170.01-177.77-73.63-282.1-277.31-306.92-547.36-24.81-270.01 29.91-606.21 170.06-944.59 140.16-338.369 339.2-614.791 547.68-788.176 208.5-173.404 426.29-243.649 604.06-170.015s282.11 277.312 306.92 547.357c24.81 270.014-29.9 606.214-170.06 944.594Z"/><path stroke="#8F9DA8" stroke-width="1.156" d="M2288 788.788c338.38-140.159 674.58-194.876 944.6-170.063 270.04 24.815 473.72 129.15 547.35 306.919 73.64 177.766 3.39 395.566-170.01 604.066-173.39 208.47-449.81 407.51-788.18 547.67-338.38 140.16-674.58 194.88-944.59 170.07-270.05-24.82-473.73-129.16-547.36-306.92-73.63-177.77-3.39-395.57 170.01-604.07 173.39-208.47 449.81-407.513 788.18-547.672Z"/><path stroke="#8F9DA8" stroke-width="1.156" d="M3197.31 1165.09c140.16 338.37 194.88 674.58 170.06 944.59-24.81 270.05-129.15 473.72-306.91 547.36-177.77 73.63-395.57 3.39-604.07-170.02-208.47-173.38-407.51-449.8-547.67-788.18-140.16-338.37-194.88-674.57-170.07-944.588 24.82-270.045 129.16-473.723 306.92-547.357 177.77-73.634 395.57-3.388 604.07 170.016 208.47 173.384 407.51 449.806 547.67 788.179Z"/><path stroke="#8F9DA8" stroke-width="1.156" d="M3249.8 1401.3c15.97 365.9-47.6 700.54-163.26 945.79-115.68 245.27-283.39 400.98-475.62 409.37-192.23 8.4-372.87-132.1-509.49-366.36-136.6-234.23-229.09-562.06-245.07-927.96-15.97-365.91 47.6-700.548 163.26-945.793 115.68-245.273 283.39-400.982 475.62-409.375s372.87 132.107 509.49 366.364c136.6 234.231 229.09 562.054 245.07 927.964Z"/><path stroke="#8F9DA8" stroke-width="1.156" d="M2585.19 2127.07c-365.91 15.97-700.55-47.6-945.79-163.27-245.28-115.68-400.99-283.38-409.38-475.61-8.39-192.24 132.11-372.87 366.37-509.49 234.23-136.601 562.05-229.096 927.96-245.071 365.9-15.976 700.54 47.595 945.79 163.261 245.27 115.68 400.98 283.39 409.37 475.62 8.4 192.23-132.1 372.87-366.36 509.48-234.23 136.6-562.06 229.1-927.96 245.08Z"/><path stroke="#8F9DA8" stroke-width="1.156" d="M3024.78 918.763c270.03 247.437 461.71 529.017 553.33 784.217 91.64 255.23 83.16 483.92-46.84 625.78-129.99 141.87-357.07 170.25-619.32 101.21-262.21-69.04-559.43-235.44-829.46-482.88s-461.7-529.01-553.33-784.22c-91.63-255.229-83.15-483.918 46.84-625.782 130-141.863 357.07-170.244 619.32-101.202 262.22 69.035 559.43 235.44 829.46 482.877Z"/><path stroke="#8F9DA8" stroke-width="1.156" d="M3068.03 1901.91c-247.43 270.03-529.01 461.71-784.22 553.33-255.23 91.64-483.92 83.16-625.78-46.84-141.86-129.99-170.24-357.07-101.2-619.32 69.03-262.21 235.44-559.43 482.88-829.457 247.43-270.029 529.01-461.706 784.21-553.331 255.24-91.636 483.92-83.154 625.79 46.84 141.86 129.993 170.24 357.073 101.2 619.318-69.03 262.22-235.44 559.43-482.88 829.46Z"/><path stroke="#8F9DA8" stroke-width="1.156" d="M2792.82 778.267c344.16 125.265 629.01 312.063 811.32 512.773 182.33 200.74 262.01 415.26 196.2 596.07s-264.74 293.93-533.45 330.51c-268.67 36.56-606.94-3.44-951.11-128.7-344.16-125.27-629-312.06-811.32-512.78-182.33-200.73-262.01-415.26-196.2-596.07S1573 686.139 1841.71 649.568c268.68-36.567 606.95 3.433 951.11 128.699Z"/><path stroke="#8F9DA8" stroke-width="1.156" d="M3209 1670.03c-125.26 344.16-312.06 629-512.77 811.32-200.74 182.33-415.26 262.01-596.07 196.2s-293.94-264.74-330.51-533.45c-36.56-268.68 3.44-606.95 128.7-951.11 125.27-344.165 312.06-629.006 512.78-811.319 200.73-182.334 415.26-262.013 596.07-196.203s293.93 264.743 330.5 533.449c36.57 268.676-3.43 606.943-128.7 951.113Z"/><path stroke="#8F9DA8" stroke-width="1.156" d="M2260.21 801.029c331.94-154.785 665.43-224.115 936.27-211.104 270.87 13.012 478.91 108.364 560.23 282.751 81.32 174.384 20.64 395.044-143.51 610.904-164.12 215.84-431.6 426.75-763.54 581.53-331.93 154.79-665.43 224.12-936.27 211.11-270.87-13.01-478.91-108.37-560.23-282.75-81.31-174.39-20.64-395.05 143.51-610.91 164.13-215.84 431.6-426.746 763.54-581.531Z"/><path stroke="#8F9DA8" stroke-width="1.156" d="M3185.07 1137.31c154.79 331.94 224.12 665.43 211.11 936.27-13.02 270.87-108.37 478.91-282.76 560.23-174.38 81.31-395.04 20.64-610.9-143.51-215.84-164.12-426.75-431.6-581.53-763.54-154.79-331.94-224.12-665.43-211.11-936.272 13.02-270.871 108.37-478.906 282.75-560.224 174.39-81.318 395.05-20.64 610.91 143.505 215.84 164.126 426.75 431.603 581.53 763.541Z"/><path stroke="#8F9DA8" stroke-width="1.156" d="M3247.81 1371c31.92 364.86-16.99 701.96-121.85 952.01-104.87 250.09-265.63 412.96-457.31 429.73s-378.28-115.71-524.98-343.79c-146.69-228.05-253.4-551.53-285.32-916.39s16.99-701.952 121.85-952.009c104.87-250.085 265.63-412.961 457.31-429.731s378.28 115.717 524.98 343.792c146.69 228.049 253.4 551.528 285.32 916.388Z"/><path stroke="#8F9DA8" stroke-width="1.156" d="M2615.48 2125.07c-364.85 31.92-701.95-16.99-952.01-121.85-250.08-104.87-412.96-265.63-429.73-457.31s115.72-378.28 343.79-524.98c228.05-146.691 551.53-253.398 916.39-285.319s701.96 16.993 952.01 121.852c250.09 104.871 412.97 265.627 429.74 457.307s-115.72 378.28-343.8 524.98c-228.05 146.69-551.53 253.4-916.39 285.32Z"/><path stroke="#8F9DA8" stroke-width="1.156" d="M3001.96 898.74c280.57 235.42 484.34 508.37 587.01 759.34 102.68 250.99 104.18 479.83-19.5 627.23s-349.3 185.66-614.31 128.12c-264.98-57.53-569.17-210.82-849.74-446.24-280.56-235.42-484.34-508.37-587.01-759.33-102.68-250.996-104.18-479.838 19.5-627.236s349.31-185.658 614.32-128.12c264.98 57.531 569.17 210.814 849.73 446.236Z"/><path stroke="#8F9DA8" stroke-width="1.156" d="M3088.05 1879.06c-235.42 280.57-508.37 484.35-759.34 587.02-250.99 102.68-479.83 104.18-627.23-19.5s-185.66-349.31-128.12-614.32c57.53-264.98 210.82-569.17 446.24-849.732 235.42-280.566 508.37-484.342 759.33-587.012 251-102.682 479.84-104.183 627.24 19.499 147.39 123.682 185.65 349.307 128.12 614.315-57.53 264.98-210.82 569.17-446.24 849.73Z"/><path stroke="#8F9DA8" stroke-width="1.156" d="M2764.09 768.502c349.3 110.134 642.02 284.328 832.91 476.898 190.92 192.59 279.88 403.44 222.02 586.95s-251.67 305.2-518.53 353.45c-266.82 48.25-606.52 23.05-955.82-87.09-349.3-110.13-642.02-284.32-832.91-476.89-190.92-192.59-279.88-403.44-222.02-586.95s251.67-305.201 518.53-353.457c266.82-48.252 606.52-23.045 955.82 87.089Z"/><path stroke="#8F9DA8" stroke-width="1.156" d="M3218.78 1641.25c-110.14 349.3-284.33 642.02-476.9 832.92-192.59 190.91-403.44 279.87-586.94 222.01-183.51-57.86-305.2-251.67-353.46-518.52-48.25-266.83-23.05-606.52 87.09-955.82 110.13-349.3 284.32-642.018 476.89-832.913 192.6-190.916 403.44-279.876 586.95-222.016s305.2 251.67 353.46 518.525c48.25 266.825 23.04 606.514-87.09 955.814Z"/><path stroke="#8F9DA8" stroke-width="1.156" d="M2232.98 814.465c324.87-169.117 655.02-252.928 926.17-251.743 271.18 1.185 483.18 87.372 572.03 258.046s37.85 393.762-116.72 616.582c-154.56 222.79-412.58 445.17-737.45 614.29-324.87 169.11-655.02 252.92-926.18 251.74-271.18-1.19-483.17-87.37-572.02-258.05-88.85-170.67-37.85-393.76 116.72-616.58 154.56-222.79 412.58-445.169 737.45-614.285Z"/><path stroke="#8F9DA8" stroke-width="1.156" d="M3171.62 1110.09c169.12 324.86 252.93 655.02 251.75 926.17-1.19 271.18-87.37 483.18-258.05 572.02-170.67 88.85-393.76 37.86-616.58-116.72-222.79-154.55-445.17-412.57-614.29-737.44-169.11-324.87-252.92-655.03-251.74-926.179 1.19-271.18 87.37-483.177 258.05-572.024 170.67-88.847 393.76-37.851 616.58 116.721 222.79 154.555 445.17 412.578 614.28 737.452Z"/><path stroke="#8F9DA8" stroke-width="1.156" d="M3244.5 1340.82c47.8 363.12 13.64 702.03-80.21 956.42-93.86 254.42-247.36 424.16-438.13 449.27-190.77 25.12-382.96-99.11-539.48-320.57-156.49-221.43-277.21-539.95-325.01-903.07-47.81-363.12-13.65-702.024 80.21-956.417 93.86-254.422 247.35-424.155 438.12-449.27s382.97 99.107 539.48 320.565c156.5 221.434 277.21 539.953 325.02 903.072Z"/><path stroke="#8F9DA8" stroke-width="1.156" d="M2645.67 2121.75c-363.12 47.81-702.03 13.64-956.42-80.21-254.42-93.86-424.15-247.36-449.27-438.13-25.11-190.77 99.11-382.96 320.57-539.48 221.43-156.491 539.95-277.206 903.07-325.012s702.03-13.642 956.42 80.21c254.42 93.862 424.15 247.362 449.27 438.132 25.11 190.76-99.11 382.96-320.57 539.47-221.43 156.5-539.95 277.21-903.07 325.02Z"/><path stroke="#8F9DA8" stroke-width="1.156" d="M2978.29 879.733c290.56 222.957 506.05 486.767 619.57 733.007 113.53 246.28 125.01 474.83 7.88 627.49-117.14 152.65-340.88 200.71-608.14 154.79-267.24-45.92-577.83-185.79-868.39-408.75-290.57-222.96-506.06-486.76-619.58-733-113.53-246.28-125.01-474.836-7.88-627.489 117.14-152.653 340.88-200.718 608.15-154.794 267.23 45.918 577.82 185.786 868.39 408.746Z"/><path stroke="#8F9DA8" stroke-width="1.156" d="M3107.05 1855.37c-222.96 290.56-486.76 506.05-733 619.57-246.28 113.53-474.84 125.02-627.49 7.88-152.65-117.13-200.72-340.88-154.79-608.14 45.91-267.24 185.78-577.82 408.74-868.39s486.76-506.057 733.01-619.576c246.27-113.533 474.83-125.014 627.49-7.879 152.65 117.134 200.71 340.876 154.79 608.143-45.92 267.232-185.79 577.822-408.75 868.392Z"/><path stroke="#8F9DA8" stroke-width="1.156" d="M2734.96 759.988c353.77 94.793 653.81 256.052 852.92 440.112 199.13 184.08 297.21 390.85 247.41 576.7-49.8 185.86-238.12 315.89-502.62 375.74-264.46 59.85-604.93 49.48-958.71-45.31-353.77-94.8-653.81-256.05-852.92-440.11-199.13-184.08-297.21-390.85-247.4-576.71 49.8-185.857 238.11-315.885 502.61-375.736 264.47-59.844 604.93-49.479 958.71 45.314Z"/><path stroke="#8F9DA8" stroke-width="1.156" d="M3227.28 1612.08c-94.79 353.78-256.05 653.81-440.11 852.93-184.08 199.13-390.85 297.2-576.7 247.4-185.86-49.8-315.89-238.11-375.74-502.61-59.85-264.47-49.48-604.94 45.31-958.71 94.8-353.771 256.05-653.808 440.11-852.921 184.08-199.135 390.85-297.208 576.71-247.407s315.88 238.117 375.74 502.613c59.84 264.467 49.47 604.935-45.32 958.705Z"/><path stroke="#8F9DA8" stroke-width="1.156" d="M2206.37 829.083c317.18-183.126 643.36-281.259 914.31-291.902 270.97-10.646 486.53 66.212 582.73 232.848 96.21 166.637 54.99 391.741-89.71 621.091-144.69 229.32-392.77 462.74-709.95 645.86-317.19 183.13-643.37 281.26-914.31 291.91-270.98 10.64-486.53-66.22-582.74-232.85-96.21-166.64-54.99-391.74 89.71-621.09 144.69-229.32 392.77-462.74 709.96-645.867Z"/><path stroke="#8F9DA8" stroke-width="1.156" d="M3157.01 1083.47c183.13 317.19 281.26 643.37 291.91 914.32 10.64 270.97-66.22 486.52-232.85 582.73-166.64 96.21-391.74 54.99-621.09-89.71-229.32-144.69-462.74-392.77-645.87-709.95-183.12-317.19-281.25-643.37-291.9-914.316-10.64-270.974 66.21-486.528 232.85-582.735 166.64-96.208 391.74-54.992 621.09 89.714 229.32 144.69 462.74 392.768 645.86 709.947Z"/><path stroke="#8F9DA8" stroke-width="1.156" d="M3239.88 1310.81c63.59 360.69 44.25 700.77-38.42 959.01-82.67 258.28-228.62 434.54-418.11 467.96-189.49 33.41-386.93-82.31-552.95-296.73-166.01-214.4-300.5-527.35-364.1-888.04s-44.25-700.763 38.42-959.008c82.67-258.273 228.62-434.54 418.11-467.953s386.92 82.308 552.95 296.729c166 214.397 300.5 527.347 364.1 888.032Z"/><path stroke="#8F9DA8" stroke-width="1.156" d="M2675.68 2117.12c-360.68 63.6-700.76 44.25-959.01-38.42-258.27-82.67-434.54-228.62-467.95-418.11s82.31-386.92 296.73-552.95c214.4-166.004 527.35-300.498 888.03-364.097 360.69-63.599 700.77-44.251 959.01 38.415 258.28 82.676 434.54 228.622 467.96 418.112 33.41 189.49-82.31 386.93-296.73 552.95-214.4 166.01-527.35 300.5-888.04 364.1Z"/><path stroke="#8F9DA8" stroke-width="1.156" d="M2953.81 861.777c300.02 210.073 526.81 464.223 650.96 705.283 124.16 241.09 145.6 468.93 35.24 626.55-110.36 157.61-331.8 215.39-600.81 181.17-268.99-34.22-585.38-160.41-885.39-370.48-300.02-210.07-526.81-464.22-650.96-705.28-124.17-241.09-145.61-468.931-35.24-626.548 110.36-157.617 331.79-215.396 600.81-181.174 268.98 34.218 585.37 160.406 885.39 370.479Z"/><path stroke="#8F9DA8" stroke-width="1.156" d="M3125 1830.87c-210.07 300.01-464.22 526.8-705.28 650.95-241.09 124.17-468.93 145.61-626.54 35.25-157.62-110.37-215.4-331.8-181.18-600.82 34.22-268.98 160.41-585.37 370.48-885.39 210.07-300.014 464.23-526.804 705.29-650.956 241.08-124.166 468.92-145.607 626.54-35.242s215.4 331.797 181.17 600.812c-34.21 268.986-160.4 585.376-370.48 885.396Z"/><path stroke="#8F9DA8" stroke-width="1.156" d="M2705.48 752.763c357.57 79.272 664.36 227.288 871.31 402.487 206.97 175.22 313.97 377.51 272.33 565.37-41.65 187.85-224.11 325.97-485.75 397.3-261.6 71.32-602.2 75.82-959.77-3.45-357.57-79.28-664.36-227.29-871.31-402.49-206.97-175.22-313.97-377.51-272.33-565.37 41.65-187.85 224.12-325.969 485.75-397.3 261.6-71.323 602.2-75.818 959.77 3.453Z"/><path stroke="#8F9DA8" stroke-width="1.156" d="M3234.51 1582.57c-79.27 357.57-227.29 664.35-402.49 871.31-175.22 206.97-377.51 313.97-565.36 272.32-187.86-41.64-325.98-224.11-397.31-485.74-71.32-261.61-75.82-602.2 3.46-959.77 79.27-357.575 227.28-664.361 402.48-871.313 175.22-206.975 377.51-313.973 565.37-272.327 187.85 41.646 325.97 224.112 397.3 485.746 71.32 261.604 75.82 602.204-3.45 959.774Z"/><path stroke="#8F9DA8" stroke-width="1.156" d="M2180.41 844.844c308.9-196.787 630.49-309.054 900.71-331.506 270.25-22.455 488.95 44.927 592.34 207.208 103.38 162.282 72.03 388.974-62.54 624.414-134.55 235.41-372.21 479.43-681.1 676.22-308.9 196.78-630.49 309.05-900.71 331.5-270.25 22.46-488.95-44.93-592.34-207.21-103.38-162.28-72.03-388.97 62.54-624.41 134.55-235.41 372.21-479.43 681.1-676.216Z"/><path stroke="#8F9DA8" stroke-width="1.156" d="M3141.25 1057.53c196.78 308.89 309.05 630.49 331.5 900.71 22.46 270.25-44.92 488.95-207.2 592.34-162.29 103.38-388.97 72.02-624.42-62.54-235.41-134.55-479.43-372.21-676.21-681.1-196.79-308.9-309.06-630.49-331.51-900.714-22.46-270.252 44.93-488.953 207.21-592.337s388.97-72.027 624.41 62.538c235.41 134.549 479.43 372.209 676.22 681.103Z"/><path stroke="#8F9DA8" stroke-width="1.156" d="M3233.95 1281.04c79.27 357.57 74.77 698.16 3.45 959.77-71.33 261.63-209.45 444.1-397.31 485.74-187.85 41.65-390.14-65.35-565.36-272.32-175.2-206.96-323.22-513.74-402.49-871.31s-74.77-698.169-3.45-959.774c71.33-261.634 209.45-444.1 397.3-485.746 187.86-41.646 390.15 65.353 565.37 272.328 175.2 206.951 323.21 513.737 402.49 871.312Z"/><path stroke="#8F9DA8" stroke-width="1.156" d="M2705.47 2111.18c-357.57 79.27-698.17 74.78-959.77 3.46-261.64-71.33-444.1-209.45-485.75-397.31-41.65-187.85 65.35-390.14 272.33-565.36 206.95-175.201 513.74-323.218 871.31-402.489 357.57-79.272 698.16-74.777 959.77-3.453 261.63 71.331 444.1 209.45 485.74 397.302 41.65 187.86-65.35 390.15-272.32 565.37-206.96 175.2-513.74 323.21-871.31 402.48Z"/><path stroke="#8F9DA8" stroke-width="1.156" d="M2928.57 844.905c308.89 196.785 546.55 440.805 681.1 676.215 134.56 235.45 165.92 462.13 62.54 624.41-103.39 162.29-322.09 229.67-592.34 207.21-270.22-22.45-591.81-134.72-900.71-331.5-308.89-196.79-546.55-440.81-681.1-676.22-134.57-235.44-165.92-462.132-62.54-624.413s322.09-229.663 592.34-207.208c270.22 22.452 591.81 134.719 900.71 331.506Z"/><path stroke="#8F9DA8" stroke-width="1.156" d="M3141.88 1805.6c-196.79 308.9-440.8 546.56-676.22 681.11-235.44 134.56-462.13 165.92-624.41 62.53-162.28-103.38-229.66-322.08-207.21-592.33 22.45-270.23 134.72-591.82 331.51-900.71 196.78-308.898 440.8-546.557 676.22-681.107 235.44-134.564 462.13-165.922 624.41-62.537s229.66 322.085 207.21 592.337c-22.46 270.217-134.72 591.817-331.51 900.707Z"/><path stroke="#8F9DA8" stroke-width="1.156" d="M2675.73 746.825c360.68 63.599 673.63 198.093 888.03 364.095 214.42 166.03 330.14 363.46 296.73 552.95s-209.68 335.44-467.95 418.11c-258.25 82.67-598.32 102.02-959.01 38.42s-673.64-198.09-888.04-364.1c-214.42-166.02-330.14-363.45-296.73-552.95 33.42-189.49 209.68-335.435 467.96-418.11 258.24-82.667 598.32-102.014 959.01-38.415Z"/><path stroke="#8F9DA8" stroke-width="1.156" d="M3240.44 1552.77c-63.6 360.68-198.09 673.63-364.1 888.03-166.02 214.42-363.45 330.14-552.95 296.73-189.49-33.41-335.43-209.68-418.11-467.95-82.67-258.25-102.01-598.32-38.41-959.01s198.09-673.641 364.09-888.038c166.03-214.42 363.46-330.14 552.95-296.728s335.44 209.68 418.12 467.953c82.66 258.244 102.01 598.323 38.41 959.013Z"/><path stroke="#8F9DA8" stroke-width="1.156" d="M2155.17 861.722c300.01-210.074 616.4-336.262 885.39-370.48 269.01-34.221 490.45 23.557 600.81 181.175 110.37 157.617 88.93 385.453-35.24 626.543-124.15 241.06-350.94 495.21-650.96 705.29-300.02 210.07-616.41 336.26-885.39 370.47-269.02 34.23-490.45-23.55-600.81-181.17-110.37-157.62-88.93-385.46 35.24-626.54 124.15-241.06 350.94-495.21 650.96-705.288Z"/><path stroke="#8F9DA8" stroke-width="1.156" d="M3124.37 1032.29c210.07 300.02 336.26 616.41 370.48 885.4 34.22 269.01-23.56 490.44-181.18 600.81-157.61 110.36-385.45 88.92-626.54-35.24-241.06-124.16-495.21-350.95-705.29-650.96-210.07-300.02-336.26-616.41-370.47-885.395-34.23-269.015 23.55-490.447 181.17-600.812s385.46-88.924 626.54 35.242c241.06 124.153 495.21 350.942 705.29 650.955Z"/><path stroke="#8F9DA8" stroke-width="1.156" d="M3226.73 1251.54c94.79 353.78 105.16 694.25 45.31 958.71-59.85 264.5-189.88 452.81-375.74 502.62-185.86 49.8-392.62-48.28-576.7-247.41-184.06-199.11-345.32-499.15-440.11-852.92-94.8-353.78-105.16-694.245-45.32-958.712 59.85-264.496 189.88-452.813 375.74-502.613s392.63 48.272 576.71 247.407c184.06 199.112 345.31 499.15 440.11 852.918Z"/><path stroke="#8F9DA8" stroke-width="1.156" d="M2734.96 2103.95c-353.78 94.8-694.24 105.16-958.71 45.32-264.5-59.85-452.81-189.88-502.61-375.74-49.81-185.86 48.27-392.62 247.4-576.71 199.12-184.06 499.15-345.313 852.93-440.106 353.77-94.793 694.24-105.159 958.7-45.314 264.5 59.851 452.82 189.879 502.62 375.74 49.8 185.86-48.28 392.62-247.41 576.7-199.11 184.06-499.15 345.32-852.92 440.11Z"/><path stroke="#8F9DA8" stroke-width="1.156" d="M2902.61 829.147c317.19 183.123 565.27 416.543 709.96 645.863 144.7 229.35 185.92 454.46 89.71 621.09-96.21 166.64-311.76 243.5-582.74 232.85-270.94-10.64-597.12-108.78-914.31-291.9-317.18-183.13-565.26-416.55-709.95-645.87-144.71-229.35-185.92-454.45-89.71-621.086 96.2-166.636 311.76-243.494 582.73-232.849 270.95 10.644 597.13 108.776 914.31 291.902Z"/><path stroke="#8F9DA8" stroke-width="1.156" d="M3157.63 1779.63c-183.13 317.18-416.54 565.26-645.87 709.95-229.34 144.71-454.45 185.92-621.08 89.72-166.64-96.21-243.5-311.77-232.85-582.74 10.64-270.94 108.77-597.13 291.9-914.31 183.12-317.186 416.54-565.264 645.87-709.953 229.34-144.707 454.45-185.923 621.08-89.715 166.64 96.207 243.5 311.761 232.85 582.735-10.64 270.943-108.77 597.133-291.9 914.313Z"/><path stroke="#8F9DA8" stroke-width="1.156" d="M2645.73 742.193c363.12 47.805 681.64 168.52 903.07 325.017 221.46 156.51 345.68 348.71 320.57 539.48-25.12 190.77-194.85 344.26-449.27 438.13-254.4 93.85-593.31 128.01-956.42 80.2-363.12-47.8-681.64-168.52-903.08-325.01-221.45-156.51-345.68-348.71-320.56-539.48 25.11-190.77 194.85-344.265 449.27-438.127 254.39-93.853 593.3-128.016 956.42-80.21Z"/><path stroke="#8F9DA8" stroke-width="1.156" d="M3245.06 1522.73c-47.8 363.12-168.52 681.64-325.01 903.07-156.51 221.46-348.71 345.68-539.48 320.57-190.77-25.12-344.26-194.85-438.13-449.27-93.85-254.4-128.01-593.3-80.21-956.42 47.81-363.121 168.52-681.64 325.02-903.074 156.51-221.459 348.71-345.681 539.48-320.566s344.26 194.849 438.13 449.27c93.85 254.393 128.01 593.3 80.2 956.42Z"/><path stroke="#8F9DA8" stroke-width="1.156" d="M2130.68 879.684c290.57-222.96 601.15-362.828 868.39-408.746 267.27-45.924 491.01 2.141 608.14 154.794 117.14 152.653 105.65 381.208-7.88 627.488-113.52 246.24-329 510.04-619.57 733.01-290.57 222.96-601.15 362.82-868.39 408.74-267.27 45.93-491.01-2.14-608.14-154.79-117.14-152.66-105.66-381.21 7.87-627.49 113.52-246.24 329.01-510.05 619.58-733.006Z"/><path stroke="#8F9DA8" stroke-width="1.156" d="M3106.4 1007.82c222.96 290.57 362.83 601.15 408.75 868.39 45.92 267.26-2.14 491.01-154.79 608.14-152.66 117.13-381.22 105.65-627.49-7.88-246.25-113.52-510.05-329.01-733.01-619.57-222.96-290.57-362.83-601.16-408.74-868.393-45.93-267.266 2.14-491.008 154.79-608.143 152.65-117.134 381.21-105.653 627.49 7.879 246.24 113.52 510.04 329.008 733 619.577Z"/><path stroke="#8F9DA8" stroke-width="1.156" d="M3218.23 1222.4c110.13 349.3 135.34 688.99 87.09 955.81-48.26 266.86-169.95 460.67-353.46 518.53s-394.36-31.1-586.95-222.02c-192.57-190.89-366.76-483.61-476.89-832.91-110.14-349.3-135.35-688.995-87.09-955.82 48.25-266.855 169.94-460.664 353.45-518.525s394.36 31.101 586.95 222.017c192.57 190.894 366.76 483.612 476.9 832.918Z"/><path stroke="#8F9DA8" stroke-width="1.156" d="M2764.11 2095.44c-349.31 110.14-689 135.35-955.82 87.09-266.86-48.25-460.67-169.94-518.53-353.45s31.1-394.36 222.02-586.95c190.89-192.57 483.61-366.761 832.91-476.895 349.3-110.135 688.99-135.342 955.82-87.09 266.86 48.257 460.66 169.947 518.52 353.455 57.86 183.51-31.1 394.36-222.01 586.95-190.9 192.57-483.61 366.76-832.91 476.89Z"/><path stroke="#8F9DA8" stroke-width="1.156" d="M2875.99 814.543c324.87 169.116 582.9 391.487 737.45 614.287 154.57 222.81 205.57 445.91 116.72 616.58s-300.84 256.86-572.02 258.05c-271.15 1.18-601.31-82.63-926.18-251.75-324.87-169.11-582.89-391.49-737.44-614.28-154.58-222.82-205.57-445.91-116.73-616.584 88.85-170.675 300.85-256.862 572.03-258.046 271.15-1.185 601.3 82.626 926.17 251.743Z"/><path stroke="#8F9DA8" stroke-width="1.156" d="M3172.23 1752.99c-169.12 324.87-391.49 582.9-614.29 737.45-222.81 154.57-445.91 205.57-616.58 116.72s-256.86-300.84-258.05-572.02c-1.18-271.15 82.63-601.31 251.75-926.18 169.11-324.867 391.49-582.89 614.28-737.445 222.82-154.572 445.91-205.568 616.58-116.721 170.68 88.848 256.87 300.844 258.05 572.025 1.19 271.151-82.63 601.301-251.74 926.171Z"/><path stroke="#8F9DA8" stroke-width="1.156" d="M2615.57 738.869c364.85 31.921 688.34 138.627 916.39 285.311 228.07 146.71 360.56 333.3 343.79 524.99-16.77 191.68-179.65 352.43-429.73 457.3-250.06 104.86-587.16 153.78-952.02 121.86-364.85-31.93-688.34-138.63-916.38-285.32-228.08-146.7-360.57-333.3-343.8-524.98 16.77-191.69 179.65-352.439 429.73-457.31 250.06-104.859 587.16-153.772 952.02-121.851Z"/><path stroke="#8F9DA8" stroke-width="1.156" d="M3248.37 1492.52c-31.92 364.86-138.63 688.34-285.31 916.39-146.71 228.08-333.3 360.57-524.99 343.8-191.68-16.77-352.43-179.65-457.3-429.74-104.86-250.05-153.78-587.15-121.85-952.01 31.92-364.86 138.62-688.337 285.31-916.386 146.7-228.075 333.3-360.562 524.98-343.792 191.69 16.77 352.44 179.646 457.31 429.731 104.86 250.057 153.77 587.157 121.85 952.007Z"/><path stroke="#8F9DA8" stroke-width="1.156" d="M2107.01 898.698c280.57-235.422 584.75-388.705 849.73-446.236 265.01-57.538 490.64-19.278 614.32 128.12s122.18 376.24 19.5 627.228c-102.67 250.97-306.45 523.92-587.01 759.34-280.57 235.42-584.76 388.7-849.74 446.24-265 57.53-490.63 19.27-614.31-128.12-123.68-147.4-122.18-376.24-19.5-627.24 102.67-250.96 306.45-523.91 587.01-759.332Z"/><path stroke="#8F9DA8" stroke-width="1.156" d="M3087.39 984.151c235.42 280.569 388.7 584.759 446.23 849.729 57.54 265.01 19.28 490.64-128.12 614.32s-376.24 122.18-627.23 19.5c-250.96-102.67-523.91-306.45-759.34-587.01-235.42-280.57-388.7-584.76-446.23-849.74-57.54-265.004-19.28-490.629 128.12-614.311s376.24-122.181 627.23-19.499c250.96 102.67 523.91 306.446 759.34 587.011Z"/><path stroke="#8F9DA8" stroke-width="1.156" d="M3208.46 1193.64c125.27 344.17 165.27 682.44 128.7 951.12-36.57 268.7-149.69 467.63-330.5 533.44s-395.34-13.87-596.08-196.2c-200.71-182.31-387.5-467.15-512.77-811.32-125.26-344.16-165.26-682.432-128.7-951.108 36.57-268.706 149.69-467.639 330.5-533.449 180.82-65.809 395.34 13.87 596.08 196.203 200.71 182.313 387.5 467.154 512.77 811.314Z"/><path stroke="#8F9DA8" stroke-width="1.156" d="M2792.86 2085.67c-344.16 125.27-682.43 165.27-951.11 128.7-268.7-36.57-467.63-149.69-533.44-330.5s13.87-395.34 196.2-596.08c182.31-200.71 467.15-387.503 811.32-512.768 344.16-125.266 682.43-165.266 951.11-128.699 268.7 36.57 467.64 149.691 533.45 330.502 65.81 180.815-13.87 395.335-196.21 596.075-182.31 200.71-467.15 387.51-811.32 512.77Z"/><path stroke="#8F9DA8" stroke-width="1.156" d="M2848.77 801.108c331.94 154.785 599.41 365.692 763.54 581.532 164.14 215.86 224.82 436.52 143.5 610.91-81.31 174.38-289.35 269.74-560.22 282.75-270.84 13.01-604.34-56.32-936.27-211.11-331.94-154.78-599.42-365.69-763.54-581.53-164.15-215.86-224.83-436.52-143.51-610.904 81.32-174.387 289.35-269.739 560.23-282.752 270.84-13.011 604.33 56.319 936.27 211.104Z"/><path stroke="#8F9DA8" stroke-width="1.156" d="M3185.65 1725.74c-154.78 331.94-365.69 599.42-581.53 763.54-215.86 164.15-436.52 224.83-610.91 143.51-174.38-81.32-269.74-289.35-282.75-560.23-13.01-270.84 56.32-604.33 211.11-936.27 154.78-331.937 365.69-599.414 581.53-763.54 215.86-164.145 436.52-224.823 610.9-143.505 174.39 81.318 269.74 289.353 282.76 560.224 13.01 270.841-56.32 604.341-211.11 936.271Z"/><path stroke="#8F9DA8" stroke-width="1.156" d="M2585.29 736.865c365.9 15.975 693.73 108.47 927.96 245.071 234.26 136.614 374.76 317.254 366.36 509.484-8.39 192.23-164.1 359.94-409.37 475.62-245.25 115.67-579.89 179.24-945.79 163.26-365.91-15.97-693.73-108.47-927.96-245.07-234.26-136.62-374.76-317.25-366.37-509.49 8.39-192.23 164.1-359.93 409.38-475.613 245.24-115.667 579.88-179.238 945.79-163.262Z"/><path stroke="#8F9DA8" stroke-width="1.156" d="M3250.37 1462.2c-15.98 365.91-108.47 693.73-245.07 927.96-136.62 234.26-317.26 374.76-509.49 366.37s-359.94-164.1-475.62-409.38c-115.66-245.24-179.23-579.88-163.26-945.79 15.98-365.9 108.47-693.728 245.07-927.959 136.62-234.257 317.26-374.758 509.49-366.365s359.94 164.103 475.62 409.375c115.66 245.245 179.23 579.889 163.26 945.789Z"/><path stroke="#8F9DA8" stroke-width="1.156" d="M2084.17 918.73c270.03-247.436 567.25-413.842 829.46-482.876 262.25-69.043 489.33-40.661 619.32 101.202 130 141.864 138.48 370.552 46.84 625.784-91.62 255.2-283.3 536.78-553.33 784.22-270.03 247.43-567.24 413.84-829.46 482.87-262.24 69.05-489.32 40.67-619.32-101.2-129.99-141.86-138.47-370.55-46.84-625.78 91.63-255.2 283.3-536.78 553.33-784.22Z"/><path stroke="#8F9DA8" stroke-width="1.156" d="M3067.35 961.334c247.44 270.026 413.85 567.246 482.88 829.456 69.04 262.25 40.66 489.33-101.2 619.32-141.87 130-370.55 138.48-625.79 46.84-255.2-91.62-536.78-283.3-784.21-553.33-247.44-270.03-413.85-567.24-482.88-829.46-69.04-262.245-40.66-489.324 101.2-619.318s370.55-138.476 625.78-46.84c255.21 91.626 536.79 283.302 784.22 553.332Z"/></g><defs><clipPath id="a"><path fill="#fff" d="M0 0h2110v684H0z"/></clipPath></defs></svg>