<svg xmlns="http://www.w3.org/2000/svg" width="1280" height="640" fill="none"><path fill="#EDEFF3" d="M0 0h1280v640H0z"/><path fill="#1A1A1A" d="M1139.65 596h-9.85v-1.699l6.55-9.153h-6.15v-2.121h9.26v1.875l-6.42 8.977h6.61zm7.97-13.219c1.16 0 2.15.239 2.98.715.83.477 1.46 1.152 1.91 2.027.44.875.67 1.922.67 3.141v1.477h-8.66c.03 1.257.36 2.226 1 2.906.65.68 1.56 1.019 2.72 1.019.83 0 1.57-.078 2.23-.234.66-.164 1.35-.402 2.05-.715v2.238q-.975.458-1.98.668c-.67.141-1.48.211-2.42.211q-1.905 0-3.36-.738c-.96-.5-1.71-1.242-2.26-2.226q-.81-1.478-.81-3.668c0-1.454.25-2.688.74-3.704q.735-1.523 2.07-2.32t3.12-.797m0 2.074c-.87 0-1.57.282-2.11.844-.53.563-.84 1.387-.94 2.473h5.91q-.015-.973-.33-1.723c-.2-.5-.51-.89-.94-1.172q-.615-.422-1.59-.422m15.24-2.074c.21 0 .45.012.71.035s.48.055.67.094l-.26 2.578a3.4 3.4 0 0 0-.61-.105 6 6 0 0 0-.63-.035q-.735 0-1.41.246c-.44.156-.84.398-1.18.726-.35.321-.61.723-.81 1.207s-.29 1.047-.29 1.688V596h-2.77v-12.973h2.16l.37 2.285h.13q.39-.69.96-1.265c.39-.383.82-.688 1.31-.914a3.8 3.8 0 0 1 1.65-.352m15.26 6.703q0 1.618-.42 2.871-.42 1.254-1.23 2.122a5.4 5.4 0 0 1-1.94 1.312c-.76.297-1.62.445-2.57.445-.89 0-1.71-.148-2.45-.445a5.5 5.5 0 0 1-1.93-1.312q-.81-.868-1.26-2.122c-.29-.835-.44-1.793-.44-2.871 0-1.429.24-2.64.74-3.632q.75-1.5 2.13-2.286c.92-.523 2.02-.785 3.29-.785 1.2 0 2.25.262 3.17.785.91.524 1.63 1.286 2.14 2.286.52 1 .77 2.21.77 3.632m-9.41 0c0 .946.12 1.754.34 2.426q.36 1.008 1.08 1.547c.49.352 1.11.527 1.88.527.76 0 1.39-.175 1.87-.527.49-.359.84-.875 1.07-1.547s.34-1.48.34-2.426c0-.945-.11-1.746-.34-2.402-.23-.664-.58-1.168-1.07-1.512-.48-.351-1.11-.527-1.88-.527-1.14 0-1.98.383-2.5 1.148-.52.766-.79 1.864-.79 3.293m19.24-6.703c1.53 0 2.77.563 3.7 1.688.94 1.125 1.4 2.797 1.4 5.015 0 1.469-.21 2.707-.65 3.715-.43 1-1.04 1.758-1.82 2.274q-1.155.76-2.7.761c-.66 0-1.23-.086-1.72-.257a4.4 4.4 0 0 1-1.24-.668 5 5 0 0 1-.87-.914h-.16c.04.312.07.66.11 1.043.04.374.05.718.05 1.031v5.285h-2.76v-18.727h2.25l.39 1.793h.12c.25-.367.54-.707.88-1.019.36-.313.78-.559 1.27-.739.5-.187 1.08-.281 1.75-.281m-.74 2.25q-1.14 0-1.83.457c-.45.297-.79.746-1 1.348q-.3.902-.33 2.262v.386q0 1.442.3 2.45.3.995.99 1.523c.47.344 1.11.516 1.9.516.67 0 1.23-.184 1.67-.551q.66-.551.99-1.57t.33-2.403q0-2.097-.75-3.258c-.49-.773-1.25-1.16-2.27-1.16m17.75 7.266c0 .851-.21 1.57-.62 2.156s-1.02 1.031-1.82 1.336c-.79.297-1.75.445-2.9.445-.91 0-1.69-.066-2.35-.199a8 8 0 0 1-1.84-.586v-2.379c.62.289 1.31.539 2.08.75q1.155.317 2.19.317c.91 0 1.56-.141 1.96-.422.39-.289.59-.672.59-1.149q0-.421-.24-.75c-.16-.226-.46-.457-.89-.691-.43-.242-1.07-.531-1.9-.867-.82-.328-1.51-.656-2.08-.985-.56-.328-.98-.722-1.27-1.183-.29-.469-.44-1.067-.44-1.793 0-1.149.46-2.02 1.36-2.613.92-.602 2.12-.903 3.62-.903q1.2 0 2.25.246c.72.157 1.41.387 2.09.692l-.87 2.074q-.87-.387-1.77-.633a6.3 6.3 0 0 0-1.79-.258c-.71 0-1.25.11-1.63.328-.37.219-.55.532-.55.938q0 .457.27.773.27.317.93.633c.44.211 1.06.473 1.85.785.77.297 1.44.61 2 .938.57.32 1.01.715 1.31 1.183.31.469.46 1.075.46 1.817m2.58 2.25c0-.641.16-1.09.49-1.348.34-.265.74-.398 1.22-.398s.88.133 1.22.398q.51.387.51 1.348 0 .937-.51 1.359c-.34.274-.74.41-1.22.41s-.88-.136-1.22-.41c-.33-.281-.49-.734-.49-1.359m9.74-11.52V596h-2.76v-12.973zm-1.36-4.968c.42 0 .78.113 1.09.339s.47.618.47 1.172c0 .547-.16.938-.47 1.172-.31.227-.67.34-1.09.34-.44 0-.81-.113-1.12-.34-.29-.234-.44-.625-.44-1.172 0-.554.15-.945.44-1.172.31-.226.68-.339 1.12-.339m16.79 11.425q0 1.618-.42 2.871-.42 1.254-1.23 2.122a5.4 5.4 0 0 1-1.95 1.312c-.75.297-1.61.445-2.56.445-.89 0-1.71-.148-2.45-.445a5.7 5.7 0 0 1-1.94-1.312c-.54-.579-.95-1.286-1.25-2.122q-.45-1.253-.45-2.871c0-1.429.25-2.64.74-3.632.5-1 1.21-1.762 2.14-2.286.92-.523 2.02-.785 3.29-.785 1.19 0 2.25.262 3.16.785.92.524 1.63 1.286 2.15 2.286.51 1 .77 2.21.77 3.632m-9.41 0c0 .946.11 1.754.34 2.426.24.672.59 1.188 1.08 1.547.48.352 1.11.527 1.87.527.77 0 1.39-.175 1.88-.527.48-.359.84-.875 1.07-1.547.22-.672.34-1.48.34-2.426 0-.945-.12-1.746-.34-2.402-.23-.664-.59-1.168-1.07-1.512-.49-.351-1.11-.527-1.89-.527q-1.71 0-2.49 1.148c-.53.766-.79 1.864-.79 3.293"/><path fill="#323232" d="m327.596 179.457-96.358 36.828A22.43 22.43 0 0 0 217 237.194v92.714l44.283-25.449v-52.131l74.217-28.475V178c-2.701.006-5.379.5-7.904 1.457m-65.528 207.627 73.432-42.321v-51.122l-113.455 65.416a10.2 10.2 0 0 0-5.045 8.745v34.249a22.42 22.42 0 0 0 14.238 20.684l96.358 36.828a22.4 22.4 0 0 0 7.904 1.457v-45.852z"/><path fill="#1A1A1A" d="M449.291 279.066a9.36 9.36 0 0 0 4.709-8.24v-33.632a22.43 22.43 0 0 0-14.238-20.909l-96.414-36.828A22.4 22.4 0 0 0 335.5 178v45.853l72.871 28.027-72.871 41.985v51.122zM343.348 459.563l96.414-36.828A22.43 22.43 0 0 0 454 402.051v-93.667l-44.284 25.561v52.859L335.5 415.168v45.852a22.4 22.4 0 0 0 7.848-1.457"/><path fill="#939393" d="m660 295.553-6.043-6.043L630 313.467l-23.957-23.957-6.043 6.043 23.957 23.957L600 343.467l6.043 6.043L630 325.553l23.957 23.957 6.043-6.043-23.957-23.957z"/><path fill="#1A1A1A" d="m1062.23 316.349-10.82-6.708c-.1-1.051-.2-2.102-.31-3.152l9.3-8.683a3.73 3.73 0 0 0 1.02-1.58c.2-.605.24-1.251.11-1.875a3.6 3.6 0 0 0-.82-1.69 3.65 3.65 0 0 0-1.54-1.071l-11.9-4.451q-.45-1.54-.93-3.072l7.42-10.311c.37-.515.61-1.117.68-1.748a3.7 3.7 0 0 0-.25-1.858 3.8 3.8 0 0 0-1.13-1.498 3.73 3.73 0 0 0-1.72-.758l-12.55-2.04c-.49-.951-.99-1.886-1.51-2.822l5.27-11.569c.27-.578.39-1.215.34-1.851a3.76 3.76 0 0 0-.61-1.777 3.71 3.71 0 0 0-3.25-1.645l-12.73.443a91 91 0 0 0-2.02-2.434l2.93-12.408c.15-.619.14-1.265-.04-1.878-.17-.612-.5-1.17-.95-1.62-.45-.449-1-.776-1.62-.949a3.7 3.7 0 0 0-1.87-.036l-12.4 2.918c-.81-.677-1.62-1.346-2.45-2.015l.45-12.723a3.73 3.73 0 0 0-1.65-3.246 3.7 3.7 0 0 0-3.62-.277l-11.575 5.273a132 132 0 0 0-2.821-1.516l-2.04-12.545a3.73 3.73 0 0 0-4.106-3.104 3.7 3.7 0 0 0-1.748.677l-10.319 7.418a114 114 0 0 0-3.064-.928l-4.451-11.9a3.723 3.723 0 0 0-4.634-2.253 3.7 3.7 0 0 0-1.582 1.012l-8.683 9.32a103 103 0 0 0-3.152-.307l-6.708-10.836a3.73 3.73 0 0 0-3.169-1.766 3.73 3.73 0 0 0-3.168 1.766l-6.708 10.836a105 105 0 0 0-3.153.307l-8.683-9.312a3.743 3.743 0 0 0-6.216 1.233l-4.451 11.9a113 113 0 0 0-3.063.936l-10.32-7.426a3.72 3.72 0 0 0-3.612-.44 3.7 3.7 0 0 0-2.25 2.859l-2.048 12.553c-.943.492-1.878 1-2.821 1.516l-11.562-5.273a3.71 3.71 0 0 0-3.625.275 3.71 3.71 0 0 0-1.648 3.24l.444 12.739q-1.234.99-2.443 2.015l-12.4-2.926a3.74 3.74 0 0 0-4.44 2.61 3.74 3.74 0 0 0-.051 1.873l2.927 12.408c-.686.806-1.355 1.612-2.016 2.434l-12.731-.443a3.72 3.72 0 0 0-3.849 3.425c-.051.634.061 1.27.326 1.848l5.273 11.578c-.508.927-1.016 1.862-1.508 2.821l-12.545 2.032a3.73 3.73 0 0 0-2.851 2.253 3.73 3.73 0 0 0 .424 3.609l7.418 10.311c-.323 1.016-.629 2.04-.928 3.064l-11.9 4.459a3.72 3.72 0 0 0-2.24 4.635 3.7 3.7 0 0 0 1.007 1.581l9.312 8.683a103 103 0 0 0-.315 3.152l-10.827 6.708a3.728 3.728 0 0 0 0 6.337l10.827 6.7q.133 1.587.315 3.161l-9.312 8.683a3.725 3.725 0 0 0 1.233 6.216l11.9 4.451c.299 1.032.613 2.056.936 3.063l-7.426 10.32a3.727 3.727 0 0 0 2.427 5.854l12.545 2.039c.492.952.992 1.895 1.516 2.822l-5.281 11.57a3.72 3.72 0 0 0 .29 3.62 3.72 3.72 0 0 0 3.233 1.653l12.731-.444c.661.831 1.33 1.637 2.016 2.443l-2.927 12.408a3.71 3.71 0 0 0 4.491 4.475l12.4-2.919c.806.686 1.62 1.347 2.443 2.008l-.444 12.739a3.71 3.71 0 0 0 1.653 3.233 3.7 3.7 0 0 0 1.773.613c.634.05 1.27-.064 1.847-.331l11.57-5.273c.927.516 1.87 1.024 2.821 1.516l2.04 12.537a3.72 3.72 0 0 0 2.247 2.863 3.72 3.72 0 0 0 3.615-.428l10.312-7.434c1.015.323 2.039.645 3.063.935l4.451 11.901a3.71 3.71 0 0 0 6.216 1.233l8.691-9.312c1.048.121 2.096.226 3.153.322l6.708 10.828a3.73 3.73 0 0 0 6.337 0l6.699-10.836a100 100 0 0 0 3.161-.314l8.683 9.312a3.72 3.72 0 0 0 3.45 1.124 3.7 3.7 0 0 0 2.758-2.357l4.459-11.901a101 101 0 0 0 3.064-.935l10.319 7.434a3.74 3.74 0 0 0 3.604.409 3.73 3.73 0 0 0 2.25-2.844l2.048-12.545c.943-.484 1.878-1 2.813-1.508l11.575 5.273c.57.267 1.21.381 1.84.331a3.72 3.72 0 0 0 3.03-2.019c.29-.568.42-1.199.4-1.835l-.45-12.739c.83-.645 1.64-1.314 2.45-2l12.4 2.919c.62.151 1.26.14 1.87-.032a3.7 3.7 0 0 0 1.63-.946c.45-.45.77-1.007.95-1.62a3.73 3.73 0 0 0 .03-1.877l-2.92-12.408c.68-.806 1.35-1.612 2.01-2.443l12.74.444c.63.026 1.27-.112 1.83-.4a3.8 3.8 0 0 0 1.41-1.248c.35-.53.56-1.142.61-1.777a3.7 3.7 0 0 0-.34-1.848l-5.27-11.57c.52-.927 1.02-1.87 1.51-2.822l12.54-2.039a3.68 3.68 0 0 0 2.86-2.245c.25-.588.33-1.229.26-1.861a3.7 3.7 0 0 0-.69-1.748l-7.42-10.32q.48-1.526.93-3.063l11.9-4.451a3.65 3.65 0 0 0 1.54-1.071c.42-.484.7-1.066.82-1.69.13-.625.09-1.27-.11-1.875-.2-.606-.55-1.15-1.02-1.58l-9.31-8.683c.11-1.048.22-2.104.32-3.161l10.82-6.7c.54-.333.99-.8 1.3-1.354.31-.555.47-1.179.47-1.814a3.72 3.72 0 0 0-1.77-3.169m-72.486 89.848a7.675 7.675 0 0 1 3.217-15.004 7.675 7.675 0 0 1-3.217 15.004m-3.685-24.888a6.98 6.98 0 0 0-7.21 2.867 7 7 0 0 0-1.078 2.502l-3.846 17.947A93.9 93.9 0 0 1 935 413.01c-14.19 0-27.654-3.144-39.74-8.764l-3.846-17.939a6.97 6.97 0 0 0-3.029-4.407 6.98 6.98 0 0 0-5.259-.97l-15.842 3.402a94 94 0 0 1-8.192-9.651h77.085c.871 0 1.451-.161 1.451-.951v-27.267c0-.799-.58-.952-1.451-.952h-22.542v-17.294h24.38c2.226 0 11.901.637 14.997 13.005.967 3.797 3.095 16.173 4.547 20.132 1.451 4.442 7.353 13.319 13.641 13.319h38.41c.47-.004.93-.05 1.39-.137a93 93 0 0 1-8.73 10.239l-16.202-3.475zM879.45 405.818a7.675 7.675 0 0 1-3.217-15.004 7.7 7.7 0 0 1 2.994-.042 7.66 7.66 0 0 1 4.931 3.194c.572.83.975 1.764 1.185 2.75a7.66 7.66 0 0 1-1.064 5.777 7.68 7.68 0 0 1-4.837 3.333zm-29.243-118.574a7.66 7.66 0 1 1-14.002 6.215 7.66 7.66 0 0 1 14.002-6.215m-8.989 21.309 16.503-7.337a7 7 0 0 0 3.548-9.231l-3.394-7.684h13.367v60.259h-26.969a94.4 94.4 0 0 1-3.055-36.007m72.425-5.853v-17.762h31.83c1.645 0 11.61 1.903 11.61 9.353 0 6.183-7.643 8.409-13.932 8.409zm115.687 15.988q0 3.529-.27 6.998h-9.67c-.97 0-1.35.645-1.35 1.588v4.442c0 10.465-5.91 12.739-11.07 13.32-4.92.548-10.389-2.064-11.058-5.08-2.903-16.326-7.74-19.817-15.383-25.848 9.481-6.015 19.35-14.899 19.35-26.791 0-12.844-8.805-20.931-14.803-24.897-8.417-5.547-17.738-6.66-20.253-6.66H864.736a94.2 94.2 0 0 1 52.769-29.783l11.795 12.376c2.669 2.79 7.095 2.903 9.876.226l13.207-12.626a94.4 94.4 0 0 1 37.346 15.889 94.3 94.3 0 0 1 27.221 30.099l-9.03 20.415a7.03 7.03 0 0 0-.14 5.348 7.03 7.03 0 0 0 3.68 3.883l17.41 7.724c.3 3.088.46 6.208.46 9.377m-100.022-103.24a7.66 7.66 0 0 1 5.47-2.121 7.65 7.65 0 0 1 6.97 4.9 7.672 7.672 0 0 1-7.33 10.439 7.64 7.64 0 0 1-5.36-2.374 7.685 7.685 0 0 1 .25-10.844m89.682 72.167a7.656 7.656 0 0 1 10.11-3.89 7.65 7.65 0 0 1 4.04 4.251 7.64 7.64 0 0 1-.15 5.863c-.41.92-.99 1.75-1.72 2.443a7.67 7.67 0 0 1-10.84-.277 7.7 7.7 0 0 1-1.59-2.527 7.6 7.6 0 0 1-.51-2.947c.02-1.006.25-1.997.66-2.916"/></svg>