<svg width="1280" height="640" fill="none" xmlns="http://www.w3.org/2000/svg"><path fill="#EDEFF3" d="M0 0h1280v640H0z"/><path d="M1139.65 596h-9.85v-1.699l6.55-9.153h-6.15v-2.121h9.26v1.875l-6.42 8.977h6.61V596Zm7.97-13.219c1.16 0 2.15.239 2.98.715.83.477 1.46 1.152 1.91 2.027.44.875.67 1.922.67 3.141v1.477h-8.66c.03 1.257.36 2.226 1 2.906.65.68 1.56 1.019 2.72 1.019.83 0 1.57-.078 2.23-.234.66-.164 1.35-.402 2.05-.715v2.238c-.65.305-1.31.528-1.98.668-.67.141-1.48.211-2.42.211-1.27 0-2.39-.246-3.36-.738-.96-.5-1.71-1.242-2.26-2.226-.54-.985-.81-2.208-.81-3.668 0-1.454.25-2.688.74-3.704.49-1.015 1.18-1.789 2.07-2.32.89-.531 1.93-.797 3.12-.797Zm0 2.074c-.87 0-1.57.282-2.11.844-.53.563-.84 1.387-.94 2.473h5.91c-.01-.649-.12-1.223-.33-1.723-.2-.5-.51-.89-.94-1.172-.41-.281-.94-.422-1.59-.422Zm15.24-2.074c.21 0 .45.012.71.035.26.024.48.055.67.094l-.26 2.578a3.41 3.41 0 0 0-.61-.105 6.093 6.093 0 0 0-.63-.035c-.49 0-.96.082-1.41.246-.44.156-.84.398-1.18.726-.35.321-.61.723-.81 1.207-.2.485-.29 1.047-.29 1.688V596h-2.77v-12.973h2.16l.37 2.285h.13c.26-.46.58-.882.96-1.265.39-.383.82-.688 1.31-.914a3.83 3.83 0 0 1 1.65-.352Zm15.26 6.703c0 1.078-.14 2.036-.42 2.871-.28.836-.69 1.543-1.23 2.122a5.398 5.398 0 0 1-1.94 1.312c-.76.297-1.62.445-2.57.445-.89 0-1.71-.148-2.45-.445a5.537 5.537 0 0 1-1.93-1.312c-.54-.579-.96-1.286-1.26-2.122-.29-.835-.44-1.793-.44-2.871 0-1.429.24-2.64.74-3.632.5-1 1.21-1.762 2.13-2.286.92-.523 2.02-.785 3.29-.785 1.2 0 2.25.262 3.17.785.91.524 1.63 1.286 2.14 2.286.52 1 .77 2.21.77 3.632Zm-9.41 0c0 .946.12 1.754.34 2.426.24.672.6 1.188 1.08 1.547.49.352 1.11.527 1.88.527.76 0 1.39-.175 1.87-.527.49-.359.84-.875 1.07-1.547.23-.672.34-1.48.34-2.426 0-.945-.11-1.746-.34-2.402-.23-.664-.58-1.168-1.07-1.512-.48-.351-1.11-.527-1.88-.527-1.14 0-1.98.383-2.5 1.148-.52.766-.79 1.864-.79 3.293Zm19.24-6.703c1.53 0 2.77.563 3.7 1.688.94 1.125 1.4 2.797 1.4 5.015 0 1.469-.21 2.707-.65 3.715-.43 1-1.04 1.758-1.82 2.274-.77.507-1.67.761-2.7.761-.66 0-1.23-.086-1.72-.257a4.414 4.414 0 0 1-1.24-.668 5.114 5.114 0 0 1-.87-.914h-.16c.04.312.07.66.11 1.043.04.374.05.718.05 1.031v5.285h-2.76v-18.727h2.25l.39 1.793h.12c.25-.367.54-.707.88-1.019.36-.313.78-.559 1.27-.739.5-.187 1.08-.281 1.75-.281Zm-.74 2.25c-.76 0-1.37.153-1.83.457-.45.297-.79.746-1 1.348-.2.602-.31 1.355-.33 2.262v.386c0 .961.1 1.778.3 2.45.2.664.53 1.171.99 1.523.47.344 1.11.516 1.9.516.67 0 1.23-.184 1.67-.551.44-.367.77-.891.99-1.57.22-.68.33-1.481.33-2.403 0-1.398-.25-2.484-.75-3.258-.49-.773-1.25-1.16-2.27-1.16Zm17.75 7.266c0 .851-.21 1.57-.62 2.156-.41.586-1.02 1.031-1.82 1.336-.79.297-1.75.445-2.9.445-.91 0-1.69-.066-2.35-.199a8.017 8.017 0 0 1-1.84-.586v-2.379c.62.289 1.31.539 2.08.75.77.211 1.5.317 2.19.317.91 0 1.56-.141 1.96-.422.39-.289.59-.672.59-1.149 0-.281-.08-.531-.24-.75-.16-.226-.46-.457-.89-.691-.43-.242-1.07-.531-1.9-.867-.82-.328-1.51-.656-2.08-.985-.56-.328-.98-.722-1.27-1.183-.29-.469-.44-1.067-.44-1.793 0-1.149.46-2.02 1.36-2.613.92-.602 2.12-.903 3.62-.903.8 0 1.55.082 2.25.246.72.157 1.41.387 2.09.692l-.87 2.074c-.58-.258-1.17-.469-1.77-.633a6.28 6.28 0 0 0-1.79-.258c-.71 0-1.25.11-1.63.328-.37.219-.55.532-.55.938 0 .305.09.562.27.773.18.211.49.422.93.633.44.211 1.06.473 1.85.785.77.297 1.44.61 2 .938.57.32 1.01.715 1.31 1.183.31.469.46 1.075.46 1.817Zm2.58 2.25c0-.641.16-1.09.49-1.348.34-.265.74-.398 1.22-.398s.88.133 1.22.398c.34.258.51.707.51 1.348 0 .625-.17 1.078-.51 1.359-.34.274-.74.41-1.22.41s-.88-.136-1.22-.41c-.33-.281-.49-.734-.49-1.359Zm9.74-11.52V596h-2.76v-12.973h2.76Zm-1.36-4.968c.42 0 .78.113 1.09.339.31.227.47.618.47 1.172 0 .547-.16.938-.47 1.172-.31.227-.67.34-1.09.34-.44 0-.81-.113-1.12-.34-.29-.234-.44-.625-.44-1.172 0-.554.15-.945.44-1.172.31-.226.68-.339 1.12-.339Zm16.79 11.425c0 1.078-.14 2.036-.42 2.871-.28.836-.69 1.543-1.23 2.122a5.437 5.437 0 0 1-1.95 1.312c-.75.297-1.61.445-2.56.445-.89 0-1.71-.148-2.45-.445a5.67 5.67 0 0 1-1.94-1.312c-.54-.579-.95-1.286-1.25-2.122-.3-.835-.45-1.793-.45-2.871 0-1.429.25-2.64.74-3.632.5-1 1.21-1.762 2.14-2.286.92-.523 2.02-.785 3.29-.785 1.19 0 2.25.262 3.16.785.92.524 1.63 1.286 2.15 2.286.51 1 .77 2.21.77 3.632Zm-9.41 0c0 .946.11 1.754.34 2.426.24.672.59 1.188 1.08 1.547.48.352 1.11.527 1.87.527.77 0 1.39-.175 1.88-.527.48-.359.84-.875 1.07-1.547.22-.672.34-1.48.34-2.426 0-.945-.12-1.746-.34-2.402-.23-.664-.59-1.168-1.07-1.512-.49-.351-1.11-.527-1.89-.527-1.14 0-1.97.383-2.49 1.148-.53.766-.79 1.864-.79 3.293Z" fill="#1A1A1A"/><path d="m329.096 179.457-96.358 36.828a22.427 22.427 0 0 0-14.238 20.909v92.714l44.283-25.449v-52.131L337 223.853V178c-2.701.006-5.379.5-7.904 1.457ZM263.568 387.084 337 344.763v-51.122l-113.455 65.416a10.205 10.205 0 0 0-5.045 8.745v34.249a22.421 22.421 0 0 0 14.238 20.684l96.358 36.828A22.4 22.4 0 0 0 337 461.02v-45.852l-73.432-28.084Z" fill="#323232"/><path d="M450.791 279.066a9.36 9.36 0 0 0 4.708-8.24v-33.632a22.427 22.427 0 0 0-14.238-20.909l-96.414-36.828A22.431 22.431 0 0 0 337 178v45.853l72.871 28.027L337 293.865v51.122l113.791-65.921ZM344.847 459.563l96.414-36.828a22.416 22.416 0 0 0 14.238-20.684v-93.667l-44.283 25.561v52.859L337 415.168v45.852a22.408 22.408 0 0 0 7.847-1.457Z" fill="#1A1A1A"/><path d="m661.5 295.553-6.043-6.043-23.957 23.957-23.957-23.957-6.043 6.043 23.957 23.957-23.957 23.957 6.043 6.043 23.957-23.957 23.957 23.957 6.043-6.043-23.957-23.957 23.957-23.957Z" fill="#939393"/><g clip-path="url(#a)"><path d="M935 192.01c33.815 0 66.25 13.433 90.16 37.344a127.5 127.5 0 0 1 37.34 90.156c0 33.815-13.43 66.246-37.34 90.156a127.507 127.507 0 0 1-180.316 0 127.498 127.498 0 0 1 0-180.312A127.5 127.5 0 0 1 935 192.01Z" fill="#1A1A1A"/><path d="M930.02 264.177c-37.055 0-65.942 23.359-65.942 52.395 0 27.392 26.546 44.874 67.685 44.027l1.245-.05 4.532-.149-1.145 2.988.149.299c.328.769.627 1.55.896 2.341l.1.299.149.498.2.697.149.448.199.498.15.548.199.797.249.847.149.548.249.896.249.946.2.947.249.996.199.697.249 1.096.249 1.095.349 1.495.149.796.249 1.196.249 1.245.299 1.295.348 1.843.299 1.494.399 2.092.199 1.045.349 1.644.298 1.693.399 2.291.448 2.391.399 2.49.448 2.54.448 2.59.448 2.69.449 2.789.348 2.141.548 3.636.249 1.494.598 3.835.448 3.138.398 2.39.449 3.287.249 1.644c27.342-3.636 51.649-16.884 69.379-36.258l.55-.597-2.54-9.463-6.73-25.152-4.18-15.638-3.69-13.746-2.29-8.368-1.442-5.279-.846-3.187-.797-2.79-.299-1.195-.199-.647-.1-.349-.1-.299c-3.884-12.501-11.405-23.557-21.665-31.576-12.052-9.413-27.342-14.344-45.172-14.344Zm-32.573 132.929c-3.237-.896-6.624.996-7.57 4.233l-.05.15-5.578 20.719a114.145 114.145 0 0 0 10.708 4.631l.847.349 6.026-22.462.05-.149c.797-3.287-1.146-6.624-4.433-7.471Zm34.714-15.19c-3.287-.897-6.674.996-7.62 4.233l-.05.149-8.467 31.377v.15a6.229 6.229 0 0 0 4.471 7.294 6.226 6.226 0 0 0 7.532-4.057l.05-.149 8.467-31.377v-.15l.149-.697.05-.249-.199-1.046-.299-1.444-.199-.897a6.231 6.231 0 0 0-3.885-3.137Zm-59.018-32.324-.399.947-.05.199-8.466 31.377-.05.149a6.228 6.228 0 0 0 4.409 7.458 6.227 6.227 0 0 0 7.594-4.171l.049-.149 7.67-28.488c-3.984-2.092-7.62-4.582-10.757-7.322Zm-20.171-36.108c-3.287-.847-6.674 1.046-7.62 4.233l-.05.15-8.467 31.377v.149a6.229 6.229 0 0 0 4.409 7.458 6.227 6.227 0 0 0 7.594-4.171l.05-.149 8.466-31.377v-.15c.797-3.287-1.145-6.624-4.382-7.52Zm189.808-7.122c-3.24-.847-6.63 1.046-7.57 4.233l-.05.15-8.47 31.377-.05.149a6.237 6.237 0 0 0 .6 4.743 6.294 6.294 0 0 0 3.78 2.927c1.6.436 3.31.219 4.75-.603a6.245 6.245 0 0 0 2.92-3.78v-.149l8.52-31.377v-.199c.8-3.238-1.15-6.575-4.43-7.471Zm-208.286-41.886a113.748 113.748 0 0 0-13.298 41.736 6.172 6.172 0 0 0 3.088 1.893c3.237.847 6.624-1.046 7.57-4.233l.05-.15 8.467-31.377.05-.149a6.256 6.256 0 0 0-4.433-7.521 6.381 6.381 0 0 0-1.494-.199Zm186.866.199a6.33 6.33 0 0 0-7.62 4.234v.149l-8.47 31.377-.05.15a6.276 6.276 0 0 0 .7 4.621 6.205 6.205 0 0 0 3.71 2.836c1.56.427 3.23.231 4.65-.548a6.26 6.26 0 0 0 2.95-3.622l.05-.15 8.46-31.377.05-.149c.8-3.287-1.19-6.624-4.43-7.521Z" fill="#EDEFF3"/><path d="M937.988 285.145a7.97 7.97 0 1 1 0 15.939 7.97 7.97 0 0 1 0-15.939Z" fill="#1A1A1A"/><path d="M871.35 234.842c-3.238-.846-6.624 1.046-7.571 4.234l-.049.149-8.467 31.377-.05.15a6.226 6.226 0 0 0 12.003 3.287l.05-.15 8.466-31.377.05-.199c.797-3.237-1.145-6.574-4.432-7.471Zm108.823 5.927c-3.287-.847-6.674 1.046-7.62 4.233l-.05.15-5.678 21.117a69.67 69.67 0 0 1 10.509 6.375l.548.448 6.674-24.653v-.149c.797-3.288-1.146-6.624-4.383-7.521Zm-55.383-35.361a114.35 114.35 0 0 0-11.853 1.693l-.847.15-7.869 29.235-.05.149a6.223 6.223 0 0 0 4.471 7.295 6.224 6.224 0 0 0 7.532-4.057l.05-.15 8.466-31.377.05-.149a6.182 6.182 0 0 0 .05-2.789Zm77.89 21.665-1.64 6.176-.05.149a6.178 6.178 0 0 0 .79 4.537 6.23 6.23 0 0 0 3.68 2.758 6.25 6.25 0 0 0 4.58-.53 6.218 6.218 0 0 0 2.95-3.528l.05-.149.2-.648a114.26 114.26 0 0 0-9.81-8.217l-.75-.548Zm-49.252-20.619-2.989 11.106-.049.15a6.226 6.226 0 0 0 12.003 3.237l.049-.15 3.138-11.704a114.125 114.125 0 0 0-11.256-2.49l-.896-.149Z" fill="#EDEFF3"/></g><defs><clipPath id="a"><path fill="#fff" transform="translate(807.5 192.01)" d="M0 0h255v255H0z"/></clipPath></defs></svg>