<svg xmlns="http://www.w3.org/2000/svg" id="Layer_2" viewBox="0 0 1280 640"><defs><style>.cls-3{fill:#1a1a1a}</style></defs><g id="Layer_1-2" data-name="Layer_1"><path d="M0 0h1280v640H0z" style="fill:#edeff3"/><path d="M1139.7 596h-9.8v-1.7l6.6-9.2h-6.2V583h9.3v1.9l-6.4 9h6.6v2.1zm7.9-13.2c1.2 0 2.2.2 3 .7s1.5 1.2 1.9 2c.4.9.7 1.9.7 3.1v1.5h-8.7c0 1.3.4 2.2 1 2.9.7.7 1.6 1 2.7 1s1.6 0 2.2-.2c.7-.2 1.3-.4 2.1-.7v2.2c-.7.3-1.3.5-2 .7-.7 0-1.5.2-2.4.2s-2.4-.2-3.4-.7-1.7-1.2-2.3-2.2c-.5-1-.8-2.2-.8-3.7s.2-2.7.7-3.7 1.2-1.8 2.1-2.3 1.9-.8 3.1-.8zm0 2.1c-.9 0-1.6.3-2.1.8-.5.6-.8 1.4-.9 2.5h5.9c0-.6 0-1.2-.3-1.7q-.3-.75-.9-1.2c-.6-.45-.9-.4-1.6-.4zm15.3-2.1h1.4l-.3 2.6h-1.2c-.5 0-1 0-1.4.2s-.8.4-1.2.7c-.3.3-.6.7-.8 1.2s-.3 1-.3 1.7v6.8h-2.8v-13h2.2l.4 2.3c.3-.5.6-.9 1-1.3s.8-.7 1.3-.9 1.1-.4 1.7-.4v.2zm15.2 6.7c0 1.1 0 2-.4 2.9q-.45 1.2-1.2 2.1c-.75.9-1.2 1-1.9 1.3-.8.3-1.6.4-2.6.4s-1.7 0-2.4-.4c-.7-.3-1.4-.7-1.9-1.3s-1-1.3-1.3-2.1-.4-1.8-.4-2.9.2-2.6.7-3.6 1.2-1.8 2.1-2.3 2-.8 3.3-.8 2.2.3 3.2.8c.9.5 1.6 1.3 2.1 2.3s.8 2.2.8 3.6zm-9.4 0c0 .9 0 1.8.3 2.4.2.7.6 1.2 1.1 1.5.5.4 1.1.5 1.9.5s1.4-.2 1.9-.5c.5-.4.8-.9 1.1-1.5s.3-1.5.3-2.4 0-1.7-.3-2.4c-.2-.7-.6-1.2-1.1-1.5-.5-.4-1.1-.5-1.9-.5s-2 .4-2.5 1.1c-.5.8-.8 1.9-.8 3.3m19.2-6.7c1.5 0 2.8.6 3.7 1.7s1.4 2.8 1.4 5-.2 2.7-.7 3.7c-.4 1-1 1.8-1.8 2.3s-1.7.8-2.7.8-1.2 0-1.7-.3c-.4-.2-.9-.4-1.2-.7l-.9-.9h-.2v7.3h-2.8V583h2.2l.4 1.8c.2-.4.5-.7.9-1s.8-.6 1.3-.7q.75-.3 1.8-.3zm-.7 2.2c-.8 0-1.4.2-1.8.5s-.8.7-1 1.3-.3 1.4-.3 2.3v.4c0 1 0 1.8.3 2.5.2.7.5 1.2 1 1.5s1.1.5 1.9.5 1.2-.2 1.7-.6c.4-.4.8-.9 1-1.6q.3-1.05.3-2.4c0-1.4-.2-2.5-.8-3.3-.5-.8-1.2-1.2-2.3-1.2zm17.8 7.3c0 .9-.2 1.6-.6 2.2s-1 1-1.8 1.3-1.8.4-2.9.4-1.7 0-2.3-.2c-.6 0-1.3-.3-1.8-.6V593c.6.3 1.3.5 2.1.8.8.2 1.5.3 2.2.3s1.6 0 2-.4c.4-.3.6-.7.6-1.1s0-.5-.2-.8c-.2-.2-.5-.5-.9-.7s-1.1-.5-1.9-.9c-.8-.3-1.5-.7-2.1-1s-1-.7-1.3-1.2-.4-1.1-.4-1.8c0-1.1.5-2 1.4-2.6s2.1-.9 3.6-.9 1.6 0 2.2.2c.7.2 1.4.4 2.1.7l-.9 2.1q-.9-.45-1.8-.6-.9-.3-1.8-.3c-.9 0-1.2 0-1.6.3s-.6.5-.6.9 0 .6.3.8.5.4.9.6 1.1.5 1.8.8c.8.3 1.4.6 2 .9s1 .7 1.3 1.2.5 1.1.5 1.8v.2zm2.5 2.2c0-.6.2-1.1.5-1.3.3-.3.7-.4 1.2-.4s.9 0 1.2.4c.3.3.5.7.5 1.3s-.2 1.1-.5 1.4-.7.4-1.2.4-.9 0-1.2-.4c-.3-.3-.5-.7-.5-1.4m9.8-11.5v13h-2.8v-13zm-1.4-4.9c.4 0 .8 0 1.1.3.3.2.5.6.5 1.2s-.2.9-.5 1.2c-.3.2-.7.3-1.1.3s-.8 0-1.1-.3c-.3-.2-.4-.6-.4-1.2s.2-.9.4-1.2c.3-.2.7-.3 1.1-.3m16.8 11.4c0 1.1 0 2-.4 2.9q-.45 1.2-1.2 2.1c-.75.9-1.2 1-1.9 1.3-.8.3-1.6.4-2.6.4s-1.7 0-2.4-.4c-.7-.3-1.4-.7-1.9-1.3s-.9-1.3-1.2-2.1-.4-1.8-.4-2.9.2-2.6.7-3.6 1.2-1.8 2.1-2.3 2-.8 3.3-.8 2.2.3 3.2.8c.9.5 1.6 1.3 2.2 2.3.5 1 .8 2.2.8 3.6zm-9.4 0c0 .9 0 1.8.3 2.4.2.7.6 1.2 1.1 1.5.5.4 1.1.5 1.9.5s1.4-.2 1.9-.5c.5-.4.8-.9 1.1-1.5q.3-1.05.3-2.4c0-1.35 0-1.7-.3-2.4-.2-.7-.6-1.2-1.1-1.5-.5-.4-1.1-.5-1.9-.5s-2 .4-2.5 1.1c-.5.8-.8 1.9-.8 3.3" class="cls-3"/><path d="m338.1 179.5-96.4 36.8c-8.6 3.4-14.3 11.7-14.2 20.9v92.7l44.3-25.4v-52.1l74.2-28.5V178c-2.7 0-5.4.5-7.9 1.5m-65.5 207.6 73.4-42.3v-51.1l-113.5 65.4c-3.1 1.8-5 5.1-5 8.7V402c0 9.2 5.7 17.3 14.2 20.7l96.4 36.8c2.5 1 5.2 1.5 7.9 1.5v-45.9L272.6 387z" style="fill:#323232"/><path d="M459.8 279.1c2.9-1.7 4.8-4.8 4.7-8.2v-33.6c0-9.2-5.6-17.5-14.2-20.9l-96.4-36.8c-2.5-1-5.2-1.4-7.8-1.5V224l72.9 28-72.9 42v51.1l113.8-65.9h-.1zm-106 180.5 96.4-36.8c8.5-3.3 14.2-11.5 14.2-20.7v-93.7L420.1 334v52.9l-74.2 28.4v45.9q4.05 0 7.8-1.5z" class="cls-3"/><path d="M566.13 378.8q0 8.58-4.35 15.24c-2.9 4.44-7.09 7.89-12.56 10.35s-11.89 3.69-19.25 3.69c-6.14 0-11.3-.43-15.46-1.29-4.17-.86-8.5-2.37-13-4.51v-22.22c4.75 2.44 9.7 4.34 14.83 5.71s9.85 2.05 14.14 2.05c3.7 0 6.42-.64 8.14-1.92s2.59-2.93 2.59-4.95c0-1.26-.35-2.37-1.04-3.31s-1.81-1.9-3.35-2.87-5.63-2.94-12.28-5.93c-6.02-2.73-10.53-5.39-13.54-7.95-3.01-2.57-5.24-5.51-6.69-8.84-1.45-3.32-2.18-7.26-2.18-11.8 0-8.5 3.09-15.12 9.28-19.88 6.18-4.75 14.68-7.13 25.5-7.13q14.325 0 29.22 6.63l-7.64 19.25c-8.63-3.95-16.07-5.93-22.34-5.93-3.24 0-5.6.57-7.07 1.7-1.47 1.14-2.21 2.55-2.21 4.23 0 1.81.94 3.43 2.81 4.86q2.805 2.145 15.24 7.83c7.95 3.58 13.47 7.42 16.57 11.52 3.09 4.1 4.64 9.27 4.64 15.49ZM636.52 334.56c0 5.72-1.75 10.63-5.24 14.74-3.49 4.1-8.54 7.08-15.15 8.93v.38c15.4 1.94 23.1 9.21 23.1 21.84 0 8.58-3.4 15.34-10.19 20.26-6.8 4.92-16.23 7.38-28.31 7.38-4.96 0-9.56-.36-13.79-1.07s-8.8-2.02-13.73-3.91v-20.7c4.04 2.06 8.15 3.59 12.34 4.58s8.05 1.48 11.58 1.48c5.47 0 9.46-.77 11.96-2.3 2.5-1.54 3.75-3.94 3.75-7.23 0-2.52-.65-4.47-1.96-5.84-1.3-1.37-3.41-2.4-6.31-3.09s-6.69-1.04-11.36-1.04h-5.68v-18.74h5.81c12.66 0 19-3.24 19-9.72 0-2.44-.94-4.25-2.81-5.43s-4.39-1.77-7.54-1.77c-5.89 0-11.99 1.98-18.3 5.93l-10.35-16.66c4.88-3.37 9.88-5.76 14.99-7.19s10.97-2.15 17.58-2.15c9.55 0 17.04 1.89 22.47 5.68s8.14 9 8.14 15.65ZM691.3 334.05c7.78 0 13.96 3.26 18.52 9.78s6.85 15.55 6.85 27.08-2.3 20.71-6.91 27.3-11.01 9.88-19.22 9.88c-2.65 0-5.01-.28-7.07-.85q-3.09-.855-5.52-2.37c-1.62-1.01-3.5-2.69-5.65-5.05h-1.51l-3.91 7.01h-19.25v-98.2h24.68v22.22c0 2.65-.29 7.22-.88 13.7h.88c2.4-3.7 5.16-6.37 8.3-8.02 3.13-1.64 6.7-2.46 10.7-2.46Zm-9.03 19.38c-3.45 0-5.97 1.2-7.57 3.6s-2.4 6.16-2.4 11.3v3.47c0 5.85.8 10.05 2.4 12.59 1.6 2.55 4.21 3.82 7.83 3.82 2.9 0 5.13-1.48 6.69-4.45s2.33-7.33 2.33-13.1c0-11.49-3.09-17.23-9.28-17.23M765.64 334.05c2.15 0 4.19.17 6.12.5l1.39.25-2.21 23.29c-2.02-.5-4.82-.76-8.39-.76-5.39 0-9.3 1.23-11.74 3.69s-3.66 6.01-3.66 10.63v35.15h-24.68v-71.51h18.37l3.85 11.42h1.2c2.06-3.79 4.93-6.85 8.62-9.18 3.68-2.33 7.39-3.5 11.14-3.5ZM845.46 370.91c0 11.7-3.15 20.82-9.43 27.36-6.29 6.54-15.09 9.81-26.41 9.81s-19.49-3.34-25.91-10.03-9.62-15.74-9.62-27.14 3.14-20.71 9.44-27.17c6.29-6.46 15.12-9.69 26.48-9.69 7.03 0 13.23 1.49 18.62 4.48 5.38 2.99 9.54 7.27 12.46 12.84 2.92 5.58 4.39 12.09 4.39 19.53Zm-46.32 0q0 9.21 2.46 14.04c1.64 3.22 4.4 4.83 8.27 4.83s6.53-1.61 8.11-4.83q2.37-4.83 2.37-14.04c0-9.21-.8-10.71-2.4-13.82s-4.33-4.67-8.21-4.67-6.5 1.55-8.14 4.64-2.46 7.71-2.46 13.85M915.42 406.82l-8.08-34.08-1.89-10.29-1.26-8.27h-.38c-2.06 11.78-3.45 19.21-4.17 22.28l-7.26 30.36h-25.94l-19.5-71.51h24.3l5.81 27.45c1.85 9.43 2.92 17.25 3.22 23.48h.38c.13-3.87 1.28-11.23 3.47-22.09l6.63-28.84h27.26l6.06 29.22c1.93 9.3 3.16 16.54 3.66 21.71h.38c.25-3.2.67-7.18 1.26-11.96.59-4.77 1.24-8.61 1.96-11.52l6.31-27.45h23.79l-19.63 71.51zM1019.26 384.86c0 7.66-2.61 13.44-7.83 17.36-5.22 3.91-12.71 5.87-22.47 5.87-5.3 0-9.91-.28-13.82-.85s-7.91-1.61-11.99-3.12v-19.75c3.83 1.68 8.03 3.07 12.59 4.17 4.56 1.09 8.64 1.64 12.21 1.64 5.34 0 8.02-1.22 8.02-3.66 0-1.26-.75-2.39-2.24-3.38s-5.84-2.91-13.03-5.77c-6.56-2.69-11.15-5.75-13.76-9.18s-3.91-7.77-3.91-13.03c0-6.65 2.57-11.82 7.7-15.53 5.13-3.7 12.39-5.55 21.77-5.55 4.71 0 9.14.52 13.29 1.55 4.14 1.03 8.45 2.54 12.91 4.51l-6.69 15.9c-3.28-1.47-6.75-2.72-10.41-3.76-3.66-1.03-6.65-1.55-8.96-1.55q-6.06 0-6.06 2.97c0 1.22.7 2.26 2.11 3.12s5.48 2.62 12.21 5.27c5.01 2.06 8.74 4.08 11.2 6.06s4.27 4.3 5.43 6.97q1.74 4.005 1.74 9.75ZM1063.55 408.08c-11.91 0-21.15-3.17-27.74-9.5-6.58-6.33-9.88-15.35-9.88-27.04s3.05-21.34 9.15-27.8q9.15-9.69 26.13-9.69c16.98 0 19.09 2.81 24.96 8.43s8.8 13.71 8.8 24.27v10.98h-44.12c.17 4 1.63 7.13 4.39 9.4s6.51 3.41 11.27 3.41c4.33 0 8.32-.41 11.96-1.23s7.58-2.22 11.83-4.2v17.73c-3.87 1.98-7.87 3.34-11.99 4.1s-9.05 1.14-14.77 1.14Zm-1.45-57.24c-2.9 0-5.33.92-7.29 2.75s-3.1 4.7-3.44 8.61h21.21c-.08-3.45-1.06-6.21-2.94-8.27-1.87-2.06-4.39-3.09-7.54-3.09M1149.03 334.05c2.15 0 4.19.17 6.12.5l1.39.25-2.21 23.29c-2.02-.5-4.82-.76-8.39-.76-5.39 0-9.3 1.23-11.74 3.69s-3.66 6.01-3.66 10.63v35.15h-24.68v-71.51h18.37l3.85 11.42h1.2c2.06-3.79 4.93-6.85 8.62-9.18 3.68-2.33 7.39-3.5 11.14-3.5Z"/></g></svg>