<svg width="366" height="66" viewBox="0 0 366 66" fill="none"
    xmlns="http://www.w3.org/2000/svg">
    <rect width="366" height="66" rx="33" fill="#292929"/>
    <path d="M82.8135 32.9971C82.8135 34.766 82.484 36.2448 81.8252 37.4336C81.1663 38.6152 80.2103 39.5068 78.957 40.1084C77.7038 40.7028 76.1927 41 74.4238 41H70.0625V25.2949H74.8965C76.5221 25.2949 77.9258 25.5885 79.1074 26.1758C80.2891 26.7559 81.2021 27.6188 81.8467 28.7646C82.4912 29.9033 82.8135 31.3141 82.8135 32.9971ZM80.1279 33.0723C80.1279 31.7832 79.9238 30.7233 79.5156 29.8926C79.1146 29.0618 78.5202 28.446 77.7324 28.0449C76.9518 27.6367 75.9886 27.4326 74.8428 27.4326H72.6406V38.8408H74.4668C76.3646 38.8408 77.7826 38.3574 78.7207 37.3906C79.6589 36.4238 80.1279 34.9844 80.1279 33.0723ZM90.6768 28.8828C91.7367 28.8828 92.6462 29.1012 93.4053 29.5381C94.1644 29.9749 94.748 30.5944 95.1562 31.3965C95.5645 32.1986 95.7686 33.1582 95.7686 34.2754V35.6289H87.8301C87.8587 36.7819 88.1667 37.6699 88.7539 38.293C89.3483 38.916 90.179 39.2275 91.2461 39.2275C92.0052 39.2275 92.6855 39.1559 93.2871 39.0127C93.8958 38.8623 94.5225 38.6439 95.167 38.3574V40.4092C94.5726 40.6885 93.9674 40.8926 93.3516 41.0215C92.7357 41.1504 91.998 41.2148 91.1387 41.2148C89.9714 41.2148 88.9437 40.9893 88.0557 40.5381C87.1748 40.0798 86.4837 39.3994 85.9824 38.4971C85.4883 37.5947 85.2412 36.474 85.2412 35.1348C85.2412 33.8027 85.4668 32.6712 85.918 31.7402C86.3691 30.8092 87.0029 30.1003 87.8193 29.6133C88.6357 29.1263 89.5882 28.8828 90.6768 28.8828ZM90.6768 30.7842C89.8818 30.7842 89.2373 31.042 88.7432 31.5576C88.2562 32.0732 87.9697 32.8288 87.8838 33.8242H93.2979C93.2907 33.2298 93.1904 32.7035 92.9971 32.2451C92.8109 31.7868 92.5244 31.4287 92.1377 31.1709C91.7581 30.9131 91.2712 30.7842 90.6768 30.7842ZM104.717 28.8828C106.128 28.8828 107.259 29.3984 108.111 30.4297C108.971 31.4609 109.4 32.9935 109.4 35.0273C109.4 36.3737 109.2 37.5088 108.799 38.4326C108.405 39.3493 107.85 40.0439 107.134 40.5166C106.425 40.9821 105.598 41.2148 104.652 41.2148C104.051 41.2148 103.528 41.1361 103.084 40.9785C102.64 40.821 102.26 40.6169 101.945 40.3662C101.63 40.1084 101.365 39.8291 101.15 39.5283H101C101.036 39.8148 101.068 40.1335 101.097 40.4844C101.132 40.8281 101.15 41.1432 101.15 41.4297V46.2744H98.6152V29.1084H100.678L101.032 30.752H101.15C101.372 30.4154 101.641 30.1038 101.956 29.8174C102.278 29.5309 102.665 29.3053 103.116 29.1406C103.575 28.9688 104.108 28.8828 104.717 28.8828ZM104.04 30.9453C103.345 30.9453 102.787 31.085 102.364 31.3643C101.949 31.6364 101.645 32.0482 101.451 32.5996C101.265 33.151 101.165 33.8421 101.15 34.6729V35.0273C101.15 35.9082 101.24 36.6566 101.419 37.2725C101.605 37.8812 101.91 38.3467 102.332 38.6689C102.762 38.984 103.342 39.1416 104.072 39.1416C104.688 39.1416 105.197 38.9733 105.598 38.6367C106.006 38.3001 106.31 37.8203 106.511 37.1973C106.711 36.5742 106.812 35.8402 106.812 34.9951C106.812 33.7132 106.582 32.7178 106.124 32.0088C105.673 31.2998 104.978 30.9453 104.04 30.9453ZM114.857 41H112.322V24.2852H114.857V41ZM128.994 35.0273C128.994 36.0156 128.865 36.8929 128.607 37.6592C128.35 38.4255 127.974 39.0736 127.479 39.6035C126.985 40.1263 126.391 40.5273 125.696 40.8066C125.002 41.0788 124.217 41.2148 123.344 41.2148C122.527 41.2148 121.779 41.0788 121.099 40.8066C120.418 40.5273 119.827 40.1263 119.326 39.6035C118.832 39.0736 118.449 38.4255 118.177 37.6592C117.905 36.8929 117.769 36.0156 117.769 35.0273C117.769 33.7168 117.994 32.6068 118.445 31.6973C118.904 30.7806 119.555 30.0824 120.4 29.6025C121.245 29.1227 122.252 28.8828 123.419 28.8828C124.515 28.8828 125.481 29.1227 126.319 29.6025C127.157 30.0824 127.812 30.7806 128.285 31.6973C128.758 32.6139 128.994 33.724 128.994 35.0273ZM120.368 35.0273C120.368 35.8939 120.472 36.6351 120.68 37.251C120.895 37.8669 121.224 38.3395 121.668 38.6689C122.112 38.9912 122.685 39.1523 123.387 39.1523C124.089 39.1523 124.661 38.9912 125.105 38.6689C125.549 38.3395 125.875 37.8669 126.083 37.251C126.291 36.6351 126.395 35.8939 126.395 35.0273C126.395 34.1608 126.291 33.4268 126.083 32.8252C125.875 32.2165 125.549 31.7546 125.105 31.4395C124.661 31.1172 124.085 30.9561 123.376 30.9561C122.33 30.9561 121.568 31.307 121.088 32.0088C120.608 32.7106 120.368 33.7168 120.368 35.0273ZM130.101 29.1084H132.851L135.289 35.8975C135.396 36.2054 135.493 36.5098 135.579 36.8105C135.672 37.1042 135.751 37.3942 135.815 37.6807C135.887 37.9671 135.944 38.2536 135.987 38.54H136.052C136.123 38.1676 136.224 37.7523 136.353 37.2939C136.489 36.8285 136.639 36.363 136.804 35.8975L139.146 29.1084H141.863L136.761 42.6328C136.467 43.4062 136.105 44.0651 135.676 44.6094C135.253 45.1608 134.752 45.5762 134.172 45.8555C133.592 46.1419 132.929 46.2852 132.185 46.2852C131.826 46.2852 131.515 46.2637 131.25 46.2207C130.985 46.1849 130.759 46.1455 130.573 46.1025V44.083C130.724 44.1188 130.913 44.151 131.143 44.1797C131.372 44.2083 131.608 44.2227 131.852 44.2227C132.303 44.2227 132.693 44.1331 133.022 43.9541C133.352 43.7751 133.631 43.5208 133.86 43.1914C134.09 42.8691 134.279 42.5003 134.43 42.085L134.849 40.9678L130.101 29.1084ZM159.91 35.0273C159.91 36.0156 159.781 36.8929 159.523 37.6592C159.266 38.4255 158.89 39.0736 158.396 39.6035C157.901 40.1263 157.307 40.5273 156.612 40.8066C155.918 41.0788 155.133 41.2148 154.26 41.2148C153.443 41.2148 152.695 41.0788 152.015 40.8066C151.334 40.5273 150.743 40.1263 150.242 39.6035C149.748 39.0736 149.365 38.4255 149.093 37.6592C148.821 36.8929 148.685 36.0156 148.685 35.0273C148.685 33.7168 148.91 32.6068 149.361 31.6973C149.82 30.7806 150.471 30.0824 151.316 29.6025C152.161 29.1227 153.168 28.8828 154.335 28.8828C155.431 28.8828 156.397 29.1227 157.235 29.6025C158.073 30.0824 158.729 30.7806 159.201 31.6973C159.674 32.6139 159.91 33.724 159.91 35.0273ZM151.284 35.0273C151.284 35.8939 151.388 36.6351 151.596 37.251C151.811 37.8669 152.14 38.3395 152.584 38.6689C153.028 38.9912 153.601 39.1523 154.303 39.1523C155.005 39.1523 155.577 38.9912 156.021 38.6689C156.465 38.3395 156.791 37.8669 156.999 37.251C157.207 36.6351 157.311 35.8939 157.311 35.0273C157.311 34.1608 157.207 33.4268 156.999 32.8252C156.791 32.2165 156.465 31.7546 156.021 31.4395C155.577 31.1172 155.001 30.9561 154.292 30.9561C153.246 30.9561 152.484 31.307 152.004 32.0088C151.524 32.7106 151.284 33.7168 151.284 35.0273ZM169.009 28.8828C170.348 28.8828 171.39 29.2301 172.135 29.9248C172.887 30.6123 173.263 31.7188 173.263 33.2441V41H170.738V33.7168C170.738 32.793 170.549 32.1019 170.169 31.6436C169.789 31.1781 169.202 30.9453 168.407 30.9453C167.254 30.9453 166.452 31.2998 166.001 32.0088C165.557 32.7178 165.335 33.7454 165.335 35.0918V41H162.811V29.1084H164.776L165.131 30.7197H165.271C165.528 30.3044 165.847 29.9642 166.227 29.6992C166.613 29.4271 167.043 29.223 167.516 29.0869C167.995 28.9508 168.493 28.8828 169.009 28.8828ZM192.685 41H181.395V39.2275L189.387 27.4863H181.642V25.2949H192.47V27.0566L184.478 38.8086H192.685V41ZM199.925 28.8828C200.985 28.8828 201.894 29.1012 202.653 29.5381C203.412 29.9749 203.996 30.5944 204.404 31.3965C204.812 32.1986 205.017 33.1582 205.017 34.2754V35.6289H197.078C197.107 36.7819 197.415 37.6699 198.002 38.293C198.596 38.916 199.427 39.2275 200.494 39.2275C201.253 39.2275 201.934 39.1559 202.535 39.0127C203.144 38.8623 203.771 38.6439 204.415 38.3574V40.4092C203.821 40.6885 203.215 40.8926 202.6 41.0215C201.984 41.1504 201.246 41.2148 200.387 41.2148C199.219 41.2148 198.192 40.9893 197.304 40.5381C196.423 40.0798 195.732 39.3994 195.23 38.4971C194.736 37.5947 194.489 36.474 194.489 35.1348C194.489 33.8027 194.715 32.6712 195.166 31.7402C195.617 30.8092 196.251 30.1003 197.067 29.6133C197.884 29.1263 198.836 28.8828 199.925 28.8828ZM199.925 30.7842C199.13 30.7842 198.485 31.042 197.991 31.5576C197.504 32.0732 197.218 32.8288 197.132 33.8242H202.546C202.539 33.2298 202.438 32.7035 202.245 32.2451C202.059 31.7868 201.772 31.4287 201.386 31.1709C201.006 30.9131 200.519 30.7842 199.925 30.7842ZM213.89 28.8828C214.09 28.8828 214.309 28.8936 214.545 28.915C214.781 28.9365 214.985 28.9652 215.157 29.001L214.921 31.3643C214.771 31.3213 214.584 31.2891 214.362 31.2676C214.147 31.2461 213.954 31.2354 213.782 31.2354C213.331 31.2354 212.901 31.3105 212.493 31.4609C212.085 31.6042 211.723 31.8262 211.408 32.127C211.093 32.4206 210.846 32.7894 210.667 33.2334C210.488 33.6774 210.398 34.193 210.398 34.7803V41H207.863V29.1084H209.84L210.184 31.2031H210.302C210.538 30.7806 210.832 30.3939 211.183 30.043C211.534 29.6921 211.935 29.4128 212.386 29.2051C212.844 28.9902 213.345 28.8828 213.89 28.8828ZM227.887 35.0273C227.887 36.0156 227.758 36.8929 227.5 37.6592C227.242 38.4255 226.866 39.0736 226.372 39.6035C225.878 40.1263 225.284 40.5273 224.589 40.8066C223.894 41.0788 223.11 41.2148 222.236 41.2148C221.42 41.2148 220.672 41.0788 219.991 40.8066C219.311 40.5273 218.72 40.1263 218.219 39.6035C217.725 39.0736 217.341 38.4255 217.069 37.6592C216.797 36.8929 216.661 36.0156 216.661 35.0273C216.661 33.7168 216.887 32.6068 217.338 31.6973C217.796 30.7806 218.448 30.0824 219.293 29.6025C220.138 29.1227 221.144 28.8828 222.312 28.8828C223.407 28.8828 224.374 29.1227 225.212 29.6025C226.05 30.0824 226.705 30.7806 227.178 31.6973C227.65 32.6139 227.887 33.724 227.887 35.0273ZM219.261 35.0273C219.261 35.8939 219.365 36.6351 219.572 37.251C219.787 37.8669 220.117 38.3395 220.561 38.6689C221.005 38.9912 221.577 39.1523 222.279 39.1523C222.981 39.1523 223.554 38.9912 223.998 38.6689C224.442 38.3395 224.768 37.8669 224.976 37.251C225.183 36.6351 225.287 35.8939 225.287 35.0273C225.287 34.1608 225.183 33.4268 224.976 32.8252C224.768 32.2165 224.442 31.7546 223.998 31.4395C223.554 31.1172 222.978 30.9561 222.269 30.9561C221.223 30.9561 220.46 31.307 219.98 32.0088C219.501 32.7106 219.261 33.7168 219.261 35.0273ZM236.889 28.8828C238.299 28.8828 239.431 29.3984 240.283 30.4297C241.143 31.4609 241.572 32.9935 241.572 35.0273C241.572 36.3737 241.372 37.5088 240.971 38.4326C240.577 39.3493 240.022 40.0439 239.306 40.5166C238.597 40.9821 237.77 41.2148 236.824 41.2148C236.223 41.2148 235.7 41.1361 235.256 40.9785C234.812 40.821 234.432 40.6169 234.117 40.3662C233.802 40.1084 233.537 39.8291 233.322 39.5283H233.172C233.208 39.8148 233.24 40.1335 233.269 40.4844C233.304 40.8281 233.322 41.1432 233.322 41.4297V46.2744H230.787V29.1084H232.85L233.204 30.752H233.322C233.544 30.4154 233.813 30.1038 234.128 29.8174C234.45 29.5309 234.837 29.3053 235.288 29.1406C235.746 28.9688 236.28 28.8828 236.889 28.8828ZM236.212 30.9453C235.517 30.9453 234.959 31.085 234.536 31.3643C234.121 31.6364 233.816 32.0482 233.623 32.5996C233.437 33.151 233.337 33.8421 233.322 34.6729V35.0273C233.322 35.9082 233.412 36.6566 233.591 37.2725C233.777 37.8812 234.081 38.3467 234.504 38.6689C234.934 38.984 235.514 39.1416 236.244 39.1416C236.86 39.1416 237.368 38.9733 237.77 38.6367C238.178 38.3001 238.482 37.8203 238.683 37.1973C238.883 36.5742 238.983 35.8402 238.983 34.9951C238.983 33.7132 238.754 32.7178 238.296 32.0088C237.845 31.2998 237.15 30.9453 236.212 30.9453ZM252.486 37.6055C252.486 38.3861 252.297 39.0449 251.917 39.582C251.537 40.1191 250.982 40.5273 250.252 40.8066C249.529 41.0788 248.641 41.2148 247.588 41.2148C246.757 41.2148 246.041 41.154 245.439 41.0322C244.845 40.9176 244.283 40.7386 243.753 40.4951V38.3145C244.319 38.5794 244.952 38.8086 245.654 39.002C246.363 39.1953 247.033 39.292 247.663 39.292C248.494 39.292 249.092 39.1631 249.457 38.9053C249.822 38.6403 250.005 38.2894 250.005 37.8525C250.005 37.5947 249.93 37.3656 249.779 37.165C249.636 36.9574 249.364 36.7461 248.963 36.5312C248.569 36.3092 247.989 36.0443 247.223 35.7363C246.471 35.4355 245.837 35.1348 245.321 34.834C244.806 34.5332 244.415 34.1715 244.15 33.749C243.885 33.3193 243.753 32.7715 243.753 32.1055C243.753 31.0527 244.168 30.2542 244.999 29.71C245.837 29.1585 246.943 28.8828 248.318 28.8828C249.049 28.8828 249.736 28.958 250.381 29.1084C251.033 29.2516 251.67 29.4629 252.293 29.7422L251.498 31.6436C250.961 31.4072 250.42 31.2139 249.876 31.0635C249.339 30.9059 248.791 30.8271 248.232 30.8271C247.581 30.8271 247.083 30.9274 246.739 31.1279C246.403 31.3285 246.234 31.6149 246.234 31.9873C246.234 32.2666 246.317 32.5029 246.481 32.6963C246.646 32.8896 246.929 33.083 247.33 33.2764C247.738 33.4697 248.304 33.7096 249.027 33.9961C249.736 34.2682 250.349 34.5547 250.864 34.8555C251.387 35.1491 251.788 35.5107 252.067 35.9404C252.347 36.3701 252.486 36.9251 252.486 37.6055Z" fill="white"/>
    <g clip-path="url(#clip0_542_118)">
        <path d="M280 37.0002C279.17 37.0002 278.42 37.3402 277.88 37.8802C276.7 39.0602 276 44.0002 276 44.0002C276 44.0002 280.94 43.3002 282.12 42.1202C282.66 41.5802 283 40.8302 283 40.0002C283 38.3402 281.66 37.0002 280 37.0002ZM280.71 40.7102C280.43 40.9902 278.54 41.4702 278.54 41.4702C278.54 41.4702 279.01 39.5902 279.3 39.3002C279.47 39.1102 279.72 39.0002 280 39.0002C280.55 39.0002 281 39.4502 281 40.0002C281 40.2802 280.89 40.5302 280.71 40.7102ZM291.42 35.6502C297.78 29.2902 295.66 24.3402 295.66 24.3402C295.66 24.3402 290.71 22.2202 284.35 28.5802L281.86 28.0802C281.21 27.9502 280.53 28.1602 280.05 28.6302L276 32.6902L281 34.8302L285.17 39.0002L287.31 44.0002L291.36 39.9502C291.83 39.4802 292.04 38.8002 291.91 38.1402L291.42 35.6502ZM281.41 32.8302L279.5 32.0102L281.47 30.0402L282.91 30.3302C282.34 31.1602 281.83 32.0302 281.41 32.8302ZM287.99 40.5002L287.17 38.5902C287.97 38.1702 288.84 37.6602 289.66 37.0902L289.95 38.5302L287.99 40.5002ZM290 34.2402C288.68 35.5602 286.62 36.6402 285.96 36.9702L283.03 34.0402C283.35 33.3902 284.43 31.3302 285.76 30.0002C290.44 25.3202 293.99 26.0102 293.99 26.0102C293.99 26.0102 294.68 29.5602 290 34.2402ZM289 33.0002C290.1 33.0002 291 32.1002 291 31.0002C291 29.9002 290.1 29.0002 289 29.0002C287.9 29.0002 287 29.9002 287 31.0002C287 32.1002 287.9 33.0002 289 33.0002Z" fill="white"/>
    </g>
    <defs>
        <clipPath id="clip0_542_118">
            <rect width="24" height="24" fill="white" transform="translate(274 22)"/>
        </clipPath>
    </defs>
</svg>
