<svg width="251" height="46" viewBox="0 0 251 46" fill="none"
    xmlns="http://www.w3.org/2000/svg">
    <g clip-path="url(#clip0_541_68)">
        <path d="M228.369 0H22.6311C10.1323 0 0 10.1323 0 22.6312C0 35.13 10.1323 45.2623 22.6311 45.2623H228.369C240.868 45.2623 251 35.13 251 22.6312C251 10.1323 240.868 0 228.369 0Z" fill="#7CC6BB"/>
        <path d="M56.7914 23.3154C56.7914 24.5285 56.5655 25.5426 56.1136 26.3579C55.6618 27.1682 55.0062 27.7797 54.1467 28.1922C53.2872 28.5999 52.2509 28.8037 51.0378 28.8037H48.0469V18.0333H51.362C52.4768 18.0333 53.4395 18.2346 54.2498 18.6374C55.0602 19.0352 55.6863 19.627 56.1284 20.4128C56.5704 21.1937 56.7914 22.1612 56.7914 23.3154ZM54.9497 23.3669C54.9497 22.4829 54.8097 21.756 54.5297 21.1863C54.2547 20.6166 53.8471 20.1943 53.3068 19.9192C52.7715 19.6393 52.1109 19.4993 51.3252 19.4993H49.8149V27.3229H51.0673C52.3688 27.3229 53.3413 26.9914 53.9846 26.3284C54.628 25.6654 54.9497 24.6782 54.9497 23.3669ZM62.184 20.4938C62.9109 20.4938 63.5346 20.6436 64.0552 20.9432C64.5758 21.2428 64.976 21.6676 65.2559 22.2177C65.536 22.7678 65.6759 23.4259 65.6759 24.192V25.1202H60.2318C60.2514 25.911 60.4626 26.5199 60.8653 26.9473C61.2729 27.3745 61.8426 27.5881 62.5744 27.5881C63.095 27.5881 63.5616 27.539 63.9741 27.4408C64.3916 27.3377 64.8214 27.1879 65.2634 26.9914V28.3985C64.8557 28.5901 64.4407 28.73 64.0184 28.8184C63.596 28.9068 63.0901 28.951 62.5008 28.951C61.7003 28.951 60.9955 28.7964 60.3865 28.4869C59.7824 28.1726 59.3084 27.706 58.9646 27.0872C58.6258 26.4684 58.4563 25.6998 58.4563 24.7814C58.4563 23.8678 58.611 23.0919 58.9205 22.4534C59.2298 21.8149 59.6645 21.3288 60.2244 20.9948C60.7842 20.6608 61.4375 20.4938 62.184 20.4938ZM62.184 21.7978C61.6388 21.7978 61.1968 21.9746 60.858 22.3282C60.524 22.6818 60.3275 23.2 60.2686 23.8826H63.9815C63.9766 23.475 63.9078 23.114 63.7753 22.7997C63.6476 22.4854 63.4511 22.2398 63.1859 22.063C62.9256 21.8862 62.5916 21.7978 62.184 21.7978ZM71.8127 20.4938C72.7803 20.4938 73.556 20.8474 74.1403 21.5547C74.73 22.2619 75.0242 23.3129 75.0242 24.7077C75.0242 25.631 74.8871 26.4095 74.6121 27.043C74.3419 27.6717 73.9613 28.148 73.4702 28.4722C72.984 28.7914 72.4169 28.951 71.7681 28.951C71.3559 28.951 70.9973 28.897 70.6928 28.789C70.3883 28.6809 70.1277 28.541 69.9117 28.369C69.6956 28.1922 69.5139 28.0007 69.3665 27.7944H69.2636C69.2883 27.9909 69.3102 28.2095 69.3301 28.4501C69.3541 28.6858 69.3665 28.9019 69.3665 29.0984V32.4208H67.6281V20.6485H69.0428L69.2855 21.7757H69.3665C69.5187 21.5449 69.7032 21.3312 69.9192 21.1348C70.14 20.9383 70.4054 20.7836 70.7147 20.6706C71.0295 20.5528 71.395 20.4938 71.8127 20.4938ZM71.3484 21.9083C70.8718 21.9083 70.4891 22.0041 70.199 22.1956C69.9144 22.3822 69.7059 22.6646 69.5729 23.0428C69.4453 23.4209 69.3767 23.8949 69.3665 24.4646V24.7077C69.3665 25.3118 69.4282 25.825 69.5509 26.2474C69.6785 26.6649 69.8877 26.9841 70.1771 27.2051C70.472 27.4211 70.8697 27.5292 71.3703 27.5292C71.7928 27.5292 72.1419 27.4138 72.4169 27.183C72.6967 26.9521 72.9051 26.6231 73.043 26.1958C73.1801 25.7685 73.2494 25.2651 73.2494 24.6856C73.2494 23.8065 73.0917 23.1238 72.7776 22.6376C72.4683 22.1514 71.9917 21.9083 71.3484 21.9083ZM78.7666 28.8037H77.0281V17.3408H78.7666V28.8037ZM88.4617 24.7077C88.4617 25.3854 88.3732 25.9871 88.1963 26.5126C88.02 27.0381 87.7622 27.4826 87.4227 27.846C87.0839 28.2045 86.6765 28.4795 86.1999 28.6711C85.724 28.8577 85.1856 28.951 84.5869 28.951C84.0266 28.951 83.5137 28.8577 83.0473 28.6711C82.5803 28.4795 82.175 28.2045 81.8314 27.846C81.4926 27.4826 81.23 27.0381 81.0434 26.5126C80.8569 25.9871 80.7636 25.3854 80.7636 24.7077C80.7636 23.8089 80.9179 23.0477 81.2272 22.424C81.542 21.7953 81.9885 21.3165 82.568 20.9874C83.1475 20.6583 83.838 20.4938 84.6384 20.4938C85.39 20.4938 86.0525 20.6583 86.6272 20.9874C87.2019 21.3165 87.6511 21.7953 87.9754 22.424C88.2998 23.0526 88.4617 23.8139 88.4617 24.7077ZM82.546 24.7077C82.546 25.302 82.6173 25.8103 82.76 26.2327C82.9074 26.655 83.1331 26.9792 83.4375 27.2051C83.742 27.4261 84.135 27.5366 84.6164 27.5366C85.0979 27.5366 85.4901 27.4261 85.7946 27.2051C86.0991 26.9792 86.3227 26.655 86.4653 26.2327C86.608 25.8103 86.6793 25.302 86.6793 24.7077C86.6793 24.1134 86.608 23.6101 86.4653 23.1975C86.3227 22.78 86.0991 22.4633 85.7946 22.2472C85.4901 22.0262 85.0951 21.9157 84.6089 21.9157C83.8915 21.9157 83.369 22.1563 83.0398 22.6376C82.7106 23.1189 82.546 23.8089 82.546 24.7077ZM89.2208 20.6485H91.1068L92.7787 25.3044C92.8521 25.5156 92.9186 25.7244 92.9776 25.9306C93.0414 26.132 93.0956 26.3309 93.1395 26.5274C93.1888 26.7238 93.2279 26.9202 93.2574 27.1167H93.302C93.3507 26.8613 93.4199 26.5765 93.5084 26.2621C93.6017 25.9429 93.7045 25.6237 93.8177 25.3044L95.4238 20.6485H97.2871L93.7882 29.9235C93.5866 30.4539 93.3383 30.9057 93.0441 31.279C92.754 31.6571 92.4105 31.942 92.0127 32.1336C91.6149 32.33 91.1603 32.4283 90.65 32.4283C90.4038 32.4283 90.1905 32.4135 90.0088 32.384C89.8271 32.3595 89.6721 32.3324 89.5445 32.303V30.918C89.6481 30.9426 89.7777 30.9646 89.9354 30.9843C90.0925 31.0039 90.2543 31.0138 90.4217 31.0138C90.731 31.0138 90.9984 30.9524 91.224 30.8296C91.4503 30.7068 91.6417 30.5324 91.7987 30.3065C91.9565 30.0855 92.0861 29.8326 92.1896 29.5478L92.477 28.7816L89.2208 20.6485ZM109.664 24.7077C109.664 25.3854 109.575 25.9871 109.398 26.5126C109.222 27.0381 108.964 27.4826 108.625 27.846C108.286 28.2045 107.879 28.4795 107.402 28.6711C106.926 28.8577 106.388 28.951 105.789 28.951C105.229 28.951 104.716 28.8577 104.249 28.6711C103.782 28.4795 103.377 28.2045 103.033 27.846C102.695 27.4826 102.432 27.0381 102.245 26.5126C102.059 25.9871 101.966 25.3854 101.966 24.7077C101.966 23.8089 102.12 23.0477 102.429 22.424C102.744 21.7953 103.19 21.3165 103.77 20.9874C104.349 20.6583 105.04 20.4938 105.84 20.4938C106.592 20.4938 107.254 20.6583 107.829 20.9874C108.404 21.3165 108.854 21.7953 109.177 22.424C109.502 23.0526 109.664 23.8139 109.664 24.7077ZM103.748 24.7077C103.748 25.302 103.819 25.8103 103.962 26.2327C104.109 26.655 104.335 26.9792 104.64 27.2051C104.944 27.4261 105.337 27.5366 105.818 27.5366C106.3 27.5366 106.692 27.4261 106.997 27.2051C107.301 26.9792 107.525 26.655 107.667 26.2327C107.81 25.8103 107.881 25.302 107.881 24.7077C107.881 24.1134 107.81 23.6101 107.667 23.1975C107.525 22.78 107.301 22.4633 106.997 22.2472C106.692 22.0262 106.297 21.9157 105.811 21.9157C105.094 21.9157 104.571 22.1563 104.242 22.6376C103.913 23.1189 103.748 23.8089 103.748 24.7077ZM115.904 20.4938C116.822 20.4938 117.537 20.732 118.047 21.2084C118.563 21.6799 118.821 22.4387 118.821 23.4848V28.8037H117.089V23.8089C117.089 23.1754 116.96 22.7015 116.699 22.3872C116.439 22.0679 116.036 21.9083 115.491 21.9083C114.7 21.9083 114.15 22.1514 113.841 22.6376C113.536 23.1238 113.384 23.8286 113.384 24.7519V28.8037H111.653V20.6485H113.001L113.244 21.7536H113.34C113.516 21.4687 113.735 21.2354 113.996 21.0537C114.26 20.8671 114.555 20.7271 114.88 20.6338C115.208 20.5405 115.55 20.4938 115.904 20.4938ZM132.14 28.8037H124.398V27.5881L129.879 19.5361H124.567V18.0333H131.993V19.2414L126.512 27.3009H132.14V28.8037ZM137.106 20.4938C137.833 20.4938 138.456 20.6436 138.976 20.9432C139.497 21.2428 139.897 21.6676 140.177 22.2177C140.457 22.7678 140.598 23.4259 140.598 24.192V25.1202H135.153C135.173 25.911 135.384 26.5199 135.787 26.9473C136.194 27.3745 136.764 27.5881 137.496 27.5881C138.016 27.5881 138.483 27.539 138.896 27.4408C139.313 27.3377 139.743 27.1879 140.185 26.9914V28.3985C139.777 28.5901 139.362 28.73 138.94 28.8184C138.518 28.9068 138.012 28.951 137.422 28.951C136.621 28.951 135.917 28.7964 135.308 28.4869C134.704 28.1726 134.23 27.706 133.886 27.0872C133.547 26.4684 133.378 25.6998 133.378 24.7814C133.378 23.8678 133.533 23.0919 133.842 22.4534C134.151 21.8149 134.586 21.3288 135.146 20.9948C135.706 20.6608 136.359 20.4938 137.106 20.4938ZM137.106 21.7978C136.56 21.7978 136.118 21.9746 135.779 22.3282C135.445 22.6818 135.249 23.2 135.19 23.8826H138.903C138.898 23.475 138.829 23.114 138.697 22.7997C138.569 22.4854 138.372 22.2398 138.108 22.063C137.847 21.8862 137.513 21.7978 137.106 21.7978ZM146.683 20.4938C146.82 20.4938 146.97 20.5012 147.132 20.5159C147.294 20.5306 147.434 20.5503 147.552 20.5749L147.39 22.1956C147.287 22.1661 147.159 22.144 147.006 22.1293C146.859 22.1146 146.727 22.1072 146.609 22.1072C146.299 22.1072 146.004 22.1587 145.725 22.2619C145.445 22.3601 145.197 22.5124 144.981 22.7187C144.765 22.92 144.595 23.1729 144.472 23.4774C144.35 23.7819 144.288 24.1355 144.288 24.5383V28.8037H142.549V20.6485H143.905L144.141 22.0851H144.222C144.384 21.7953 144.586 21.5301 144.826 21.2895C145.067 21.0488 145.342 20.8573 145.651 20.7148C145.965 20.5675 146.309 20.4938 146.683 20.4938ZM156.282 24.7077C156.282 25.3854 156.193 25.9871 156.016 26.5126C155.839 27.0381 155.582 27.4826 155.243 27.846C154.904 28.2045 154.497 28.4795 154.02 28.6711C153.543 28.8577 153.006 28.951 152.406 28.951C151.847 28.951 151.334 28.8577 150.867 28.6711C150.4 28.4795 149.995 28.2045 149.652 27.846C149.313 27.4826 149.049 27.0381 148.863 26.5126C148.676 25.9871 148.583 25.3854 148.583 24.7077C148.583 23.8089 148.738 23.0477 149.047 22.424C149.361 21.7953 149.809 21.3165 150.388 20.9874C150.968 20.6583 151.657 20.4938 152.458 20.4938C153.209 20.4938 153.873 20.6583 154.447 20.9874C155.022 21.3165 155.471 21.7953 155.796 22.424C156.119 23.0526 156.282 23.8139 156.282 24.7077ZM150.366 24.7077C150.366 25.302 150.437 25.8103 150.579 26.2327C150.727 26.655 150.953 26.9792 151.258 27.2051C151.562 27.4261 151.954 27.5366 152.436 27.5366C152.917 27.5366 153.31 27.4261 153.615 27.2051C153.919 26.9792 154.143 26.655 154.285 26.2327C154.427 25.8103 154.499 25.302 154.499 24.7077C154.499 24.1134 154.427 23.6101 154.285 23.1975C154.143 22.78 153.919 22.4633 153.615 22.2472C153.31 22.0262 152.915 21.9157 152.429 21.9157C151.712 21.9157 151.188 22.1563 150.859 22.6376C150.531 23.1189 150.366 23.8089 150.366 24.7077ZM162.455 20.4938C163.422 20.4938 164.199 20.8474 164.783 21.5547C165.373 22.2619 165.667 23.3129 165.667 24.7077C165.667 25.631 165.53 26.4095 165.255 27.043C164.984 27.6717 164.604 28.148 164.113 28.4722C163.627 28.7914 163.059 28.951 162.411 28.951C161.999 28.951 161.64 28.897 161.335 28.789C161.031 28.6809 160.77 28.541 160.554 28.369C160.338 28.1922 160.156 28.0007 160.009 27.7944H159.906C159.931 27.9909 159.953 28.2095 159.973 28.4501C159.997 28.6858 160.009 28.9019 160.009 29.0984V32.4208H158.271V20.6485H159.685L159.928 21.7757H160.009C160.161 21.5449 160.346 21.3312 160.562 21.1348C160.783 20.9383 161.048 20.7836 161.357 20.6706C161.671 20.5528 162.038 20.4938 162.455 20.4938ZM161.991 21.9083C161.514 21.9083 161.132 22.0041 160.842 22.1956C160.557 22.3822 160.348 22.6646 160.215 23.0428C160.088 23.4209 160.019 23.8949 160.009 24.4646V24.7077C160.009 25.3118 160.071 25.825 160.194 26.2474C160.321 26.6649 160.53 26.9841 160.82 27.2051C161.115 27.4211 161.512 27.5292 162.013 27.5292C162.435 27.5292 162.784 27.4138 163.059 27.183C163.339 26.9521 163.548 26.6231 163.686 26.1958C163.823 25.7685 163.891 25.2651 163.891 24.6856C163.891 23.8065 163.734 23.1238 163.42 22.6376C163.111 22.1514 162.634 21.9083 161.991 21.9083ZM173.152 26.4758C173.152 27.0111 173.022 27.4629 172.761 27.8312C172.501 28.1996 172.12 28.4795 171.62 28.6711C171.124 28.8577 170.515 28.951 169.793 28.951C169.223 28.951 168.732 28.9093 168.319 28.8258C167.911 28.7472 167.526 28.6244 167.163 28.4574V26.962C167.551 27.1437 167.985 27.3009 168.466 27.4335C168.952 27.5661 169.412 27.6324 169.844 27.6324C170.414 27.6324 170.824 27.544 171.074 27.3672C171.325 27.1854 171.45 26.9448 171.45 26.6452C171.45 26.4684 171.399 26.3113 171.295 26.1737C171.197 26.0313 171.011 25.8864 170.736 25.739C170.465 25.5868 170.068 25.4051 169.542 25.1939C169.027 24.9876 168.592 24.7814 168.238 24.5751C167.885 24.3688 167.617 24.1208 167.435 23.831C167.253 23.5363 167.163 23.1607 167.163 22.7039C167.163 21.9819 167.447 21.4343 168.017 21.0611C168.592 20.6829 169.35 20.4938 170.293 20.4938C170.794 20.4938 171.266 20.5454 171.708 20.6485C172.155 20.7467 172.592 20.8916 173.019 21.0832L172.474 22.3872C172.106 22.225 171.735 22.0925 171.362 21.9893C170.993 21.8812 170.618 21.8272 170.234 21.8272C169.788 21.8272 169.446 21.896 169.21 22.0335C168.98 22.1711 168.864 22.3675 168.864 22.6229C168.864 22.8144 168.921 22.9765 169.033 23.1091C169.147 23.2417 169.341 23.3743 169.616 23.5069C169.895 23.6395 170.284 23.804 170.779 24.0005C171.266 24.1871 171.686 24.3836 172.039 24.5899C172.398 24.7912 172.673 25.0392 172.864 25.3339C173.056 25.6286 173.152 26.0092 173.152 26.4758Z" fill="#292929"/>
        <mask id="mask0_541_68" style="mask-type:luminance" maskUnits="userSpaceOnUse" x="187" y="14" width="18" height="17">
            <path d="M204.365 14.4014H187.906V30.8604H204.365V14.4014Z" fill="white"/>
        </mask>
        <g mask="url(#mask0_541_68)">
            <path d="M192.021 24.6882C191.451 24.6882 190.937 24.9214 190.567 25.2917C189.757 26.1009 189.277 29.4887 189.277 29.4887C189.277 29.4887 192.665 29.0087 193.474 28.1994C193.845 27.8291 194.078 27.3148 194.078 26.7456C194.078 25.6071 193.159 24.6882 192.021 24.6882ZM192.507 27.2325C192.315 27.4245 191.019 27.7537 191.019 27.7537C191.019 27.7537 191.342 26.4644 191.54 26.2655C191.657 26.1352 191.828 26.0598 192.021 26.0598C192.398 26.0598 192.706 26.3684 192.706 26.7456C192.706 26.9376 192.631 27.109 192.507 27.2325ZM199.852 23.7624C204.214 19.4007 202.76 16.0061 202.76 16.0061C202.76 16.0061 199.365 14.5522 195.004 18.9138L193.296 18.5709C192.85 18.4818 192.384 18.6258 192.055 18.9481L189.277 21.7324L192.706 23.2L195.566 26.0598L197.034 29.4887L199.811 26.7113C200.133 26.389 200.277 25.9226 200.188 25.47L199.852 23.7624ZM192.987 21.8284L191.678 21.2661L193.029 19.9151L194.016 20.114C193.625 20.6832 193.276 21.2798 192.987 21.8284ZM197.5 27.0885L196.938 25.7786C197.486 25.4906 198.083 25.1408 198.645 24.7499L198.844 25.7375L197.5 27.0885ZM198.878 22.7954C197.973 23.7006 196.56 24.4413 196.108 24.6676L194.098 22.6582C194.318 22.2125 195.059 20.7997 195.971 19.8876C199.18 16.6781 201.615 17.1513 201.615 17.1513C201.615 17.1513 202.088 19.5859 198.878 22.7954ZM198.193 21.945C198.947 21.945 199.564 21.3278 199.564 20.5734C199.564 19.8191 198.947 19.2019 198.193 19.2019C197.438 19.2019 196.821 19.8191 196.821 20.5734C196.821 21.3278 197.438 21.945 198.193 21.945Z" fill="#292929"/>
        </g>
    </g>
    <defs>
        <clipPath id="clip0_541_68">
            <rect width="251" height="45.2623" fill="white"/>
        </clipPath>
    </defs>
</svg>
