<svg width="131" height="24" viewBox="0 0 131 24" fill="none"
    xmlns="http://www.w3.org/2000/svg">
    <g clip-path="url(#clip0_541_68)">
        <path d="M119.189 0H11.8115C5.28818 0 0 5.28818 0 11.8115C0 18.3348 5.28818 23.6229 11.8115 23.6229H119.189C125.712 23.6229 131 18.3348 131 11.8115C131 5.28818 125.712 0 119.189 0Z" fill="#7CC6BB"/>
        <path d="M29.642 12.168C29.642 12.8011 29.5241 13.3304 29.2883 13.7559C29.0524 14.1788 28.7103 14.498 28.2617 14.7133C27.8131 14.926 27.2723 15.0324 26.6391 15.0324H25.0781V9.4112H26.8083C27.3902 9.4112 27.8926 9.51629 28.3155 9.72649C28.7385 9.93413 29.0652 10.243 29.296 10.6531C29.5266 11.0607 29.642 11.5656 29.642 12.168ZM28.6808 12.1949C28.6808 11.7335 28.6077 11.3542 28.4616 11.0568C28.3181 10.7595 28.1053 10.5391 27.8234 10.3955C27.544 10.2494 27.1992 10.1763 26.7891 10.1763H26.0009V14.2596H26.6545C27.3338 14.2596 27.8413 14.0866 28.1771 13.7405C28.5129 13.3945 28.6808 12.8793 28.6808 12.1949ZM32.4565 10.6954C32.8358 10.6954 33.1614 10.7736 33.4331 10.9299C33.7048 11.0863 33.9136 11.308 34.0597 11.5951C34.2059 11.8822 34.2789 12.2257 34.2789 12.6255V13.11H31.4376C31.4478 13.5227 31.558 13.8405 31.7682 14.0635C31.981 14.2865 32.2783 14.398 32.6602 14.398C32.9319 14.398 33.1754 14.3724 33.3908 14.3211C33.6086 14.2673 33.8329 14.1891 34.0636 14.0866V14.821C33.8509 14.9209 33.6342 14.994 33.4138 15.0401C33.1934 15.0863 32.9294 15.1093 32.6218 15.1093C32.204 15.1093 31.8362 15.0286 31.5183 14.8671C31.203 14.7031 30.9557 14.4595 30.7762 14.1366C30.5994 13.8136 30.5109 13.4125 30.5109 12.9331C30.5109 12.4563 30.5917 12.0514 30.7532 11.7181C30.9146 11.3849 31.1415 11.1312 31.4337 10.9569C31.7259 10.7825 32.0668 10.6954 32.4565 10.6954ZM32.4565 11.3759C32.1719 11.3759 31.9412 11.4682 31.7644 11.6528C31.5901 11.8373 31.4875 12.1078 31.4568 12.464H33.3946C33.392 12.2513 33.3561 12.0629 33.287 11.8988C33.2203 11.7348 33.1178 11.6066 32.9794 11.5144C32.8435 11.4221 32.6692 11.3759 32.4565 11.3759ZM37.4818 10.6954C37.9868 10.6954 38.3916 10.8799 38.6966 11.2491C39.0044 11.6182 39.1579 12.1667 39.1579 12.8947C39.1579 13.3766 39.0864 13.7828 38.9428 14.1135C38.8018 14.4416 38.6032 14.6902 38.3469 14.8594C38.0931 15.026 37.7971 15.1093 37.4585 15.1093C37.2434 15.1093 37.0562 15.0811 36.8973 15.0247C36.7384 14.9684 36.6024 14.8953 36.4896 14.8056C36.3769 14.7133 36.282 14.6133 36.2051 14.5057H36.1514C36.1643 14.6082 36.1757 14.7223 36.1861 14.8479C36.1986 14.9709 36.2051 15.0837 36.2051 15.1862V16.9203H35.2978V10.7761H36.0361L36.1628 11.3644H36.2051C36.2845 11.2439 36.3808 11.1324 36.4936 11.0299C36.6088 10.9274 36.7473 10.8466 36.9087 10.7877C37.073 10.7262 37.2638 10.6954 37.4818 10.6954ZM37.2395 11.4336C36.9907 11.4336 36.791 11.4836 36.6396 11.5836C36.4911 11.681 36.3822 11.8284 36.3128 12.0257C36.2462 12.2231 36.2104 12.4704 36.2051 12.7678V12.8947C36.2051 13.21 36.2373 13.4778 36.3014 13.6983C36.3679 13.9161 36.4771 14.0827 36.6281 14.1981C36.782 14.3109 36.9896 14.3673 37.2509 14.3673C37.4714 14.3673 37.6536 14.307 37.7971 14.1865C37.9431 14.0661 38.052 13.8943 38.1239 13.6713C38.1955 13.4483 38.2316 13.1856 38.2316 12.8831C38.2316 12.4243 38.1493 12.068 37.9854 11.8143C37.824 11.5605 37.5752 11.4336 37.2395 11.4336ZM41.1111 15.0324H40.2038V9.0498H41.1111V15.0324ZM46.1711 12.8947C46.1711 13.2484 46.1249 13.5624 46.0326 13.8367C45.9406 14.1109 45.806 14.3429 45.6288 14.5326C45.452 14.7197 45.2394 14.8632 44.9907 14.9632C44.7423 15.0606 44.4613 15.1093 44.1488 15.1093C43.8564 15.1093 43.5887 15.0606 43.3453 14.9632C43.1015 14.8632 42.89 14.7197 42.7107 14.5326C42.5339 14.3429 42.3968 14.1109 42.2994 13.8367C42.2021 13.5624 42.1534 13.2484 42.1534 12.8947C42.1534 12.4256 42.2339 12.0283 42.3954 11.7028C42.5596 11.3747 42.7927 11.1248 43.0951 10.953C43.3975 10.7813 43.758 10.6954 44.1757 10.6954C44.568 10.6954 44.9137 10.7813 45.2136 10.953C45.5136 11.1248 45.748 11.3747 45.9173 11.7028C46.0866 12.0308 46.1711 12.4282 46.1711 12.8947ZM43.0836 12.8947C43.0836 13.2048 43.1209 13.4701 43.1953 13.6906C43.2723 13.911 43.39 14.0802 43.5489 14.1981C43.7079 14.3134 43.913 14.3711 44.1642 14.3711C44.4155 14.3711 44.6202 14.3134 44.7791 14.1981C44.938 14.0802 45.0547 13.911 45.1292 13.6906C45.2036 13.4701 45.2408 13.2048 45.2408 12.8947C45.2408 12.5845 45.2036 12.3218 45.1292 12.1065C45.0547 11.8886 44.938 11.7233 44.7791 11.6105C44.6202 11.4951 44.414 11.4375 44.1603 11.4375C43.7859 11.4375 43.5132 11.5631 43.3413 11.8143C43.1695 12.0655 43.0836 12.4256 43.0836 12.8947ZM46.5673 10.7761H47.5516L48.4242 13.2061C48.4625 13.3163 48.4972 13.4253 48.528 13.5329C48.5613 13.638 48.5896 13.7418 48.6125 13.8444C48.6383 13.9469 48.6587 14.0494 48.674 14.1519H48.6973C48.7227 14.0186 48.7589 13.87 48.805 13.7059C48.8537 13.5393 48.9074 13.3727 48.9665 13.2061L49.8047 10.7761H50.7772L48.9511 15.6168C48.8459 15.8937 48.7163 16.1295 48.5627 16.3243C48.4113 16.5217 48.232 16.6704 48.0244 16.7703C47.8168 16.8728 47.5795 16.9241 47.3132 16.9241C47.1847 16.9241 47.0734 16.9164 46.9786 16.901C46.8837 16.8882 46.8028 16.8741 46.7363 16.8587V16.1359C46.7903 16.1487 46.8579 16.1602 46.9403 16.1705C47.0222 16.1808 47.1067 16.1859 47.194 16.1859C47.3555 16.1859 47.4951 16.1538 47.6128 16.0898C47.7309 16.0257 47.8308 15.9347 47.9127 15.8168C47.9951 15.7014 48.0627 15.5694 48.1168 15.4208L48.2667 15.0209L46.5673 10.7761ZM57.2367 12.8947C57.2367 13.2484 57.1905 13.5624 57.0981 13.8367C57.0061 14.1109 56.8716 14.3429 56.6948 14.5326C56.5176 14.7197 56.305 14.8632 56.0562 14.9632C55.8078 15.0606 55.5268 15.1093 55.2144 15.1093C54.922 15.1093 54.6542 15.0606 54.4108 14.9632C54.1671 14.8632 53.9556 14.7197 53.7762 14.5326C53.5994 14.3429 53.4624 14.1109 53.365 13.8367C53.2676 13.5624 53.219 13.2484 53.219 12.8947C53.219 12.4256 53.2995 12.0283 53.4609 11.7028C53.6252 11.3747 53.8582 11.1248 54.1607 10.953C54.4631 10.7813 54.8235 10.6954 55.2412 10.6954C55.6335 10.6954 55.9793 10.7813 56.2792 10.953C56.5791 11.1248 56.8139 11.3747 56.9829 11.7028C57.1522 12.0308 57.2367 12.4282 57.2367 12.8947ZM54.1492 12.8947C54.1492 13.2048 54.1864 13.4701 54.2609 13.6906C54.3378 13.911 54.4556 14.0802 54.6145 14.1981C54.7734 14.3134 54.9785 14.3711 55.2298 14.3711C55.481 14.3711 55.6858 14.3134 55.8447 14.1981C56.0036 14.0802 56.1203 13.911 56.1947 13.6906C56.2692 13.4701 56.3064 13.2048 56.3064 12.8947C56.3064 12.5845 56.2692 12.3218 56.1947 12.1065C56.1203 11.8886 56.0036 11.7233 55.8447 11.6105C55.6858 11.4951 55.4796 11.4375 55.2258 11.4375C54.8515 11.4375 54.5787 11.5631 54.4069 11.8143C54.2351 12.0655 54.1492 12.4256 54.1492 12.8947ZM60.4934 10.6954C60.9727 10.6954 61.3456 10.8197 61.6123 11.0684C61.8814 11.3144 62.016 11.7105 62.016 12.2564V15.0324H61.1122V12.4256C61.1122 12.0949 61.0446 11.8476 60.9086 11.6835C60.7726 11.5169 60.5625 11.4336 60.2779 11.4336C59.8652 11.4336 59.5782 11.5605 59.4168 11.8143C59.2578 12.068 59.1784 12.4358 59.1784 12.9177V15.0324H58.275V10.7761H58.9783L59.1054 11.3529H59.1555C59.2475 11.2042 59.3616 11.0825 59.4977 10.9876C59.6358 10.8902 59.7897 10.8172 59.959 10.7684C60.1305 10.7197 60.3087 10.6954 60.4934 10.6954ZM68.9676 15.0324H64.9266V14.398L67.7872 10.1956H65.015V9.4112H68.8906V10.0418L66.0301 14.2481H68.9676V15.0324ZM71.559 10.6954C71.9384 10.6954 72.2637 10.7736 72.5354 10.9299C72.807 11.0863 73.0161 11.308 73.1621 11.5951C73.3081 11.8822 73.3815 12.2257 73.3815 12.6255V13.11H70.54C70.5503 13.5227 70.6606 13.8405 70.8707 14.0635C71.0833 14.2865 71.3807 14.398 71.7626 14.398C72.0343 14.398 72.278 14.3724 72.4931 14.3211C72.7111 14.2673 72.9355 14.1891 73.166 14.0866V14.821C72.9534 14.9209 72.7365 14.994 72.5164 15.0401C72.2959 15.0863 72.0318 15.1093 71.7243 15.1093C71.3063 15.1093 70.9387 15.0286 70.6208 14.8671C70.3055 14.7031 70.0582 14.4595 69.8785 14.1366C69.7017 13.8136 69.6133 13.4125 69.6133 12.9331C69.6133 12.4563 69.6942 12.0514 69.8556 11.7181C70.017 11.3849 70.2439 11.1312 70.536 10.9569C70.8284 10.7825 71.1692 10.6954 71.559 10.6954ZM71.559 11.3759C71.2744 11.3759 71.0435 11.4682 70.8667 11.6528C70.6924 11.8373 70.5901 12.1078 70.5593 12.464H72.4971C72.4946 12.2513 72.4584 12.0629 72.3893 11.8988C72.3228 11.7348 72.22 11.6066 72.0819 11.5144C71.9459 11.4221 71.7716 11.3759 71.559 11.3759ZM76.5574 10.6954C76.6289 10.6954 76.7073 10.6993 76.7918 10.7069C76.8763 10.7146 76.9493 10.7249 77.0108 10.7377L76.9264 11.5836C76.8727 11.5682 76.8058 11.5567 76.7263 11.549C76.6493 11.5413 76.5803 11.5374 76.5187 11.5374C76.3573 11.5374 76.2034 11.5643 76.0573 11.6182C75.9113 11.6694 75.7817 11.7489 75.669 11.8566C75.5562 11.9617 75.4678 12.0937 75.4038 12.2526C75.3397 12.4115 75.3075 12.596 75.3075 12.8062V15.0324H74.4002V10.7761H75.1078L75.2309 11.5259H75.2731C75.3576 11.3747 75.4628 11.2363 75.5885 11.1107C75.7141 10.9851 75.8576 10.8851 76.019 10.8108C76.183 10.7338 76.3623 10.6954 76.5574 10.6954ZM81.5672 12.8947C81.5672 13.2484 81.521 13.5624 81.4287 13.8367C81.3364 14.1109 81.2018 14.3429 81.025 14.5326C80.8481 14.7197 80.6355 14.8632 80.3868 14.9632C80.138 15.0606 79.8574 15.1093 79.5446 15.1093C79.2525 15.1093 78.9848 15.0606 78.741 14.9632C78.4977 14.8632 78.2861 14.7197 78.1068 14.5326C77.93 14.3429 77.7926 14.1109 77.6952 13.8367C77.5978 13.5624 77.5492 13.2484 77.5492 12.8947C77.5492 12.4256 77.6301 12.0283 77.7915 11.7028C77.9554 11.3747 78.1888 11.1248 78.4912 10.953C78.7937 10.7813 79.1537 10.6954 79.5718 10.6954C79.9637 10.6954 80.3098 10.7813 80.6098 10.953C80.9097 11.1248 81.1441 11.3747 81.3134 11.7028C81.4824 12.0308 81.5672 12.4282 81.5672 12.8947ZM78.4798 12.8947C78.4798 13.2048 78.517 13.4701 78.5911 13.6906C78.668 13.911 78.7862 14.0802 78.9451 14.1981C79.104 14.3134 79.3087 14.3711 79.56 14.3711C79.8112 14.3711 80.0163 14.3134 80.1753 14.1981C80.3342 14.0802 80.4509 13.911 80.5253 13.6906C80.5994 13.4701 80.6366 13.2048 80.6366 12.8947C80.6366 12.5845 80.5994 12.3218 80.5253 12.1065C80.4509 11.8886 80.3342 11.7233 80.1753 11.6105C80.0163 11.4951 79.8102 11.4375 79.5564 11.4375C79.182 11.4375 78.9089 11.5631 78.7371 11.8143C78.5657 12.0655 78.4798 12.4256 78.4798 12.8947ZM84.7892 10.6954C85.2939 10.6954 85.6991 10.8799 86.004 11.2491C86.3118 11.6182 86.4654 12.1667 86.4654 12.8947C86.4654 13.3766 86.3938 13.7828 86.2503 14.1135C86.1093 14.4416 85.9106 14.6902 85.6543 14.8594C85.4006 15.026 85.1046 15.1093 84.766 15.1093C84.5509 15.1093 84.3637 15.0811 84.2048 15.0247C84.0458 14.9684 83.9098 14.8953 83.7971 14.8056C83.6843 14.7133 83.5895 14.6133 83.5125 14.5057H83.4588C83.4717 14.6082 83.4832 14.7223 83.4936 14.8479C83.5061 14.9709 83.5125 15.0837 83.5125 15.1862V16.9203H82.6052V10.7761H83.3436L83.4703 11.3644H83.5125C83.592 11.2439 83.6883 11.1324 83.801 11.0299C83.9163 10.9274 84.0548 10.8466 84.2162 10.7877C84.3801 10.7262 84.5713 10.6954 84.7892 10.6954ZM84.5469 11.4336C84.2982 11.4336 84.0984 11.4836 83.947 11.5836C83.7985 11.681 83.6893 11.8284 83.6203 12.0257C83.5537 12.2231 83.5179 12.4704 83.5125 12.7678V12.8947C83.5125 13.21 83.5447 13.4778 83.6088 13.6983C83.6754 13.9161 83.7842 14.0827 83.9356 14.1981C84.0895 14.3109 84.2971 14.3673 84.5584 14.3673C84.7789 14.3673 84.9607 14.307 85.1046 14.1865C85.2506 14.0661 85.3594 13.8943 85.4314 13.6713C85.5029 13.4483 85.5387 13.1856 85.5387 12.8831C85.5387 12.4243 85.4568 12.068 85.2928 11.8143C85.1314 11.5605 84.8827 11.4336 84.5469 11.4336ZM90.3718 13.8175C90.3718 14.0968 90.3041 14.3326 90.1681 14.5249C90.0321 14.7171 89.8335 14.8632 89.5722 14.9632C89.3134 15.0606 88.9956 15.1093 88.6187 15.1093C88.3212 15.1093 88.065 15.0875 87.8495 15.0439C87.6369 15.0029 87.4357 14.9389 87.246 14.8517V14.0712C87.4486 14.166 87.6752 14.2481 87.9264 14.3173C88.1802 14.3865 88.42 14.4211 88.6455 14.4211C88.9429 14.4211 89.157 14.375 89.2876 14.2827C89.4183 14.1878 89.4838 14.0622 89.4838 13.9059C89.4838 13.8136 89.4569 13.7316 89.4029 13.6598C89.3517 13.5855 89.2543 13.5099 89.1108 13.4329C88.9698 13.3535 88.7622 13.2587 88.488 13.1484C88.2189 13.0408 87.9919 12.9331 87.8073 12.8255C87.6229 12.7178 87.483 12.5883 87.3881 12.4371C87.2933 12.2833 87.246 12.0873 87.246 11.8489C87.246 11.4721 87.3946 11.1862 87.692 10.9915C87.9919 10.7941 88.3878 10.6954 88.8799 10.6954C89.1416 10.6954 89.3875 10.7223 89.6183 10.7761C89.8517 10.8274 90.0797 10.903 90.3027 11.003L90.0181 11.6835C89.8259 11.5989 89.6323 11.5297 89.4376 11.4759C89.2454 11.4195 89.0492 11.3913 88.8492 11.3913C88.6162 11.3913 88.4379 11.4272 88.3148 11.499C88.1945 11.5708 88.134 11.6733 88.134 11.8066C88.134 11.9065 88.1637 11.9911 88.2224 12.0603C88.2815 12.1295 88.3828 12.1987 88.5263 12.268C88.6724 12.3372 88.8749 12.423 89.1337 12.5256C89.3875 12.623 89.6069 12.7255 89.7912 12.8332C89.9784 12.9382 90.1219 13.0677 90.2218 13.2215C90.322 13.3753 90.3718 13.5739 90.3718 13.8175Z" fill="#292929"/>
        <mask id="mask0_541_68" style="mask-type:luminance" maskUnits="userSpaceOnUse" x="98" y="7" width="9" height="10">
            <path d="M106.66 7.5166H98.0703V16.1068H106.66V7.5166Z" fill="white"/>
        </mask>
        <g mask="url(#mask0_541_68)">
            <path d="M100.217 12.8851C99.9198 12.8851 99.6513 13.0068 99.4581 13.2001C99.0357 13.6225 98.7852 15.3906 98.7852 15.3906C98.7852 15.3906 100.553 15.1401 100.976 14.7177C101.169 14.5244 101.291 14.256 101.291 13.9589C101.291 13.3648 100.811 12.8851 100.217 12.8851ZM100.471 14.213C100.371 14.3133 99.6943 14.4851 99.6943 14.4851C99.6943 14.4851 99.8625 13.8122 99.9663 13.7084C100.027 13.6404 100.117 13.601 100.217 13.601C100.414 13.601 100.575 13.7621 100.575 13.9589C100.575 14.0591 100.535 14.1486 100.471 14.213ZM104.304 12.4019C106.581 10.1256 105.822 8.35383 105.822 8.35383C105.822 8.35383 104.05 7.59503 101.774 9.87142L100.883 9.69246C100.65 9.64593 100.407 9.7211 100.235 9.88932L98.7852 11.3425L100.575 12.1084L102.067 13.601L102.833 15.3906L104.283 13.941C104.451 13.7728 104.526 13.5294 104.48 13.2932L104.304 12.4019ZM100.722 11.3926L100.038 11.0991L100.743 10.394L101.258 10.4978C101.054 10.7949 100.872 11.1063 100.722 11.3926ZM103.077 14.1379L102.783 13.4542C103.07 13.3039 103.381 13.1214 103.674 12.9174L103.778 13.4328L103.077 14.1379ZM103.796 11.8973C103.324 12.3697 102.586 12.7563 102.35 12.8744L101.301 11.8257C101.416 11.593 101.802 10.8557 102.278 10.3797C103.954 8.70459 105.224 8.95156 105.224 8.95156C105.224 8.95156 105.471 10.2222 103.796 11.8973ZM103.438 11.4534C103.832 11.4534 104.154 11.1313 104.154 10.7376C104.154 10.3439 103.832 10.0218 103.438 10.0218C103.044 10.0218 102.722 10.3439 102.722 10.7376C102.722 11.1313 103.044 11.4534 103.438 11.4534Z" fill="#292929"/>
        </g>
    </g>
    <defs>
        <clipPath id="clip0_541_68">
            <rect width="131" height="23.6229" fill="white"/>
        </clipPath>
    </defs>
</svg>
