<svg viewBox="0 0 111 21" fill="none"
    xmlns="http://www.w3.org/2000/svg">
    <g clip-path="url(#clip0_541_68)">
        <path d="M100.992 0H10.0082C4.48082 0 0 4.48082 0 10.0082C0 15.5356 4.48082 20.0164 10.0082 20.0164H100.992C106.519 20.0164 111 15.5356 111 10.0082C111 4.48082 106.519 0 100.992 0Z" fill="#7CC6BB"/>
        <path d="M25.1171 10.3111C25.1171 10.8475 25.0172 11.296 24.8174 11.6566C24.6175 12.0149 24.3276 12.2853 23.9475 12.4678C23.5674 12.6481 23.1092 12.7382 22.5727 12.7382H21.25V7.97517H22.716C23.2091 7.97517 23.6348 8.06421 23.9931 8.24232C24.3515 8.41826 24.6284 8.67996 24.8239 9.02745C25.0194 9.3728 25.1171 9.80066 25.1171 10.3111ZM24.3026 10.3339C24.3026 9.94293 24.2407 9.62148 24.1169 9.36955C23.9953 9.11759 23.815 8.93083 23.5761 8.80918C23.3394 8.68538 23.0473 8.62348 22.6998 8.62348H22.0319V12.0833H22.5857C23.1613 12.0833 23.5913 11.9367 23.8758 11.6435C24.1604 11.3503 24.3026 10.9138 24.3026 10.3339ZM27.5019 9.0633C27.8233 9.0633 28.0992 9.12954 28.3294 9.26204C28.5596 9.39451 28.7366 9.58239 28.8604 9.82565C28.9842 10.0689 29.0461 10.3599 29.0461 10.6988V11.1092H26.6385C26.6472 11.4589 26.7406 11.7282 26.9187 11.9172C27.099 12.1062 27.3509 12.2006 27.6745 12.2006C27.9048 12.2006 28.1111 12.1789 28.2935 12.1355C28.4781 12.0899 28.6682 12.0236 28.8637 11.9367V12.559C28.6834 12.6437 28.4998 12.7056 28.3131 12.7447C28.1263 12.7838 27.9026 12.8033 27.642 12.8033C27.2879 12.8033 26.9763 12.7349 26.707 12.5981C26.4398 12.4591 26.2302 12.2528 26.0782 11.9791C25.9283 11.7054 25.8534 11.3655 25.8534 10.9594C25.8534 10.5554 25.9218 10.2122 26.0586 9.92989C26.1954 9.64754 26.3877 9.43254 26.6353 9.28484C26.8829 9.13715 27.1717 9.0633 27.5019 9.0633ZM27.5019 9.63995C27.2608 9.63995 27.0653 9.71814 26.9155 9.87451C26.7678 10.0309 26.6809 10.26 26.6548 10.5619H28.2968C28.2946 10.3817 28.2642 10.222 28.2056 10.083C28.1491 9.94402 28.0622 9.83542 27.9449 9.75723C27.8298 9.67905 27.6821 9.63995 27.5019 9.63995ZM31.76 9.0633C32.1879 9.0633 32.5309 9.21967 32.7893 9.53244C33.0501 9.84518 33.1802 10.31 33.1802 10.9268C33.1802 11.3351 33.1196 11.6794 32.998 11.9595C32.8785 12.2376 32.7101 12.4482 32.493 12.5916C32.278 12.7328 32.0272 12.8033 31.7403 12.8033C31.558 12.8033 31.3994 12.7795 31.2647 12.7317C31.1301 12.6839 31.0148 12.622 30.9193 12.546C30.8237 12.4678 30.7434 12.3831 30.6782 12.2919H30.6327C30.6436 12.3787 30.6533 12.4754 30.6621 12.5818C30.6727 12.6861 30.6782 12.7816 30.6782 12.8685V14.3378H29.9094V9.13172H30.535L30.6424 9.63019H30.6782C30.7455 9.5281 30.8271 9.4336 30.9226 9.34674C31.0203 9.25985 31.1376 9.19143 31.2744 9.14148C31.4136 9.08938 31.5753 9.0633 31.76 9.0633ZM31.5547 9.68881C31.3439 9.68881 31.1746 9.73118 31.0464 9.81589C30.9205 9.89841 30.8283 10.0233 30.7695 10.1905C30.7131 10.3578 30.6827 10.5673 30.6782 10.8193V10.9268C30.6782 11.194 30.7055 11.4209 30.7598 11.6077C30.8162 11.7923 30.9087 11.9335 31.0367 12.0312C31.1671 12.1268 31.343 12.1746 31.5644 12.1746C31.7512 12.1746 31.9055 12.1235 32.0272 12.0214C32.1509 11.9194 32.2431 11.7739 32.3041 11.5849C32.3647 11.3959 32.3953 11.1733 32.3953 10.917C32.3953 10.5283 32.3256 10.2264 32.1867 10.0113C32.0499 9.79632 31.8391 9.68881 31.5547 9.68881ZM34.8352 12.7382H34.0664V7.66895H34.8352V12.7382ZM39.1227 10.9268C39.1227 11.2265 39.0835 11.4926 39.0053 11.725C38.9274 11.9574 38.8133 12.154 38.6632 12.3147C38.5134 12.4732 38.3332 12.5948 38.1225 12.6795C37.912 12.7621 37.6739 12.8033 37.4091 12.8033C37.1614 12.8033 36.9345 12.7621 36.7283 12.6795C36.5217 12.5948 36.3425 12.4732 36.1906 12.3147C36.0407 12.154 35.9246 11.9574 35.8421 11.725C35.7596 11.4926 35.7184 11.2265 35.7184 10.9268C35.7184 10.5293 35.7866 10.1927 35.9234 9.91688C36.0626 9.63886 36.26 9.42711 36.5163 9.28157C36.7726 9.13606 37.078 9.0633 37.4319 9.0633C37.7643 9.0633 38.0572 9.13606 38.3114 9.28157C38.5655 9.42711 38.7642 9.63886 38.9076 9.91688C39.0511 10.1949 39.1227 10.5315 39.1227 10.9268ZM36.5066 10.9268C36.5066 11.1896 36.5381 11.4144 36.6012 11.6012C36.6664 11.788 36.7662 11.9313 36.9008 12.0312C37.0355 12.129 37.2093 12.1778 37.4222 12.1778C37.6351 12.1778 37.8086 12.129 37.9432 12.0312C38.0779 11.9313 38.1767 11.788 38.2398 11.6012C38.3029 11.4144 38.3344 11.1896 38.3344 10.9268C38.3344 10.664 38.3029 10.4414 38.2398 10.2589C38.1767 10.0743 38.0779 9.93425 37.9432 9.83869C37.8086 9.74094 37.6339 9.69209 37.4188 9.69209C37.1016 9.69209 36.8705 9.79851 36.7249 10.0113C36.5794 10.2242 36.5066 10.5293 36.5066 10.9268ZM39.4584 9.13172H40.2924L41.0318 11.1907C41.0643 11.2841 41.0937 11.3764 41.1198 11.4676C41.148 11.5567 41.1719 11.6446 41.1913 11.7315C41.2132 11.8184 41.2305 11.9053 41.2435 11.9921H41.2632C41.2847 11.8792 41.3154 11.7532 41.3545 11.6142C41.3957 11.4731 41.4412 11.3319 41.4913 11.1907L42.2015 9.13172H43.0256L41.4782 13.2334C41.3891 13.4679 41.2793 13.6678 41.1492 13.8328C41.0209 14.0001 40.8689 14.1261 40.693 14.2108C40.5171 14.2976 40.3161 14.3411 40.0904 14.3411C39.9816 14.3411 39.8872 14.3346 39.8069 14.3215C39.7265 14.3107 39.658 14.2987 39.6015 14.2857V13.6732C39.6473 13.6841 39.7047 13.6938 39.7744 13.7025C39.8439 13.7112 39.9154 13.7156 39.9894 13.7156C40.1262 13.7156 40.2445 13.6884 40.3443 13.6341C40.4444 13.5798 40.529 13.5027 40.5984 13.4028C40.6682 13.305 40.7255 13.1932 40.7713 13.0672L40.8984 12.7284L39.4584 9.13172ZM48.4988 10.9268C48.4988 11.2265 48.4597 11.4926 48.3815 11.725C48.3035 11.9574 48.1895 12.154 48.0397 12.3147C47.8895 12.4732 47.7094 12.5948 47.4986 12.6795C47.2881 12.7621 47.0501 12.8033 46.7853 12.8033C46.5375 12.8033 46.3107 12.7621 46.1044 12.6795C45.8979 12.5948 45.7187 12.4732 45.5667 12.3147C45.4169 12.154 45.3008 11.9574 45.2183 11.725C45.1358 11.4926 45.0945 11.2265 45.0945 10.9268C45.0945 10.5293 45.1628 10.1927 45.2995 9.91688C45.4387 9.63886 45.6362 9.42711 45.8925 9.28157C46.1487 9.13606 46.4541 9.0633 46.8081 9.0633C47.1404 9.0633 47.4334 9.13606 47.6876 9.28157C47.9417 9.42711 48.1407 9.63886 48.2838 9.91688C48.4273 10.1949 48.4988 10.5315 48.4988 10.9268ZM45.8827 10.9268C45.8827 11.1896 45.9143 11.4144 45.9774 11.6012C46.0426 11.788 46.1424 11.9313 46.277 12.0312C46.4117 12.129 46.5854 12.1778 46.7983 12.1778C47.0112 12.1778 47.1847 12.129 47.3194 12.0312C47.454 11.9313 47.5529 11.788 47.616 11.6012C47.6791 11.4144 47.7106 11.1896 47.7106 10.9268C47.7106 10.664 47.6791 10.4414 47.616 10.2589C47.5529 10.0743 47.454 9.93425 47.3194 9.83869C47.1847 9.74094 47.01 9.69209 46.795 9.69209C46.4778 9.69209 46.2467 9.79851 46.1011 10.0113C45.9555 10.2242 45.8827 10.5293 45.8827 10.9268ZM51.2584 9.0633C51.6645 9.0633 51.9805 9.16863 52.2064 9.37932C52.4345 9.58782 52.5485 9.9234 52.5485 10.386V12.7382H51.7827V10.5293C51.7827 10.2492 51.7254 10.0396 51.6102 9.90059C51.4949 9.75941 51.3169 9.68881 51.0758 9.68881C50.7261 9.68881 50.4829 9.79632 50.3461 10.0113C50.2114 10.2264 50.1441 10.538 50.1441 10.9464V12.7382H49.3786V9.13172H49.9746L50.0822 9.62039H50.1247C50.2026 9.49444 50.2994 9.39126 50.4146 9.3109C50.5317 9.22837 50.6621 9.16647 50.8056 9.1252C50.9508 9.08392 51.1019 9.0633 51.2584 9.0633ZM58.4388 12.7382H55.0148V12.2006L57.4386 8.63977H55.0897V7.97517H58.3736V8.50945L55.9498 12.0736H58.4388V12.7382ZM60.6345 9.0633C60.956 9.0633 61.2317 9.12954 61.4619 9.26204C61.6921 9.39451 61.8692 9.58239 61.9929 9.82565C62.1166 10.0689 62.1788 10.3599 62.1788 10.6988V11.1092H59.7711C59.7799 11.4589 59.8733 11.7282 60.0513 11.9172C60.2315 12.1062 60.4835 12.2006 60.8071 12.2006C61.0373 12.2006 61.2438 12.1789 61.4261 12.1355C61.6108 12.0899 61.8009 12.0236 61.9962 11.9367V12.559C61.8161 12.6437 61.6323 12.7056 61.4458 12.7447C61.259 12.7838 61.0352 12.8033 60.7746 12.8033C60.4204 12.8033 60.1089 12.7349 59.8396 12.5981C59.5724 12.4591 59.3629 12.2528 59.2106 11.9791C59.0608 11.7054 58.9859 11.3655 58.9859 10.9594C58.9859 10.5554 59.0544 10.2122 59.1912 9.92989C59.328 9.64754 59.5203 9.43254 59.7678 9.28484C60.0155 9.13715 60.3043 9.0633 60.6345 9.0633ZM60.6345 9.63995C60.3934 9.63995 60.1978 9.71814 60.048 9.87451C59.9003 10.0309 59.8136 10.26 59.7875 10.5619H61.4294C61.4273 10.3817 61.3967 10.222 61.3381 10.083C61.2817 9.94402 61.1947 9.83542 61.0776 9.75723C60.9624 9.67905 60.8147 9.63995 60.6345 9.63995ZM64.8698 9.0633C64.9305 9.0633 64.9969 9.06657 65.0685 9.07307C65.14 9.07959 65.2019 9.08829 65.2541 9.09915L65.1825 9.81589C65.137 9.80284 65.0803 9.79308 65.013 9.78656C64.9478 9.78004 64.8892 9.77679 64.8371 9.77679C64.7003 9.77679 64.5699 9.79957 64.4461 9.84518C64.3224 9.88864 64.2126 9.95597 64.1171 10.0472C64.0215 10.1362 63.9466 10.2481 63.8923 10.3827C63.8381 10.5174 63.8108 10.6738 63.8108 10.8519V12.7382H63.042V9.13172H63.6415L63.7459 9.767H63.7816C63.8532 9.63886 63.9424 9.52158 64.0488 9.41516C64.1553 9.30874 64.2769 9.22404 64.4137 9.16105C64.5526 9.09587 64.7045 9.0633 64.8698 9.0633ZM69.1148 10.9268C69.1148 11.2265 69.0757 11.4926 68.9974 11.725C68.9192 11.9574 68.8052 12.154 68.6553 12.3147C68.5055 12.4732 68.3254 12.5948 68.1146 12.6795C67.9038 12.7621 67.666 12.8033 67.401 12.8033C67.1535 12.8033 66.9266 12.7621 66.7201 12.6795C66.5139 12.5948 66.3346 12.4732 66.1827 12.3147C66.0329 12.154 65.9164 11.9574 65.8339 11.725C65.7514 11.4926 65.7102 11.2265 65.7102 10.9268C65.7102 10.5293 65.7787 10.1927 65.9155 9.91688C66.0544 9.63886 66.2522 9.42711 66.5084 9.28157C66.7647 9.13606 67.0698 9.0633 67.424 9.0633C67.7561 9.0633 68.0494 9.13606 68.3035 9.28157C68.5577 9.42711 68.7563 9.63886 68.8998 9.91688C69.0429 10.1949 69.1148 10.5315 69.1148 10.9268ZM66.4987 10.9268C66.4987 11.1896 66.5303 11.4144 66.593 11.6012C66.6582 11.788 66.7583 11.9313 66.893 12.0312C67.0276 12.129 67.2011 12.1778 67.414 12.1778C67.6269 12.1778 67.8007 12.129 67.9354 12.0312C68.07 11.9313 68.1689 11.788 68.232 11.6012C68.2947 11.4144 68.3263 11.1896 68.3263 10.9268C68.3263 10.664 68.2947 10.4414 68.232 10.2589C68.1689 10.0743 68.07 9.93425 67.9354 9.83869C67.8007 9.74094 67.626 9.69209 67.411 9.69209C67.0938 9.69209 66.8624 9.79851 66.7168 10.0113C66.5715 10.2242 66.4987 10.5293 66.4987 10.9268ZM71.8449 9.0633C72.2725 9.0633 72.6159 9.21967 72.8742 9.53244C73.1351 9.84518 73.2652 10.31 73.2652 10.9268C73.2652 11.3351 73.2045 11.6794 73.0829 11.9595C72.9634 12.2376 72.7951 12.4482 72.5779 12.5916C72.3629 12.7328 72.1121 12.8033 71.8252 12.8033C71.6429 12.8033 71.4843 12.7795 71.3497 12.7317C71.215 12.6839 71.0998 12.622 71.0042 12.546C70.9087 12.4678 70.8283 12.3831 70.7631 12.2919H70.7176C70.7285 12.3787 70.7383 12.4754 70.747 12.5818C70.7577 12.6861 70.7631 12.7816 70.7631 12.8685V14.3378H69.9943V9.13172H70.62L70.7273 9.63019H70.7631C70.8305 9.5281 70.912 9.4336 71.0076 9.34674C71.1052 9.25985 71.2226 9.19143 71.3594 9.14148C71.4983 9.08938 71.6602 9.0633 71.8449 9.0633ZM71.6396 9.68881C71.4288 9.68881 71.2596 9.73118 71.1313 9.81589C71.0054 9.89841 70.9129 10.0233 70.8544 10.1905C70.798 10.3578 70.7677 10.5673 70.7631 10.8193V10.9268C70.7631 11.194 70.7904 11.4209 70.8447 11.6077C70.9011 11.7923 70.9933 11.9335 71.1216 12.0312C71.252 12.1268 71.4279 12.1746 71.6493 12.1746C71.8361 12.1746 71.9902 12.1235 72.1121 12.0214C72.2358 11.9194 72.328 11.7739 72.389 11.5849C72.4497 11.3959 72.48 11.1733 72.48 10.917C72.48 10.5283 72.4105 10.2264 72.2716 10.0113C72.1349 9.79632 71.9241 9.68881 71.6396 9.68881ZM76.5752 11.7087C76.5752 11.9454 76.5178 12.1452 76.4026 12.3081C76.2873 12.471 76.119 12.5948 75.8976 12.6795C75.6784 12.7621 75.409 12.8033 75.0897 12.8033C74.8377 12.8033 74.6205 12.7849 74.4379 12.748C74.2578 12.7132 74.0874 12.6589 73.9266 12.5851V11.9237C74.0983 12.0041 74.2903 12.0736 74.5032 12.1322C74.7182 12.1909 74.9214 12.2202 75.1124 12.2202C75.3645 12.2202 75.5458 12.1811 75.6565 12.1029C75.7672 12.0225 75.8227 11.9161 75.8227 11.7836C75.8227 11.7054 75.8 11.636 75.7542 11.5751C75.7108 11.5122 75.6283 11.4481 75.5067 11.3829C75.3872 11.3156 75.2113 11.2352 74.979 11.1418C74.7509 11.0506 74.5587 10.9594 74.4022 10.8682C74.246 10.7769 74.1274 10.6672 74.047 10.5391C73.9667 10.4088 73.9266 10.2427 73.9266 10.0407C73.9266 9.72138 74.0525 9.47922 74.3045 9.31417C74.5587 9.14691 74.8941 9.0633 75.3111 9.0633C75.5328 9.0633 75.7411 9.08611 75.9368 9.13172C76.1345 9.17515 76.3277 9.23923 76.5166 9.32394L76.2755 9.90059C76.1127 9.8289 75.9486 9.77027 75.7836 9.72466C75.6207 9.67686 75.4545 9.65296 75.285 9.65296C75.0876 9.65296 74.9365 9.68338 74.8322 9.74419C74.7303 9.80503 74.6791 9.89189 74.6791 10.0048C74.6791 10.0895 74.7042 10.1612 74.754 10.2199C74.804 10.2785 74.8898 10.3371 75.0114 10.3958C75.1352 10.4544 75.3068 10.5272 75.5261 10.6141C75.7411 10.6966 75.927 10.7835 76.0832 10.8747C76.2418 10.9637 76.3635 11.0734 76.4481 11.2037C76.533 11.334 76.5752 11.5024 76.5752 11.7087Z" fill="#292929"/>
        <mask id="mask0_541_68" style="mask-type:luminance" maskUnits="userSpaceOnUse" x="83" y="6" width="8" height="8">
            <path d="M90.3763 6.36914H83.0977V13.6478H90.3763V6.36914Z" fill="white"/>
        </mask>
        <g mask="url(#mask0_541_68)">
            <path d="M84.9162 10.918C84.6645 10.918 84.4371 11.0211 84.2733 11.1849C83.9154 11.5427 83.7031 13.0409 83.7031 13.0409C83.7031 13.0409 85.2013 12.8286 85.5592 12.4708C85.723 12.307 85.8261 12.0795 85.8261 11.8278C85.8261 11.3244 85.4197 10.918 84.9162 10.918ZM85.1316 12.0431C85.0466 12.128 84.4735 12.2736 84.4735 12.2736C84.4735 12.2736 84.616 11.7035 84.7039 11.6155C84.7555 11.5579 84.8313 11.5245 84.9162 11.5245C85.083 11.5245 85.2195 11.661 85.2195 11.8278C85.2195 11.9127 85.1862 11.9885 85.1316 12.0431ZM88.3797 10.5085C90.3085 8.57969 89.6656 7.07846 89.6656 7.07846C89.6656 7.07846 88.1644 6.43551 86.2355 8.36436L85.4803 8.21272C85.2832 8.17329 85.077 8.23698 84.9314 8.37952L83.7031 9.61084L85.2195 10.2599L86.4842 11.5245L87.1332 13.0409L88.3615 11.8126C88.504 11.6701 88.5677 11.4639 88.5283 11.2637L88.3797 10.5085ZM85.3439 9.65329L84.7646 9.40461L85.3621 8.80715L85.7988 8.8951C85.6259 9.14682 85.4712 9.41067 85.3439 9.65329ZM87.3394 11.9794L87.0908 11.4002C87.3334 11.2728 87.5972 11.1181 87.8459 10.9453L87.9339 11.382L87.3394 11.9794ZM87.949 10.0809C87.5487 10.4812 86.9239 10.8088 86.7238 10.9089L85.8352 10.0203C85.9322 9.82313 86.2598 9.19838 86.6631 8.79502C88.0825 7.37567 89.1591 7.58493 89.1591 7.58493C89.1591 7.58493 89.3684 8.66157 87.949 10.0809ZM87.6457 9.70485C87.9794 9.70485 88.2523 9.4319 88.2523 9.09829C88.2523 8.76469 87.9794 8.49174 87.6457 8.49174C87.3121 8.49174 87.0392 8.76469 87.0392 9.09829C87.0392 9.4319 87.3121 9.70485 87.6457 9.70485Z" fill="#292929"/>
        </g>
    </g>
    <defs>
        <clipPath id="clip0_541_68">
            <rect width="111" height="20.0164" fill="white"/>
        </clipPath>
    </defs>
</svg>
