<svg width="156" height="29" viewBox="0 0 156 29" fill="none"
    xmlns="http://www.w3.org/2000/svg">
    <g clip-path="url(#clip0_541_68)">
        <path d="M141.934 0H14.0656C6.29737 0 0 6.29737 0 14.0656C0 21.8338 6.29737 28.1311 14.0656 28.1311H141.934C149.703 28.1311 156 21.8338 156 14.0656C156 6.29737 149.703 0 141.934 0Z" fill="#7CC6BB"/>
        <path d="M35.2981 14.4906C35.2981 15.2446 35.1577 15.8749 34.8769 16.3816C34.5961 16.8852 34.1886 17.2652 33.6544 17.5217C33.1202 17.775 32.4762 17.9017 31.7222 17.9017H29.8633V11.2077H31.9237C32.6166 11.2077 33.2149 11.3328 33.7185 11.5832C34.2222 11.8304 34.6113 12.1982 34.8861 12.6866C35.1608 13.1719 35.2981 13.7733 35.2981 14.4906ZM34.1535 14.5227C34.1535 13.9732 34.0665 13.5215 33.8925 13.1674C33.7216 12.8133 33.4682 12.5508 33.1324 12.3798C32.7997 12.2059 32.3892 12.1189 31.9008 12.1189H30.9621V16.9814H31.7405C32.5494 16.9814 33.1538 16.7753 33.5537 16.3633C33.9536 15.9512 34.1535 15.3377 34.1535 14.5227ZM38.6497 12.737C39.1015 12.737 39.4891 12.8301 39.8127 13.0163C40.1362 13.2025 40.385 13.4665 40.559 13.8084C40.733 14.1503 40.82 14.5593 40.82 15.0355V15.6124H37.4364C37.4485 16.1038 37.5798 16.4823 37.8301 16.7479C38.0835 17.0134 38.4375 17.1462 38.8924 17.1462C39.2159 17.1462 39.5059 17.1157 39.7623 17.0546C40.0217 16.9905 40.2889 16.8974 40.5636 16.7753V17.6499C40.3102 17.7689 40.0523 17.8559 39.7898 17.9108C39.5273 17.9658 39.2128 17.9932 38.8466 17.9932C38.349 17.9932 37.911 17.8971 37.5325 17.7048C37.1571 17.5095 36.8625 17.2195 36.6488 16.8349C36.4382 16.4502 36.3329 15.9726 36.3329 15.4018C36.3329 14.834 36.429 14.3517 36.6214 13.9549C36.8136 13.5581 37.0838 13.2559 37.4318 13.0483C37.7797 12.8408 38.1857 12.737 38.6497 12.737ZM38.6497 13.5474C38.3109 13.5474 38.0361 13.6573 37.8255 13.8771C37.618 14.0968 37.4959 14.4189 37.4592 14.8431H39.7669C39.7638 14.5898 39.7211 14.3655 39.6387 14.1701C39.5593 13.9747 39.4372 13.8221 39.2724 13.7122C39.1106 13.6023 38.9031 13.5474 38.6497 13.5474ZM44.6341 12.737C45.2355 12.737 45.7175 12.9567 46.0807 13.3963C46.4472 13.8358 46.6301 14.4891 46.6301 15.3559C46.6301 15.9298 46.5448 16.4136 46.3739 16.8074C46.206 17.1981 45.9694 17.4942 45.6643 17.6956C45.3621 17.8941 45.0096 17.9932 44.6063 17.9932C44.3502 17.9932 44.1273 17.9597 43.938 17.8925C43.7488 17.8254 43.5868 17.7384 43.4525 17.6315C43.3183 17.5217 43.2053 17.4026 43.1137 17.2744H43.0498C43.0651 17.3965 43.0787 17.5324 43.0911 17.6819C43.106 17.8284 43.1137 17.9627 43.1137 18.0848V20.1498H42.0333V12.8331H42.9125L43.0634 13.5337H43.1137C43.2083 13.3902 43.323 13.2574 43.4572 13.1353C43.5945 13.0132 43.7594 12.9171 43.9517 12.8469C44.1473 12.7736 44.3745 12.737 44.6341 12.737ZM44.3455 13.6161C44.0493 13.6161 43.8114 13.6756 43.6311 13.7947C43.4542 13.9106 43.3247 14.0862 43.242 14.3212C43.1627 14.5562 43.1201 14.8508 43.1137 15.2049V15.3559C43.1137 15.7314 43.1521 16.0504 43.2283 16.3129C43.3076 16.5724 43.4376 16.7708 43.6175 16.9081C43.8008 17.0424 44.048 17.1096 44.3591 17.1096C44.6217 17.1096 44.8386 17.0378 45.0096 16.8944C45.1835 16.7509 45.313 16.5464 45.3987 16.2809C45.484 16.0153 45.527 15.7024 45.527 15.3422C45.527 14.7958 45.429 14.3716 45.2338 14.0694C45.0415 13.7672 44.7453 13.6161 44.3455 13.6161ZM48.956 17.9017H47.8755V10.7773H48.956V17.9017ZM54.9816 15.3559C54.9816 15.7772 54.9266 16.1511 54.8167 16.4777C54.7071 16.8044 54.5469 17.0806 54.3359 17.3065C54.1253 17.5293 53.8722 17.7002 53.5759 17.8193C53.2801 17.9353 52.9455 17.9932 52.5734 17.9932C52.2252 17.9932 51.9064 17.9353 51.6165 17.8193C51.3263 17.7002 51.0744 17.5293 50.8608 17.3065C50.6503 17.0806 50.487 16.8044 50.3711 16.4777C50.2552 16.1511 50.1972 15.7772 50.1972 15.3559C50.1972 14.7974 50.2931 14.3243 50.4853 13.9366C50.681 13.5459 50.9584 13.2483 51.3186 13.0437C51.6788 12.8392 52.108 12.737 52.6054 12.737C53.0725 12.737 53.4843 12.8392 53.8415 13.0437C54.1986 13.2483 54.4778 13.5459 54.6794 13.9366C54.881 14.3273 54.9816 14.8004 54.9816 15.3559ZM51.305 15.3559C51.305 15.7253 51.3493 16.0412 51.438 16.3037C51.5296 16.5663 51.6698 16.7677 51.8591 16.9081C52.0483 17.0455 52.2925 17.1141 52.5918 17.1141C52.891 17.1141 53.1348 17.0455 53.324 16.9081C53.5133 16.7677 53.6522 16.5663 53.7409 16.3037C53.8295 16.0412 53.8739 15.7253 53.8739 15.3559C53.8739 14.9866 53.8295 14.6738 53.7409 14.4173C53.6522 14.1579 53.5133 13.961 53.324 13.8267C53.1348 13.6893 52.8893 13.6207 52.5871 13.6207C52.1412 13.6207 51.8164 13.7702 51.6119 14.0694C51.4073 14.3685 51.305 14.7974 51.305 15.3559ZM55.4535 12.8331H56.6256L57.6647 15.7268C57.7104 15.8581 57.7517 15.9878 57.7883 16.116C57.828 16.2412 57.8617 16.3648 57.8889 16.4869C57.9196 16.609 57.9439 16.7311 57.9623 16.8532H57.99C58.0202 16.6944 58.0633 16.5174 58.1183 16.322C58.1762 16.1237 58.2402 15.9253 58.3105 15.7268L59.3087 12.8331H60.4668L58.2922 18.5976C58.1668 18.9273 58.0125 19.2081 57.8297 19.4401C57.6494 19.6751 57.4359 19.8522 57.1886 19.9712C56.9414 20.0933 56.6588 20.1544 56.3417 20.1544C56.1887 20.1544 56.0562 20.1452 55.9432 20.1269C55.8303 20.1116 55.7339 20.0948 55.6546 20.0765V19.2157C55.719 19.231 55.7996 19.2447 55.8976 19.257C55.9952 19.2692 56.0958 19.2753 56.1998 19.2753C56.392 19.2753 56.5583 19.2371 56.6985 19.1608C56.8391 19.0845 56.9581 18.9761 57.0557 18.8357C57.1537 18.6983 57.2342 18.5412 57.2986 18.3641L57.4772 17.888L55.4535 12.8331ZM68.1589 15.3559C68.1589 15.7772 68.104 16.1511 67.994 16.4777C67.8844 16.8044 67.7242 17.0806 67.5136 17.3065C67.3026 17.5293 67.0495 17.7002 66.7532 17.8193C66.4574 17.9353 66.1228 17.9932 65.7507 17.9932C65.4025 17.9932 65.0837 17.9353 64.7939 17.8193C64.5036 17.7002 64.2517 17.5293 64.0382 17.3065C63.8276 17.0806 63.6644 16.8044 63.5484 16.4777C63.4325 16.1511 63.3745 15.7772 63.3745 15.3559C63.3745 14.7974 63.4704 14.3243 63.6626 13.9366C63.8583 13.5459 64.1358 13.2483 64.4959 13.0437C64.8561 12.8392 65.2853 12.737 65.7827 12.737C66.2499 12.737 66.6616 12.8392 67.0188 13.0437C67.376 13.2483 67.6556 13.5459 67.8567 13.9366C68.0584 14.3273 68.1589 14.8004 68.1589 15.3559ZM64.4823 15.3559C64.4823 15.7253 64.5266 16.0412 64.6153 16.3037C64.7069 16.5663 64.8471 16.7677 65.0364 16.9081C65.2256 17.0455 65.4699 17.1141 65.7691 17.1141C66.0683 17.1141 66.3121 17.0455 66.5013 16.9081C66.6906 16.7677 66.8295 16.5663 66.9182 16.3037C67.0068 16.0412 67.0512 15.7253 67.0512 15.3559C67.0512 14.9866 67.0068 14.6738 66.9182 14.4173C66.8295 14.1579 66.6906 13.961 66.5013 13.8267C66.3121 13.6893 66.0666 13.6207 65.7644 13.6207C65.3186 13.6207 64.9938 13.7702 64.7892 14.0694C64.5846 14.3685 64.4823 14.7974 64.4823 15.3559ZM72.0372 12.737C72.6079 12.737 73.0521 12.885 73.3696 13.1811C73.6901 13.4741 73.8504 13.9458 73.8504 14.5959V17.9017H72.7742V14.7974C72.7742 14.4036 72.6936 14.1091 72.5316 13.9137C72.3697 13.7153 72.1195 13.6161 71.7806 13.6161C71.2892 13.6161 70.9473 13.7672 70.7551 14.0694C70.5659 14.3716 70.4712 14.8096 70.4712 15.3834V17.9017H69.3954V12.8331H70.233L70.3843 13.5199H70.444C70.5535 13.3429 70.6895 13.1979 70.8514 13.0849C71.016 12.969 71.1992 12.882 71.4008 12.824C71.605 12.766 71.8173 12.737 72.0372 12.737ZM82.1286 17.9017H77.3165V17.1462L80.7229 12.1417H77.4218V11.2077H82.037V11.9586L78.6305 16.9676H82.1286V17.9017ZM85.2145 12.737C85.6663 12.737 86.0538 12.8301 86.3773 13.0163C86.7008 13.2025 86.9497 13.4665 87.1236 13.8084C87.2975 14.1503 87.3849 14.5593 87.3849 15.0355V15.6124H84.001C84.0134 16.1038 84.1447 16.4823 84.3949 16.7479C84.6481 17.0134 85.0023 17.1462 85.457 17.1462C85.7806 17.1462 86.0708 17.1157 86.327 17.0546C86.5866 16.9905 86.8538 16.8974 87.1283 16.7753V17.6499C86.8751 17.7689 86.6168 17.8559 86.3547 17.9108C86.0921 17.9658 85.7776 17.9932 85.4114 17.9932C84.9136 17.9932 84.4759 17.8971 84.0974 17.7048C83.7219 17.5095 83.4273 17.2195 83.2134 16.8349C83.0028 16.4502 82.8975 15.9726 82.8975 15.4018C82.8975 14.834 82.9939 14.3517 83.1861 13.9549C83.3783 13.5581 83.6486 13.2559 83.9964 13.0483C84.3446 12.8408 84.7504 12.737 85.2145 12.737ZM85.2145 13.5474C84.8757 13.5474 84.6007 13.6573 84.3902 13.8771C84.1826 14.0968 84.0607 14.4189 84.0241 14.8431H86.3317C86.3287 14.5898 86.2856 14.3655 86.2034 14.1701C86.1241 13.9747 86.0018 13.8221 85.8372 13.7122C85.6753 13.6023 85.4677 13.5474 85.2145 13.5474ZM91.1668 12.737C91.2521 12.737 91.3454 12.7416 91.446 12.7507C91.5466 12.7599 91.6335 12.7721 91.7068 12.7874L91.6063 13.7947C91.5423 13.7763 91.4626 13.7626 91.368 13.7534C91.2764 13.7443 91.1941 13.7397 91.1208 13.7397C90.9286 13.7397 90.7453 13.7717 90.5714 13.8358C90.3975 13.8969 90.2432 13.9915 90.1089 14.1197C89.9747 14.2449 89.8694 14.4021 89.7931 14.5913C89.7168 14.7806 89.6784 15.0003 89.6784 15.2507V17.9017H88.5979V12.8331H89.4406L89.5872 13.726H89.6375C89.7381 13.5459 89.8634 13.3811 90.013 13.2315C90.1626 13.0819 90.3335 12.9629 90.5258 12.8743C90.721 12.7828 90.9345 12.737 91.1668 12.737ZM97.1327 15.3559C97.1327 15.7772 97.0778 16.1511 96.9678 16.4777C96.8578 16.8044 96.6976 17.0806 96.487 17.3065C96.2765 17.5293 96.0233 17.7002 95.727 17.8193C95.4308 17.9353 95.0966 17.9932 94.7241 17.9932C94.3763 17.9932 94.0575 17.9353 93.7672 17.8193C93.4774 17.7002 93.2255 17.5293 93.012 17.3065C92.8014 17.0806 92.6377 16.8044 92.5218 16.4777C92.4059 16.1511 92.3479 15.7772 92.3479 15.3559C92.3479 14.7974 92.4442 14.3243 92.6365 13.9366C92.8317 13.5459 93.1096 13.2483 93.4697 13.0437C93.8299 12.8392 94.2587 12.737 94.7565 12.737C95.2232 12.737 95.6354 12.8392 95.9926 13.0437C96.3498 13.2483 96.6289 13.5459 96.8306 13.9366C97.0317 14.3273 97.1327 14.8004 97.1327 15.3559ZM93.4561 15.3559C93.4561 15.7253 93.5004 16.0412 93.5887 16.3037C93.6803 16.5663 93.8209 16.7677 94.0102 16.9081C94.1994 17.0455 94.4432 17.1141 94.7425 17.1141C95.0417 17.1141 95.2859 17.0455 95.4751 16.9081C95.6644 16.7677 95.8033 16.5663 95.892 16.3037C95.9802 16.0412 96.0246 15.7253 96.0246 15.3559C96.0246 14.9866 95.9802 14.6738 95.892 14.4173C95.8033 14.1579 95.6644 13.961 95.4751 13.8267C95.2859 13.6893 95.0404 13.6207 94.7382 13.6207C94.2924 13.6207 93.9671 13.7702 93.7626 14.0694C93.5584 14.3685 93.4561 14.7974 93.4561 15.3559ZM100.97 12.737C101.571 12.737 102.053 12.9567 102.416 13.3963C102.783 13.8358 102.966 14.4891 102.966 15.3559C102.966 15.9298 102.88 16.4136 102.71 16.8074C102.542 17.1981 102.305 17.4942 102 17.6956C101.698 17.8941 101.345 17.9932 100.942 17.9932C100.686 17.9932 100.463 17.9597 100.274 17.8925C100.084 17.8254 99.9224 17.7384 99.7882 17.6315C99.6539 17.5217 99.5409 17.4026 99.4493 17.2744H99.3854C99.4007 17.3965 99.4144 17.5324 99.4267 17.6819C99.4416 17.8284 99.4493 17.9627 99.4493 18.0848V20.1498H98.3688V12.8331H99.2481L99.399 13.5337H99.4493C99.5439 13.3902 99.6586 13.2574 99.7929 13.1353C99.9301 13.0132 100.095 12.9171 100.287 12.8469C100.482 12.7736 100.71 12.737 100.97 12.737ZM100.681 13.6161C100.385 13.6161 100.147 13.6756 99.9667 13.7947C99.7899 13.9106 99.6599 14.0862 99.5776 14.3212C99.4983 14.5562 99.4557 14.8508 99.4493 15.2049V15.3559C99.4493 15.7314 99.4877 16.0504 99.564 16.3129C99.6432 16.5724 99.7728 16.7708 99.9531 16.9081C100.136 17.0424 100.384 17.1096 100.695 17.1096C100.957 17.1096 101.174 17.0378 101.345 16.8944C101.519 16.7509 101.649 16.5464 101.734 16.2809C101.82 16.0153 101.862 15.7024 101.862 15.3422C101.862 14.7958 101.765 14.3716 101.569 14.0694C101.377 13.7672 101.081 13.6161 100.681 13.6161ZM107.618 16.4548C107.618 16.7876 107.537 17.0684 107.375 17.2973C107.213 17.5262 106.977 17.7002 106.665 17.8193C106.357 17.9353 105.979 17.9932 105.53 17.9932C105.176 17.9932 104.871 17.9673 104.614 17.9154C104.361 17.8666 104.121 17.7903 103.895 17.6865V16.757C104.137 16.87 104.406 16.9676 104.706 17.0501C105.008 17.1325 105.293 17.1737 105.562 17.1737C105.916 17.1737 106.171 17.1187 106.327 17.0089C106.482 16.8959 106.56 16.7463 106.56 16.5601C106.56 16.4502 106.528 16.3526 106.464 16.2671C106.403 16.1786 106.287 16.0885 106.116 15.997C105.948 15.9023 105.701 15.7894 105.374 15.6581C105.054 15.5299 104.784 15.4018 104.564 15.2736C104.344 15.1453 104.177 14.9912 104.065 14.8111C103.952 14.6279 103.895 14.3945 103.895 14.1106C103.895 13.6619 104.072 13.3215 104.426 13.0896C104.784 12.8545 105.255 12.737 105.841 12.737C106.153 12.737 106.445 12.769 106.72 12.8331C106.998 12.8942 107.27 12.9842 107.535 13.1033L107.196 13.9137C106.968 13.813 106.737 13.7306 106.505 13.6665C106.276 13.5993 106.043 13.5657 105.804 13.5657C105.527 13.5657 105.315 13.6084 105.168 13.6939C105.025 13.7794 104.953 13.9015 104.953 14.0602C104.953 14.1793 104.988 14.28 105.058 14.3624C105.128 14.4448 105.249 14.5272 105.42 14.6097C105.594 14.692 105.835 14.7943 106.143 14.9164C106.445 15.0324 106.707 15.1545 106.926 15.2827C107.149 15.4079 107.32 15.562 107.439 15.7451C107.558 15.9283 107.618 16.1648 107.618 16.4548Z" fill="#292929"/>
        <mask id="mask0_541_68" style="mask-type:luminance" maskUnits="userSpaceOnUse" x="116" y="8" width="12" height="12">
            <path d="M127.015 8.95117H116.785V19.1807H127.015V8.95117Z" fill="white"/>
        </mask>
        <g mask="url(#mask0_541_68)">
            <path d="M119.342 15.3444C118.988 15.3444 118.668 15.4893 118.438 15.7194C117.935 16.2224 117.637 18.328 117.637 18.328C117.637 18.328 119.742 18.0296 120.245 17.5266C120.475 17.2965 120.62 16.9768 120.62 16.623C120.62 15.9155 120.049 15.3444 119.342 15.3444ZM119.644 16.9257C119.525 17.045 118.719 17.2496 118.719 17.2496C118.719 17.2496 118.92 16.4483 119.043 16.3247C119.116 16.2437 119.222 16.1968 119.342 16.1968C119.576 16.1968 119.768 16.3886 119.768 16.623C119.768 16.7424 119.721 16.8489 119.644 16.9257ZM124.209 14.7689C126.92 12.0581 126.016 9.94829 126.016 9.94829C126.016 9.94829 123.907 9.04468 121.196 11.7555L120.134 11.5424C119.857 11.487 119.568 11.5765 119.363 11.7768L117.637 13.5073L119.768 14.4194L121.545 16.1968L122.457 18.328L124.184 16.6017C124.384 16.4014 124.473 16.1116 124.418 15.8303L124.209 14.7689ZM119.943 13.567L119.129 13.2175L119.968 12.3778L120.582 12.5014C120.339 12.8552 120.122 13.226 119.943 13.567ZM122.747 16.8362L122.398 16.0221C122.739 15.843 123.11 15.6257 123.459 15.3827L123.583 15.9965L122.747 16.8362ZM123.604 14.168C123.041 14.7306 122.163 15.1909 121.882 15.3316L120.633 14.0827C120.77 13.8057 121.23 12.9276 121.797 12.3607C123.791 10.366 125.305 10.6601 125.305 10.6601C125.305 10.6601 125.599 12.1732 123.604 14.168ZM123.178 13.6394C123.647 13.6394 124.03 13.2558 124.03 12.787C124.03 12.3181 123.647 11.9345 123.178 11.9345C122.709 11.9345 122.325 12.3181 122.325 12.787C122.325 13.2558 122.709 13.6394 123.178 13.6394Z" fill="#292929"/>
        </g>
    </g>
    <defs>
        <clipPath id="clip0_541_68">
            <rect width="156" height="28.1311" fill="white"/>
        </clipPath>
    </defs>
</svg>
