<svg width="197" height="36" viewBox="0 0 197 36" fill="none"
    xmlns="http://www.w3.org/2000/svg">
    <g clip-path="url(#clip0_541_68)">
        <path d="M179.238 0H17.7623C7.95245 0 0 7.95245 0 17.7623C0 27.5721 7.95245 35.5246 17.7623 35.5246H179.238C189.048 35.5246 197 27.5721 197 17.7623C197 7.95245 189.048 0 179.238 0Z" fill="#7CC6BB"/>
        <path d="M44.5742 18.2986C44.5742 19.2507 44.3968 20.0466 44.0422 20.6865C43.6876 21.3225 43.173 21.8024 42.4984 22.1262C41.8239 22.4462 41.0105 22.6061 40.0584 22.6061H37.7109V14.1528H40.3128C41.1878 14.1528 41.9434 14.3109 42.5794 14.627C43.2154 14.9392 43.7068 15.4037 44.0538 16.0204C44.4007 16.6333 44.5742 17.3927 44.5742 18.2986ZM43.1287 18.339C43.1287 17.6452 43.0188 17.0747 42.7991 16.6276C42.5832 16.1804 42.2633 15.8489 41.8393 15.633C41.4191 15.4133 40.9007 15.3035 40.2839 15.3035H39.0986V21.4439H40.0816C41.103 21.4439 41.8663 21.1838 42.3712 20.6634C42.8762 20.143 43.1287 19.3682 43.1287 18.339ZM48.8066 16.084C49.3771 16.084 49.8666 16.2016 50.2752 16.4368C50.6838 16.6719 50.9979 17.0053 51.2177 17.437C51.4374 17.8688 51.5473 18.3853 51.5473 18.9866V19.7151H47.2744C47.2898 20.3357 47.4555 20.8137 47.7716 21.1491C48.0915 21.4844 48.5387 21.6521 49.113 21.6521C49.5216 21.6521 49.8878 21.6135 50.2116 21.5365C50.5392 21.4555 50.8766 21.338 51.2235 21.1838V22.2881C50.9035 22.4385 50.5778 22.5483 50.2463 22.6177C49.9148 22.6871 49.5177 22.7218 49.0552 22.7218C48.4269 22.7218 47.8738 22.6004 47.3958 22.3575C46.9217 22.1108 46.5497 21.7446 46.2798 21.2589C46.0139 20.7732 45.8809 20.17 45.8809 19.4492C45.8809 18.7322 46.0023 18.1232 46.2452 17.622C46.488 17.1209 46.8291 16.7394 47.2686 16.4772C47.708 16.2151 48.2207 16.084 48.8066 16.084ZM48.8066 17.1075C48.3787 17.1075 48.0318 17.2462 47.7658 17.5238C47.5037 17.8013 47.3495 18.208 47.3033 18.7438H50.2174C50.2135 18.4238 50.1596 18.1405 50.0555 17.8938C49.9553 17.6471 49.8011 17.4544 49.5929 17.3156C49.3886 17.1769 49.1265 17.1075 48.8066 17.1075ZM56.3638 16.084C57.1232 16.084 57.732 16.3616 58.1906 16.9167C58.6535 17.4717 58.8844 18.2966 58.8844 19.3913C58.8844 20.116 58.7767 20.727 58.5609 21.2242C58.3488 21.7176 58.0501 22.0915 57.6647 22.3459C57.2831 22.5965 56.838 22.7218 56.3288 22.7218C56.0053 22.7218 55.7238 22.6794 55.4848 22.5946C55.2458 22.5098 55.0413 22.3999 54.8717 22.265C54.7022 22.1262 54.5595 21.9759 54.4438 21.814H54.3631C54.3825 21.9682 54.3997 22.1397 54.4153 22.3286C54.4341 22.5136 54.4438 22.6832 54.4438 22.8374V25.4451H53.0795V16.2055H54.1898L54.3803 17.0901H54.4438C54.5633 16.909 54.7081 16.7412 54.8777 16.5871C55.051 16.4329 55.2593 16.3115 55.502 16.2228C55.7491 16.1303 56.036 16.084 56.3638 16.084ZM55.9994 17.1942C55.6253 17.1942 55.3249 17.2694 55.0973 17.4197C54.8739 17.5662 54.7103 17.7878 54.6058 18.0846C54.5057 18.3814 54.4519 18.7534 54.4438 19.2006V19.3913C54.4438 19.8655 54.4923 20.2683 54.5886 20.5998C54.6887 20.9274 54.8529 21.178 55.08 21.3514C55.3115 21.521 55.6237 21.6059 56.0166 21.6059C56.3482 21.6059 56.6221 21.5153 56.838 21.3341C57.0576 21.1529 57.2212 20.8947 57.3294 20.5593C57.437 20.2239 57.4914 19.8289 57.4914 19.374C57.4914 18.684 57.3676 18.1482 57.1211 17.7666C56.8783 17.385 56.5043 17.1942 55.9994 17.1942ZM61.8216 22.6061H60.4572V13.6094H61.8216V22.6061ZM69.4309 19.3913C69.4309 19.9233 69.3615 20.3955 69.2226 20.8079C69.0843 21.2204 68.8819 21.5693 68.6154 21.8545C68.3495 22.1359 68.0298 22.3517 67.6557 22.502C67.2822 22.6486 66.8597 22.7218 66.3898 22.7218C65.95 22.7218 65.5474 22.6486 65.1814 22.502C64.8148 22.3517 64.4967 22.1359 64.2271 21.8545C63.9612 21.5693 63.755 21.2204 63.6086 20.8079C63.4622 20.3955 63.389 19.9233 63.389 19.3913C63.389 18.6859 63.5101 18.0885 63.7529 17.5989C63.9999 17.1055 64.3503 16.7297 64.8052 16.4714C65.26 16.2132 65.802 16.084 66.4301 16.084C67.0201 16.084 67.54 16.2132 67.9911 16.4714C68.4421 16.7297 68.7947 17.1055 69.0493 17.5989C69.3039 18.0923 69.4309 18.6898 69.4309 19.3913ZM64.7879 19.3913C64.7879 19.8578 64.8439 20.2567 64.9559 20.5882C65.0716 20.9197 65.2487 21.1741 65.4877 21.3514C65.7266 21.5249 66.0351 21.6116 66.4129 21.6116C66.7908 21.6116 67.0987 21.5249 67.3376 21.3514C67.5766 21.1741 67.7521 20.9197 67.864 20.5882C67.976 20.2567 68.032 19.8578 68.032 19.3913C68.032 18.9249 67.976 18.5299 67.864 18.206C67.7521 17.8784 67.5766 17.6298 67.3376 17.4602C67.0987 17.2867 66.7886 17.2 66.407 17.2C65.844 17.2 65.4338 17.3889 65.1755 17.7666C64.9171 18.1444 64.7879 18.6859 64.7879 19.3913ZM70.0267 16.2055H71.5069L72.8192 19.8597C72.8768 20.0254 72.929 20.1893 72.9753 20.3511C73.0253 20.5092 73.0679 20.6653 73.1023 20.8195C73.1411 20.9737 73.1717 21.1279 73.1949 21.282H73.2299C73.2681 21.0816 73.3224 20.8581 73.3919 20.6113C73.4651 20.3608 73.5458 20.1103 73.6346 19.8597L74.8952 16.2055H76.3577L73.6115 23.485C73.4532 23.9013 73.2584 24.2559 73.0275 24.5489C72.7998 24.8457 72.5301 25.0693 72.218 25.2196C71.9058 25.3738 71.5489 25.4509 71.1485 25.4509C70.9552 25.4509 70.7878 25.4393 70.6452 25.4162C70.5026 25.3969 70.3809 25.3757 70.2808 25.3526V24.2656C70.3621 24.2848 70.4638 24.3022 70.5876 24.3176C70.7109 24.333 70.8379 24.3408 70.9692 24.3408C71.212 24.3408 71.4219 24.2925 71.599 24.1962C71.7766 24.0998 71.9268 23.963 72.05 23.7857C72.1738 23.6122 72.2755 23.4137 72.3568 23.1901L72.5824 22.5888L70.0267 16.2055ZM86.0715 19.3913C86.0715 19.9233 86.002 20.3955 85.8632 20.8079C85.7248 21.2204 85.5225 21.5693 85.2566 21.8545C84.9901 22.1359 84.6704 22.3517 84.2963 22.502C83.9228 22.6486 83.5002 22.7218 83.0303 22.7218C82.5906 22.7218 82.188 22.6486 81.822 22.502C81.4554 22.3517 81.1373 22.1359 80.8677 21.8545C80.6018 21.5693 80.3956 21.2204 80.2492 20.8079C80.1028 20.3955 80.0296 19.9233 80.0296 19.3913C80.0296 18.6859 80.1507 18.0885 80.3935 17.5989C80.6405 17.1055 80.9909 16.7297 81.4457 16.4714C81.9006 16.2132 82.4426 16.084 83.0707 16.084C83.6606 16.084 84.1806 16.2132 84.6316 16.4714C85.0827 16.7297 85.4358 17.1055 85.6899 17.5989C85.9444 18.0923 86.0715 18.6898 86.0715 19.3913ZM81.4285 19.3913C81.4285 19.8578 81.4845 20.2567 81.5964 20.5882C81.7122 20.9197 81.8893 21.1741 82.1282 21.3514C82.3672 21.5249 82.6756 21.6116 83.0535 21.6116C83.4313 21.6116 83.7392 21.5249 83.9782 21.3514C84.2172 21.1741 84.3927 20.9197 84.5046 20.5882C84.6166 20.2567 84.6726 19.8578 84.6726 19.3913C84.6726 18.9249 84.6166 18.5299 84.5046 18.206C84.3927 17.8784 84.2172 17.6298 83.9782 17.4602C83.7392 17.2867 83.4292 17.2 83.0476 17.2C82.4846 17.2 82.0744 17.3889 81.8161 17.7666C81.5577 18.1444 81.4285 18.6859 81.4285 19.3913ZM90.969 16.084C91.6897 16.084 92.2506 16.271 92.6516 16.6449C93.0564 17.0149 93.2587 17.6105 93.2587 18.4315V22.6061H91.8997V18.6859C91.8997 18.1887 91.7979 17.8167 91.5934 17.57C91.3889 17.3195 91.0729 17.1942 90.645 17.1942C90.0244 17.1942 89.5927 17.385 89.35 17.7666C89.111 18.1482 88.9915 18.7013 88.9915 19.426V22.6061H87.6329V16.2055H88.6906L88.8817 17.0728H88.957C89.0954 16.8492 89.2671 16.6661 89.4716 16.5235C89.6794 16.377 89.9108 16.2672 90.1654 16.1939C90.4232 16.1206 90.6913 16.084 90.969 16.084ZM103.713 22.6061H97.6358V21.6521L101.937 15.3324H97.7687V14.1528H103.597V15.1011L99.2952 21.4266H103.713V22.6061ZM107.61 16.084C108.18 16.084 108.669 16.2016 109.078 16.4368C109.486 16.6719 109.801 17.0053 110.02 17.437C110.24 17.8688 110.35 18.3853 110.35 18.9866V19.7151H106.077C106.093 20.3357 106.259 20.8137 106.575 21.1491C106.894 21.4844 107.342 21.6521 107.916 21.6521C108.324 21.6521 108.691 21.6135 109.014 21.5365C109.342 21.4555 109.68 21.338 110.026 21.1838V22.2881C109.707 22.4385 109.38 22.5483 109.049 22.6177C108.718 22.6871 108.321 22.7218 107.858 22.7218C107.23 22.7218 106.677 22.6004 106.199 22.3575C105.725 22.1108 105.353 21.7446 105.083 21.2589C104.817 20.7732 104.684 20.17 104.684 19.4492C104.684 18.7322 104.805 18.1232 105.048 17.622C105.291 17.1209 105.632 16.7394 106.071 16.4772C106.511 16.2151 107.023 16.084 107.61 16.084ZM107.61 17.1075C107.182 17.1075 106.835 17.2462 106.569 17.5238C106.306 17.8013 106.153 18.208 106.106 18.7438H109.02C109.017 18.4238 108.962 18.1405 108.858 17.8938C108.758 17.6471 108.604 17.4544 108.396 17.3156C108.191 17.1769 107.929 17.1075 107.61 17.1075ZM115.126 16.084C115.234 16.084 115.352 16.0899 115.479 16.1014C115.606 16.1129 115.716 16.1284 115.808 16.1477L115.681 17.4197C115.6 17.3966 115.5 17.3792 115.38 17.3677C115.265 17.3561 115.161 17.3503 115.068 17.3503C114.825 17.3503 114.594 17.3908 114.374 17.4717C114.155 17.5488 113.96 17.6683 113.79 17.8302C113.621 17.9883 113.488 18.1868 113.391 18.4258C113.295 18.6647 113.247 18.9423 113.247 19.2584V22.6061H111.882V16.2055H112.946L113.132 17.3329H113.195C113.322 17.1055 113.48 16.8974 113.669 16.7085C113.858 16.5196 114.074 16.3693 114.317 16.2575C114.563 16.1418 114.833 16.084 115.126 16.084ZM122.66 19.3913C122.66 19.9233 122.591 20.3955 122.452 20.8079C122.313 21.2204 122.111 21.5693 121.845 21.8545C121.579 22.1359 121.259 22.3517 120.885 22.502C120.511 22.6486 120.089 22.7218 119.619 22.7218C119.179 22.7218 118.777 22.6486 118.41 22.502C118.044 22.3517 117.726 22.1359 117.456 21.8545C117.19 21.5693 116.984 21.2204 116.837 20.8079C116.691 20.3955 116.618 19.9233 116.618 19.3913C116.618 18.6859 116.739 18.0885 116.982 17.5989C117.229 17.1055 117.58 16.7297 118.034 16.4714C118.489 16.2132 119.031 16.084 119.659 16.084C120.249 16.084 120.769 16.2132 121.22 16.4714C121.671 16.7297 122.024 17.1055 122.279 17.5989C122.533 18.0923 122.66 18.6898 122.66 19.3913ZM118.017 19.3913C118.017 19.8578 118.073 20.2567 118.185 20.5882C118.3 20.9197 118.478 21.1741 118.717 21.3514C118.956 21.5249 119.264 21.6116 119.642 21.6116C120.02 21.6116 120.328 21.5249 120.567 21.3514C120.806 21.1741 120.981 20.9197 121.093 20.5882C121.205 20.2567 121.261 19.8578 121.261 19.3913C121.261 18.9249 121.205 18.5299 121.093 18.206C120.981 17.8784 120.806 17.6298 120.567 17.4602C120.328 17.2867 120.018 17.2 119.636 17.2C119.073 17.2 118.663 17.3889 118.404 17.7666C118.146 18.1444 118.017 18.6859 118.017 19.3913ZM127.506 16.084C128.264 16.084 128.874 16.3616 129.332 16.9167C129.795 17.4717 130.026 18.2966 130.026 19.3913C130.026 20.116 129.918 20.727 129.703 21.2242C129.491 21.7176 129.192 22.0915 128.806 22.3459C128.425 22.5965 127.98 22.7218 127.471 22.7218C127.147 22.7218 126.866 22.6794 126.627 22.5946C126.388 22.5098 126.183 22.3999 126.013 22.265C125.844 22.1262 125.701 21.9759 125.586 21.814H125.505C125.524 21.9682 125.541 22.1397 125.557 22.3286C125.576 22.5136 125.586 22.6832 125.586 22.8374V25.4451H124.221V16.2055H125.332L125.522 17.0901H125.586C125.705 16.909 125.85 16.7412 126.019 16.5871C126.193 16.4329 126.401 16.3115 126.644 16.2228C126.89 16.1303 127.178 16.084 127.506 16.084ZM127.141 17.1942C126.767 17.1942 126.467 17.2694 126.239 17.4197C126.016 17.5662 125.851 17.7878 125.748 18.0846C125.647 18.3814 125.594 18.7534 125.586 19.2006V19.3913C125.586 19.8655 125.634 20.2683 125.73 20.5998C125.83 20.9274 125.994 21.178 126.222 21.3514C126.453 21.521 126.765 21.6059 127.158 21.6059C127.49 21.6059 127.763 21.5153 127.98 21.3341C128.199 21.1529 128.363 20.8947 128.471 20.5593C128.579 20.2239 128.633 19.8289 128.633 19.374C128.633 18.684 128.509 18.1482 128.263 17.7666C128.02 17.385 127.646 17.1942 127.141 17.1942ZM135.901 20.779C135.901 21.1992 135.799 21.5538 135.594 21.8429C135.39 22.132 135.091 22.3517 134.698 22.502C134.309 22.6486 133.831 22.7218 133.264 22.7218C132.817 22.7218 132.432 22.689 132.108 22.6235C131.788 22.5618 131.485 22.4654 131.2 22.3344V21.1607C131.505 21.3032 131.845 21.4266 132.223 21.5307C132.605 21.6348 132.966 21.6868 133.305 21.6868C133.752 21.6868 134.074 21.6174 134.27 21.4787C134.467 21.336 134.565 21.1472 134.565 20.912C134.565 20.7732 134.525 20.6499 134.444 20.5419C134.367 20.4302 134.22 20.3165 134.004 20.2008C133.792 20.0813 133.48 19.9387 133.068 19.7729C132.663 19.611 132.322 19.4492 132.044 19.2873C131.767 19.1254 131.556 18.9307 131.414 18.7033C131.271 18.472 131.2 18.1771 131.2 17.8187C131.2 17.252 131.423 16.8222 131.871 16.5293C132.322 16.2324 132.917 16.084 133.657 16.084C134.051 16.084 134.42 16.1245 134.768 16.2055C135.119 16.2825 135.461 16.3963 135.797 16.5466L135.369 17.57C135.08 17.4428 134.789 17.3388 134.496 17.2578C134.207 17.173 133.912 17.1306 133.611 17.1306C133.26 17.1306 132.992 17.1845 132.807 17.2925C132.626 17.4004 132.535 17.5546 132.535 17.755C132.535 17.9054 132.58 18.0326 132.668 18.1367C132.757 18.2407 132.91 18.3448 133.125 18.4489C133.345 18.5529 133.65 18.6821 134.039 18.8363C134.42 18.9827 134.75 19.1369 135.028 19.2989C135.309 19.4569 135.525 19.6515 135.675 19.8828C135.826 20.1141 135.901 20.4128 135.901 20.779Z" fill="#292929"/>
        <mask id="mask0_541_68" style="mask-type:luminance" maskUnits="userSpaceOnUse" x="147" y="11" width="14" height="14">
            <path d="M160.399 11.3037H147.48V24.2217H160.399V11.3037Z" fill="white"/>
        </mask>
        <g mask="url(#mask0_541_68)">
            <path d="M150.712 19.3777C150.265 19.3777 149.861 19.5607 149.571 19.8514C148.935 20.4865 148.559 23.1455 148.559 23.1455C148.559 23.1455 151.218 22.7687 151.853 22.1335C152.143 21.8429 152.326 21.4392 152.326 20.9924C152.326 20.099 151.605 19.3777 150.712 19.3777ZM151.094 21.3746C150.943 21.5253 149.926 21.7837 149.926 21.7837C149.926 21.7837 150.179 20.7718 150.335 20.6157C150.426 20.5134 150.561 20.4542 150.712 20.4542C151.008 20.4542 151.25 20.6964 151.25 20.9924C151.25 21.1432 151.191 21.2777 151.094 21.3746ZM156.858 18.6511C160.282 15.2278 159.141 12.5634 159.141 12.5634C159.141 12.5634 156.476 11.4223 153.053 14.8456L151.713 14.5765C151.363 14.5065 150.997 14.6196 150.739 14.8725L148.559 17.0578L151.25 18.2097L153.494 20.4542L154.646 23.1455L156.826 20.9655C157.079 20.7126 157.192 20.3465 157.122 19.9913L156.858 18.6511ZM151.471 17.1332L150.442 16.6918L151.503 15.6315L152.278 15.7876C151.971 16.2343 151.697 16.7026 151.471 17.1332ZM155.012 21.2616L154.571 20.2335C155.001 20.0074 155.47 19.7329 155.911 19.4261L156.067 20.2012L155.012 21.2616ZM156.094 17.8921C155.384 18.6026 154.275 19.1839 153.92 19.3615L152.343 17.7845C152.515 17.4346 153.096 16.3258 153.812 15.6099C156.331 13.0909 158.242 13.4623 158.242 13.4623C158.242 13.4623 158.613 15.3731 156.094 17.8921ZM155.556 17.2247C156.148 17.2247 156.632 16.7403 156.632 16.1482C156.632 15.5561 156.148 15.0717 155.556 15.0717C154.964 15.0717 154.479 15.5561 154.479 16.1482C154.479 16.7403 154.964 17.2247 155.556 17.2247Z" fill="#292929"/>
        </g>
    </g>
    <defs>
        <clipPath id="clip0_541_68">
            <rect width="197" height="35.5246" fill="white"/>
        </clipPath>
    </defs>
</svg>
