<svg width="278" height="50" viewBox="0 0 278 50" fill="none"
    xmlns="http://www.w3.org/2000/svg">
    <g clip-path="url(#clip0_541_68)">
        <path d="M252.273 0H25C11.1929 0 0 11.1929 0 25C0 38.8071 11.1929 50 25 50H252.273C266.08 50 277.273 38.8071 277.273 25C277.273 11.1929 266.08 0 252.273 0Z" fill="#7CC6BB"/>
        <path d="M62.738 25.7552C62.738 27.0953 62.4884 28.2156 61.9893 29.1162C61.4901 30.0113 60.7659 30.6868 59.8164 31.1425C58.867 31.5928 57.7222 31.818 56.3821 31.818H53.0781V19.9202H56.7402C57.9718 19.9202 59.0352 20.1426 59.9303 20.5875C60.8255 21.027 61.5172 21.6807 62.0056 22.5488C62.4938 23.4114 62.738 24.4802 62.738 25.7552ZM60.7034 25.8122C60.7034 24.8356 60.5488 24.0326 60.2396 23.4033C59.9358 22.7739 59.4855 22.3074 58.8887 22.0035C58.2973 21.6943 57.5676 21.5397 56.6996 21.5397H55.0312V30.1822H56.4147C57.8524 30.1822 58.9267 29.816 59.6374 29.0836C60.3481 28.3512 60.7034 27.2607 60.7034 25.8122ZM68.695 22.6383C69.498 22.6383 70.187 22.8038 70.7621 23.1347C71.3371 23.4657 71.7793 23.935 72.0885 24.5426C72.3978 25.1503 72.5524 25.8772 72.5524 26.7236V27.749H66.5384C66.5601 28.6225 66.7934 29.2952 67.2383 29.7672C67.6886 30.2392 68.3179 30.4752 69.1263 30.4752C69.7014 30.4752 70.2168 30.421 70.6725 30.3125C71.1337 30.1985 71.6084 30.0331 72.0967 29.816V31.3704C71.6464 31.582 71.1879 31.7366 70.7214 31.8343C70.2548 31.9319 69.6959 31.9807 69.0449 31.9807C68.1606 31.9807 67.3821 31.8099 66.7093 31.4681C66.042 31.1209 65.5184 30.6054 65.1387 29.9219C64.7643 29.2382 64.5771 28.3892 64.5771 27.3747C64.5771 26.3655 64.748 25.5083 65.0899 24.803C65.4316 24.0977 65.9118 23.5607 66.5302 23.1917C67.1487 22.8228 67.8703 22.6383 68.695 22.6383ZM68.695 24.0788C68.0927 24.0788 67.6045 24.2741 67.2302 24.6647C66.8612 25.0553 66.6442 25.6277 66.5791 26.3818H70.6807C70.6752 25.9315 70.5993 25.5328 70.4528 25.1855C70.3118 24.8383 70.0947 24.567 69.8018 24.3717C69.5142 24.1764 69.1453 24.0788 68.695 24.0788ZM79.3315 22.6383C80.4005 22.6383 81.2573 23.0289 81.9027 23.8102C82.5543 24.5914 82.8793 25.7525 82.8793 27.2932C82.8793 28.3132 82.7277 29.1731 82.424 29.873C82.1255 30.5675 81.705 31.0937 81.1626 31.4518C80.6255 31.8044 79.999 31.9807 79.2823 31.9807C78.827 31.9807 78.4308 31.9211 78.0944 31.8017C77.758 31.6824 77.4702 31.5278 77.2315 31.3378C76.9929 31.1425 76.7921 30.931 76.6293 30.7031H76.5156C76.5429 30.9201 76.5671 31.1616 76.5891 31.4274C76.6156 31.6878 76.6293 31.9265 76.6293 32.1435V35.8138H74.709V22.8092H76.2717L76.5399 24.0544H76.6293C76.7974 23.7994 77.0012 23.5633 77.2399 23.3463C77.4838 23.1293 77.777 22.9584 78.1187 22.8336C78.4664 22.7035 78.8702 22.6383 79.3315 22.6383ZM78.8187 24.2008C78.2921 24.2008 77.8694 24.3066 77.549 24.5182C77.2346 24.7244 77.0043 25.0363 76.8573 25.4541C76.7164 25.8718 76.6406 26.3953 76.6293 27.0247V27.2932C76.6293 27.9606 76.6974 28.5275 76.833 28.9941C76.974 29.4553 77.205 29.8079 77.5247 30.052C77.8505 30.2907 78.2899 30.4101 78.8429 30.4101C79.3096 30.4101 79.6952 30.2826 79.999 30.0276C80.308 29.7726 80.5384 29.4091 80.6906 28.9372C80.8421 28.4651 80.9187 27.9091 80.9187 27.2688C80.9187 26.2977 80.7444 25.5436 80.3974 25.0065C80.0558 24.4694 79.5293 24.2008 78.8187 24.2008ZM87.0134 31.818H85.0929V19.1553H87.0134V31.818ZM97.7232 27.2932C97.7232 28.0419 97.6255 28.7066 97.43 29.2871C97.2353 29.8676 96.9505 30.3586 96.5755 30.76C96.2012 31.1561 95.7512 31.4599 95.2247 31.6715C94.699 31.8777 94.1043 31.9807 93.4429 31.9807C92.824 31.9807 92.2573 31.8777 91.7421 31.6715C91.2262 31.4599 90.7785 31.1561 90.399 30.76C90.0247 30.3586 89.7346 29.8676 89.5285 29.2871C89.3224 28.7066 89.2194 28.0419 89.2194 27.2932C89.2194 26.3004 89.3899 25.4595 89.7315 24.7705C90.0793 24.076 90.5724 23.5471 91.2126 23.1835C91.8527 22.82 92.6156 22.6383 93.4997 22.6383C94.33 22.6383 95.0618 22.82 95.6967 23.1835C96.3315 23.5471 96.8277 24.076 97.1861 24.7705C97.5444 25.4649 97.7232 26.3059 97.7232 27.2932ZM91.1883 27.2932C91.1883 27.9497 91.2671 28.5113 91.4247 28.9778C91.5876 29.4444 91.8368 29.8025 92.1732 30.052C92.5096 30.2962 92.9437 30.4182 93.4755 30.4182C94.0073 30.4182 94.4406 30.2962 94.777 30.052C95.1134 29.8025 95.3603 29.4444 95.5179 28.9778C95.6755 28.5113 95.7543 27.9497 95.7543 27.2932C95.7543 26.6368 95.6755 26.0807 95.5179 25.625C95.3603 25.1638 95.1134 24.8139 94.777 24.5752C94.4406 24.331 94.0043 24.209 93.4671 24.209C92.6747 24.209 92.0974 24.4748 91.7338 25.0065C91.3702 25.5382 91.1883 26.3004 91.1883 27.2932ZM98.5618 22.8092H100.645L102.492 27.9525C102.573 28.1857 102.647 28.4163 102.712 28.6441C102.782 28.8666 102.842 29.0863 102.891 29.3034C102.945 29.5203 102.988 29.7374 103.021 29.9544H103.07C103.124 29.6722 103.2 29.3576 103.298 29.0103C103.401 28.6578 103.515 28.3051 103.64 27.9525L105.414 22.8092H107.472L103.607 33.055C103.385 33.6409 103.11 34.14 102.785 34.5524C102.465 34.9701 102.085 35.2848 101.646 35.4964C101.207 35.7134 100.704 35.8219 100.141 35.8219C99.8686 35.8219 99.633 35.8057 99.4323 35.7731C99.2315 35.746 99.0603 35.7161 98.9194 35.6835V34.1536C99.0338 34.1807 99.177 34.2051 99.3512 34.2269C99.5247 34.2485 99.7035 34.2594 99.8884 34.2594C100.23 34.2594 100.525 34.1916 100.775 34.056C101.025 33.9203 101.236 33.7277 101.41 33.4781C101.584 33.234 101.727 32.9546 101.841 32.64L102.159 31.7936L98.5618 22.8092ZM121.144 27.2932C121.144 28.0419 121.047 28.7066 120.851 29.2871C120.657 29.8676 120.372 30.3586 119.997 30.76C119.622 31.1561 119.172 31.4599 118.646 31.6715C118.12 31.8777 117.525 31.9807 116.864 31.9807C116.245 31.9807 115.678 31.8777 115.163 31.6715C114.647 31.4599 114.2 31.1561 113.82 30.76C113.446 30.3586 113.156 29.8676 112.95 29.2871C112.744 28.7066 112.641 28.0419 112.641 27.2932C112.641 26.3004 112.811 25.4595 113.153 24.7705C113.5 24.076 113.994 23.5471 114.634 23.1835C115.274 22.82 116.037 22.6383 116.921 22.6383C117.751 22.6383 118.483 22.82 119.118 23.1835C119.753 23.5471 120.25 24.076 120.607 24.7705C120.966 25.4649 121.144 26.3059 121.144 27.2932ZM114.61 27.2932C114.61 27.9497 114.688 28.5113 114.846 28.9778C115.009 29.4444 115.258 29.8025 115.594 30.052C115.931 30.2962 116.365 30.4182 116.897 30.4182C117.428 30.4182 117.862 30.2962 118.198 30.052C118.535 29.8025 118.782 29.4444 118.939 28.9778C119.097 28.5113 119.175 27.9497 119.175 27.2932C119.175 26.6368 119.097 26.0807 118.939 25.625C118.782 25.1638 118.535 24.8139 118.198 24.5752C117.862 24.331 117.425 24.209 116.888 24.209C116.096 24.209 115.519 24.4748 115.155 25.0065C114.791 25.5382 114.61 26.3004 114.61 27.2932ZM128.038 22.6383C129.052 22.6383 129.841 22.9014 130.406 23.4277C130.975 23.9485 131.26 24.7868 131.26 25.9423V31.818H129.347V26.3004C129.347 25.6006 129.204 25.077 128.916 24.7298C128.629 24.3772 128.184 24.2008 127.582 24.2008C126.708 24.2008 126.1 24.4694 125.759 25.0065C125.422 25.5436 125.254 26.3221 125.254 27.3421V31.818H123.342V22.8092H124.831L125.1 24.0299H125.206C125.4 23.7153 125.642 23.4575 125.93 23.2568C126.222 23.0507 126.548 22.896 126.907 22.7929C127.269 22.6898 127.647 22.6383 128.038 22.6383ZM145.974 31.818H137.421V30.4752L143.475 21.5803H137.608V19.9202H145.811V21.2548L139.757 30.1578H145.974V31.818ZM151.459 22.6383C152.262 22.6383 152.95 22.8038 153.525 23.1347C154.1 23.4657 154.543 23.935 154.852 24.5426C155.161 25.1503 155.316 25.8772 155.316 26.7236V27.749H149.302C149.324 28.6225 149.557 29.2952 150.002 29.7672C150.452 30.2392 151.082 30.4752 151.89 30.4752C152.465 30.4752 152.981 30.421 153.436 30.3125C153.897 30.1985 154.372 30.0331 154.86 29.816V31.3704C154.41 31.582 153.951 31.7366 153.485 31.8343C153.019 31.9319 152.46 31.9807 151.809 31.9807C150.924 31.9807 150.146 31.8099 149.473 31.4681C148.806 31.1209 148.282 30.6054 147.902 29.9219C147.528 29.2382 147.341 28.3892 147.341 27.3747C147.341 26.3655 147.512 25.5083 147.853 24.803C148.195 24.0977 148.675 23.5607 149.294 23.1917C149.913 22.8228 150.634 22.6383 151.459 22.6383ZM151.459 24.0788C150.857 24.0788 150.368 24.2741 149.994 24.6647C149.625 25.0553 149.408 25.6277 149.343 26.3818H153.444C153.439 25.9315 153.363 25.5328 153.216 25.1855C153.075 24.8383 152.858 24.567 152.566 24.3717C152.278 24.1764 151.909 24.0788 151.459 24.0788ZM162.038 22.6383C162.19 22.6383 162.356 22.6465 162.535 22.6627C162.713 22.679 162.868 22.7007 162.998 22.7278L162.819 24.5182C162.706 24.4857 162.564 24.4613 162.396 24.445C162.233 24.4287 162.087 24.4206 161.957 24.4206C161.615 24.4206 161.289 24.4775 160.98 24.5914C160.671 24.7 160.397 24.8682 160.158 25.096C159.919 25.3185 159.732 25.5978 159.597 25.9342C159.461 26.2706 159.393 26.6612 159.393 27.1061V31.818H157.472V22.8092H158.97L159.231 24.3961H159.32C159.499 24.076 159.722 23.7831 159.988 23.5172C160.253 23.2514 160.557 23.0398 160.899 22.8825C161.246 22.7197 161.625 22.6383 162.038 22.6383ZM172.642 27.2932C172.642 28.0419 172.544 28.7066 172.349 29.2871C172.153 29.8676 171.869 30.3586 171.494 30.76C171.12 31.1561 170.67 31.4599 170.144 31.6715C169.617 31.8777 169.023 31.9807 168.361 31.9807C167.743 31.9807 167.176 31.8777 166.66 31.6715C166.145 31.4599 165.697 31.1561 165.318 30.76C164.944 30.3586 164.653 29.8676 164.447 29.2871C164.241 28.7066 164.138 28.0419 164.138 27.2932C164.138 26.3004 164.309 25.4595 164.65 24.7705C164.997 24.076 165.491 23.5471 166.132 23.1835C166.772 22.82 167.534 22.6383 168.419 22.6383C169.248 22.6383 169.981 22.82 170.616 23.1835C171.25 23.5471 171.747 24.076 172.105 24.7705C172.463 25.4649 172.642 26.3059 172.642 27.2932ZM166.107 27.2932C166.107 27.9497 166.186 28.5113 166.343 28.9778C166.506 29.4444 166.756 29.8025 167.092 30.052C167.428 30.2962 167.862 30.4182 168.394 30.4182C168.925 30.4182 169.36 30.2962 169.696 30.052C170.032 29.8025 170.279 29.4444 170.437 28.9778C170.594 28.5113 170.672 27.9497 170.672 27.2932C170.672 26.6368 170.594 26.0807 170.437 25.625C170.279 25.1638 170.032 24.8139 169.696 24.5752C169.36 24.331 168.923 24.209 168.386 24.209C167.594 24.209 167.016 24.4748 166.652 25.0065C166.289 25.5382 166.107 26.3004 166.107 27.2932ZM179.462 22.6383C180.53 22.6383 181.388 23.0289 182.033 23.8102C182.685 24.5914 183.01 25.7525 183.01 27.2932C183.01 28.3132 182.858 29.1731 182.554 29.873C182.256 30.5675 181.835 31.0937 181.293 31.4518C180.756 31.8044 180.129 31.9807 179.413 31.9807C178.957 31.9807 178.561 31.9211 178.225 31.8017C177.888 31.6824 177.6 31.5278 177.362 31.3378C177.123 31.1425 176.922 30.931 176.76 30.7031H176.646C176.673 30.9201 176.697 31.1616 176.719 31.4274C176.746 31.6878 176.76 31.9265 176.76 32.1435V35.8138H174.839V22.8092H176.402L176.67 24.0544H176.76C176.928 23.7994 177.132 23.5633 177.37 23.3463C177.614 23.1293 177.907 22.9584 178.249 22.8336C178.596 22.7035 179 22.6383 179.462 22.6383ZM178.949 24.2008C178.422 24.2008 178 24.3066 177.679 24.5182C177.365 24.7244 177.134 25.0363 176.988 25.4541C176.847 25.8718 176.771 26.3953 176.76 27.0247V27.2932C176.76 27.9606 176.828 28.5275 176.963 28.9941C177.104 29.4553 177.335 29.8079 177.655 30.052C177.981 30.2907 178.42 30.4101 178.973 30.4101C179.44 30.4101 179.825 30.2826 180.129 30.0276C180.438 29.7726 180.669 29.4091 180.821 28.9372C180.972 28.4651 181.048 27.9091 181.048 27.2688C181.048 26.2977 180.875 25.5436 180.528 25.0065C180.186 24.4694 179.66 24.2008 178.949 24.2008ZM191.278 29.2464C191.278 29.8378 191.135 30.3369 190.847 30.7438C190.559 31.1507 190.138 31.4599 189.585 31.6715C189.038 31.8777 188.365 31.9807 187.567 31.9807C186.938 31.9807 186.395 31.9347 185.939 31.8424C185.489 31.7556 185.063 31.62 184.662 31.4355V29.7835C185.091 29.9842 185.57 30.1578 186.102 30.3044C186.639 30.4508 187.147 30.5241 187.624 30.5241C188.253 30.5241 188.707 30.4264 188.983 30.2311C189.26 30.0303 189.398 29.7645 189.398 29.4335C189.398 29.2382 189.341 29.0647 189.227 28.9127C189.119 28.7554 188.913 28.5953 188.609 28.4325C188.31 28.2644 187.871 28.0637 187.291 27.8303C186.721 27.6025 186.241 27.3747 185.85 27.1468C185.46 26.9189 185.163 26.6449 184.963 26.3248C184.762 25.9993 184.662 25.5843 184.662 25.0797C184.662 24.2822 184.976 23.6772 185.606 23.265C186.241 22.8472 187.078 22.6383 188.12 22.6383C188.674 22.6383 189.194 22.6953 189.683 22.8092C190.177 22.9177 190.66 23.0778 191.132 23.2894L190.529 24.7298C190.122 24.5507 189.713 24.4043 189.3 24.2903C188.894 24.171 188.478 24.1113 188.055 24.1113C187.562 24.1113 187.185 24.1872 186.924 24.3391C186.669 24.4911 186.541 24.7081 186.541 24.9902C186.541 25.2018 186.604 25.3808 186.728 25.5273C186.853 25.6738 187.068 25.8203 187.372 25.9668C187.681 26.1132 188.11 26.295 188.657 26.512C189.194 26.7182 189.659 26.9352 190.049 27.1631C190.445 27.3855 190.749 27.6594 190.96 27.985C191.172 28.3105 191.278 28.731 191.278 29.2464Z" fill="#292929"/>
        <mask id="mask0_541_68" style="mask-type:luminance" maskUnits="userSpaceOnUse" x="207" y="15" width="19" height="20">
            <path d="M225.756 15.9092H207.574V34.091H225.756V15.9092Z" fill="white"/>
        </mask>
        <g mask="url(#mask0_541_68)">
            <path d="M212.12 27.2727C211.491 27.2727 210.923 27.5303 210.514 27.9393C209.62 28.8333 209.09 32.5757 209.09 32.5757C209.09 32.5757 212.832 32.0454 213.726 31.1515C214.135 30.7424 214.393 30.1742 214.393 29.5454C214.393 28.2878 213.378 27.2727 212.12 27.2727ZM212.658 30.0833C212.446 30.2954 211.014 30.659 211.014 30.659C211.014 30.659 211.37 29.2348 211.59 29.0151C211.719 28.8712 211.908 28.7878 212.12 28.7878C212.537 28.7878 212.878 29.1287 212.878 29.5454C212.878 29.7575 212.794 29.9469 212.658 30.0833ZM220.772 26.25C225.59 21.4318 223.984 17.6818 223.984 17.6818C223.984 17.6818 220.234 16.0757 215.416 20.8939L213.529 20.5151C213.037 20.4166 212.522 20.5757 212.158 20.9318L209.09 24.0075L212.878 25.6287L216.037 28.7878L217.658 32.5757L220.726 29.5075C221.082 29.1515 221.241 28.6363 221.143 28.1363L220.772 26.25ZM213.188 24.1136L211.741 23.4924L213.234 22L214.325 22.2197C213.893 22.8484 213.507 23.5075 213.188 24.1136ZM218.173 29.9242L217.552 28.4772C218.158 28.159 218.817 27.7727 219.438 27.3409L219.658 28.4318L218.173 29.9242ZM219.696 25.1818C218.696 26.1818 217.135 27 216.635 27.25L214.416 25.0303C214.658 24.5378 215.476 22.9772 216.484 21.9697C220.029 18.4242 222.719 18.9469 222.719 18.9469C222.719 18.9469 223.241 21.6363 219.696 25.1818ZM218.938 24.2424C219.772 24.2424 220.453 23.5606 220.453 22.7272C220.453 21.8939 219.772 21.2121 218.938 21.2121C218.105 21.2121 217.423 21.8939 217.423 22.7272C217.423 23.5606 218.105 24.2424 218.938 24.2424Z" fill="#292929"/>
        </g>
    </g>
    <defs>
        <clipPath id="clip0_541_68">
            <rect width="277.273" height="50" fill="white"/>
        </clipPath>
    </defs>
</svg>
